<svg xmlns="http://www.w3.org/2000/svg" viewBox="0 0 135.47 135.47"><g fill="gray"><path d="M65.63 65.86a4.48 4.48 0 1 0-.01-8.96 4.48 4.48 0 0 0 0 8.96zm0-6.33a1.85 1.85 0 1 1 0 3.7 1.85 1.85 0 0 1 0-3.7zm0 0"/><path d="M88.49 48.53H46.98c-.9 0-1.64.73-1.64 1.64V85.3c0 .9.74 1.64 1.64 1.64h41.5c.91 0 1.64-.74 1.64-1.64V50.17c0-.9-.73-1.64-1.63-1.64Zm-.99 2.62v20.77l-8.25-8.25a1.38 1.38 0 0 0-1.95 0L65.63 75.34l-7.46-7.46a1.37 1.37 0 0 0-1.95 0l-8.25 8.25V51.15ZM47.97 84.31v-4.47l9.22-9.22 7.46 7.45a1.37 1.37 0 0 0 1.95 0L78.27 66.4l9.23 9.23v8.68zm0 0"/></g></svg>