<svg xmlns="http://www.w3.org/2000/svg" xmlns:xlink="http://www.w3.org/1999/xlink" viewBox="0 0 338.7 338.7"><defs/><defs><linearGradient id="b" x1="193.9" x2="198.7" y1="166.8" y2="223.3" gradientTransform="rotate(5.2 4448.4 -4204.3) scale(2.93671)" gradientUnits="userSpaceOnUse" xlink:href="#a"/><linearGradient id="a"><stop offset="0"/><stop offset="1" stop-color="#fff9f9" stop-opacity="0"/></linearGradient><linearGradient id="c" x1="167.8" x2="270.6" y1="76.9" y2="64.2" gradientTransform="scale(1.50082) rotate(5.2 310 -1365.7)" gradientUnits="userSpaceOnUse" xlink:href="#a"/></defs><g transform="translate(0 41.7)"><path fill="url(#b)" d="M159.6 205.3l154.9 41.5-141.3 44-154.9-42.1z"/><path fill="url(#c)" d="M159.6-35v240.3l154.9 41.5c0-80.1.5-159.3.5-252.7z"/><g fill="none" stroke-width="1.2"><path d="M159.6 204.7V-35.4M159.6 204.7l-141.3 44M159.6 204.7l154.9 41.5"/></g><text style="line-height:1.25;-inkscape-font-specification:'Noto Sans'" x="50.8" y="226" stroke-width=".7" font-family="Noto Sans" font-size="15.2" font-weight="400" letter-spacing="0" transform="skewY(-17.3)" word-spacing="0"><tspan x="50.8" y="226" style="-inkscape-font-specification:'Atkinson Hyperlegible Bold'" font-family="Atkinson Hyperlegible" font-size="136.5" font-weight="700">N</tspan></text><rect width="86.1" height="12.6" x="184.9" y="97.1" fill="#bebebe" ry="2.3" transform="skewY(14.8) scale(.9669 1)"/><path fill="#bebebe" d="M180.8 169l99 26.4c1.2.3 2.1 1.5 2.1 2.7v7.6c0 1.1-.9 1.8-2 1.5l-99.1-26.4c-1.1-.3-2-1.5-2-2.7v-7.6c0-1.1.9-1.9 2-1.6zM180.8 122.3l99 26.5c1.2.3 2.1 1.5 2.1 2.7v7.5c0 1.2-.9 2-2 1.6l-99.1-26.4c-1.1-.3-2-1.5-2-2.7v-7.6c0-1.2.9-1.9 2-1.6z"/></g></svg>