<svg version="1" xmlns="http://www.w3.org/2000/svg" width="1440" height="1440" viewBox="0 0 1080.000000 1080.000000"><path d="M513.8 437.7l-.3 437.7L348 927.2c-91 28.5-168.2 52.7-171.5 53.7l-6 2h15c13.3.1 450.2 3.1 665 4.5l80 .6-25.5-7c-14-3.9-37.9-10.4-53-14.5-15.1-4-41.7-11.2-59-15.9-17.3-4.6-74.9-20.2-128-34.5-124.4-33.5-121.2-32.6-120.5-33.2.4-.5-12.9-421.4-25.5-807.6-1.1-33.7-2-64.4-2-68.3 0-5.6-.3-7-1.5-7-1.3 0-1.5 49.6-1.7 437.7z"/><path d="M400.5 456.4l-39 12.2-.5 121.6-.5 121.6L295 611.3c-36-55.3-65.8-100.7-66.2-100.9-.5-.3-20.7 5.8-92.5 28.2l-11.3 3.5v172.5c0 94.8.3 172.4.7 172.4.6 0 34-10.2 65.5-20.1l12.8-4 .2-121.7.3-121.6L269.9 720c36 55.3 65.7 100.8 66 101.2.3.3 24-6.7 52.6-15.6l52-16.2.3-172.7c.1-95-.1-172.7-.5-172.6-.5.1-18.3 5.6-39.8 12.3zM588.3 562.5c-2.2 1.6-2.3 2.1-2.3 19.1 0 19.3.7 22.2 5.7 24.2 1.5.7 48.5 13.4 104.3 28.3 55.8 14.8 140.2 37.4 187.5 50 52.5 14 86.9 22.8 88.3 22.4 3.7-.9 4.4-4.7 4-22.2l-.3-16.3-3-2.9c-2.8-2.8-14.2-6-164-46-88.5-23.7-172.7-46.1-187-50-14.3-3.8-27.1-7.2-28.5-7.6-1.5-.3-3.4 0-4.7 1zM590 646.7c-3.6 1.3-4 3.3-4 22.6v18.9l3.3 3.2c2.9 2.9 5.7 3.8 31.2 10.5 15.4 4 83.4 21.9 151 39.8C883.1 771.1 894.7 774 897 772.8c1.3-.7 2.7-2.4 3.1-3.8 1.1-3.9 1-31.1-.1-35.1-1.9-6.9-2.1-6.9-54.6-20.8-89.8-23.7-250.9-66.2-252.4-66.6-.8-.2-2.2-.1-3 .2zM587.2 739.2c-.8.8-1.2 6.6-1.2 19.4 0 17.5.1 18.4 2.3 20.9 1.8 2.2 5.7 3.5 24.7 8.6 12.4 3.3 97.6 26 189.3 50.5 110.8 29.6 167.7 44.4 169.3 44 3.7-1 4.4-4.3 4.4-20.9 0-13.3-.3-15.6-2-18.4-1-1.7-2.8-3.7-3.9-4.3-1.1-.5-46.7-13-101.3-27.6-54.6-14.5-138.7-37-186.9-49.9-48.1-12.9-88.9-23.5-90.5-23.5-1.7 0-3.5.5-4.2 1.2z"/></svg>