<svg xmlns="http://www.w3.org/2000/svg" viewBox="0 0 1000 1000">
    <rect width="1000" height="1000" rx="300" ry="300" />
    <g transform="translate(-65.392282 -65.444691) scale(1.1042818)">
        <g fill="#fff" clip-path="url(#a)">
            <path
                d="M724.985 682.919c-17.255 50.411-51.835 93.065-97.588 120.372-45.752 27.307-99.71 37.496-152.269 28.753-52.56-8.743-100.314-35.85-134.763-76.498-34.449-40.648-53.359-92.199-53.365-145.482v-110.25l79.121 33.053v77.152c-.007 20.779 4.434 41.318 13.024 60.237 8.59 18.92 21.131 35.781 36.78 49.451 2.97 2.587 6.053 5.107 9.236 7.459 23.357 17.388 51.402 27.352 80.494 28.597.99 0 1.946.079 2.925.101.979.023 2.25 0 3.375 0h3.375c1.125 0 1.935 0 2.925-.101 29.081-1.248 57.116-11.203 80.471-28.575 3.173-2.351 6.255-4.86 9.237-7.447 20.556-17.98 35.656-41.366 43.582-67.5zM737 414v196.065c0 2.531 0 5.074-.158 7.605l-78.963-33.019V414c-.013-37.684-14.607-73.901-40.725-101.066-26.119-27.164-61.735-43.168-99.389-44.66-37.655-1.492-74.426 11.644-102.611 36.657-28.186 25.013-45.6 59.962-48.594 97.526-.281 3.803-.439 7.662-.439 11.543v48.712L287 429.637V189h225c59.674 0 116.903 23.705 159.099 65.901C713.295 297.097 737 354.326 737 414Z" />
        </g>
        <defs>
            <clipPath id="a">
                <rect width="1024" height="1024" fill="#fff" rx="200" />
            </clipPath>
        </defs>
    </g>
</svg>
  