<svg xmlns="http://www.w3.org/2000/svg" data-name="Layer 1" viewBox="0 0 776.3633 516.1277">
  <defs/>
  <path fill="#f2f2f2" d="M157.7868 467.481a354.6134 354.6134 0 01-3.343 45.5659c-.0733.5303-.153 1.0606-.2266 1.5909L11.4515 513.84a58.7366 58.7366 0 01-1.2315-1.599c-1.333-1.785-2.5822-3.6208-3.729-5.5199-5.512-9.149-8.0354-19.8606-5.5066-27.251l.0453-.1148a12.9684 12.9684 0 012.531-4.398c5.7655-6.4898 17.4227-5.408 28.0013-.1696-9.4883-10.386-17.0435-23.4917-17.6176-35.19-.5628-11.4104 5.4036-19.5617 11.875-26.4889a65.578 65.578 0 01.6369-.6742c.103-.1145.2123-.2226.315-.3371 5.049-5.279 10.9353-10.483 19.4554-9.8535 9.3442.6916 19.7042 8.5185 26.9682 17.6389 7.264 9.114 12.0912 19.4676 16.984 29.5723 4.8991 10.0982 10.1996 20.4546 18.061 29.086-10.6478-13.4682-19.2328-28.792-22.4041-43.6955s-.3803-29.2174 9.1094-36.2364a22.1957 22.1957 0 019.7222-3.9228c.4094-.068.8253-.1233 1.2477-.1721 8.7848-.9996 19.2737 2.0387 28.1978 9.3013 9.828 7.9965 16.6418 19.8511 20.032 31.1047 3.39 11.2536 3.7513 22.0875 3.642 32.5606z"/>
  <path fill="#fff" d="M64.3811 514.1359l-2.73-.0153q-1.3002-.8129-2.6127-1.6068c-.5417-.3419-1.0896-.671-1.6379-1.0066q-13.583-8.2957-27.3357-15.9145-13.7403-7.6252-27.6187-14.5477a1.1442 1.1442 0 01-.6577-1.3082.3297.3297 0 01.0455-.0956c.129-.2423.4174-.343.8384-.136 1.1349.569 2.2763 1.1381 3.411 1.72q13.9164 7.041 27.7133 14.7848 13.7874 7.7406 27.4176 16.1644c.191.1161.3824.2387.5735.3549.8666.5354 1.727 1.071 2.5934 1.6065zM99.5804 514.3325l-1.688-.0095c-.3808-.5328-.755-1.0656-1.1357-1.5985q-13.4183-18.8164-26.831-37.6328-21.9647-30.8055-43.9164-61.6108a1.0871 1.0871 0 01-.19-.372c-.1251-.4547.2089-.7214.637-.6742a1.2824 1.2824 0 01.892.5677q12.3146 17.2757 24.623 34.5385 21.8505 30.6514 43.6947 61.2962c.9263 1.2969 1.8525 2.6 2.7788 3.8969.3807.5328.7615 1.0657 1.1356 1.5985zM137.1885 504.5293c-.0861 2.845-.2744 5.6445-.5203 8.4182q-.0715.7958-.1432 1.5914l-1.7711-.0099c.0541-.5304.1083-1.0608.1559-1.5913.3743-4.007.6398-8.0595.6759-12.222a170.503 170.503 0 00-3.3567-34.3685 213.989 213.989 0 00-10.3959-35.706 245.2114 245.2114 0 00-17.0093-35.3272.9436.9436 0 01-.1563-.6275c.073-.5048.7451-.6545 1.2476-.172a1.466 1.466 0 01.254.321q1.2255 2.1074 2.4063 4.2273a245.0404 245.0404 0 0116.2799 35.451 212.9772 212.9772 0 019.6919 35.7596 168.2124 168.2124 0 012.6413 34.2559z"/>
  <path fill="#3f3d56" d="M537.3633 286h-167a14.6964 14.6964 0 01-9.607-3.205 1.0001 1.0001 0 011.2139-1.59 12.6768 12.6768 0 008.393 2.795h167a15.017 15.017 0 0015-15V167a15.017 15.017 0 00-15-15h-167a15.017 15.017 0 00-15 15v60a1 1 0 01-2 0v-60a17.0192 17.0192 0 0117-17h167a17.0192 17.0192 0 0117 17v102a17.0192 17.0192 0 01-17 17z"/>
  <path fill="#3f3d56" d="M759.3633 344h-442a1 1 0 010-2h442a15.017 15.017 0 0015-15V17a15.017 15.017 0 00-15-15h-470a15.017 15.017 0 00-15 15v202a1 1 0 01-2 0V17a17.0192 17.0192 0 0117-17h470a17.0192 17.0192 0 0117 17v310a17.0192 17.0192 0 01-17 17z"/>
  <path fill="#3f3d56" d="M273.0365 32.5754h503v2h-503z"/>
  <circle cx="292.0365" cy="19.5354" r="6" fill="#3f3d56"/>
  <circle cx="309.2865" cy="19.5354" r="6" fill="#3f3d56"/>
  <circle cx="326.5365" cy="19.5354" r="6" fill="#3f3d56"/>
  <path fill="#3f3d56" d="M677.8633 101h-310a15.5 15.5 0 010-31h310a15.5 15.5 0 010 31zm-310-29a13.5 13.5 0 000 27h310a13.5 13.5 0 000-27z"/>
  <path fill="var(--accent)" d="M675.8633 180h-60a15.5 15.5 0 010-31h60a15.5 15.5 0 010 31zM675.8633 232h-60a15.5 15.5 0 010-31h60a15.5 15.5 0 010 31zM675.8633 284h-60a15.5 15.5 0 010-31h60a15.5 15.5 0 010 31z"/>
  <path fill="#a0616a" d="M249.3633 293.58a11.1529 11.1529 0 00-2.2998-.24 11.0406 11.0406 0 00-4.23.84 10.0207 10.0207 0 00-1.3101.66l-44.7402-20.08-1.2598-12.14-19.29-.51.1299 20.2a10.8757 10.8757 0 007.8599 10.34l52.3203 14.89c.1196.38.23.71.3598 1.02a10.9878 10.9878 0 006.54 6.16 10.864 10.864 0 003.6299.62 10.4318 10.4318 0 002.29-.25 9.6085 9.6085 0 001.27-.36v-20.8a11.3573 11.3573 0 00-1.27-.35zM127.046 504.226h12.26l5.832-47.288h-18.094l.002 47.288z"/>
  <path fill="#2f2e41" d="M162.9505 515.6086l-38.5308.0018-.0007-14.8869 23.644-.001a14.8869 14.8869 0 0114.8875 14.8861z"/>
  <path fill="#a0616a" d="M63.321 491.01l11.27 4.827 23.981-41.171-16.632-7.125-18.619 43.469z"/>
  <path fill="#2f2e41" d="M91.843 515.6104L56.4242 500.44l5.8613-13.6844 21.7342 9.309a14.8869 14.8869 0 017.8231 19.5458z"/>
  <circle cx="157.358" cy="173.4315" r="24.561" fill="#a0616a"/>
  <path fill="#2f2e41" d="M139.6139 492.6648l-13.4961-2.5713a4.4736 4.4736 0 01-3.6345-4.879l8.9494-87.2587a3.5 3.5 0 00-6.699-1.7354l-39.0713 91.167a4.5004 4.5004 0 01-5.9638 2.3389l-10.9768-4.879a4.4823 4.4823 0 01-2.4417-5.535l26.7222-80.167a3.4992 3.4992 0 00.1553-.6944l8.674-73.247a4.5 4.5 0 012.7752-3.6407l27.3884-11.126a4.5006 4.5006 0 014.8333.9444l34.5703 33.6611a4.4819 4.4819 0 011.2746 4.1006l-27.8037 139.9776a4.5165 4.5165 0 01-4.417 3.623 4.4697 4.4697 0 01-.8388-.0791z"/>
  <path fill="#ccc" d="M124.2276 329.2428c-4.7846-5.54-8.2766-8.0546-10.6648-7.6582-2.3696.3829-3.7365 3.6934-5.184 7.1983-1.9756 4.7842-4.2149 10.207-9.7344 10.6308a4.647 4.647 0 01-4.5623-1.87c-4.3415-6.457 6.072-27.8243 7.0235-29.7442l-.4883-101.0606a4.4892 4.4892 0 012.353-3.9853c28.6167-15.4316 67.257 11.4062 74.7121 16.9443a4.4882 4.4882 0 011.8106 3.8487c-.8997 16.9257-5.387 102.3203-5.387 121.3691 0 5.2734-1.8189 8.624-5.4063 9.958a10.7814 10.7814 0 01-3.7744.6191c-10.9457 0-28.873-12.5585-40.6977-26.25z"/>
  <path fill="#ccc" d="M164.1637 280.1706a4.4504 4.4504 0 01-2.0227-3.5664l-1.9385-45.2656a11.7474 11.7474 0 0122.712-4.6914l14.5073 38.0166a4.5048 4.5048 0 01-2.6 5.8086l-26.5807 10.1435a4.4554 4.4554 0 01-4.0774-.4453z"/>
  <path fill="#a0616a" d="M96.6164 350.8988a10.7427 10.7427 0 01-1.7262-16.382L90.2 229.6125l23.2018 2.732-2.6934 102.3812a10.801 10.801 0 01-14.092 16.1732z"/>
  <path fill="#ccc" d="M80.5052 257.5466a4.4508 4.4508 0 01-.6186-4.0537l14.3276-42.9824a11.7472 11.7472 0 0122.8919 3.7148v40.6904a4.505 4.505 0 01-4.5 4.5H84.1559a4.4527 4.4527 0 01-3.6507-1.8691z"/>
  <path fill="#2f2e41" d="M141.497 189.9512a4.8526 4.8526 0 01-6.351-.3165c-5.264-4.9204-9.7065-10.804-11.9548-17.618-2.5762-7.808-1.9181-16.9528 3.0155-23.5301 4.1706-5.5601 10.772-8.7013 17.2742-11.1569a28.271 28.271 0 017.96-2.0672 10.9366 10.9366 0 017.7545 2.1774 6.8677 6.8677 0 012.2755 7.397 25.8469 25.8469 0 0111.8013-6.105 14.267 14.267 0 018.4402.3497c3.7709 1.5508 6.2204 5.3385 7.3491 9.2565a16.7244 16.7244 0 01.2183 9.2091 11.1465 11.1465 0 01-5.706 7.0323c-3.45 1.6254-7.5442 1.012-11.1516-.2254s-7.0275-3.0633-10.7586-3.8526-8.039-.3288-10.6791 2.4233c-1.8592 1.938-2.5913 4.6643-3.2563 7.2664l-3.4588 13.534a16.8807 16.8807 0 01-2.1566 5.5736 3.3333 3.3333 0 01-.6158.6524z"/>
  <path fill="#ccc" d="M309.1533 273.43v46.16l.6299.46V273.5a4.5018 4.5018 0 00-.6299-.07zm66.9697-30.2l-31.9199-23.17a10.8415 10.8415 0 00-15.1099 2.4l-18.6699 25.74-1.27 1.74v99.25a9.5514 9.5514 0 01-9.54 9.54h-5.2998l3.0698.62a10.3908 10.3908 0 002.15.22 10.8365 10.8365 0 008.7602-4.46l1.2998-1.8 68.9302-94.98a10.8372 10.8372 0 00-2.4005-15.1zm1.3702 14.35l-67.11 92.47-.71.98-.0697.1a10.325 10.325 0 00.1796-1.94v-97.95l.6402-.88 19.71-27.15a9.5575 9.5575 0 0113.3198-2.12l31.92 23.17a9.5518 9.5518 0 012.12 13.32z"/>
  <path fill="#ccc" d="M343.5515 281.879a8.436 8.436 0 01-4.9741-1.6227l-17.9375-13.0166a8.5104 8.5104 0 01-1.8872-11.872l13.0168-17.9375a8.5001 8.5001 0 0111.8718-1.8872l17.9375 13.0166a8.5097 8.5097 0 011.8873 11.8716l-13.0169 17.9375a8.4438 8.4438 0 01-5.5452 3.4028 8.6167 8.6167 0 01-1.3525.1074z"/>
  <path fill="#e6e6e6" d="M315.065 323.1865a5.544 5.544 0 01-3.2684-1.0654l-3.145-2.2808V272.897l.5298.0317a5.7259 5.7259 0 011.3943.2578 5.4601 5.4601 0 011.574.7979l22.6484 16.4409a5.5845 5.5845 0 011.237 7.8027l-16.4355 22.6494a5.5404 5.5404 0 01-3.6396 2.2373 5.6638 5.6638 0 01-.895.0718z" opacity=".5"/>
  <path fill="#3f3d56" d="M299.6133 218.8h-39.44a10.8232 10.8232 0 00-10.81 10.81v119.58a10.8231 10.8231 0 0010.81 10.81h39.44a10.811 10.811 0 009.98-6.69 10.477 10.477 0 00.6-1.9 10.3366 10.3366 0 00.19-1.36 8.1797 8.1797 0 00.04-.86V229.61a10.8232 10.8232 0 00-10.81-10.81zm9.54 130.39a9.5514 9.5514 0 01-9.54 9.54h-39.44a9.5511 9.5511 0 01-9.54-9.54V229.61a9.5511 9.5511 0 019.54-9.54h39.44a9.5514 9.5514 0 019.54 9.54z"/>
  <path fill="var(--accent)" d="M290.975 270.8174H268.812a8.5096 8.5096 0 01-8.5-8.5v-22.1631a8.5096 8.5096 0 018.5-8.5h22.1629a8.5095 8.5095 0 018.4998 8.5v22.163a8.5095 8.5095 0 01-8.4998 8.5z"/>
  <path fill="var(--accent)" d="M290.975 320.4292H268.812a8.5096 8.5096 0 01-8.5-8.5v-22.163a8.5096 8.5096 0 018.5-8.5h22.1629a8.5095 8.5095 0 018.4998 8.5v22.163a8.5095 8.5095 0 01-8.4998 8.5z" opacity=".5"/>
  <path fill="#3f3d56" d="M279.8935 331.38a8.27 8.27 0 108.2696 8.27 8.2799 8.2799 0 00-8.2696-8.27zm0 15.26a6.995 6.995 0 117-6.99 7.0053 7.0053 0 01-7 6.99zM258.3843 516.1277H9.0903a1.1907 1.1907 0 010-2.3814h249.294a1.1907 1.1907 0 010 2.3814z"/>
</svg>
