<svg xmlns="http://www.w3.org/2000/svg" data-name="Layer 1" viewBox="0 0 782 701.9"><path fill="#f2f2f2" d="m400.5 1.5-25.4 6.6L61.6 88.9 36 95.5a48.2 48.2 0 0 0-34.6 58.6L112 582a48.2 48.2 0 0 0 58.6 34.6l364.3-94a48.2 48.2 0 0 0 34.7-58.6L459 36a48.2 48.2 0 0 0-58.6-34.6Z"/><path fill="#fff" d="m404 15-30.2 7.7-304 78.4-30.2 7.8a34.3 34.3 0 0 0-24.7 41.8l110.4 427.8a34.3 34.3 0 0 0 41.7 24.7h.1l364.3-94a34.3 34.3 0 0 0 24.7-41.7l-110.4-428A34.3 34.3 0 0 0 404 15Z"/><path fill="#f2f2f2" d="M381.2 153.5 197 201a8 8 0 0 1-4-15.5L377.2 138a8 8 0 0 1 4 15.5Zm38.8 17.9-216.3 55.8a8 8 0 1 1-4-15.5L416 155.9a8 8 0 0 1 4 15.5Zm-8.5 99.5-184.3 47.5a8 8 0 1 1-4-15.5l184.3-47.5a8 8 0 1 1 4 15.5Zm38.7 17.9L234 344.6a8 8 0 1 1-4-15.5l216.2-55.8a8 8 0 0 1 4 15.5Zm-8.5 99.5-184.2 47.5a8 8 0 0 1-4-15.5l184.2-47.6a8 8 0 0 1 4 15.6Zm38.8 17.9L264.2 462a8 8 0 1 1-4-15.6l216.3-55.7a8 8 0 0 1 4 15.5Z"/><path fill="#e6e6e6" d="m165.5 249.7-65.2 16.9a3.8 3.8 0 0 1-4.7-2.8l-15-58a3.8 3.8 0 0 1 2.8-4.7l65.2-16.8a3.8 3.8 0 0 1 4.7 2.7l15 58a3.8 3.8 0 0 1-2.8 4.7Zm30.2 117.4L130.5 384a3.8 3.8 0 0 1-4.6-2.7l-15-58a3.8 3.8 0 0 1 2.7-4.8l65.3-16.8a3.8 3.8 0 0 1 4.6 2.8l15 58a3.8 3.8 0 0 1-2.8 4.7ZM226 484.5l-65.2 16.8a3.8 3.8 0 0 1-4.7-2.7l-15-58.1a3.8 3.8 0 0 1 2.8-4.7l65.2-16.8a3.8 3.8 0 0 1 4.7 2.8l15 58a3.8 3.8 0 0 1-2.8 4.7ZM654.7 110H278.3a48.2 48.2 0 0 0-48 48.1V600a48.2 48.2 0 0 0 48 48.1h376.4a48.2 48.2 0 0 0 48-48.1V158a48.2 48.2 0 0 0-48-48.1Z"/><path fill="#fff" d="M654.7 123.8H278.3a34.3 34.3 0 0 0-34.2 34.3V600a34.3 34.3 0 0 0 34.2 34.3h376.4a34.3 34.3 0 0 0 34.2-34.3V158a34.3 34.3 0 0 0-34.2-34.3Z"/><circle cx="694.2" cy="614" r="87.9" fill="#323232"/><path fill="#fff" d="M736.2 602.6h-30.5V572a11.5 11.5 0 0 0-23 0v30.6h-30.5a11.5 11.5 0 0 0 0 22.9h30.5V656a11.5 11.5 0 1 0 23 0v-30.5h30.5a11.5 11.5 0 0 0 0-23Z"/><path fill="#e6e6e6" d="M598 366.7H407.7a8 8 0 1 1 0-16H598a8 8 0 0 1 0 16Zm33 27H407.8a8 8 0 1 1 0-16h223.4a8 8 0 1 1 0 16Zm-33 94.2H407.7a8 8 0 1 1 0-16H598a8 8 0 0 1 0 16Zm33 27.1H407.8a8 8 0 1 1 0-16.1h223.4a8 8 0 1 1 0 16ZM365 406h-67.3a3.8 3.8 0 0 1-3.8-3.9v-60a3.8 3.8 0 0 1 3.8-3.8h67.4a3.8 3.8 0 0 1 3.8 3.9v60a3.8 3.8 0 0 1-3.8 3.8Zm0 121.2h-67.3a3.8 3.8 0 0 1-3.8-3.8v-60a3.8 3.8 0 0 1 3.8-3.8h67.4a3.8 3.8 0 0 1 3.8 3.8v60a3.8 3.8 0 0 1-3.8 3.8Z"/><path fill="#ccc" d="M598.2 231.7H458a8 8 0 0 1 0-16h140.3a8 8 0 0 1 0 16Zm33.1 27.1H457.9a8 8 0 1 1 0-16h173.4a8 8 0 0 1 0 16Z"/><path fill="#323232" d="M426.9 291.5H297.5a3.8 3.8 0 0 1-3.8-3.8v-101a3.8 3.8 0 0 1 3.8-3.8H427a3.8 3.8 0 0 1 3.8 3.9v100.9a3.8 3.8 0 0 1-3.8 3.8Z"/></svg>