<svg xmlns="http://www.w3.org/2000/svg" xmlns:xlink="http://www.w3.org/1999/xlink" data-name="Layer 1" viewBox="0 0 734 765">
  <defs>
    <path id="reuse-5" fill="url(#av)" d="M609 366l125 103-241 61-127-99 243-65z"/>
    <path id="reuse-4" fill="url(#ab)" d="M314 130h90v16h-90z"/>
    <path id="reuse-3" fill="url(#Q)" d="M609 701l-243 64V431l243-65v335z"/>
    <path id="reuse-2" fill="url(#d)" d="M0 268l124 98 242-58-123-104L0 268z"/>
    <path id="reuse-1" fill="url(#b)" d="M124 366l242-58v457l-242-63V366z"/>
    <path id="reuse-0" fill="url(#a)" d="M609 366l-243-58v457l243-64V366z"/>
  </defs>
  <defs>
    <linearGradient id="a" x1="366.4" x2="608.5" y1="536.3" y2="536.3" gradientUnits="userSpaceOnUse">
      <stop offset="0" stop-color="gray" stop-opacity=".3"/>
      <stop offset=".5" stop-color="gray" stop-opacity=".1"/>
      <stop offset="1" stop-color="gray" stop-opacity=".1"/>
    </linearGradient>
    <linearGradient id="b" x1="124.2" x2="366.4" y1="536.3" y2="536.3" xlink:href="#a"/>
    <linearGradient id="c" x1="366.4" x2="734" y1="285.3" y2="285.3" xlink:href="#a"/>
    <linearGradient id="d" x1="0" x2="366.4" y1="285.3" y2="285.3" xlink:href="#a"/>
    <linearGradient id="e" x1="276.6" x2="276.6" y1="421.2" y2="255.4" xlink:href="#a"/>
    <linearGradient id="f" x1="189" x2="364.6" y1="337.6" y2="337.6" xlink:href="#a"/>
    <linearGradient id="g" x1="202.5" x2="232.1" y1="296.6" y2="296.6" xlink:href="#a"/>
    <linearGradient id="h" x1="241" x2="358.7" y1="284.8" y2="284.8" xlink:href="#a"/>
    <linearGradient id="i" x1="241" x2="358.7" y1="293.7" y2="293.7" xlink:href="#a"/>
    <linearGradient id="j" x1="199.5" x2="358.7" y1="325.9" y2="325.9" xlink:href="#a"/>
    <linearGradient id="k" x1="199.5" x2="358.7" y1="334.8" y2="334.8" xlink:href="#a"/>
    <linearGradient id="l" x1="199.5" x2="358.7" y1="346.6" y2="346.6" xlink:href="#a"/>
    <linearGradient id="m" x1="199.5" x2="291.3" y1="355.5" y2="355.5" xlink:href="#a"/>
    <linearGradient id="n" x1="199.5" x2="358.7" y1="367.3" y2="367.3" xlink:href="#a"/>
    <linearGradient id="o" x1="199.5" x2="358.7" y1="376.2" y2="376.2" xlink:href="#a"/>
    <linearGradient id="p" x1="199.5" x2="358.7" y1="388.1" y2="388.1" xlink:href="#a"/>
    <linearGradient id="q" x1="199.5" x2="291.3" y1="396.9" y2="396.9" xlink:href="#a"/>
    <linearGradient id="r" x1="303.8" x2="303.8" y1="459.5" y2="293.7" xlink:href="#a"/>
    <linearGradient id="s" x1="216.1" x2="391.7" y1="375.9" y2="375.9" xlink:href="#a"/>
    <linearGradient id="t" x1="229.6" x2="259.2" y1="334.9" y2="334.9" xlink:href="#a"/>
    <linearGradient id="u" x1="268.1" x2="385.8" y1="323.1" y2="323.1" xlink:href="#a"/>
    <linearGradient id="v" x1="268.1" x2="385.8" y1="332" y2="332" xlink:href="#a"/>
    <linearGradient id="w" x1="226.7" x2="385.8" y1="364.2" y2="364.2" xlink:href="#a"/>
    <linearGradient id="x" x1="226.7" x2="385.8" y1="373.1" y2="373.1" xlink:href="#a"/>
    <linearGradient id="y" x1="226.7" x2="385.8" y1="385" y2="385" xlink:href="#a"/>
    <linearGradient id="z" x1="226.7" x2="318.4" y1="393.8" y2="393.8" xlink:href="#a"/>
    <linearGradient id="A" x1="226.7" x2="385.8" y1="405.7" y2="405.7" xlink:href="#a"/>
    <linearGradient id="B" x1="226.7" x2="385.8" y1="414.5" y2="414.5" xlink:href="#a"/>
    <linearGradient id="C" x1="226.7" x2="385.8" y1="426.4" y2="426.4" xlink:href="#a"/>
    <linearGradient id="D" x1="226.7" x2="318.4" y1="435.3" y2="435.3" xlink:href="#a"/>
    <linearGradient id="E" x1="396.3" x2="396.3" y1="498.1" y2="315.1" xlink:href="#a"/>
    <linearGradient id="F" x1="323.2" x2="470.8" y1="406.1" y2="406.1" xlink:href="#a"/>
    <linearGradient id="G" x1="630" x2="630" y1="435.5" y2="409.4" xlink:href="#a"/>
    <linearGradient id="H" x1="379.3" x2="414.7" y1="356.8" y2="356.8" xlink:href="#a"/>
    <linearGradient id="I" x1="389.6" x2="404.4" y1="345.3" y2="345.3" xlink:href="#a"/>
    <linearGradient id="J" x1="345.3" x2="449.1" y1="397.5" y2="397.5" xlink:href="#a"/>
    <linearGradient id="K" x1="345.3" x2="449.1" y1="426.6" y2="426.6" xlink:href="#a"/>
    <linearGradient id="L" x1="345.3" x2="449.1" y1="434.3" y2="434.3" xlink:href="#a"/>
    <linearGradient id="M" x1="345.3" x2="389.1" y1="418.9" y2="418.9" xlink:href="#a"/>
    <linearGradient id="N" x1="416.3" x2="449.1" y1="418.9" y2="418.9" xlink:href="#a"/>
    <linearGradient id="O" x1="381.7" x2="414.5" y1="452.4" y2="452.4" xlink:href="#a"/>
    <linearGradient id="P" x1="124.2" x2="366.4" y1="565.5" y2="565.5" xlink:href="#a"/>
    <linearGradient id="Q" x1="366.4" x2="608.5" y1="565.5" y2="565.5" xlink:href="#a"/>
    <linearGradient id="R" x1="512.1" x2="608.5" y1="631.4" y2="631.4" xlink:href="#a"/>
    <linearGradient id="S" x1="517.5" x2="517.5" y1="407" y2="338.4" xlink:href="#a"/>
    <linearGradient id="T" x1="482.9" x2="552.1" y1="372.9" y2="372.9" xlink:href="#a"/>
    <linearGradient id="U" x1="750.5" x2="750.5" y1="435.9" y2="416" xlink:href="#a"/>
    <linearGradient id="V" x1="504" x2="530.9" y1="359.7" y2="359.7" xlink:href="#a"/>
    <linearGradient id="W" x1="511.9" x2="523.1" y1="351" y2="351" xlink:href="#a"/>
    <linearGradient id="X" x1="505.6" x2="530.5" y1="380.7" y2="380.7" xlink:href="#a"/>
    <linearGradient id="Y" x1="496.2" x2="538.8" y1="386.9" y2="386.9" xlink:href="#a"/>
    <linearGradient id="Z" x1="358.8" x2="358.8" y1="204.7" y2="128.7" xlink:href="#a"/>
    <linearGradient id="aa" x1="313.6" x2="403.8" y1="166.8" y2="166.8" xlink:href="#a"/>
    <linearGradient id="ab" x1="313.6" x2="403.8" y1="138.3" y2="138.3" xlink:href="#a"/>
    <linearGradient id="ac" x1="320.8" x2="396.6" y1="157.2" y2="157.2" xlink:href="#a"/>
    <linearGradient id="ad" x1="320.8" x2="376.1" y1="170.7" y2="170.7" xlink:href="#a"/>
    <linearGradient id="ae" x1="320.8" x2="356.7" y1="176.3" y2="176.3" xlink:href="#a"/>
    <linearGradient id="af" x1="320.8" x2="368.2" y1="181.9" y2="181.9" xlink:href="#a"/>
    <linearGradient id="ag" x1="320.8" x2="376.1" y1="187.4" y2="187.4" xlink:href="#a"/>
    <linearGradient id="ah" x1="320.8" x2="339.3" y1="193" y2="193" xlink:href="#a"/>
    <linearGradient id="ai" x1="505.9" x2="505.9" y1="279.9" y2="185.8" xlink:href="#a"/>
    <linearGradient id="aj" x1="449.9" x2="561.6" y1="233" y2="233" xlink:href="#a"/>
    <linearGradient id="ak" x1="449.9" x2="561.6" y1="197.7" y2="197.7" xlink:href="#a"/>
    <linearGradient id="al" x1="458.8" x2="552.7" y1="221.1" y2="221.1" xlink:href="#a"/>
    <linearGradient id="am" x1="458.8" x2="527.4" y1="237.9" y2="237.9" xlink:href="#a"/>
    <linearGradient id="an" x1="458.8" x2="503.3" y1="244.8" y2="244.8" xlink:href="#a"/>
    <linearGradient id="ao" x1="458.8" x2="517.5" y1="251.7" y2="251.7" xlink:href="#a"/>
    <linearGradient id="ap" x1="458.8" x2="527.4" y1="258.6" y2="258.6" xlink:href="#a"/>
    <linearGradient id="aq" x1="458.8" x2="481.7" y1="265.5" y2="265.5" xlink:href="#a"/>
    <linearGradient id="ar" x1="463.7" x2="490.4" y1="220.9" y2="220.9" xlink:href="#a"/>
    <linearGradient id="as" x1="121.1" x2="365.7" y1="472.9" y2="472.9" xlink:href="#a"/>
    <linearGradient id="at" x1="365.7" x2="610.4" y1="472.9" y2="472.9" xlink:href="#a"/>
    <linearGradient id="au" x1="0" x2="366.4" y1="448.2" y2="448.2" xlink:href="#a"/>
    <linearGradient id="av" x1="366.4" x2="734" y1="448.2" y2="448.2" xlink:href="#a"/>
    <linearGradient id="aw" x1="279.9" x2="279.9" y1="417.6" y2="253.2" xlink:href="#a"/>
    <linearGradient id="ax" x1="306.8" x2="306.8" y1="455.6" y2="291.2" xlink:href="#a"/>
    <linearGradient id="ay" x1="398.5" x2="398.5" y1="493.9" y2="312.5" xlink:href="#a"/>
    <linearGradient id="az" x1="632.3" x2="632.3" y1="432.4" y2="406.5" xlink:href="#a"/>
    <linearGradient id="aA" x1="518.7" x2="518.7" y1="403.6" y2="335.6" xlink:href="#a"/>
    <linearGradient id="aB" x1="751.7" x2="751.7" y1="432.8" y2="413.1" xlink:href="#a"/>
    <linearGradient id="aC" x1="450.8" x2="450.8" y1="68" y2="0" xlink:href="#a"/>
    <linearGradient id="aD" x1="683.8" x2="683.8" y1="97.2" y2="77.5" xlink:href="#a"/>
    <linearGradient id="aE" x1="361.3" x2="361.3" y1="203" y2="127.6" xlink:href="#a"/>
    <linearGradient id="aF" x1="507.2" x2="507.2" y1="277.6" y2="184.2" xlink:href="#a"/>
  </defs>
  <g opacity=".7">
    <use xlink:href="#reuse-0"/>
    <use opacity=".1" xlink:href="#reuse-0"/>
    <use xlink:href="#reuse-1"/>
    <use opacity=".2" xlink:href="#reuse-1"/>
    <path fill="url(#c)" d="M366 308l126-104 242 62-125 100-243-58z"/>
    <use xlink:href="#reuse-2"/>
    <use opacity=".1" xlink:href="#reuse-2"/>
    <rect width="179.7" height="165.8" x="187" y="255" fill="url(#e)" opacity=".5" rx="4.5" ry="4.5"/>
    <rect width="175.6" height="161.8" x="189" y="257" fill="url(#f)" rx="4.5" ry="4.5"/>
    <rect width="29.6" height="26.6" x="203" y="283" fill="url(#g)" rx="4.5" ry="4.5"/>
    <rect width="117.7" height="3" x="241" y="283" fill="url(#h)" rx=".8" ry=".8"/>
    <rect width="117.7" height="3" x="241" y="292" fill="url(#i)" rx=".8" ry=".8"/>
    <rect width="159.2" height="3" x="200" y="324" fill="url(#j)" rx=".8" ry=".8"/>
    <rect width="159.2" height="3" x="200" y="333" fill="url(#k)" rx=".8" ry=".8"/>
    <rect width="159.2" height="3" x="200" y="345" fill="url(#l)" rx=".8" ry=".8"/>
    <rect width="91.8" height="3" x="200" y="354" fill="url(#m)" rx=".8" ry=".8"/>
    <rect width="159.2" height="3" x="200" y="366" fill="url(#n)" rx=".8" ry=".8"/>
    <rect width="159.2" height="3" x="200" y="375" fill="url(#o)" rx=".8" ry=".8"/>
    <rect width="159.2" height="3" x="200" y="387" fill="url(#p)" rx=".8" ry=".8"/>
    <rect width="91.8" height="3" x="200" y="396" fill="url(#q)" rx=".8" ry=".8"/>
    <rect width="179.7" height="165.8" x="214" y="294" fill="url(#r)" opacity=".5" rx="4.5" ry="4.5"/>
    <rect width="175.6" height="161.8" x="216" y="295" fill="url(#s)" rx="4.5" ry="4.5"/>
    <rect width="29.6" height="26.6" x="230" y="322" fill="url(#t)" rx="4.5" ry="4.5"/>
    <rect width="117.7" height="3" x="268" y="322" fill="url(#u)" rx=".8" ry=".8"/>
    <rect width="117.7" height="3" x="268" y="331" fill="url(#v)" rx=".8" ry=".8"/>
    <rect width="159.2" height="3" x="227" y="363" fill="url(#w)" rx=".8" ry=".8"/>
    <rect width="159.2" height="3" x="227" y="372" fill="url(#x)" rx=".8" ry=".8"/>
    <rect width="159.2" height="3" x="227" y="384" fill="url(#y)" rx=".8" ry=".8"/>
    <rect width="91.8" height="3" x="227" y="392" fill="url(#z)" rx=".8" ry=".8"/>
    <rect width="159.2" height="3" x="227" y="404" fill="url(#A)" rx=".8" ry=".8"/>
    <rect width="159.2" height="3" x="227" y="413" fill="url(#B)" rx=".8" ry=".8"/>
    <rect width="159.2" height="3" x="227" y="425" fill="url(#C)" rx=".8" ry=".8"/>
    <rect width="91.8" height="3" x="227" y="434" fill="url(#D)" rx=".8" ry=".8"/>
    <path fill="url(#E)" d="M318 315h156v183H318z" opacity=".5"/>
    <path fill="url(#F)" d="M323 318h148v176H323z"/>
    <path fill="url(#G)" d="M638 414v-5h-16v5h-11v22h38v-22zm-14-3h12v3h-12z" opacity=".5" transform="translate(-233 -68)"/>
    <path fill="url(#H)" d="M379 347h35v20h-35z"/>
    <path fill="url(#I)" d="M390 343v5h1v-4h12v4h1v-5h-14z"/>
    <path fill="url(#J)" d="M345 395h104v4H345z"/>
    <path fill="url(#K)" d="M345 424h104v4H345z"/>
    <path fill="url(#L)" d="M345 432h104v4H345z"/>
    <path fill="url(#M)" d="M345 417h44v4h-44z"/>
    <path fill="url(#N)" d="M416 417h33v4h-33z" opacity=".6"/>
    <path fill="url(#O)" d="M382 450h33v4h-33z"/>
    <path fill="url(#P)" d="M124 366v336l242 63V431l-242-65z"/>
    <use xlink:href="#reuse-3"/>
    <use opacity=".1" xlink:href="#reuse-3"/>
    <path fill="url(#R)" d="M512 590v110l97-27V563l-97 27z" opacity=".1"/>
    <path fill="url(#S)" d="M482 338h71v69h-71z"/>
    <path fill="url(#T)" d="M483 340h69v66h-69z"/>
    <path fill="url(#U)" d="M757 419v-3h-13v3h-8v17h29v-17zm-11-2h9v2h-9z" opacity=".5" transform="translate(-233 -68)"/>
    <path fill="url(#V)" d="M504 352h27v15h-27z" opacity=".6"/>
    <path fill="url(#W)" d="M512 349v4h1v-3h9v3h1v-4h-11z" opacity=".6"/>
    <path fill="url(#X)" d="M506 379h25v3h-25z" opacity=".6"/>
    <path fill="url(#Y)" d="M496 385h43v3h-43z"/>
    <path fill="url(#Z)" d="M313 129h93v76h-93z" opacity=".5"/>
    <path fill="url(#aa)" d="M314 130h90v73h-90z"/>
    <use xlink:href="#reuse-4"/>
    <use opacity=".1" xlink:href="#reuse-4"/>
    <path fill="url(#ac)" d="M321 152h76v10h-76z"/>
    <path fill="url(#ad)" d="M321 169h55v3h-55z"/>
    <path fill="url(#ae)" d="M321 175h36v3h-36z"/>
    <path fill="url(#af)" d="M321 180h47v3h-47z"/>
    <path fill="url(#ag)" d="M321 186h55v3h-55z"/>
    <path fill="url(#ah)" d="M321 191h19v3h-19z"/>
    <path fill="url(#ai)" d="M449 186h115v94H449z" opacity=".5"/>
    <path fill="url(#aj)" d="M450 188h112v91H450z"/>
    <path fill="url(#ak)" d="M450 188h112v20H450z"/>
    <path fill="url(#al)" d="M459 215h94v12h-94z"/>
    <path fill="url(#am)" d="M459 236h69v4h-69z"/>
    <path fill="url(#an)" d="M459 243h45v4h-45z"/>
    <path fill="url(#ao)" d="M459 250h59v4h-59z"/>
    <path fill="url(#ap)" d="M459 257h69v4h-69z"/>
    <path fill="url(#aq)" d="M459 264h23v4h-23z"/>
    <path fill="url(#ar)" d="M464 219h27v4h-27z"/>
    <path fill="url(#as)" d="M121 541l136 34 109-89v-54l-242-61-3 170z" opacity=".1"/>
    <path fill="url(#at)" d="M610 541l-135 34-109-89v-54l242-61 2 170z" opacity=".1"/>
    <path fill="url(#au)" d="M124 366L0 469l242 61 124-99-242-65z"/>
    <use xlink:href="#reuse-5"/>
    <use opacity=".1" xlink:href="#reuse-5"/>
  </g>
  <path fill="#535461" d="M609 363l-240-57v452l240-63V363z"/>
  <path d="M609 363l-240-57v452l240-63V363z" opacity=".1"/>
  <path fill="#535461" d="M129 363l240-57v452l-240-62V363z"/>
  <path d="M129 361l240-57v454l-240-62V361z" opacity=".2"/>
  <path fill="#535461" d="M367 308l126-106 240 62-126 101-240-57z"/>
  <path fill="#535461" d="M8 267l123 98 240-57-122-104L8 267z"/>
  <path d="M6 265l126 100 240-57-125-106L6 265z" opacity=".1"/>
  <rect width="178.2" height="164.4" x="191" y="253" fill="url(#aw)" opacity=".5" rx="4.5" ry="4.5"/>
  <rect width="174.1" height="160.4" x="193" y="255" fill="#f5f5f5" rx="4.5" ry="4.5"/>
  <rect width="29.4" height="26.4" x="206" y="281" fill="#0560ff" rx="4.5" ry="4.5"/>
  <rect width="116.7" height="2.9" x="245" y="281" fill="#e0e0e0" rx=".8" ry=".8"/>
  <rect width="116.7" height="2.9" x="245" y="290" fill="#e0e0e0" rx=".8" ry=".8"/>
  <rect width="157.8" height="2.9" x="204" y="322" fill="#e0e0e0" rx=".8" ry=".8"/>
  <rect width="157.8" height="2.9" x="204" y="331" fill="#e0e0e0" rx=".8" ry=".8"/>
  <rect width="157.8" height="2.9" x="204" y="342" fill="#e0e0e0" rx=".8" ry=".8"/>
  <rect width="91" height="2.9" x="204" y="351" fill="#e0e0e0" rx=".8" ry=".8"/>
  <rect width="157.8" height="2.9" x="204" y="363" fill="#e0e0e0" rx=".8" ry=".8"/>
  <rect width="157.8" height="2.9" x="204" y="372" fill="#e0e0e0" rx=".8" ry=".8"/>
  <rect width="157.8" height="2.9" x="204" y="383" fill="#e0e0e0" rx=".8" ry=".8"/>
  <rect width="91" height="2.9" x="204" y="392" fill="#e0e0e0" rx=".8" ry=".8"/>
  <rect width="178.2" height="164.4" x="218" y="291" fill="url(#ax)" opacity=".5" rx="4.5" ry="4.5"/>
  <rect width="174.1" height="160.4" x="220" y="293" fill="#fff" rx="4.5" ry="4.5"/>
  <rect width="29.4" height="26.4" x="233" y="319" fill="#0560ff" rx="4.5" ry="4.5"/>
  <rect width="116.7" height="2.9" x="272" y="319" fill="#e0e0e0" rx=".8" ry=".8"/>
  <rect width="116.7" height="2.9" x="272" y="328" fill="#e0e0e0" rx=".8" ry=".8"/>
  <rect width="157.8" height="2.9" x="230" y="360" fill="#e0e0e0" rx=".8" ry=".8"/>
  <rect width="157.8" height="2.9" x="230" y="369" fill="#e0e0e0" rx=".8" ry=".8"/>
  <rect width="157.8" height="2.9" x="230" y="380" fill="#e0e0e0" rx=".8" ry=".8"/>
  <rect width="91" height="2.9" x="230" y="389" fill="#e0e0e0" rx=".8" ry=".8"/>
  <rect width="157.8" height="2.9" x="230" y="401" fill="#e0e0e0" rx=".8" ry=".8"/>
  <rect width="157.8" height="2.9" x="230" y="410" fill="#e0e0e0" rx=".8" ry=".8"/>
  <rect width="157.8" height="2.9" x="230" y="421" fill="#e0e0e0" rx=".8" ry=".8"/>
  <rect width="91" height="2.9" x="230" y="430" fill="#e0e0e0" rx=".8" ry=".8"/>
  <path fill="url(#ay)" d="M321 313h154v181H321z" opacity=".5"/>
  <path fill="#fff" d="M326 315h146v175H326z"/>
  <path fill="url(#az)" d="M640 411v-4h-16v4h-11v21h38v-21zm-14-3h12v3h-12z" opacity=".5" transform="translate(-233 -68)"/>
  <path fill="#0560ff" d="M382 344h35v20h-35z"/>
  <path fill="#0560ff" d="M392 340v5h2v-4h11v4h2v-5h-15z"/>
  <path fill="#e0e0e0" d="M348 392h103v4H348zM348 421h103v4H348zM348 429h103v4H348zM348 413h43v4h-43z"/>
  <path fill="#3ad29f" d="M418 413h33v4h-33z" opacity=".6"/>
  <path fill="#0560ff" d="M384 446h33v4h-33z"/>
  <path fill="#535461" d="M129 363v333l240 62 3-331-243-64z"/>
  <path fill="#535461" d="M609 695l-240 63V427l240-64v332z"/>
  <path d="M609 695l-240 63V427l240-64v332z" opacity=".1"/>
  <path d="M513 585v109l96-26V558l-96 27z" opacity=".1"/>
  <path fill="url(#aA)" d="M483 336h71v68h-71z"/>
  <path fill="#f5f5f5" d="M484 337h69v65h-69z"/>
  <path fill="url(#aB)" d="M758 416v-3h-12v3h-9v17h29v-17zm-11-2h9v2h-9z" opacity=".5" transform="translate(-233 -68)"/>
  <path fill="#0560ff" d="M505 349h27v15h-27z" opacity=".6"/>
  <path fill="#0560ff" d="M513 346v4h2v-3h8v3h1v-4h-11zM507 376h25v3h-25z" opacity=".6"/>
  <path fill="#bdbdbd" d="M498 382h42v3h-42z"/>
  <path fill="url(#aC)" d="M415 0h71v68h-71z"/>
  <path fill="#f5f5f5" d="M417 2h69v65h-69z"/>
  <path fill="url(#aD)" d="M690 81v-4h-12v4h-9v16h29V81zm-11-2h9v2h-9z" opacity=".5" transform="translate(-233 -68)"/>
  <path fill="#0560ff" d="M438 14h27v15h-27zM445 11v3h2v-2h8v2h1v-3h-11zM439 40h25v3h-25z" opacity=".6"/>
  <path fill="#bdbdbd" d="M430 46h42v3h-42z"/>
  <path fill="url(#aE)" d="M316 128h92v75h-92z" opacity=".5"/>
  <path fill="#f2f2f2" d="M317 129h89v73h-89z"/>
  <path fill="#0560ff" d="M317 129h89v16h-89z"/>
  <path d="M317 129h89v16h-89z" opacity=".1"/>
  <path fill="#e0e0e0" d="M324 151h75v9h-75zM324 168h55v3h-55zM324 173h36v3h-36zM324 179h47v3h-47zM324 184h55v3h-55zM324 190h18v3h-18z"/>
  <path fill="url(#aF)" d="M450 184h114v93H450z" opacity=".5"/>
  <path fill="#fff" d="M452 186h111v90H452z"/>
  <path fill="#0560ff" d="M452 186h111v20H452z"/>
  <path fill="#f5f5f5" d="M461 213h93v12h-93z"/>
  <path fill="#e0e0e0" d="M461 234h68v4h-68zM461 241h44v4h-44zM461 248h58v4h-58zM461 254h68v4h-68zM461 261h23v4h-23z"/>
  <path fill="#69f0ae" d="M465 217h27v4h-27z"/>
  <path d="M126 536l134 34 108-88v-54l-240-60-2 168zM611 536l-135 34-108-88v-54l240-60 3 168z" opacity=".1"/>
  <path fill="#535461" d="M129 363L6 465l240 60 123-98-240-64zM609 363l124 102-238 60-126-98 240-64z"/>
  <path d="M609 363l124 102-238 60-126-98 240-64z" opacity=".1"/>
</svg>
