<svg xmlns="http://www.w3.org/2000/svg" data-name="Layer 1" viewBox="0 0 732.64 638.92"><path fill="#fff" d="M121.52 222.42a33.5 33.5 0 0 1-5.16.12 1.13 1.13 0 0 0-1.24.98l-3.29 24.68a10.02 10.02 0 0 1-2.12 4.9 10.66 10.66 0 0 0-2.4 8.14v41.93s-.21 5.6 4.08 5.6a62.1 62.1 0 0 0 15.49 0s3.44-.66 3.44-5.82v-41.29a10.1 10.1 0 0 0-2.13-8.2 10.28 10.28 0 0 1-2.06-4.87l-3.42-25.2a1.13 1.13 0 0 0-1.2-.97Z"/><path fill="#3f3d56" d="M119.12 309.95a62.67 62.67 0 0 1-7.77-.48 4.18 4.18 0 0 1-3.1-1.27c-1.75-1.81-1.65-4.92-1.65-5.06v-41.86a11.4 11.4 0 0 1 2.56-8.64 9.3 9.3 0 0 0 1.97-4.54l3.29-24.68a1.84 1.84 0 0 1 2.02-1.58 32.66 32.66 0 0 0 5-.12h.03a1.83 1.83 0 0 1 1.95 1.57l3.41 25.2a9.58 9.58 0 0 0 1.92 4.53 10.78 10.78 0 0 1 2.27 8.7v41.23c0 5.68-3.97 6.5-4.01 6.5a63.14 63.14 0 0 1-7.9.5Zm-2.86-86.7a.42.42 0 0 0-.44.36l-3.29 24.69a10.74 10.74 0 0 1-2.27 5.24 10 10 0 0 0-2.25 7.61v42.02c0 .05-.07 2.68 1.26 4.05a2.8 2.8 0 0 0 2.12.83l.09.01a61.47 61.47 0 0 0 15.3 0c.07-.02 2.83-.64 2.83-5.1v-41.42a9.38 9.38 0 0 0-1.97-7.64 11.01 11.01 0 0 1-2.2-5.2L122 223.47a.42.42 0 0 0-.43-.35 34.36 34.36 0 0 1-5.26.12.56.56 0 0 0-.06 0Z"/><path fill="var(--background-secondary)" d="M116.32 261.99h5.22a7.82 7.82 0 0 1 7.82 7.82v19.62a7.82 7.82 0 0 1-7.82 7.82h-5.22a7.82 7.82 0 0 1-7.82-7.82v-19.62a7.82 7.82 0 0 1 7.82-7.82Z"/><path fill="#9f616a" d="M20.43 622.44h17.01l8.09-65.59h-25.1v65.59z"/><path fill="#2f2e41" d="M16.1 616.89h33.48a21.34 21.34 0 0 1 21.35 21.34v.69H16.1ZM9.74 388.16s-7.37 8.33 4.83 40.8l-2.14 178.07 39.54-.77 8.7-86.86 15.82-126.75Z"/><path fill="#3f3d56" d="m90.06 412.78-.44-.07A2495.49 2495.49 0 0 1 .47 397.53l-.47-.1 13.26-32.25c-.1-3.37-2.97-98.02 2.52-125.22 5.32-26.32 30.4-30.64 33.26-31.05l2.87-9.5 36.25 18.86 6.32 21.76 1.29 59.64Z"/><path fill="#9f616a" d="M111.89 290.03a11.83 11.83 0 0 0-8.7 3.8H42.28l-22.32 4.75 3.66 28.27 79.4-17.08a11.87 11.87 0 1 0 8.88-19.74Z"/><circle cx="320.33" cy="305.18" r="29.37" fill="#9f616a" transform="rotate(-61.34 93.43 436.93)"/><path fill="#2f2e41" d="m59.03 151.16-1.42-2.86 7.16-3.56s7.9-12.86 22.2-9.25 20.74 5.78 20.74 5.78l7.14 3.6-3.58 3.56 6.43 2.16-4.3 2.14 5 2.87-2.69 14.74s-4.47-11.18-13.07-6.9-24.32-2.21-24.32-2.21l-13.66 26.43s-2.82-9.26-7.84-6.8c0 0-12.84-20.44 2.21-29.7Z"/><path fill="#3f3d56" d="m24 332.14-6.97-20.72-1.68-69.1 2.97-9.8a27.39 27.39 0 1 1 51.72 17.9l-15.9 40.78.8 1.57 34.48-.28 12.24 22.04Z"/><path fill="#ffb7b7" d="M368.95 323.63a10.61 10.61 0 0 0 1.7-16.18l16.99-33.67-19.47 2.26-13.15 31.62a10.67 10.67 0 0 0 13.93 15.97Zm136.29 238.45-15.32-.01-7.28-59.07h22.6v59.08z"/><path fill="#2f2e41" d="M509.15 576.92h-49.39v-.63a19.22 19.22 0 0 1 19.22-19.22h30.17Z"/><path fill="#ffb7b7" d="m421.54 562.08-15.32-.01-7.28-59.07h22.6v59.08z"/><path fill="#2f2e41" d="M421.7 576.92h-49.4v-.63a19.22 19.22 0 0 1 19.23-19.22h30.16Zm-1.41-264.35-15 34.54-12.36 198.5 31.23-1.24 8.53-94.63L459 365.45l15.13 93.97 6.25 82.45 25.84 1.12 10.3-230.42h-96.23z"/><path fill="var(--background-secondary)" d="m495.22 142.15-43.45 1.1-25.5 13.09-1.4 96.61-15.92 66.7s99.4 6.85 113.15-3.15l-16.24-76.2 21.78-82.36Z"/><path fill="var(--background-secondary)" d="m432.97 157.94-4.04-2.73s-16.76 5.02-21.71 27.36c0 0-3.8 11.21-5.46 18.92-1.9 8.84-44.02 90.04-44.02 90.04l25.22 7.24L429.19 224Z"/><path fill="#ffb7b7" d="M526.96 336.02a10.61 10.61 0 0 1 2.83-16.03l-7.05-37.04 18.09 7.54 3.92 34.02a10.67 10.67 0 0 1-17.79 11.5Z"/><path fill="var(--background-secondary)" d="m521.1 159.1 4.64-1.51s14.73 9.44 13.33 32.29c0 0 .55 11.82.02 19.69-.6 9.02 7.5 98.69 7.5 98.69h-26.24l-11.24-81.2Z"/><path fill="#ffb7b7" d="M505.89 101.62a30.12 30.12 0 1 1-30.12-30.12 30.04 30.04 0 0 1 30.12 29.97v.15Z"/><path fill="#2f2e41" d="M445.75 61.17c3.53-7.6 10.35-6.1 16.33-3.52 7.56-1.68 14.75-6.7 22.9-3.73 8.02 11.67 34.97 8.24 29.24 27.24-.01 4.56 8.57 1.9 7.07 9.36 4.54 14.36-16.4 41.54-28.42 35.82 2.97-5.45 9.76-17.83-.54-19.06-22.16 20.62-2.29-39.26-30.13-21.85-9.22 8.44-21.84-15.83-16.45-24.26Z"/><path fill="#9f616a" d="M532.23 339.02a10 10 0 0 0 11.98-9.6l75.63-71.18-17.02-13.57-69.11 74.42a10.06 10.06 0 0 0-1.48 19.93Z"/><path fill="#cbcbcb" d="m609.12 269.75-14.71-17.24a4.49 4.49 0 0 1 1.03-6.72l19.16-12a12.46 12.46 0 0 1 16.12 19.02l-14.8 16.98a4.49 4.49 0 0 1-6.8-.04Z"/><path fill="#9f616a" d="M569.56 621h-18.49l-8.8-71.33 27.29.01V621z"/><path fill="#2f2e41" d="M574.27 638.92h-59.62v-.76a23.2 23.2 0 0 1 23.2-23.2h36.42Z"/><path fill="#9f616a" d="M717.37 621h-18.49l-8.8-71.33 27.29.01V621z"/><path fill="#2f2e41" d="M722.08 638.92h-59.62v-.76a23.2 23.2 0 0 1 23.2-23.2h36.42Zm-54.45-331.36 18.64-68.87-24.18-13.59h-33.75l-13.13 14.05s-21.93 15.26-16.63 32.16l8.57 38.51-13.1 61.16-65.99 91.52-15.62 89.9 61.5 16.11 66.49-130.93 32.24 144.98 59.97-3.02-20.66-175.78s-5.9-53.55-36.78-86.99Z"/><path fill="#9f616a" d="M706.12 368.49a10 10 0 0 0-1.28-15.3l-14.46-97.56-20.76 6.55 20.78 93.97a10.06 10.06 0 0 0 15.72 12.34Z"/><path fill="#cbcbcb" d="m693.95 270.94-22.52 2.6a4.49 4.49 0 0 1-5-4.6l.73-22.6a12.46 12.46 0 0 1 24.77-2.78l5.84 21.76a4.49 4.49 0 0 1-3.82 5.62Z"/><path fill="#2f2e41" d="M607.47 205.52V176.5a38.88 38.88 0 1 1 77.76 0v29.02a5.23 5.23 0 0 1-5.23 5.22h-67.3a5.23 5.23 0 0 1-5.22-5.22Z"/><circle cx="872.04" cy="312.1" r="28.51" fill="#9f616a" transform="rotate(-28.66 499.72 704.16)"/><path fill="#2f2e41" d="M598.27 178.83a30.8 30.8 0 0 1 30.76-30.76h5.8a30.79 30.79 0 0 1 30.75 30.76v.58h-12.26l-4.18-11.72-.84 11.72h-6.34l-2.1-5.91-.43 5.9h-41.16Z"/><path fill="#2f2e41" d="M635.55 214a5.15 5.15 0 0 1-.4-5.46c6.14-11.7 14.75-33.3 3.32-46.64l-.82-.95h33.18v49.8l-30.14 5.33a5.34 5.34 0 0 1-.92.08 5.2 5.2 0 0 1-4.22-2.16Z"/><path fill="#ffb7b7" d="M330.6 240.53a11.48 11.48 0 0 0-1.15 1.39l-54.06-1.32-6.31-11.53-18.64 7.25 9.19 21.48a8.72 8.72 0 0 0 9.06 5.24l61.08-7.38a11.45 11.45 0 1 0 .83-15.13ZM154.37 568.84h17.78l8.45-68.57-26.23.01v68.56z"/><path fill="#2f2e41" d="M149.84 563.03h35a22.3 22.3 0 0 1 22.32 22.31v.72h-57.32Z"/><path fill="#ffb7b7" d="m315.78 568.44 16.34-6.98-19.15-66.37-24.13 10.3 26.94 63.05z"/><path fill="#2f2e41" d="m309.33 564.89 32.19-13.76a22.3 22.3 0 0 1 29.28 11.75l.28.67-52.7 22.52Z"/><path fill="#ffb7b7" d="m240.77 255.38 1.29 20.83-37.57 4.02-39.32 4.21 11.57-31.63 64.03 2.57z"/><path fill="#e4e4e4" d="M242.1 262.85c-.43-.16-42.87-16.67-68.94-3.17l-.64.33-5.2-25.6-2.96-55.03 19.28-9.1 5.3-11.9 36.17-2.14 7.43 10.2 25.3 8.28-15.12 88.38Z"/><path fill="#e4e4e4" d="m243.42 213.18 4.47-35.14 10.19-3.1.17.06c.24.1 5.77 2.2 7.28 9.87 1.46 7.36 12.41 53.12 12.52 53.59l.11.45-25.73 10.3Z"/><path fill="#2f2e41" d="m302.54 556.4 34.25-7.04-54.75-151.07-18.73-51.53s-11.89-41.31-17.26-57.3l-3.24-21.45-76.7 8.49s-21.43 31.46-14.92 82.74L148.25 552l34.25 1.76 28.7-194.4 50.35 106.56s15.87 45.48 27.23 55.34Z"/><path fill="#ffb7b7" d="M196.87 283.65a11.48 11.48 0 0 0-1.8.1l-35.8-40.54 4.17-12.46-17.98-8.74-9.52 21.34a8.72 8.72 0 0 0 2.33 10.21l46.94 39.77a11.45 11.45 0 1 0 11.66-9.68Z"/><path fill="#e4e4e4" d="m142.22 228.02 13.99-39.85c1.57-4.7 3.54-7.55 5.85-8.48a3.61 3.61 0 0 1 2.9-.03l6.28 7.92 5.82 24.46-14.93 35.12Z"/><path fill="#2f2e41" d="M234.82 148H173.4a4.77 4.77 0 0 1-4.76-4.77v-26.47a35.47 35.47 0 0 1 70.94 0v26.47a4.77 4.77 0 0 1-4.76 4.77Z"/><circle cx="211.4" cy="121.37" r="26.01" fill="#ffb7b7"/><path fill="#2f2e41" d="M247.97 119.4h-37.55l-.39-5.39-1.92 5.4h-5.78l-.77-10.69-3.81 10.69h-11.2v-.53a28.1 28.1 0 0 1 28.07-28.06h5.3a28.1 28.1 0 0 1 28.05 28.06Z"/><path fill="#2f2e41" d="M210.11 152.94a4.87 4.87 0 0 1-.84-.08l-27.5-4.85v-45.45h30.27l-.75.88c-10.43 12.16-2.57 31.88 3.04 42.55a4.7 4.7 0 0 1-.37 4.98 4.75 4.75 0 0 1-3.85 1.97Z"/><path fill="#fff" d="M539.52 262.18a33.5 33.5 0 0 1-5.16.12 1.13 1.13 0 0 0-1.24.98l-3.29 24.68a10.02 10.02 0 0 1-2.12 4.9 10.66 10.66 0 0 0-2.4 8.14v41.93s-.21 5.6 4.08 5.6a62.1 62.1 0 0 0 15.49 0s3.44-.66 3.44-5.82v-41.29a10.1 10.1 0 0 0-2.13-8.2 10.28 10.28 0 0 1-2.06-4.87l-3.42-25.2a1.13 1.13 0 0 0-1.2-.97Z"/><path fill="#3f3d56" d="M537.12 349.71a62.67 62.67 0 0 1-7.77-.48 4.18 4.18 0 0 1-3.1-1.27c-1.75-1.81-1.65-4.92-1.65-5.06v-41.86a11.4 11.4 0 0 1 2.56-8.64 9.3 9.3 0 0 0 1.97-4.54l3.29-24.68a1.84 1.84 0 0 1 2.02-1.58 32.66 32.66 0 0 0 5-.12h.03a1.83 1.83 0 0 1 1.95 1.57l3.41 25.2a9.58 9.58 0 0 0 1.92 4.53 10.78 10.78 0 0 1 2.27 8.7v41.23c0 5.68-3.97 6.5-4.01 6.5a63.14 63.14 0 0 1-7.9.5Zm-2.86-86.7a.42.42 0 0 0-.44.36l-3.29 24.69a10.74 10.74 0 0 1-2.27 5.24 10 10 0 0 0-2.25 7.61v42.02c0 .05-.07 2.68 1.26 4.05a2.8 2.8 0 0 0 2.12.83l.09.01a61.46 61.46 0 0 0 15.3 0c.07-.02 2.83-.64 2.83-5.1V301.3a9.38 9.38 0 0 0-1.97-7.64 11.01 11.01 0 0 1-2.2-5.2L540 263.24a.42.42 0 0 0-.43-.36 34.36 34.36 0 0 1-5.26.12.56.56 0 0 0-.06 0Z"/><path fill="var(--background-secondary)" d="M534.32 301.75h5.22a7.82 7.82 0 0 1 7.82 7.82v19.62a7.82 7.82 0 0 1-7.82 7.82h-5.22a7.82 7.82 0 0 1-7.82-7.82v-19.62a7.82 7.82 0 0 1 7.82-7.82Z"/><path fill="#fff" d="M362.52 228.18a33.5 33.5 0 0 1-5.16.12 1.13 1.13 0 0 0-1.24.98l-3.29 24.68a10.02 10.02 0 0 1-2.12 4.9 10.66 10.66 0 0 0-2.4 8.14v41.93s-.21 5.6 4.08 5.6a62.1 62.1 0 0 0 15.49 0s3.44-.66 3.44-5.82v-41.29a10.1 10.1 0 0 0-2.13-8.2 10.28 10.28 0 0 1-2.06-4.87l-3.42-25.2a1.13 1.13 0 0 0-1.2-.97Z"/><path fill="#3f3d56" d="M360.12 315.71a62.67 62.67 0 0 1-7.77-.48 4.18 4.18 0 0 1-3.1-1.27c-1.75-1.81-1.65-4.92-1.65-5.06v-41.86a11.4 11.4 0 0 1 2.56-8.64 9.3 9.3 0 0 0 1.97-4.54l3.29-24.68a1.84 1.84 0 0 1 2.02-1.58 32.66 32.66 0 0 0 5-.12h.03a1.83 1.83 0 0 1 1.95 1.57l3.41 25.2a9.58 9.58 0 0 0 1.92 4.53 10.78 10.78 0 0 1 2.27 8.7v41.23c0 5.68-3.97 6.5-4.01 6.5a63.14 63.14 0 0 1-7.9.5Zm-2.86-86.7a.42.42 0 0 0-.44.36l-3.29 24.69a10.74 10.74 0 0 1-2.27 5.24 10 10 0 0 0-2.25 7.61v42.02c0 .05-.07 2.68 1.26 4.05a2.8 2.8 0 0 0 2.12.83l.09.01a61.46 61.46 0 0 0 15.3 0c.07-.02 2.83-.64 2.83-5.1V267.3a9.38 9.38 0 0 0-1.97-7.64 11.01 11.01 0 0 1-2.2-5.2L363 229.24a.42.42 0 0 0-.43-.36 34.36 34.36 0 0 1-5.26.12.56.56 0 0 0-.06 0Z"/><path fill="var(--background-secondary)" d="M357.32 267.75h5.22a7.82 7.82 0 0 1 7.82 7.82v19.62a7.82 7.82 0 0 1-7.82 7.82h-5.22a7.82 7.82 0 0 1-7.82-7.82v-19.62a7.82 7.82 0 0 1 7.82-7.82Z"/><path fill="#fff" d="M332.52 192.18a33.5 33.5 0 0 1-5.16.12 1.13 1.13 0 0 0-1.24.98l-3.29 24.68a10.02 10.02 0 0 1-2.12 4.9 10.66 10.66 0 0 0-2.4 8.14v41.93s-.21 5.6 4.08 5.6a62.1 62.1 0 0 0 15.49 0s3.44-.66 3.44-5.82v-41.29a10.1 10.1 0 0 0-2.13-8.2 10.28 10.28 0 0 1-2.06-4.87l-3.42-25.2a1.13 1.13 0 0 0-1.2-.97Z"/><path fill="#3f3d56" d="M330.12 279.71a62.67 62.67 0 0 1-7.77-.48 4.18 4.18 0 0 1-3.1-1.27c-1.75-1.81-1.65-4.92-1.65-5.06v-41.86a11.4 11.4 0 0 1 2.56-8.64 9.3 9.3 0 0 0 1.97-4.54l3.29-24.68a1.84 1.84 0 0 1 2.02-1.58 32.66 32.66 0 0 0 5-.12h.03a1.83 1.83 0 0 1 1.95 1.57l3.41 25.2a9.58 9.58 0 0 0 1.92 4.53 10.78 10.78 0 0 1 2.27 8.7v41.23c0 5.68-3.97 6.5-4.01 6.5a63.14 63.14 0 0 1-7.9.5Zm-2.86-86.7a.42.42 0 0 0-.44.36l-3.29 24.69a10.74 10.74 0 0 1-2.27 5.24 10 10 0 0 0-2.25 7.61v42.02c0 .05-.07 2.68 1.26 4.05a2.8 2.8 0 0 0 2.12.83l.09.01a61.46 61.46 0 0 0 15.3 0c.07-.02 2.83-.64 2.83-5.1V231.3a9.38 9.38 0 0 0-1.97-7.64 11.01 11.01 0 0 1-2.2-5.2L333 193.24a.42.42 0 0 0-.43-.36 34.36 34.36 0 0 1-5.26.12.56.56 0 0 0-.06 0Z"/><path fill="var(--background-secondary)" d="M327.32 231.75h5.22a7.82 7.82 0 0 1 7.82 7.82v19.62a7.82 7.82 0 0 1-7.82 7.82h-5.22a7.82 7.82 0 0 1-7.82-7.82v-19.62a7.82 7.82 0 0 1 7.82-7.82Z"/><circle cx="56.19" cy="46" r="25" fill="#f0f0f0"/><circle cx="632.19" cy="25" r="25" fill="#f0f0f0"/><circle cx="346.19" cy="95" r="18" fill="#f0f0f0"/></svg>