<svg xmlns="http://www.w3.org/2000/svg" data-name="Layer 1" viewBox="0 0 1100.5 691.71"><path fill="#3f3d56" d="M1100.5 284.1h-1.86v-50.92a29.47 29.47 0 0 0-29.47-29.47H961.3a29.47 29.47 0 0 0-29.47 29.47V512.5a29.47 29.47 0 0 0 29.47 29.47h107.87a29.47 29.47 0 0 0 29.47-29.47V320.33h1.86Z"/><path fill="#d0cde1" d="M1092.37 234.9v278.93a22.01 22.01 0 0 1-22 22h-108.4a22 22 0 0 1-22-22V234.9a22 22 0 0 1 22-22h13.15a10.46 10.46 0 0 0 9.68 14.4h61.8a10.44 10.44 0 0 0 9.68-14.4h14.08a22 22 0 0 1 22.01 22Z"/><path fill="#008837" d="M945.85 355.71h126v34h-126z"/><path fill="#3f3d56" d="M1076.85 383.7h-122a3 3 0 0 1-3-3v-30a3 3 0 0 1 3-3h122a3 3 0 0 1 3 3v30a3 3 0 0 1-3 3Zm-122-34a1 1 0 0 0-1 1v30a1 1 0 0 0 1 1h122a1 1 0 0 0 1-1v-30a1 1 0 0 0-1-1Z"/><path fill="#3f3d56" d="M959.85 374.71h16v2h-16zm22 0h16v2h-16zm22 0h16v2h-16zm22 0h16v2h-16zm22 0h16v2h-16z"/><path d="M1092.37 485.47v28.36a22.01 22.01 0 0 1-22 22h-108.4a22 22 0 0 1-22-22V383.37Z" opacity=".1"/><path fill="#d0cde1" d="M99.85 459.71h473v232h-473z"/><path d="M452.6 691.7H101.85a2 2 0 0 1-2-2v-228a2 2 0 0 1 2-2h4.44Z" opacity=".1"/><path fill="#3f3d56" d="M318.85 490.71h733v2h-733zM550.6 4.32H341.1V0h-94.99v4.32H35.76a14.17 14.17 0 0 0-14.17 14.17v286.85a14.17 14.17 0 0 0 14.17 14.17h514.83a14.17 14.17 0 0 0 14.17-14.17V18.5A14.17 14.17 0 0 0 550.6 4.32Z"/><path fill="#d0cde1" d="M40.59 29.36h505.17v284.98H40.59z"/><circle cx="292.74" cy="16.41" r="5.18" fill="#008837"/><path fill="#3f3d56" d="M190.85 135.7h-12a3 3 0 0 1-3-3v-12a3 3 0 0 1 3-3h12a3 3 0 0 1 3 3v12a3 3 0 0 1-3 3Zm-12-16a1 1 0 0 0-1 1v12a1 1 0 0 0 1 1h12a1 1 0 0 0 1-1v-12a1 1 0 0 0-1-1Z"/><path fill="#3f3d56" d="M176.85 133.71h228v2h-228z"/><path fill="#008837" d="M345.85 188.71h53v16h-53z"/><path fill="#3f3d56" d="M402.85 200.7h-49a3 3 0 0 1-3-3v-12a3 3 0 0 1 3-3h49a3 3 0 0 1 3 3v12a3 3 0 0 1-3 3Zm-49-16a1 1 0 0 0-1 1v12a1 1 0 0 0 1 1h49a1 1 0 0 0 1-1v-12a1 1 0 0 0-1-1Z"/><path fill="#008837" d="M703.85 206.71h100v70h-100z"/><path fill="#3f3d56" d="M813.85 271.2h-96a4 4 0 0 1-4-4v-66a4 4 0 0 1 4-4h96a4 4 0 0 1 4 4v66a4 4 0 0 1-4 4Zm-96-70v66h96v-66Z"/><path fill="#3f3d56" d="M802.85 198.7h-4a33 33 0 1 0-66 0h-4a37 37 0 1 1 74 0Zm-27 27.5a10 10 0 1 0-15.3 8.48v10.73a5.3 5.3 0 0 0 5.3 5.3 5.3 5.3 0 0 0 5.3-5.3v-10.73a9.98 9.98 0 0 0 4.7-8.47Zm-491.5 336.51h16v2h-16zm22 0h16v2h-16zm22 0h16v2h-16zm22 0h16v2h-16zm22 0h16v2h-16z"/><path fill="#3f3d56" d="M593.85 674.7h-469a4 4 0 0 1-4-4v-228a4 4 0 0 1 4-4h469a4 4 0 0 1 4 4v228a4 4 0 0 1-4 4Zm-469-232v228h469v-228Z"/><circle cx="145.85" cy="470.71" r="6" fill="#3f3d56"/><circle cx="166.85" cy="470.71" r="6" fill="#3f3d56"/><circle cx="187.85" cy="470.71" r="6" fill="#3f3d56"/><path fill="#3f3d56" d="M403.85 576.7h-135a3 3 0 0 1-3-3v-34a3 3 0 0 1 3-3h135a3 3 0 0 1 3 3v34a3 3 0 0 1-3 3Zm-135-38a1 1 0 0 0-1 1v34a1 1 0 0 0 1 1h135a1 1 0 0 0 1-1v-34a1 1 0 0 0-1-1Z"/><circle cx="437.85" cy="559.71" r="18" fill="#008837"/><path fill="#3f3d56" d="M443.85 575.7a19 19 0 1 1 19-19 19.02 19.02 0 0 1-19 19Zm0-36a17 17 0 1 0 17 17 17.02 17.02 0 0 0-17-17Z"/><path fill="#3f3d56" d="m444.12 563.8-9.68-9.68 2.82-2.83 6.32 6.32 17.64-25.06 3.27 2.31-20.37 28.94z"/><path d="M433.76 314.34H40.59V50.95l393.17 263.39z" opacity=".1"/><path fill="#3f3d56" d="M578.95 309.15h-49.3v-3.55a.7.7 0 0 0-.7-.7h-16.91a.7.7 0 0 0-.7.7v3.55h-10.57v-3.55a.7.7 0 0 0-.7-.7h-16.9a.7.7 0 0 0-.71.7v3.55h-10.57v-3.55a.7.7 0 0 0-.7-.7h-16.9a.7.7 0 0 0-.71.7v3.55H443v-3.55a.7.7 0 0 0-.7-.7h-16.9a.7.7 0 0 0-.7.7v3.55h-10.57v-3.55a.7.7 0 0 0-.7-.7h-16.91a.7.7 0 0 0-.7.7v3.55h-10.57v-3.55a.7.7 0 0 0-.7-.7h-16.9a.7.7 0 0 0-.71.7v3.55h-10.57v-3.55a.7.7 0 0 0-.7-.7h-132.4a.7.7 0 0 0-.7.7v3.55H212v-3.55a.7.7 0 0 0-.7-.7h-16.9a.7.7 0 0 0-.71.7v3.55h-10.57v-3.55a.7.7 0 0 0-.7-.7h-16.9a.7.7 0 0 0-.71.7v3.55h-10.56v-3.55a.7.7 0 0 0-.7-.7h-16.91a.7.7 0 0 0-.7.7v3.55h-10.57v-3.55a.7.7 0 0 0-.7-.7h-16.91a.7.7 0 0 0-.7.7v3.55H96.49v-3.55a.7.7 0 0 0-.7-.7h-16.9a.7.7 0 0 0-.71.7v3.55H67.6v-3.55a.7.7 0 0 0-.7-.7H50a.7.7 0 0 0-.7.7v3.55H16.9A16.9 16.9 0 0 0 0 326.05v7.65a16.9 16.9 0 0 0 16.9 16.9h562.05a16.9 16.9 0 0 0 16.9-16.9v-7.64a16.9 16.9 0 0 0-16.9-16.9Zm-154.1-91.45h-264a3 3 0 0 1-3-3v-110a3 3 0 0 1 3-3h264a3 3 0 0 1 3 3v110a3 3 0 0 1-3 3Zm-264-114a1 1 0 0 0-1 1v110a1 1 0 0 0 1 1h264a1 1 0 0 0 1-1v-110a1 1 0 0 0-1-1Z"/><path fill="#3f3d56" d="M190.85 165.7h-12a3 3 0 0 1-3-3v-12a3 3 0 0 1 3-3h12a3 3 0 0 1 3 3v12a3 3 0 0 1-3 3Zm-12-16a1 1 0 0 0-1 1v12a1 1 0 0 0 1 1h12a1 1 0 0 0 1-1v-12a1 1 0 0 0-1-1Z"/><path fill="#3f3d56" d="M176.85 163.71h228v2h-228zm88 106h733v2h-733z"/><circle cx="264.85" cy="269.71" r="14" fill="#3f3d56"/><circle cx="997.85" cy="271.71" r="11" fill="#3f3d56"/><circle cx="1051.85" cy="492.71" r="11" fill="#3f3d56"/><circle cx="321.85" cy="492.71" r="11" fill="#3f3d56"/></svg>