<svg xmlns="http://www.w3.org/2000/svg" data-name="Layer 1" viewBox="0 0 570 511.67"><path fill="#3f3d56" d="M565 195.67a1 1 0 0 1-.57-.17L287.87 2.9a5.02 5.02 0 0 0-5.73 0L7.57 195.5a1 1 0 0 1-1.14-1.64L280.99 1.26a7.02 7.02 0 0 1 8.02 0l276.56 192.6a1 1 0 0 1-.57 1.81Z"/><path fill="#e6e6e6" d="M23.26 202.5 285.28 8.32l264 208-250.5 148.5-136-31L23.26 202.5z"/><path fill="#e5e5e5" d="M174.26 456.54H44.82a6.05 6.05 0 1 1 0-12.1h129.44a6.05 6.05 0 1 1 0 12.1Zm-83-26H44.82a6.05 6.05 0 1 1 0-12.1h46.44a6.05 6.05 0 1 1 0 12.1Z"/><path fill="#fff" d="M288.96 310.66a7.56 7.56 0 0 1-2.87-.56L124.5 243.05V33.17a7 7 0 0 1 7-7h310a7 7 0 0 1 7 7V243.2l-.3.13-156.28 66.73a7.62 7.62 0 0 1-2.96.6Z"/><path fill="#3f3d56" d="M288.96 311.16a8.07 8.07 0 0 1-3.06-.6L124 243.38V33.18a7.5 7.5 0 0 1 7.5-7.5h310a7.5 7.5 0 0 1 7.5 7.5v210.35l-156.89 67a8.11 8.11 0 0 1-3.15.63ZM126 242.05l160.66 66.66a6.12 6.12 0 0 0 4.67-.03L447 242.2V33.17a5.5 5.5 0 0 0-5.5-5.5h-310a5.5 5.5 0 0 0-5.5 5.5Z"/><path fill="#3f3d56" d="M563 193.67h-.2L448 242.7l-157.07 67.07a5.07 5.07 0 0 1-3.88.02L125 242.55 7.38 193.75l-.18-.08H7a7 7 0 0 0-7 7v304a7 7 0 0 0 7 7h556a7 7 0 0 0 7-7v-304a7 7 0 0 0-7-7Zm5 311a5 5 0 0 1-5 5H7a5 5 0 0 1-5-5v-304a5.01 5.01 0 0 1 4.81-5L125 244.71l161.28 66.92a7.12 7.12 0 0 0 5.44-.03L448 244.86l115.2-49.19a5.02 5.02 0 0 1 4.8 5Z"/><path fill="#e5e5e5" d="M287.35 251.15a27.5 27.5 0 0 1-16.55-5.5l-.3-.22-62.3-47.7a27.68 27.68 0 1 1 33.67-43.96l40.36 30.95L377.6 60.33a27.68 27.68 0 0 1 38.82-5.12l-.6.8.61-.79a27.71 27.71 0 0 1 5.13 38.81l-112.2 146.31a27.7 27.7 0 0 1-22.01 10.8Z"/></svg>