<svg xmlns="http://www.w3.org/2000/svg" data-name="Layer 1" viewBox="0 0 717.67 430.74">
  <path fill="#f2f2f2" d="M120.43 410.02a2.8 2.8 0 0 1-2.04-4.87l.2-.76-.08-.18a7.54 7.54 0 0 0-13.9.05c-2.28 5.48-5.18 10.96-5.89 16.75a22.3 22.3 0 0 0 .4 7.68 89.42 89.42 0 0 1-8.14-37.14 86.3 86.3 0 0 1 .53-9.63q.45-3.93 1.23-7.8a90.46 90.46 0 0 1 17.94-38.35 24.07 24.07 0 0 0 10.01-10.38 18.36 18.36 0 0 0 1.67-5.02c-.48.06-1.83-7.36-1.47-7.82-.68-1.03-1.9-1.54-2.63-2.54-3.7-5-8.78-4.13-11.43 2.66-5.67 2.87-5.72 7.61-2.24 12.17 2.2 2.9 2.51 6.84 4.45 9.94l-.6.76a91.04 91.04 0 0 0-9.5 15.06 37.85 37.85 0 0 0-2.26-17.58c-2.17-5.22-6.22-9.61-9.8-14.12-4.28-5.42-13.07-3.06-13.83 3.81l-.02.2q.8.45 1.56.95a3.8 3.8 0 0 1-1.54 6.93l-.07.01a37.89 37.89 0 0 0 1 5.67c-4.58 17.71 5.3 24.16 19.42 24.45.31.16.61.32.93.47a92.92 92.92 0 0 0-5 23.54 88.14 88.14 0 0 0 .06 14.23l-.03-.17a23.29 23.29 0 0 0-7.95-13.44c-6.11-5.03-14.76-6.88-21.36-10.92a4.37 4.37 0 0 0-6.7 4.25l.03.18a25.58 25.58 0 0 1 2.87 1.38q.8.45 1.56.95a3.8 3.8 0 0 1-1.54 6.93l-.07.01-.16.03A37.92 37.92 0 0 0 63 399.28c2.87 15.46 15.16 16.93 28.32 12.43a92.9 92.9 0 0 0 6.25 18.21h22.3l.21-.75a25.33 25.33 0 0 1-6.16-.36c1.65-2.03 3.3-4.08 4.96-6.1a1.39 1.39 0 0 0 .1-.13l2.53-3.1a37.1 37.1 0 0 0-1.09-9.46Zm465.62 0a2.8 2.8 0 0 0 2.04-4.87l-.2-.76.08-.18a7.54 7.54 0 0 1 13.9.05c2.28 5.48 5.18 10.96 5.89 16.75a22.3 22.3 0 0 1-.4 7.68 89.42 89.42 0 0 0 8.14-37.14 86.3 86.3 0 0 0-.53-9.63q-.45-3.93-1.23-7.8a90.46 90.46 0 0 0-17.94-38.35 24.07 24.07 0 0 1-10.01-10.38 18.36 18.36 0 0 1-1.67-5.02c.48.06 1.84-7.36 1.47-7.82.68-1.03 1.9-1.54 2.63-2.54 3.7-5 8.78-4.13 11.43 2.66 5.67 2.87 5.72 7.61 2.25 12.17-2.22 2.9-2.52 6.84-4.46 9.94l.6.76a91.04 91.04 0 0 1 9.5 15.06 37.85 37.85 0 0 1 2.27-17.58c2.16-5.22 6.21-9.61 9.78-14.12 4.29-5.42 13.08-3.06 13.84 3.81l.02.2q-.8.45-1.56.95a3.8 3.8 0 0 0 1.54 6.93l.08.01a37.89 37.89 0 0 1-1 5.67c4.58 17.71-5.31 24.16-19.43 24.45l-.92.47a92.93 92.93 0 0 1 5 23.54 88.14 88.14 0 0 1-.07 14.23l.03-.17a23.29 23.29 0 0 1 7.95-13.44c6.12-5.03 14.76-6.88 21.36-10.92a4.37 4.37 0 0 1 6.7 4.25l-.03.18a25.58 25.58 0 0 0-2.87 1.38q-.8.45-1.56.95a3.8 3.8 0 0 0 1.54 6.93l.07.01.16.03a37.92 37.92 0 0 1-6.97 10.92c-2.86 15.46-15.16 16.93-28.32 12.43a92.9 92.9 0 0 1-6.25 18.21h-22.29l-.22-.75a25.33 25.33 0 0 0 6.16-.36c-1.65-2.03-3.3-4.08-4.96-6.1a1.39 1.39 0 0 1-.1-.13l-2.53-3.1a37.1 37.1 0 0 1 1.1-9.46Zm-439.98 19.4h35.97c6.16-20.71.04-69.67 8.15-89.68 15.56-38.37 35.43-78.85 72.53-97.59 15.84-8 33.11-11.12 50.75-10.95 24.37.23 49.42 6.77 72.35 15.44a672.45 672.45 0 0 1 27.94 11.4c34.88 14.99 69.39 31.32 106.9 35.73 47.48 5.58 103.29-15.66 116.25-61.4 9.9-35.03-7.92-71.4-26.61-102.68-18.7-31.28-39.58-64.75-36.17-100.96.01-.12.02-.26.05-.38 1.28-13 9.05-22.36 19.9-28.35h-47.24c-.62 33.79 18.92 63.6 36.51 93.05 18.7 31.27 36.51 67.65 26.62 102.67-12.97 45.74-120.33-7.87-167.8-13.47-13.4-1.57 7.89 4.01-4.9 0-20.04-6.28-22.26 51.37-41.77 42.9-12.15-5.27-24.3-10.51-36.63-15.17a305.14 305.14 0 0 0-15.58-5.42l-.02-.01c-35.4-11.21-74.12-15.58-106.82.63l-.68.33c-37.1 18.72-56.97 59.2-72.53 97.57-12.86 31.72-10.83 92.89-17.17 126.34Z"/>
  <circle cx="346.21" cy="263.14" r="165.22" fill="#fff"/>
  <path fill="#3f3d56" d="M345.74 429.42c-163.47 3.76-167.06-73.9-167.06-166.28 0-92.37 75.16-167.53 167.53-167.53s167.53 75.16 167.53 167.53c0 92.38-75.62 166.28-168 166.28Zm.47-329.2c-89.83 0-161.4 73.1-162.92 162.92-1.4 83.54 87.35 187.8 162.92 162.92 40.53-44.64 155.11-92.71 162.92-162.92 9.93-89.28-73.08-162.92-162.92-162.92Z"/>
  <path fill="#f2f2f2" d="M323.67 349.13a18.37 18.37 0 0 1-14.7-7.35l-45.07-60.1a18.38 18.38 0 1 1 29.4-22.06l29.5 39.32 75.73-113.6a18.38 18.38 0 0 1 30.59 20.38l-90.15 135.23a18.39 18.39 0 0 1-14.79 8.18h-.5Z"/>
  <path fill="var(--accent)" d="M317.67 347.13a18.37 18.37 0 0 1-14.7-7.35l-45.07-60.1a18.38 18.38 0 1 1 29.4-22.06l29.5 39.32 75.73-113.6a18.38 18.38 0 1 1 30.59 20.38l-90.15 135.23a18.39 18.39 0 0 1-14.79 8.18h-.5z"/>
</svg>