<svg xmlns="http://www.w3.org/2000/svg" data-name="Layer 1" viewBox="0 0 922 747"><defs/><path fill="#3f3d56" d="M282 237c-3 101 132 204 299 204s435-199 308-204c-244-9-328-111-303-182 43-129-299-16-304 182z"/><path fill="var(--primary)" d="M505 157l-2-1 1-2-2 2-2-2v1l2 1-1 2v1l2-2 2 1v-1zm152 148l-2-1 1-2-2 2-2-2v1l2 1-1 2v1l2-2 2 1v-1zm-246-18l-2-1 1-2-2 2-2-2v1l2 1-1 2v1l2-2 2 1v-1zm184 96l-2-1 1-2-2 2-2-2v1l2 1-1 2v1l2-2 2 1v-1zm-171-37l-2-1 1-2-2 2-2-2v1l2 1-1 2v1l2-2 2 1v-1zm412-49l-2-1 1-2-2 2-2-2v1l2 1-1 2v1l2-2 2 1v-1zM382 176l-2-1 1-2-2 2-2-2v1l2 1-1 2v1l2-2 2 1v-1z"/><path fill="#fff" d="M553 199l-3-2 2-3h-1l-2 3-2-2-1 1 3 1-2 3 1 1 2-3 3 2v-1z"/><circle cx="450" cy="233.7" r="3" fill="var(--primary)"/><circle cx="333" cy="233.7" r="3" fill="var(--primary)"/><circle cx="537" cy="123.7" r="3" fill="var(--primary)"/><circle cx="509" cy="306.7" r="3" fill="var(--primary)"/><circle cx="507" cy="243.7" r="2" fill="var(--primary)"/><circle cx="712" cy="331.7" r="2" fill="#ff6584"/><circle cx="406" cy="222.7" r="2" fill="#ff6584"/><circle cx="531" cy="60.7" r="2" fill="#ff6584"/><circle cx="449" cy="153.7" r="2" fill="var(--primary)"/><circle cx="474" cy="86.7" r="2" fill="#fff"/><circle cx="773" cy="266.7" r="3" fill="var(--primary)"/><circle cx="574" cy="277.7" r="3" fill="var(--primary)"/><circle cx="523" cy="348.7" r="10" fill="var(--primary)"/><circle cx="644" cy="239.7" r="3" fill="#fff"/><path fill="#2f2e41" d="M92 721s-6 23-1 24l37 2c7 1 18-1 18-6s-13-7-13-7l-19-11-22-2z"/><path fill="#2f2e41" d="M98 553l2 23c0 2-11 98-9 117s0 26 0 30 20 2 20 2l21-134-11-41z"/><path fill="#2f2e41" d="M99 726s-5 18 0 19 30-1 36 0 19 1 19-3-13-8-13-8l-20-11c-1-1-22 3-22 3z"/><path fill="#2f2e41" d="M92 529s-7 18 2 27 18 27 18 29-17 122-15 130 2 12 2 14 6 8 13 8 18-6 19-11-1-47-1-54 25-135 22-138-60-5-60-5z"/><circle cx="138.7" cy="368.6" r="20.7" fill="#9f616a"/><path fill="#9f616a" d="M126 379s4 22 1 25 23 6 23 6l4-33c1-3-28 2-28 2z"/><path fill="var(--primary)" d="M154 408s4-21-26-15c0 0-27 22-26 43s-10 80-8 85-8 9-4 11 69 13 71 0 0-45 1-51 0-57-4-63-4-10-4-10z"/><path fill="#9f616a" d="M141 557s-9 34 3 34 10-36 10-36z"/><path fill="#2f2e41" d="M147 372c0 2-3 2-7 2a33 33 0 01-5-1c-2 0-4 2-5 5l-2 13c-9 5-36-28-22-37 4-3 21-15 32-12s7 16 7 16l1 4a63 63 0 011 9 4 4 0 010 1z"/><path fill="var(--primary)" d="M148 414s-20-1-22 29-1 59-1 60 8 58 16 58 14-1 16-4-5-47-5-47-3-46 2-61 5-33-6-35z"/><path d="M125 452l-6 65 20 45-13-46-1-65m29 8l2 76-6-41 4-35z" opacity=".1" style="isolation:isolate"/><path fill="#3f3d56" d="M258 747H0v-2h258v2z"/></svg>