<svg xmlns="http://www.w3.org/2000/svg" data-name="Layer 1" viewBox="0 0 922.18516 747.35665"><defs/><path fill="#3f3d56" d="M282.00406 237.24567c-2.67984 100.75634 131.62869 203.61052 299.27661 203.61052s434.62891-198.63676 307.83022-203.61052c-244.32514-9.5838-328.052-110.77046-303.55341-182.5 43.87495-128.46168-298.27681-15.88948-303.55342 182.5z"/><path fill="#0560ff" d="M505.004 157.445l-2.044-1.301 1.301-2.044-.558-.354-1.3 2.044-2.044-1.301-.355.557 2.044 1.301-1.301 2.044.558.355 1.3-2.044 2.044 1.3.355-.557zM657.004 305.445l-2.044-1.301 1.301-2.044-.558-.354-1.3 2.044-2.044-1.301-.355.557 2.044 1.301-1.301 2.044.558.355 1.3-2.044 2.044 1.3.355-.557zM411.004 287.445l-2.044-1.301 1.301-2.044-.558-.354-1.3 2.044-2.044-1.301-.355.557 2.044 1.301-1.301 2.044.558.355 1.3-2.044 2.044 1.3.355-.557zM595.004 383.445l-2.044-1.301 1.301-2.044-.558-.354-1.3 2.044-2.044-1.301-.355.557 2.044 1.301-1.301 2.044.558.355 1.3-2.044 2.044 1.3.355-.557zM424.004 346.445l-2.044-1.301 1.301-2.044-.558-.354-1.3 2.044-2.044-1.301-.355.557 2.044 1.301-1.301 2.044.558.355 1.3-2.044 2.044 1.3.355-.557zM836.004 297.445l-2.044-1.301 1.301-2.044-.558-.354-1.3 2.044-2.044-1.301-.355.557 2.044 1.301-1.301 2.044.558.355 1.3-2.044 2.044 1.3.355-.557zM382.004 176.445l-2.044-1.301 1.301-2.044-.558-.354-1.3 2.044-2.044-1.301-.355.557 2.044 1.301-1.301 2.044.558.355 1.3-2.044 2.044 1.3.355-.557z"/><path fill="#fff" d="M553.004 198.924l-2.862-1.82 1.821-2.862-.78-.496-1.821 2.861-2.861-1.821-.497.781 2.862 1.82-1.821 2.862.78.497 1.821-2.862 2.861 1.821.497-.781z"/><circle cx="450.00401" cy="233.74558" r="3" fill="#0560ff"/><circle cx="333.00401" cy="233.74558" r="3" fill="#0560ff"/><circle cx="537.00401" cy="123.74558" r="3" fill="#0560ff"/><circle cx="509.00401" cy="306.74558" r="3" fill="#0560ff"/><circle cx="507.00401" cy="243.74558" r="2" fill="#0560ff"/><circle cx="712.00401" cy="331.74558" r="2" fill="#ff6584"/><circle cx="406.00401" cy="222.74558" r="2" fill="#ff6584"/><circle cx="531.00401" cy="60.74558" r="2" fill="#ff6584"/><circle cx="449.00401" cy="153.74558" r="2" fill="#0560ff"/><circle cx="474.00401" cy="86.74558" r="2" fill="#fff"/><circle cx="773.00401" cy="266.74558" r="3" fill="#0560ff"/><circle cx="574.00401" cy="277.74558" r="3" fill="#0560ff"/><circle cx="523.00401" cy="348.74558" r="10" fill="#0560ff"/><circle cx="644.00401" cy="239.74558" r="3" fill="#fff"/><path fill="#2f2e41" d="M91.9285 720.61433s-5.597 23.40551-.50881 24.42314 30.02012.6892 36.1259 1.70682 18.82618-.68919 18.82618-5.26849-13.22919-7.63227-13.22919-7.63227-18.82617-10.17629-19.335-10.68513-21.87908-2.54407-21.87908-2.54407z"/><path fill="#2f2e41" d="M97.92108 553.4916s1.825 20.68377 1.825 22.50877-10.95022 97.94367-8.51684 117.41076-.22527 25.68432-.22527 29.33445 19.6924 2.29952 19.6924 2.29952l21.29211-134.4444-10.95022-40.15079z"/><path fill="#2f2e41" d="M99.05193 725.7377s-5.08814 18.31737 0 19.335 30.02014-1.16571 36.12591-.14808 18.82617 1.16571 18.82617-3.41359-13.22919-7.63225-13.22919-7.63225-18.82618-10.17628-19.335-10.68513-22.38789 2.54405-22.38789 2.54405z"/><path fill="#2f2e41" d="M92.44598 529.15776s-7.30014 17.642 1.21669 26.76721 18.25038 27.37553 18.25038 28.59222-17.03362 122.27751-14.60029 130.186 1.825 12.77526 1.21668 13.99195 6.08346 7.90851 13.38361 7.90851 18.25037-5.47513 19.467-10.34188-1.825-46.84262-1.21668-54.75113 24.94221-134.44437 21.90051-137.48613-59.6179-4.86675-59.6179-4.86675z"/><circle cx="138.68027" cy="368.55447" r="20.68377" fill="#9f616a"/><path fill="#9f616a" d="M125.90501 378.89633s4.25842 22.50881 1.21668 24.94218 23.11717 6.08345 23.11717 6.08345 3.04172-29.80894 3.65009-32.8507-27.98394 1.82507-27.98394 1.82507z"/><path fill="#0560ff" d="M153.88891 408.09693s3.924-21.43479-25.8849-15.35135c0 0-27.21669 22.31626-26 43s-9.558 80.63684-8.3413 84.89529-7.30015 9.73351-3.65007 11.55857 69.35142 12.77527 71.17645 0-.60836-45.01761.60835-51.101 0-57.1845-3.65007-63.26791-4.25846-9.7336-4.25846-9.7336z"/><path fill="#9f616a" d="M141.11366 556.53333s-9.12519 34.67573 2.43338 34.67573 10.95022-35.89241 10.95022-35.89241z"/><path fill="#2f2e41" d="M147.10735 372.00624c-.26387 1.74438-2.95756 2.469-6.91157 2.12925l-.006-.00091a33.1451 33.1451 0 01-4.9659-.84962c-2.46763-.60707-3.858 1.58829-4.75466 4.62742-1.472 5.01326-1.58306 12.33657-2.878 13.29123-9.03973 4.99664-35.75065-28.50373-22.06325-37.17712 4.875-3.08915 21.28527-14.623 32.62282-12.29264s6.74781 16.4024 6.74781 16.4024.41583 1.8472.88756 4.21965a63.44555 63.44555 0 011.35858 9.07762 4.42082 4.42082 0 01-.03739.57272z"/><path fill="#0560ff" d="M148.41381 414.18041s-20.68375-1.21669-22.50879 29.20063-1.21669 59.0095-1.21669 59.61788 8.51684 58.40119 16.42533 58.40119 13.992-1.21669 15.817-4.25845-4.86677-46.84261-4.86677-46.84261-3.04172-46.2343 1.825-60.83457 5.47514-33.45904-5.47508-35.28407z"/><path d="M125.004 451.746l-6 65 20 45-13-46-1-65M154.004 458.746l1.528 76.629-5.528-41.629 4-35z" opacity=".1" style="isolation:isolate"/><path fill="#3f3d56" d="M257.738 747.357H0v-2.106h258.12l-.382 2.106z"/></svg>