<svg width="210" height="210" viewBox="0 0 210 210" fill="none" xmlns="http://www.w3.org/2000/svg">
<circle cx="105" cy="105" r="82.5" stroke="#EFEFEF"/>
<circle cx="105" cy="105" r="104.5" stroke="#EFEFEF"/>
<circle cx="104.5" cy="104.5" r="65.5" fill="#008836" fill-opacity="0.05"/>
<circle cx="105" cy="105" r="49" fill="#008836" fill-opacity="0.05"/>
<circle cx="105" cy="105" r="36" fill="#008836" fill-opacity="0.06"/>
<circle cx="104.5" cy="104.5" r="22.5" fill="#008836"/>
<path d="M104.5 93.4004C104.728 93.4004 104.937 93.5296 105.038 93.7344L108.143 100.034L115.087 101.051C115.313 101.084 115.5 101.242 115.57 101.459C115.641 101.676 115.582 101.915 115.419 102.074L110.395 106.975L111.58 113.898C111.619 114.123 111.526 114.351 111.342 114.485C111.157 114.62 110.911 114.638 110.709 114.531L104.5 111.26L98.291 114.531C98.0889 114.638 97.8431 114.62 97.6582 114.485C97.4736 114.351 97.3814 114.123 97.4199 113.898L98.6045 106.975L93.5811 102.074C93.4177 101.915 93.3592 101.676 93.4297 101.459C93.5003 101.242 93.6874 101.084 93.9131 101.051L100.856 100.034L103.962 93.7344L104.005 93.6611C104.116 93.4992 104.3 93.4004 104.5 93.4004Z" stroke="white" stroke-width="1.2" stroke-linecap="round" stroke-linejoin="round"/>
</svg>
