<?xml version="1.0" encoding="UTF-8" standalone="no"?>
<svg
   viewBox="0 0 339 339"
   version="1.1"
   id="svg27"
   sodipodi:docname="logo.svg"
   inkscape:export-filename="/home/thecodrr/logo.png"
   inkscape:export-xdpi="289.98001"
   inkscape:export-ydpi="289.98001"
   inkscape:version="1.1.1 (3bf5ae0d25, 2021-09-20)"
   xmlns:inkscape="http://www.inkscape.org/namespaces/inkscape"
   xmlns:sodipodi="http://sodipodi.sourceforge.net/DTD/sodipodi-0.dtd"
   xmlns:xlink="http://www.w3.org/1999/xlink"
   xmlns="http://www.w3.org/2000/svg"
   xmlns:svg="http://www.w3.org/2000/svg">
  <sodipodi:namedview
     id="namedview29"
     pagecolor="#ffffff"
     bordercolor="#666666"
     borderopacity="1.0"
     inkscape:pageshadow="2"
     inkscape:pageopacity="0.0"
     inkscape:pagecheckerboard="0"
     showgrid="false"
     inkscape:zoom="1.529601"
     inkscape:cx="168.99832"
     inkscape:cy="167.03702"
     inkscape:window-width="1920"
     inkscape:window-height="1001"
     inkscape:window-x="0"
     inkscape:window-y="0"
     inkscape:window-maximized="1"
     inkscape:current-layer="g25" />
  <defs
     id="defs2" />
  <defs
     id="defs11">
    <linearGradient
       id="b"
       x1="188.61227"
       x2="193.54405"
       y1="165.2058"
       y2="216.81519"
       gradientTransform="rotate(5 4448 -4204) scale(2.93671)"
       gradientUnits="userSpaceOnUse"
       xlink:href="#a" />
    <linearGradient
       id="a">
      <stop
         offset="0"
         id="stop5" />
      <stop
         offset="1"
         stop-color="#fff9f9"
         stop-opacity="0"
         id="stop7" />
    </linearGradient>
    <linearGradient
       id="c"
       x1="167.8"
       x2="270.6"
       y1="76.9"
       y2="64.2"
       gradientTransform="rotate(5 465 -2050) scale(1.50082)"
       gradientUnits="userSpaceOnUse"
       xlink:href="#a" />
  </defs>
  <g
     transform="translate(0 42)"
     id="g25">
    <path
       fill="url(#b)"
       d="M160 205l154 42-141 44-155-42z"
       id="path13"
       style="fill:url(#b)" />
    <path
       fill="url(#c)"
       d="M160-35v240l154 42 1-253z"
       id="path15" />
    <path
       fill="none"
       stroke-width="1.2"
       d="M160 205V-35m0 240L18 249m142-44l154 41"
       id="path17" />
    <path
       d="M84 109l35 54V98l21-7v91l-27 9-35-54v65l-21 6v-91z"
       id="path19" />
    <rect
       width="86.1"
       height="12.6"
       x="185"
       y="97"
       fill="#bebebe"
       ry="2.3"
       transform="skewY(15) scale(.9669 1)"
       id="rect21" />
    <path
       fill="#bebebe"
       d="M181 169l99 26 2 3v8c0 1-1 2-2 1l-99-26-2-3v-7c0-2 1-2 2-2zm0-47l99 27 2 2v8l-2 2-99-27c-1 0-2-1-2-3v-7l2-2z"
       id="path23" />
  </g>
</svg>
