<svg xmlns="http://www.w3.org/2000/svg" data-name="Layer 1" viewBox="0 0 666.7 729.3"><path fill="#3f3d56" d="M15.2 204.7c8.3-5.7 19 6.9 13.2 14.7-5.9 8-18.8 5.7-23.2-2.4-5.7-10.3 0-22.6 9-28.5 10.5-6.8 23.2-7.2 35.2-6.6 12.1.7 24 1.5 36-.2a120.7 120.7 0 0 0 29.7-8.4 126.1 126.1 0 0 0 49.9-37.7c6.1-7.8 11.9-16.6 15.4-26 2.7-7.2 4-16.6.1-23.7a12 12 0 0 0-18.3-3.7c-6.4 5.3-8.2 15-3.3 21.8 5.3 7.3 15.2 9.8 23.8 8.5 11.8-1.9 21.4-10.2 30.5-17.5l67.3-53.4c11.1-8.8 22.1-17.8 33.4-26.4 9-7 20.2-13.8 32.2-10 4.8 1.4 9.6 5 10.8 10.1a13.2 13.2 0 0 1-4.7 12.8 8.1 8.1 0 0 1-11.9-1.5 13.8 13.8 0 0 1-1.2-12.4c3.8-10.6 18-11.7 27.4-10.8a77.2 77.2 0 0 1 31.6 10.4 105 105 0 0 1 43.5 51.7 190.6 190.6 0 0 1 12.1 74.8c0 5.1-.4 10.8-3.3 15.2-2.8 4.4-7.8 5.7-12.2 2.8-1.5-1-3.3-2.8-3-4.7.5-2.5 5.4-2.5 7.3-2.4a23 23 0 0 1 14.2 6.6c9.1 8.6 9.8 21.8 8.6 33.5-1.3 12.9-5 25.7-3.5 38.7 2.4 21.4 20 33.2 37.2 43 8.8 5 17.8 9.9 25.7 16.3a106 106 0 0 1 21 22.8 115.4 115.4 0 0 1 19.7 57.2 105.5 105.5 0 0 1-2.4 30.5c-2.3 9.8-5.8 22.1-15.2 27.4a12.6 12.6 0 0 1-14.4-1.3c-3.8-3-5.7-8.5-1.7-12.3 3.2-3.2 8.4-2.5 12.4-1.2a31 31 0 0 1 12 7.8c6.6 6.6 14.5 14.5 24.7 12.5 2-.4 1.1-3.3-.8-3-12.3 2.6-19.8-11.8-28.9-17.3-6.6-4-17.8-7-23 .8-5.5 8.4 3.4 17.5 11.7 18.6 10.8 1.4 18.3-9.1 22-17.9a107 107 0 0 0 3.5-65 116 116 0 0 0-32.1-56.1c-8-7.6-17.1-13.5-26.7-18.9-9.6-5.5-19.6-10.7-27.9-18.2a41.8 41.8 0 0 1-14.1-32.3c0-14 4.6-27.6 4.3-41.6-.2-11.7-4.2-23-14.3-29.6a23.1 23.1 0 0 0-14.2-4c-2 .2-5 .6-6.6 1.8-1.4 1-1.6 3.5-1.4 5 .7 3.8 4.2 6.3 7.6 7.4a10.8 10.8 0 0 0 11.7-3.5 24 24 0 0 0 4.9-13.7c.6-6.6.3-13.3 0-20C455.3 98.5 450 71 436 47.8A99.3 99.3 0 0 0 383.6 4a58 58 0 0 0-33.5-2.3C340.8 4.4 333.8 12 335.3 22c1.3 8.6 10.1 14.5 18 9a15.5 15.5 0 0 0 2.4-23.3c-7.4-8-19.7-7.9-29.1-3.9-5.7 2.4-10.7 6-15.5 9.8-6.2 4.7-12.2 9.6-18.3 14.5l-73.6 58.4c-5.8 4.6-11.5 9.4-17.5 13.8-5.6 4-11.8 7.8-18.7 9.1-9.7 1.8-25-3-24-15.3.6-4.8 3.7-10 8.6-11.4 4.7-1.4 9.2 1.7 11 6 3.8 9.5-.7 20.4-5.3 28.8a120.8 120.8 0 0 1-49.8 48.5 121 121 0 0 1-33 11.8c-13 2.5-25.8 2-38.9 1.2-12.7-.7-26-.7-37.4 6a26.6 26.6 0 0 0-14 26.2c1.3 9.6 9 16.9 18.8 16 8.3-.6 16.6-7.7 13.7-16.7-2.5-7.4-11.8-13.3-19-8.4-1.6 1.1-.1 3.7 1.5 2.6Z"/><path fill="#f2f2f2" d="M917.6 506.7h-72.7a4.3 4.3 0 0 0-4.3 4.3v45.2a4.3 4.3 0 0 0 4.3 4.3h72.7a4.3 4.3 0 0 0 4.3-4.3V511a4.3 4.3 0 0 0-4.3-4.3Z" style="isolation:isolate" transform="translate(-266.6 -85.4)"/><path fill="#e6e6e6" d="M651 421.3h-72.7a4.3 4.3 0 0 0-4.3 4.3V471a4.3 4.3 0 0 0 4.3 4.2H651a4.3 4.3 0 0 0 4.2-4.2v-45.3a4.3 4.3 0 0 0-4.2-4.3Zm1.4 32.5a17.6 17.6 0 0 1-17.3 17.6c-7.4 0 4 .1-4.9.1-20.3 0-41.5-.2-49.4-.3a4 4 0 0 1-4-4v-41.6a1.4 1.4 0 0 1 1.5-1.4H651a1.4 1.4 0 0 1 1.4 1.4Z"/><path fill="#e6e6e6" d="M642 395.3h-55.4a2.4 2.4 0 0 0-2.2 1.5l-8.6 24a2.4 2.4 0 0 0 2.3 3.2l74.2.1a2.4 2.4 0 0 0 2.2-3.3h-.1.1l-10.3-24a2.4 2.4 0 0 0-2.2-1.5Z"/><path fill="#e6e6e6" d="M654.7 421.4a2.4 2.4 0 0 1-.2.9l-10.3 18.6a2.4 2.4 0 0 1-2.2 1.4h-55.4a2.4 2.4 0 0 1-2.2-1.6l-8.6-18.4a2.4 2.4 0 0 1 1.5-3 2.3 2.3 0 0 1 .8-.2h61.5l3.7-.1h9a2.4 2.4 0 0 1 2.4 2.4Zm-71 33.9c1.1 0 16.2.9 16.2 2s-15 2-16.2 2a2 2 0 0 1 0-4Z"/><path fill="#f2f2f2" d="M638.6 380.7h-46.7a4.7 4.7 0 0 0-4.8 4.7v57h55a2.3 2.3 0 0 0 1.2-.5v-56.5a4.7 4.7 0 0 0-4.7-4.7Z"/><path fill="#fff" d="M620.7 384.5h-25.6a4.3 4.3 0 0 0-4.2 4.3v53.5h48.7v-39a18.9 18.9 0 0 0-18.9-18.8Z"/><path fill="#e4e4e4" d="M631.3 437.6h-32.1a1 1 0 1 0 0 2h32a1 1 0 1 0 0-2Zm0-4.2h-32.1a1 1 0 0 0 0 2.1h32a1 1 0 1 0 0-2Zm-18.3-4.1h-13.8a1 1 0 1 0 0 2H613a1 1 0 1 0 0-2Zm18.3-8.7h-32.1a1 1 0 0 0 0 2.1h32a1 1 0 1 0 0-2.1Zm0-4.1h-32.1a1 1 0 1 0 0 2h32a1 1 0 1 0 0-2Zm-18.3-4.2h-13.8a1 1 0 0 0 0 2.1H613a1 1 0 1 0 0-2Zm18.3-8.6h-32.1a1 1 0 0 0 0 2h32a1 1 0 1 0 0-2Zm0-4.2h-32.1a1 1 0 0 0 0 2.1h32a1 1 0 1 0 0-2Zm-18.3-4.1h-13.8a1 1 0 0 0 0 2H613a1 1 0 1 0 0-2Z"/><circle cx="267.1" cy="168.1" r="31" fill="#ffb6b6"/><path fill="#2f2e41" d="M302.5 150.4a16 16 0 0 0-15.3-7.5 21 21 0 0 0-35-12.2 6.5 6.5 0 0 0-6.4-.6 13.4 13.4 0 0 0-5.2 4.1 30 30 0 0 0-4.2 30.6c-.7-2.6 2-5 4.6-5.7 2.7-.6 5.5 0 8.2-.4 3.5-.5 6.6-2.5 10-3 3-.3 5.9.4 8.7 1.2 2.9.7 5.8 1.5 8.7 1.1 3-.3 6.7 10.8 6.7 18.6 0 1.5.3 3.4 1.7 3.7 1.8.4 2.8-2 4.5-2.8a3.1 3.1 0 0 1 3.9 2 5.1 5.1 0 0 1-1 4.7 15.1 15.1 0 0 1-3.7 3.1l.7.6c1.2 1.5 3.6 1.6 5.3.7a11.3 11.3 0 0 0 3.7-4.3c3.1-5.2 5.9-10.7 7-16.6s.4-12.3-2.9-17.3Z"/><path fill="#ffb6b6" d="m303.5 711-16.8-.1-7.9-64.5h24.7V711z"/><path fill="#2f2e41" d="M304 728.4h-51.4v-.6a20 20 0 0 1 20-20l9.4-7.2 17.6 7.1h4.5Z"/><path fill="#ffb6b6" d="m333.7 681.4-13.2 10.4-46.3-45.7 19.4-15.4 40.1 50.7z"/><path fill="#2f2e41" d="m345 694.7-40.4 32-.4-.6a20 20 0 0 1 3.3-28.1l3-11.4 18.1-5.3 3.5-2.8ZM216.9 408.3l-1 18.8 5 6-.6 18.9 4.8 12.3 3.4 39.3L276 667.3l42.8-13.7-46.7-152.7 56.2-1.4 1.9-86.1-9.9-19.2-103.4 14.1z"/><path fill="#2f2e41" d="m322.9 486.5 5.4 13-20.9 182.7-29.3 2.2-12.7-204.3 57.5 6.4z"/><path fill="var(--accent)" d="m294.2 217.3-9.7-13.4-31.1 1.3-.6 10.3-20.7 195.2 20.3-.5 25.2 5.9 48.5-17-31.9-181.8z"/><path fill="#3f3d56" d="M240.1 414.3h-47.7l12.5-87.9 5-35.6-5.3-38.8a7.5 7.5 0 0 1 .7-4.1 13.7 13.7 0 0 1 2.2-3.3c5.8-6.7 18.9-12.5 27-15.7 4.3-1.6 7.2-2.5 7.2-2.5l11.1-11c16 20-12.7 198.9-12.7 198.9Zm48-204.3 15.1 8.7s44.9 7.4 49.2 24.2L336 292.7v104.7l-40 16s-34.5-169-7.8-203.4Z"/><path d="m272.8 475.9-7.4 85.6 12.6 99.8" opacity=".4"/><path fill="#ffb6b6" d="M94.2 316.3a10.4 10.4 0 0 1 15.4 4l36.7-4.2-8.7 17-33.5 1.4a10.4 10.4 0 0 1-9.9-18.2Z"/><path fill="#3f3d56" d="m248.2 241.4 10.5 6.3-58.8 82.8-71.8 6.1-2.8-20.5 52.8-15.8 26.2-50.7 43.9-8.2z"/><path fill="#ffb6b6" d="M462.1 309.3a10.4 10.4 0 0 0-15.4 4L410 309l8.7 17 33.5 1.4a10.4 10.4 0 0 0 9.9-18.2Z"/><path fill="#3f3d56" d="m308.2 234.4-10.5 6.3 58.7 82.8 71.8 6.1 2.8-20.5-52.8-15.8-26.1-50.7-43.9-8.2z"/><path fill="#e6e6e6" d="M165.2 215v-1.2H147v-25.5h-1.1v25.5h-21v-19.7l-1.1 1v18.7h-13.9l-.4 1.1h14.3v21.5H106v1h17.8v17.2h-13.3l.5 1h12.8v14.5h1v-14.4h21.1V270h1v-14.4h18.4v-1.1H147a17.1 17.1 0 0 1 17.1-17.1h1.2v-1.1H147v-21.5Zm-19.4 39.6h-21v-17.1h21Zm0-18.2h-21v-.4a21 21 0 0 1 21-21Z"/><path fill="#3f3d56" d="M324.6 63.5a.6.6 0 0 1-.7-.4l-1.5-3.6a.6.6 0 0 1 1-.5l1.6 3.7a.6.6 0 0 1-.4.8Z"/><path fill="#3f3d56" d="m355.3 36.3-4.5-11a6.9 6.9 0 0 0-9-3.7l-23.2 9.6a6.9 6.9 0 0 0-3.7 9l24.8 60a6.9 6.9 0 0 0 9 3.8l23.2-9.6a6.9 6.9 0 0 0 3.7-9l-17-41.3a.4.4 0 0 0 .2-.6l-3-7a.4.4 0 0 0-.5-.2Z"/><path fill="var(--border)" d="m349.4 25.9 24.9 60a5.1 5.1 0 0 1-2.8 6.7l-23.3 9.7a5.1 5.1 0 0 1-6.7-2.8l-24.9-60a5.1 5.1 0 0 1 2.8-6.7l2.8-1.2a2.4 2.4 0 0 0 3.4 2.2l13.3-5.5a2.4 2.4 0 0 0 .8-.5 2.4 2.4 0 0 0 0-3.4l3-1.3a5.1 5.1 0 0 1 6.7 2.8Z"/><path fill="#3f3d56" d="M322 57.2a.6.6 0 0 1-.7-.3l-1.5-3.7a.6.6 0 1 1 1-.4l1.6 3.6a.6.6 0 0 1-.3.8Zm-3-7.1a.6.6 0 0 1-.8-.3l-1.5-3.7a.6.6 0 1 1 1.1-.4l1.5 3.6a.6.6 0 0 1-.3.8Z"/><path fill="#fff" d="M327.5 30.1a.6.6 0 0 1 .4-.7l3.6-1.6a.6.6 0 0 1 .5 1.1l-3.7 1.5a.6.6 0 0 1-.8-.3Z"/><circle cx="333.8" cy="27.5" r=".6" fill="#fff"/><path fill="var(--shade)" d="M460.5 287.4h-.2a5.4 5.4 0 0 1-4.3-2.5 60.9 60.9 0 0 0-12.8-13.9c-3-2.4-6.2-4.6-9.2-6.8a62.3 62.3 0 0 1-19.4-18c-9-15.9 1.6-38 16.7-47.8 16.8-11.1 39-12.8 60.5-13l6.7-.1a638.5 638.5 0 0 1 115.3 10.5 99.6 99.6 0 0 1 36.5 12.2c10.6 6.9 17 17.7 16.4 27.6-1 14.5-16.3 25.3-30.2 28.1-13.3 2.7-27.2 1-41.8-1l-9.9-1.3c-36-4.1-103.4 8.7-106.2 9.2l-2.9.6-11 14.1a5.3 5.3 0 0 1-4.2 2Z"/><path fill="#fff" d="M620.5 216.8H468.7a3.3 3.3 0 0 1 0-6.6h151.8a3.3 3.3 0 0 1 0 6.6Zm0 20.2H468.7a3.3 3.3 0 0 1 0-6.5h151.8a3.3 3.3 0 0 1 0 6.6Zm-134.1 20.3h-17.7a3.3 3.3 0 0 1 0-6.6h17.7a3.3 3.3 0 0 1 0 6.6Z"/><circle cx="462.4" cy="294.4" r="16.1" fill="#fff"/><path fill="#3f3d56" d="M462.4 310.6a16.3 16.3 0 1 1 16.3-16.2 16.3 16.3 0 0 1-16.3 16.2Z"/><path fill="#fff" d="M461.2 300.8h-.1a2.1 2.1 0 0 1-1.6-.8l-2.6-3.5a2.1 2.1 0 0 1 .3-3h.1a2.1 2.1 0 0 1 3 .4 1.5 1.5 0 0 0 2.3 0l5.4-5.7a2.1 2.1 0 0 1 3 0h.1a2.1 2.1 0 0 1 0 3l-8.4 9a2.1 2.1 0 0 1-1.5.6Z"/><path fill="#3f3d56" d="m162.6 86.8-9.8-59a4.6 4.6 0 0 1 3.7-5.3l44.6-7.5a4.6 4.6 0 0 1 5.3 3.8l9.8 59a4.6 4.6 0 0 1-3.7 5.3l-44.6 7.5a4.6 4.6 0 0 1-5.3-3.8Z"/><path fill="#fff" d="m163 68.4-6.3-38a4.3 4.3 0 0 1 3.6-5l38.3-6.3a4.3 4.3 0 0 1 5 3.5l8.7 52.6a4.3 4.3 0 0 1-3.6 5L185 84a19 19 0 0 1-22-15.7Z"/><path fill="var(--paragraph-secondary))" d="M164.7 40a4.2 4.2 0 0 1 3.4-4.8l26.6-4.5a4.2 4.2 0 1 1 1.4 8.3l-26.6 4.4a4.2 4.2 0 0 1-4.8-3.4Zm2.1 12.8a4.2 4.2 0 0 1 3.5-4.8l26.6-4.4a4.2 4.2 0 0 1 1.3 8.2l-26.5 4.4a4.2 4.2 0 0 1-4.9-3.4Zm2.2 12.8a4.2 4.2 0 0 1 3.4-4.8l26.6-4.4a4.2 4.2 0 0 1 1.4 8.3L173.8 69a4.2 4.2 0 0 1-4.8-3.5Z"/><path fill="#f2f2f2" d="m395.7 687.6.7-15.9a51.4 51.4 0 0 1 24-6c-11.5 9.3-10.1 27.5-18 40.1a30.9 30.9 0 0 1-22.6 14.3l-9.6 5.9a51.8 51.8 0 0 1 11-42 50 50 0 0 1 9.1-8.5c2.3 6 5.4 12.1 5.4 12.1Z"/><path fill="#ccc" d="M523.3 727.7a1.5 1.5 0 0 1-1.5 1.6h-418a1.6 1.6 0 1 1 0-3.2h418a1.5 1.5 0 0 1 1.5 1.6Z"/><path fill="#3f3d56" d="M104.7 308.3c-7.4-.2-47.2-1.3-53.7-1-.4-1.3-12.8 14.5-13 14.6a1.8 1.8 0 0 0 .5 3c.8.4 65-.8 65.7-.6a1.8 1.8 0 0 0 1.6-1l.5-1c0-1.7.5-10 0-11.5a1.8 1.8 0 0 0-1.6-2.5Z"/><path d="M372.9 407.6c-.4 1-.9 2-2 2l-65 .8a1.8 1.8 0 0 1-1.6-2.7Z" opacity=".2" style="isolation:isolate" transform="translate(-266.6 -85.4)"/><path fill="#3f3d56" d="M51.3 307c-.7-1.1-18.1-87.2-19.6-87.9L20 204.6l-1-.8c-1.6-.8-5.1-.3-4.8 2 2.8 13.4 20.7 89.5 21.1 101.4l2.2 15.1a1.9 1.9 0 0 0 2.3 1.5 3.6 3.6 0 0 0 2.9-2c.1-.6 9.5-14.4 8.7-14.7Z"/><path d="m286.5 290 22.7 117c-.8 2-4.3 3.3-5.1.8l-23.4-116.7c-.2-2.8 4.4-3 5.8-1.2Z" opacity=".2" style="isolation:isolate" transform="translate(-266.6 -85.4)"/><path fill="var(--paragraph-secondary))" d="m20.6 209.4 11.5 16.1L45 286.9l-6 5.3-18.4-82.8z"/><path fill="#2f2e41" d="m97.3 316.6 3.2.1a12.5 12.5 0 0 1 .5-2.8c.4-2.2.9-5-1.1-5-1.4 0-1.8 1.6-2 3.5a26.3 26.3 0 0 1-.6 4.2ZM79 312.3h2.2l1 .1c0-1.1.5-3.5-.8-4a1.6 1.6 0 0 0-.6-.2c-1.2 0-1.6.9-1.7 2v1.8l-.1.3Zm-6.4-.3 2.2.1h1c0-1.3.7-4.1-1.4-4.2-2 0-1.7 2.4-1.7 3.8v.3Zm-6.3-.2h3.1c0-1.2.7-4-1.4-4.1-2-.1-1.7 2.3-1.7 3.8v.3Zm-6.4-.3 2.2.1h1c0-1.3.7-4.1-1.4-4.2-2 0-1.7 2.4-1.8 3.8v.3Zm-6.4-.2h3.2c0-1.1.6-3.6-1-4a1.5 1.5 0 0 0-.4-.1 1.5 1.5 0 0 0-.6 0c-1.3.4-1.1 2.5-1.2 3.7v.4Zm37.4-.7 3.2.1v-.4a13.3 13.3 0 0 0 0-2.3c-.1-.8-.5-1.5-1.5-1.5s-1.4.6-1.6 1.5a3.1 3.1 0 0 0 0 .4l-.1 2.2Zm-6.4-.3 3.2.2a23.3 23.3 0 0 0 0-2.6c0-1-.4-1.6-1.4-1.6-1.1-.1-1.5.6-1.7 1.5l-.1 2.5Z"/><path fill="#2f2e41" d="m78.1 310 1 .1 2.2.1.1-1.9a4.2 4.2 0 0 0 0-.6c0-1-.4-1.7-1.5-1.7s-1.5.7-1.6 1.6c-.2.9-.1 1.9-.2 2.5Zm12.9 6.3 3.1.1c0-1.3.7-4.1-1.4-4.2-2.1 0-1.6 2.8-1.8 4.1Zm-6.4-.3 3.2.2c0-1.3.6-4.2-1.5-4.2-2-.1-1.6 2.8-1.7 4Zm-6.4-.2 3.2.1c0-.9.3-2.6-.2-3.5a1.3 1.3 0 0 0-1.2-.7 1.4 1.4 0 0 0-1 .3c-1 .6-.7 2.8-.8 3.8Zm-6.4-.2H75c0-.8.3-2.6-.2-3.5a1.3 1.3 0 0 0-1.2-.6 1.4 1.4 0 0 0-1 .2c-1 .7-.7 2.8-.8 3.9Zm-6.3-.3 3.1.1c0-1 .4-2.6-.2-3.5a1.3 1.3 0 0 0-1.2-.7 1.4 1.4 0 0 0-1 .3c-1 .6-.6 2.7-.7 3.8ZM59 315l3.3.2c0-1 .3-2.7-.2-3.6a1.3 1.3 0 0 0-1.3-.6 1.4 1.4 0 0 0-.9.2c-1 .7-.7 2.8-.8 3.8Zm-6.3-.2 3.2.1c0-1 .3-2.6-.2-3.6a1.3 1.3 0 0 0-1.2-.6 1.4 1.4 0 0 0-1 .2c-1 .7-.7 2.8-.8 3.9Z"/></svg>