<svg xmlns="http://www.w3.org/2000/svg" data-name="Layer 1" viewBox="0 0 940 815"><defs/><ellipse cx="83.4" cy="687" fill="#3f3d56" rx="65.7" ry="10.2"/><circle cx="549.1" cy="395.2" r="335.1" fill="#f2f2f2"/><path fill="#3f3d56" d="M573 734h-12v-2h17v2h-5zm22 0v-3l16-1 1 2-17 2zm-51-1l-16-1v-3l17 2zm84-3v-2l16-3 1 2c-6 2-11 3-17 3zm-117-1l-16-3v-3l17 4zm150-5v-3l16-4v2l-16 5zm-183-2l-16-5 1-2 16 4zm215-8v-2l15-6 1 2-16 6zm-247-2l-16-6 2-3 15 6zm279-10l-1-3 15-7 1 2-15 8zm-310-3l-15-8 1-2 15 7zm340-13l-2-2 14-9 2 3-14 8zm-370-3l-14-9 2-2 14 9zm398-14l-2-3 14-10 1 3-13 10zm-426-4l-13-11 2-2 13 10zm453-17l-2-2 12-11 2 2-12 11zm-479-4l-12-12 2-2 12 11zm503-19l-2-2 12-12 2 2-12 12zm-527-5l-12-12 3-2 11 12zm550-20l-2-2 10-13 2 2-10 13zm-572-5l-10-13 2-2 10 13zm592-22l-2-1 9-14 2 1-9 14zm-612-5l-9-15 3-1 8 14zm630-23l-3-2 8-15 2 2-7 15zm-647-6l-7-15 2-1 7 14zm661-25l-2-1 6-15 3 1-7 15zm-675-6l-6-15 2-1 6 15zm687-25l-2-1 5-16 2 1-5 16zm-699-6l-4-16 2-1 5 16zm709-26l-3-1 3-16h3l-3 17zm-717-7l-3-16 2-1 3 17zm723-26l-3-1 2-16h3l-2 17zm-729-7l-1-17h2l2 17zm732-27h-3v-17h3v17zm-734-6v-11-6h2v6l1 11zm731-15v-16h3v16zm-728-19h-3l2-17 3 1-2 16zm726-14l-2-17h3l2 17zm-722-19h-3l3-17 3 1-3 16zm718-14l-4-16 3-1 3 16zm-712-19h-2l4-17 3 1-5 16zm704-13l-5-16 2-1 5 16zm-694-19l-3-1 6-15 3 1-6 15zm683-13l-7-15 3-1 6 15zm-671-18l-2-1 7-15 3 1-8 15zm657-12l-8-15 3-1 8 14zm-641-17l-3-2 9-14 2 1-8 15zm625-12l-9-14 2-2 9 14zm-607-17l-3-1 11-14 2 2-10 13zm588-11l-11-13 2-1 11 13zm-568-15l-2-2 11-12 2 2-11 12zm546-10l-11-12 2-2 11 12zm-523-14l-2-2 12-12 2 2-12 12zm500-10l-13-11 2-2 13 11zM343 84l-2-2 13-10 2 2-13 10zm449-8l-14-10 2-2 14 10zM370 65l-2-3 14-9 2 3-14 9zm394-8l-14-8 1-3 15 9zM398 47l-1-2 15-8 1 3-15 7zm337-6l-15-7 1-3 15 7zm-307-8l-1-3 15-6 1 2-15 7zm277-6l-16-5 1-3 16 6zm-246-6l-1-3 16-5 1 3-16 5zm214-4l-16-4v-3l17 4zm-182-5V9l16-3 1 3-17 3zm149-3l-16-3V4l17 2zM524 6V3l17-2v3l-17 2zm83-2l-16-1V0l17 2zm-50-1V0h17v3h-17z"/><path fill="var(--primary)" d="M121 633c-8 31-37 50-37 50s-15-31-6-62 37-50 37-50 15 31 6 62z"/><path fill="var(--primary)" d="M45 633c9 31 37 50 37 50s15-31 7-62-37-50-37-50-15 31-7 62z"/><path fill="#3f3d56" d="M57 626c23 22 26 57 26 57s-34-2-57-24-26-57-26-57 34 2 57 24zm52 0c-23 22-26 57-26 57s35-2 58-24 26-57 26-57-35 2-58 24z"/><ellipse cx="829.5" cy="801.6" fill="#3f3d56" rx="85" ry="13.2"/><path fill="var(--primary)" d="M879 731c-11 40-48 65-48 65s-20-40-9-80 48-65 48-65 19 40 9 80z"/><path fill="var(--primary)" d="M780 731c11 40 48 65 48 65s20-40 9-80-48-65-48-65-20 40-9 80z"/><path fill="#3f3d56" d="M796 723c30 29 33 73 33 73s-44-2-74-31-34-74-34-74 45 3 75 32zm67 0c-30 29-34 73-34 73s45-2 75-31 33-74 33-74-45 3-74 32z"/><ellipse cx="410.4" cy="729" fill="#3f3d56" rx="243.5" ry="37.7"/><circle cx="526.7" cy="231.3" r="16.6" fill="#2f2e41"/><path fill="#2f2e41" d="M509 224a17 17 0 0115-16 17 17 0 100 33 17 17 0 01-15-17z"/><path fill="var(--primary)" d="M510 231s-3 12 14 17"/><circle cx="533.5" cy="288.5" r="55.9" fill="#2f2e41"/><path fill="#a0616a" d="M480 463l-2 42 96 32s-5-53-2-58zM324 650l-9 35h42v-35h-33zm218 9l19 7 10-25-17-14-12 32z"/><path fill="#2f2e41" d="M575 615s29-3 29 21 4 83-36 76c0 0-18 2-11-19 0 0 7-9 4-14s-17-9-15-12l24-27z"/><path fill="#2f2e41" d="M576 532l-98-34-6 24s-147-85-156-27c0 0-8 47 4 109l1 50s25 6 37 1l1-54s10-35 5-62c0 0 75 59 109 66 0 0-119 92-105 121s31 34 53 29c15-4 83-58 123-92 29-23 45-59 43-95-1-13-4-26-11-36z"/><path fill="#2f2e41" d="M322 672s-1-12-7-7l-27 24s-76 20-30 39c0 0 30 6 62-8 0 0 51 1 50-12s-13-34-13-34-14 11-30-3z"/><circle cx="519.6" cy="310.7" r="37" fill="#a0616a"/><path fill="#a0616a" d="M550 313s6 30 17 37l-61 72-23-22 17-30s19-11 13-26zm22 40s44 9 49 38-5 82-5 82l-21 156s-1 66-27 55 7-61 7-61l9-98s4-83-4-93l-32-10s7-66 24-69z"/><path fill="#a0616a" d="M500 370s-30-1-49 23-65 42-65 42l-115 45s-21-37-34-24 24 46 41 42l120-35 82-37z"/><path fill="#d0cde1" d="M565 347s-38 52-55 51-6-32-6-32l-12 3-18 34s-24 39 3 48l1 21s67-3 96 12l6-52s-38-19-17-56c0 0 7-20 15-22z"/><path d="M575 622L422 734s154-91 153-112z" opacity=".1"/><path fill="#2f2e41" d="M522 267c-20 0-36 10-36 21 0 5 3 10 8 14l7-5-2 7 3 1 10-12v15a60 60 0 0010 1c19 0 35-9 35-21s-16-21-35-21z"/><circle cx="594.7" cy="257.3" r="16.6" fill="#2f2e41"/><path fill="#2f2e41" d="M577 250a17 17 0 0115-16 17 17 0 100 33 17 17 0 01-15-17z"/><path fill="var(--primary)" d="M578 257s-3 12 14 17"/><ellipse cx="558.1" cy="307.7" fill="#a0616a" rx="2.9" ry="6.5"/><path fill="#d0cde1" d="M239 333l-44 11-4 4-2 1h-3l-5-1 4-13v-23l-2-14 14-10s27-1 42 45z"/><path d="M195 344v1l-6 2-3 2-5-1 4-13v-23l-2-14 14-10s14 21-2 56z" opacity=".1"/><path fill="#d0cde1" d="M291 299s-58 27-81 31-21 28-21 28l131-21s-5-21-29-38z"/><path fill="var(--primary)" d="M180 295s10 24-1 54l13 6 5-6-14-2s11-30 2-51c0 0-2-5-5-1z"/><path fill="var(--primary)" d="M370 475c-51-12-98 12-98 12h-1l-18-17-74-121h18c50-30 120-26 120-26 31 35 53 152 53 152z"/><path d="M271 487l-18-17-74-121h18s71 95 74 138z" opacity=".1"/><ellipse cx="404.2" cy="417.4" fill="#d0cde1" rx="29.3" ry="18.6" transform="rotate(-17 197 829)"/></svg>