<svg xmlns="http://www.w3.org/2000/svg" data-name="Layer 1" viewBox="0 0 485.83 483.5"><path fill="#e6e6e6" d="M320.46 128.1h-79.74a11.48 11.48 0 0 1-9.07-4.4 11.62 11.62 0 0 1-2.17-9.96 201.63 201.63 0 0 0 0-93.65 11.62 11.62 0 0 1 2.17-9.97 11.48 11.48 0 0 1 9.07-4.4h79.74a11.62 11.62 0 0 1 11.44 9.76 337.96 337.96 0 0 1 0 102.86 11.62 11.62 0 0 1-11.44 9.76Z"/><path fill="#fff" d="M240.72 11.73a5.51 5.51 0 0 0-4.36 2.1 5.66 5.66 0 0 0-1.05 4.86 207.66 207.66 0 0 1 0 96.45 5.66 5.66 0 0 0 1.05 4.85 5.51 5.51 0 0 0 4.36 2.1h79.74a5.58 5.58 0 0 0 5.5-4.66 331.99 331.99 0 0 0 0-101.04 5.58 5.58 0 0 0-5.5-4.66Z"/><path fill="#e6e6e6" d="M303.06 40.58H261.2a6 6 0 0 1-6-6v-2.35a6 6 0 0 1 6-6h41.85a6 6 0 0 1 6 6v2.35a6 6 0 0 1-6 6Zm0 29.62H261.2a6 6 0 0 1-6-6v-2.34a6 6 0 0 1 6-6h41.85a6 6 0 0 1 6 6v2.34a6 6 0 0 1-6 6Zm0 29.63H261.2a6 6 0 0 1-6-6V91.5a6 6 0 0 1 6-6h41.85a6 6 0 0 1 6 6v2.34a6 6 0 0 1-6 6Zm167.4 104.27h-79.74a11.48 11.48 0 0 1-9.07-4.4 11.62 11.62 0 0 1-2.17-9.96 201.63 201.63 0 0 0 0-93.65 11.62 11.62 0 0 1 2.17-9.97 11.48 11.48 0 0 1 9.07-4.4h79.74a11.62 11.62 0 0 1 11.44 9.76 337.96 337.96 0 0 1 0 102.86 11.62 11.62 0 0 1-11.44 9.76Z"/><path fill="#fff" d="M390.72 87.73a5.51 5.51 0 0 0-4.36 2.1 5.66 5.66 0 0 0-1.05 4.86 207.66 207.66 0 0 1 0 96.45 5.66 5.66 0 0 0 1.05 4.85 5.51 5.51 0 0 0 4.36 2.1h79.74a5.58 5.58 0 0 0 5.5-4.66 331.99 331.99 0 0 0 0-101.04 5.58 5.58 0 0 0-5.5-4.66Z"/><path fill="#f2f2f2" d="M311.46 290.6h-79.74a11.98 11.98 0 0 1-9.46-4.59 12.12 12.12 0 0 1-2.27-10.4 201.13 201.13 0 0 0 0-93.4 12.12 12.12 0 0 1 2.27-10.4 11.98 11.98 0 0 1 9.46-4.58h79.74a12.13 12.13 0 0 1 11.93 10.18 338.46 338.46 0 0 1 0 103 12.13 12.13 0 0 1-11.93 10.19Z"/><path fill="#e6e6e6" d="M453.06 131.58H411.2a6 6 0 0 1-6-6v-2.35a6 6 0 0 1 6-6h41.85a6 6 0 0 1 6 6v2.35a6 6 0 0 1-6 6Zm0 29.62H411.2a6 6 0 0 1-6-6v-2.34a6 6 0 0 1 6-6h41.85a6 6 0 0 1 6 6v2.34a6 6 0 0 1-6 6Z"/><circle cx="271.81" cy="228.5" r="23" fill="#fff"/><path fill="#e6e6e6" d="M282.81 225.5h-8v-8a3 3 0 0 0-6 0v8h-8a3 3 0 0 0 0 6h8v8a3 3 0 0 0 6 0v-8h8a3 3 0 0 0 0-6Z"/><path fill="#ccc" d="M300.81 17h-42a4.5 4.5 0 0 1-4.5-4.5v-8a4.5 4.5 0 0 1 4.5-4.5h42a4.5 4.5 0 0 1 4.5 4.5v8a4.5 4.5 0 0 1-4.5 4.5Zm152 77h-42a4.5 4.5 0 0 1-4.5-4.5v-8a4.5 4.5 0 0 1 4.5-4.5h42a4.5 4.5 0 0 1 4.5 4.5v8a4.5 4.5 0 0 1-4.5 4.5Z"/><path fill="#ffb8b8" d="M88.6 471.06h12.26l3.83-47.29h-16.1l.01 47.29z"/><path fill="#2f2e41" d="M85.47 467.06h24.14A15.39 15.39 0 0 1 125 482.44v.5H85.47Z"/><path fill="#ffb8b8" d="M22.6 471.06h12.26l5.83-47.29h-18.1l.01 47.29z"/><path fill="#2f2e41" d="M19.47 467.06H43.6A15.39 15.39 0 0 1 59 482.44v.5H19.47Zm5.3-10.94a4.98 4.98 0 0 1-3.37-1.32 4.96 4.96 0 0 1-1.62-3.53l-4.92-176.22 69.82 17.46 21.53 64.61a70.46 70.46 0 0 1 3.55 25.83l-2.67 62.63a5 5 0 0 1-5 4.76H90.4a5.02 5.02 0 0 1-4.96-4.33l-8.37-69.14a37.82 37.82 0 0 0-5.53-15.16l-16.47-26.08a1 1 0 0 0-1.84.41L40.29 451.13a5 5 0 0 1-4.68 4.4l-10.55.58-.29.01Z"/><circle cx="73.06" cy="136.41" r="24.56" fill="#ffb8b8"/><path fill="#e5e5e5" d="M84.34 299.67a5.08 5.08 0 0 1-1.25-.16l-69.27-17.76a5 5 0 0 1-3.66-5.81l15.9-85.7a31.21 31.21 0 0 1 18.26-22.53 30.11 30.11 0 0 1 28.26 2.07c.97.6 1.95 1.27 2.9 1.96a30.96 30.96 0 0 1 12.58 24.53l1.27 98.33a5 5 0 0 1-4.99 5.07Z"/><path fill="#ffb8b8" d="M20.95 300.68a10.06 10.06 0 0 1 4.21-14.83l-3.08-35.6 16.33 8.84.42 32.46a10.11 10.11 0 0 1-17.88 9.13Z"/><path fill="#e5e5e5" d="M26.78 281.14a5.53 5.53 0 0 1-1.36-.17 5.5 5.5 0 0 1-3.98-3.99l-8.02-31.88a47.37 47.37 0 0 1 3.76-33.14L34 179.08a15.54 15.54 0 0 1 18.8-11.02 15.36 15.36 0 0 1 9.48 7.1 15.57 15.57 0 0 1 1.66 11.91L40 240.58l.28 32.04a5.52 5.52 0 0 1-3.58 5.2l-8 2.97a5.48 5.48 0 0 1-1.92.35Z"/><path fill="#ffb8b8" d="M141.32 287.58a10.06 10.06 0 0 1-8.5-12.86l-28.99-20.9 17.36-6.6 24.87 20.85a10.11 10.11 0 0 1-4.74 19.51Z"/><path fill="#e5e5e5" d="M126.14 272.33a5.52 5.52 0 0 1-2.46-.58l-29.4-14.72a47.38 47.38 0 0 1-22.66-24.46l-13.96-34.2a15.54 15.54 0 0 1 3.92-21.44 15.35 15.35 0 0 1 11.59-2.54 15.57 15.57 0 0 1 10.08 6.51l24.94 53.04 24.47 20.68a5.52 5.52 0 0 1 1.6 6.11l-2.96 8.01a5.47 5.47 0 0 1-2.01 2.6 5.5 5.5 0 0 1-3.15 1Z"/><path fill="#2f2e41" d="M67.9 161.34c1.3.57 3.98-9.82 2.78-11.9-1.78-3.1-1.67-3.07-2.86-5.12s-1.44-4.85.09-6.65 5.07-1.56 5.77.7c-.45-4.3 3.79-7.74 8-8.7s8.62-.37 12.85-1.24c4.9-1 10-5.1 8.05-10.5a7.6 7.6 0 0 0-1.49-2.43c-2.26-2.54-5.42-3.63-8.5-4.67-6.44-2.19-13.04-4.4-19.83-4.16a28.8 28.8 0 0 0-25.45 18.61 26.16 26.16 0 0 0-1.08 4.03c-2.33 12.52 4.94 24.88 16.76 29.65Z"/><path d="m38.9 273.34.56-32.93 17.44-35.07-14 36-4 32z" opacity=".2"/><path fill="#e6e6e6" d="m197.08 355.98-73.64-30.6a11.48 11.48 0 0 1-6.69-7.53 11.62 11.62 0 0 1 1.82-10.04 201.63 201.63 0 0 0 35.93-86.48 11.62 11.62 0 0 1 5.83-8.37 11.48 11.48 0 0 1 10.06-.58l73.64 30.6a11.62 11.62 0 0 1 6.82 13.4 337.96 337.96 0 0 1-39.47 94.98 11.62 11.62 0 0 1-14.3 4.62Z"/><path fill="#fff" d="M168.09 217.92a5.51 5.51 0 0 0-4.83.28 5.66 5.66 0 0 0-2.84 4.08 207.66 207.66 0 0 1-37 89.06 5.66 5.66 0 0 0-.9 4.89 5.51 5.51 0 0 0 3.22 3.62l73.64 30.6a5.58 5.58 0 0 0 6.88-2.2 331.99 331.99 0 0 0 38.76-93.3 5.58 5.58 0 0 0-3.3-6.43Z"/><path fill="#e5e5e5" d="m207.3 286.03-38.65-16.05a6 6 0 0 1-3.23-7.85l.9-2.16a6 6 0 0 1 7.84-3.24l38.64 16.06a6 6 0 0 1 3.24 7.84l-.9 2.16a6 6 0 0 1-7.84 3.24Zm-11.37 27.36-38.64-16.06a6 6 0 0 1-3.24-7.84l.9-2.16a6 6 0 0 1 7.84-3.24l38.64 16.05a6 6 0 0 1 3.24 7.85l-.9 2.16a6 6 0 0 1-7.84 3.24Z"/><path fill="#ccc" d="M222.78 247.58a4.49 4.49 0 0 1-1.69-.33l-38.93-15.74a4.5 4.5 0 0 1-2.49-5.86l3-7.42a4.5 4.5 0 0 1 5.86-2.48l38.94 15.74a4.5 4.5 0 0 1 2.48 5.86l-3 7.42a4.51 4.51 0 0 1-4.17 2.81ZM141 483.5H1a1 1 0 1 1 0-2h140a1 1 0 0 1 0 2Z"/></svg>