<svg xmlns="http://www.w3.org/2000/svg" data-name="Layer 1" viewBox="0 0 1077.38187 752.8614"><defs/><ellipse cx="455" cy="681.8614" fill="#3f3d56" rx="455" ry="23"/><ellipse cx="899.33839" cy="721" fill="#3f3d56" rx="178.04348" ry="9"/><ellipse cx="396.05573" cy="743.8614" fill="#3f3d56" rx="178.04348" ry="9"/><path fill="#2f2e41" d="M833.08175 473.43234l15.975-11.10408 33.10933-42.6179a5.803 5.803 0 00-1.02243-8.1427 5.803 5.803 0 00-8.1427 1.02243l-33.10933 42.6179zM975.67819 68.2879s-20.09094-18.01257-47.10979 15.93419-69.2791 50.57374-78.97817 63.73677c0 0 40.18187-16.627 54.03769-23.55489s13.163-5.54233 13.163-5.54233-18.70532 13.16306-22.16928 26.32606-.69279 24.24768-6.92791 37.41071 119.16 9.00628 119.16 9.00628 12.47024-21.47652 9.00628-43.64583-1.38553-76.8998-40.18182-79.67096z"/><path fill="#ffb9b9" d="M936.1891 121.63281s4.84954 33.94675-15.93419 41.56745-13.163 18.01257-13.163 18.01257l31.17559 15.2414 33.254-10.39186 11.08466-16.627s-18.01257-4.15674-13.163-16.627 6.23512-16.627 6.23512-16.627z"/><path d="M936.1891 121.63281s4.84954 33.94675-15.93419 41.56745-13.163 18.01257-13.163 18.01257l31.17559 15.2414 33.254-10.39186 11.08466-16.627s-18.01257-4.15674-13.163-16.627 6.23512-16.627 6.23512-16.627z" opacity=".1"/><path fill="#ffb9b9" d="M1023.48076 218.62354s-4.84953 63.73677-3.464 66.50794 0 99.0691 0 99.0691 9.69907 51.95933-2.77117 54.73049-9.69907-58.19444-9.69907-58.19444l-12.47024-80.36375 1.38558-79.671z"/><path d="M1023.48076 218.62354s-4.84953 63.73677-3.464 66.50794 0 99.0691 0 99.0691 9.69907 51.95933-2.77117 54.73049-9.69907-58.19444-9.69907-58.19444l-12.47024-80.36375 1.38558-79.671z" opacity=".1"/><path fill="#ffb9b9" d="M888.38652 410.52664s-22.8621 86.59887-22.16931 128.85912 9.69908 101.14749 9.69908 101.14749 1.38558 25.63326-.6928 28.40443 10.39187 14.54861 10.39187 14.54861l13.163-7.6207 4.84953-5.54233v-4.84956s-7.6207-23.55489-1.38558-42.26025 9.69908-65.81514 3.464-80.36375l42.953-127.47354z"/><path fill="#2f2e41" d="M887.00094 672.40163s-8.31349-10.39186-13.85582-6.92791-14.54861 27.01885-14.54861 27.01885-31.17559 29.79-9.00628 31.17559 31.86838-6.23512 34.63955-11.77744 28.40443-20.09094 28.40443-20.09094-2.77117-26.32606-6.92791-27.01885-10.39187 10.39186-10.39187 10.39186z"/><path fill="#ffb9b9" d="M963.90074 416.06897v85.90608a265.61637 265.61637 0 002.07837 31.17559c2.07837 15.24141-11.77744 128.85913-11.77744 128.85913l1.38558 20.09093 17.31977-1.38558 2.07837-17.31977 24.94048-76.207s8.31349-46.417 4.15675-63.73677 21.47652-128.16633 21.47652-128.16633z"/><path fill="#2f2e41" d="M950.04494 677.25117l5.13095-1.1155s3.87533-8.58358 8.72487-6.5052a52.29963 52.29963 0 019.64308 5.778l2.13437 3.921s4.84953 10.39186 11.08465 17.31977 13.163 22.16932 2.77117 23.5549-24.24769 2.07837-28.40443-1.38558-1.38559-9.00629-5.54233-10.39187-7.6207-5.54233-6.92791-6.92791 1.38558-24.24761 1.38558-24.24761z"/><circle cx="963.90073" cy="114.70489" r="33.25397" fill="#ffb9b9"/><path fill="#0560ff" d="M905.7063 168.74259l9.15108-3.19485s-3.60876 5.966 15.78939 9.43 39.48716 4.69031 48.4944-6.66113c0 0 3.46493-1.65236 8.31446 3.19718s7.6207 3.464 7.6207 3.464l-3.46395 18.01257-6.92791 33.254-9.00628 24.94048-25.63327-5.54233-27.71164-20.09094-10.39186-27.01897v-24.94047z"/><path fill="#0560ff" d="M990.2268 178.4417l6.92791-4.84954s23.55489 4.15674 24.94047 15.2414l-18.01256 34.63955a39.43665 39.43665 0 01-.6928 29.79c-6.92791 15.93419-6.23511 19.39815-6.23511 19.39815l-4.84954 20.78373-87.98445 6.92791s-3.464-8.31349-4.84954-9.69908-1.38558-6.23512 0-6.23512 0-2.07837-1.38558-4.15674-2.07838-2.77117 0-5.54233-3.464-27.71164-3.464-27.71164v-27.01887l-23.55489-31.17559s8.31349-12.47024 12.47024-13.85582 23.93018-6.84988 23.93018-6.84988l4.47425 6.588 6.23511 50.14279 9.00629 30.4828 37.921-6.4431 14.73113-24.73249 9.69908-29.09722z"/><path fill="#0560ff" d="M1016.55285 184.67678l5.54233 4.15675s4.84954 38.79629 3.464 41.56746-25.63327 5.54233-26.32606 4.15674 17.31973-49.88095 17.31973-49.88095z"/><path fill="#ffb9b9" d="M866.21721 226.93703s4.84954 63.73677 3.464 66.50794 0 99.06911 0 99.06911-9.69908 51.95932 2.77116 54.73048 9.69907-58.19444 9.69907-58.19444l12.47024-80.36375-1.38558-79.671z"/><path fill="#2f2e41" d="M902.24234 165.27864l6.92791 45.7242s-6.23512 67.89352-4.84953 81.74934l1.38558 4.15674s-2.77117-1.38558-3.464 1.38558 0 11.77745 0 11.77745-4.15674 4.15675-5.54233 27.01885-18.01256 77.59259-11.77744 79.671 43.64583 12.47024 63.73677 10.39187 92.1412-26.32606 91.44841-32.56118-35.33234-94.21957-35.33234-94.21957-6.23512-10.39187-6.23512-11.77745 8.31349-6.92791 6.23512-12.47024-13.163-63.73677-13.163-63.73677l7.6207-41.56746-10.39187-2.77116-7.6207 40.18188s-29.79 14.54861-60.9656 1.38558l-6.92791-47.10979z"/><path fill="#0560ff" d="M876.60908 186.75516l-5.54233 2.07837s-10.39187 43.64583-7.6207 43.64583 36.02513 4.15675 36.02513 2.77117-6.23512-35.33234-6.23512-35.33234z"/><path fill="#2f2e41" d="M937.57468 85.6077s51.26653 35.33234 65.12235 19.39815-24.24768-29.79-24.24768-29.79l-31.86839-3.464z"/><path fill="#f2f2f2" d="M139.61271 0v676h581V0zm31 620a10 10 0 1110-10 10 10 0 01-10 10zm0-49a10 10 0 1110-10 10 10 0 01-10 10zm0-48a10 10 0 1110-10 10 10 0 01-10 10zm0-49a10 10 0 1110-10 10 10 0 01-10 10zm0-49a10 10 0 1110-10 10 10 0 01-10 10zm0-48a10 10 0 1110-10 10 10 0 01-10 10zm0-49a10 10 0 1110-10 10 10 0 01-10 10zm0-49a10 10 0 1110-10 10 10 0 01-10 10zm0-48a10 10 0 1110-10 10 10 0 01-10 10zm0-49a10 10 0 1110-10 10 10 0 01-10 10zm0-49a10 10 0 1110-10 10 10 0 01-10 10zm0-47a10 10 0 1110-10 10 10 0 01-10 10z"/><path fill="#3f3d56" d="M720.613 51.338v-2H208.369V0h-2v49.338h-66.756v2h66.756V98h-66.756v2h66.756v46.662h-66.756v2h66.756v46.661h-66.756v2h66.756v46.661h-66.756v2h66.756v46.662h-66.756v2h66.756v46.661h-66.756v2h66.756v46.662h-66.756v2h66.756v46.661h-66.756v2h66.756v46.661h-66.756v2h66.756v46.662h-66.756v2h66.756v46.661h-66.756v2h66.756v46.661h-66.756v2h66.756V676h2v-40.725h512.244v-2H208.369v-46.661h512.244v-2H208.369v-46.661h512.244v-2H208.369v-46.662h512.244v-2H208.369V440.63h512.244v-2H208.369v-46.661h512.244v-2H208.369v-46.662h512.244v-2H208.369v-46.661h512.244v-2H208.369v-46.662h512.244v-2H208.369v-46.661h512.244v-2H208.369v-46.661h512.244v-2H208.369V100h512.244v-2H208.369V51.338h512.244z" opacity=".3"/><path fill="none" stroke="#3f3d56" stroke-miterlimit="10" stroke-width="2" d="M269.39894 173.17882a115.52164 115.52164 0 01-19.3779 12.14628c-4.42374 2.19545-9.332 4.14965-14.184 3.22885s-9.20857-5.87908-7.72695-10.59016a8.37291 8.37291 0 016.45035-5.32576 14.82177 14.82177 0 018.56019 1.23515 24.614 24.614 0 0111.61812 10.30863c1.3557 2.36085 2.41819 5.06806 4.66927 6.59912a13.26556 13.26556 0 005.92919 1.71587c4.90385.613 9.936 1.21989 14.74016.0606s9.40688-4.48312 10.63233-9.27079M306.46306 150.36394q.5697 22.03112-.6164 44.061l10.422-1.96912c3.84158-.72583 8.21217-1.8346 9.94821-5.33756 1.61855-3.26589.07816-7.38857-2.61649-9.84307s-6.28526-3.62586-9.7586-4.73115l-5.68956-1.81052M362.63679 166.55617c-3.80521-.52743-7.68742-1.03211-11.46876-.3544s-7.51209 2.73639-9.25544 6.15962c-3.22011 6.323 1.71343 14.10944 7.96549 17.46516a25.7699 25.7699 0 0016.99049 2.55775"/><path fill="#0560ff" d="M278.96688 116.2517q-14.35418 13.49653-28.70834 0a39.49152 39.49152 0 01-12.14583-28.83483V0h53v87.41691a39.49152 39.49152 0 01-12.14583 28.83479zM575.31272 426.72998c0 81.83-48.64 110.4-108.65 110.4-1.39 0-2.78-.02-4.16-.05-2.78-.06-5.54-.18994-8.26-.38-54.16-3.83-96.23-33.87-96.23-109.97 0-78.74 100.62-178.11 108.2-185.48a.0098.0098 0 01.01-.01c.29-.29.44-.43.44-.43s108.65 104.09999 108.65 185.92z"/><path fill="#3f3d56" d="M462.70274 524.60999l39.74-55.52-39.84 61.62-.1 6.37c-2.78-.06-5.54-.18994-8.26-.38l4.28-81.86-.03-.64.07-.11.41-7.74-39.93994-61.77 40.05994 55.97.1 1.64 3.23-61.85-34.19-63.83 34.61 52.98 3.37-128.24.01-.44v.43l-.56 101.12 34.04-40.09-34.18006 48.80005-.9 55.38 31.79-53.15-31.92 61.3-.5 30.79 46.13-73.98005-46.31 84.72z"/></svg>