<svg xmlns="http://www.w3.org/2000/svg" data-name="Layer 1" viewBox="0 0 1004.7 840.1"><defs/><path fill="#3f3d56" d="M677.6 209.4c-51.2-65.1-136.1-106.5-222-144.7C208.3-45.6 21-25.7 110.7 209.4zM282.1 529c41.3 66.3 89.8 114.4 173.6 114.4 88 0 166.2-44.9 215.6-114.4z"/><path d="M61.3 323.9c9.3-11.4 19.9-22 32.8-29s28.5-10.2 42.5-6a77.9 77.9 0 0127.8 17.2c17 14.7 32.7 31.5 52.8 41.7s46.4 12 63.5-2.6c13.5-11.6 19.2-31.8 35.3-39.3 15.9-7.5 34.3.5 50.4 7.5A421.2 421.2 0 00434 336c15.7 3.8 31.8 6.7 47.9 5.2s32.1-8 42.6-20.2M291 389.4c9.3-11.4 20-22 32.8-29s28.5-10.2 42.6-6a77.9 77.9 0 0127.8 17.2c17 14.7 32.6 31.5 52.7 41.7s46.5 12 63.5-2.6c13.5-11.6 19.2-31.8 35.3-39.3 15.9-7.5 34.3.5 50.4 7.5a421.2 421.2 0 0067.6 22.6c15.7 3.8 31.8 6.7 47.9 5.2s32.1-8 42.6-20.2" opacity=".1"/><path fill="#3f3d56" d="M68.1 316c9.4-11.3 20-22 32.8-29s28.5-10.1 42.6-6a77.9 77.9 0 0127.8 17.2c17 14.8 32.7 31.6 52.7 41.8s46.5 12 63.5-2.7c13.5-11.6 19.2-31.7 35.3-39.3 16-7.4 34.3.6 50.4 7.5a421.2 421.2 0 0067.7 22.7c15.6 3.8 31.8 6.7 47.8 5.2s32.1-8 42.6-20.3"/><path fill="#3f3d56" d="M299.8 378.6c9.3-11.3 20-22 32.8-29s28.5-10.2 42.6-6a77.9 77.9 0 0127.8 17.2c17 14.7 32.6 31.6 52.7 41.7s46.5 12 63.5-2.6c13.5-11.6 19.2-31.7 35.3-39.3 15.9-7.5 34.3.6 50.4 7.5a421.2 421.2 0 0067.6 22.6c15.7 3.8 31.8 6.7 47.9 5.2s32.1-8 42.6-20.2"/><circle cx="60.7" cy="253.3" r="21.5" opacity=".1"/><circle cx="68.6" cy="243.6" r="21.5" fill="var(--accent)"/><path d="M726.8 300.6H767a141.2 141.2 0 000-48.1h-40.3a86.6 86.6 0 010 48z" opacity=".1"/><path fill="var(--accent)" d="M732.6 292.8H773a141.2 141.2 0 000-48.2h-40.4a86.6 86.6 0 010 48.2zM101.8 606.3c33.6 101.1 21.8 196 21.8 196s-66.2-69-99.8-170S2 436.3 2 436.3s66.3 69 99.8 170z"/><path fill="var(--accent)" d="M145.4 606.3c-33.6 101.1-21.8 196-21.8 196s66.3-69 99.9-170 21.8-196 21.8-196-66.3 69-99.9 170z"/><path fill="#3f3d56" d="M159 607.4c2.2 106.5-37 193.7-37 193.7s-43-85.4-45.3-192 37-193.6 37-193.6 43 85.4 45.3 192z"/><ellipse cx="121.9" cy="802.3" fill="#3f3d56" rx="95" ry="5.2"/><circle cx="117.8" cy="513.3" r="10.4" fill="var(--accent)"/><circle cx="97.6" cy="596.7" r="5.8" fill="var(--accent)"/><circle cx="26.9" cy="539.4" r="5.8" fill="#3f3d56"/><circle cx="231.4" cy="483.2" r="5.8" fill="#3f3d56"/><circle cx="57" cy="593.8" r="5.8" fill="#3f3d56"/><circle cx="178.7" cy="560.2" r="5.8" fill="#3f3d56"/><circle cx="60.5" cy="679" r="5.8" fill="#3f3d56"/><circle cx="184.5" cy="646" r="5.8" fill="#3f3d56"/><circle cx="128.3" cy="651.7" r="5.8" fill="var(--accent)"/><path d="M666.8 327.8h-40.4a141.2 141.2 0 010-48.2h40.4a86.6 86.6 0 000 48.2z" opacity=".1"/><path fill="#ff6584" d="M672.7 322h-40.4a141.2 141.2 0 010-48.2h40.4a86.6 86.6 0 000 48.1z"/><path fill="#ffb9b9" d="M951.5 760.5l8.5 26.9-26.2 2.3 2.3-29.2h15.4zM824.5 781.3v36.9h-30l8.5-36.9h21.5z"/><path fill="#2f2e41" d="M931.5 512.7l12.3 117s15.4 103 12.3 119.2.8 18.5.8 18.5h-23.1s.8-10-3.9-14.6-2.3-18.5-2.3-18.5l-58.4-178.5-33.1 100s-5.4 110-6.2 111.6-3 22.3-3 22.3h-28.5s3.8-12.3-1.6-16.1-10-.8-5.3-7.7 6.1-15.4 4.6-19.3-1.6-19.2-1.6-19.2 2.3-207.7 15.4-214.7 121.6 0 121.6 0zM816.4 798.6s13.2-2 13.2-1.3 15.8 43.4 0 42.8-75.7-9.3-71.7-25 23.6-11.2 23.6-11.2l17.8-9.9zM946 785s-13.2-2-13.2-1.3-15.8 43.4 0 42.7 75.6-9.2 71.7-25-23.7-11.1-23.7-11.1l-17.8-10z"/><path fill="var(--accent)" d="M887.5 616.9h-48a168.1 168.1 0 010-57.3h48a103.1 103.1 0 000 57.3z"/><circle cx="868.2" cy="262.6" r="30.3" fill="#ffb9b9"/><path fill="#ffb9b9" d="M892.2 258.8s5.4 53.9 12.4 57.7-53.1 7.7-53.1 7.7 14.6-49.2 10-53.8 30.7-11.6 30.7-11.6z"/><path fill="#3f3d56" d="M827.6 315s21.6-20.8 46.2-17 42.3 8.5 42.3 8.5 37.7 20 38.5 36.2-13.9 77-13.9 77-6.9 99.2-7.7 99.2l-130-1.6 23.8-129.2z"/><path fill="#ffb9b9" d="M832.6 500.1c5 1.4 13.6-.5 22.6-3.4 16-5.3 33.2-14 33.2-14s55.4-22.3 71.6-33.8 5.3-57.7 5.3-57.7l-24.6 7.7 1.6 28.4-60.8 39.3a137.1 137.1 0 00-28.2 5.6c-10.2 3.4-20.1 8.6-23.7 16.7a15.6 15.6 0 00-1.2 3.8c-.7 4.3 1 6.5 4.2 7.4z"/><path d="M829.6 488.9l3 11.2c5 1.4 13.6-.5 22.6-3.4l-1.9-24.5c-10.2 3.4-20.1 8.6-23.7 16.7z" opacity=".1"/><path fill="#ffb9b9" d="M840.7 376.5l4.6 40.8L853 518s42.3 51 18.5 52.5-37-50-37-50-23.8-81.5-23-98.5 0-45.4 0-45.4z"/><path fill="#2f2e41" d="M834 259.3a7.9 7.9 0 01-2.2-1.3c-1.6-1.6-1.4-4.4-.6-6.6s1.7-4.4 1.2-6.7c-.2-1-.8-2-1-3-.3-2.5 1.7-4.8 3.9-6s4.8-2 6.9-3.4c3.2-2.2 5-6.1 8.3-8.2 3.2-2.1 7.3-2.2 11-2.2H873c6 0 12.5.2 17 4.2 1.3 1.2 2.4 2.8 3.8 4 2.7 2.3 6.5 3.3 9.5 5.3a16.5 16.5 0 017.4 14c-.1 5-2.6 10-2 15 .5 3.3 2.3 6.6 1.8 10-.6 4-4.2 6.8-8 8.3s-7.8 2-11.5 3.7c-3 1.4-6.1 3.6-9.2 2.6-2.7-.8-4.2-3.6-5.1-6.2a51 51 0 01-2.5-9.5c-.3-2.4-.6-5-2-7a8 8 0 00-7.2-3c-6.1.5-9.6 11-15.3 8.6-2.8-1.3-5-5-7.2-7a36.3 36.3 0 00-8.5-5.6z"/><path fill="#3f3d56" d="M945.3 335.8s15.4 5.3 21.6 26.9 3.8 36.2 3.8 36.2l-32.3 5.3zM843 313.4s-27.7-6.1-31.5 20a418.7 418.7 0 00-3.9 53.1s26.2-12.3 37.7 0z"/></svg>