<svg xmlns="http://www.w3.org/2000/svg" data-name="Layer 1" viewBox="0 0 940.1006 814.72886"><defs/><ellipse cx="83.43547" cy="686.96485" fill="#3f3d56" rx="65.66513" ry="10.16101"/><circle cx="549.11492" cy="395.17481" r="335.13058" fill="#f2f2f2"/><path fill="#3f3d56" d="M572.8533 734.49452c-3.87413 0-7.78781-.06137-11.62921-.18137l.08728-2.79c5.516.17182 11.14511.21955 16.687.14319l.03818 2.79275q-2.58751.03474-5.18325.03543zm21.98612-.64774l-.16363-2.7873c5.52414-.32591 11.1192-.7841 16.62971-1.36092l.29182 2.77639c-5.55274.58228-11.19002 1.04456-16.75786 1.37183zm-50.40322-.435c-5.57051-.42682-11.19966-.98592-16.732-1.665l.34091-2.77093c5.49.67227 11.07556 1.22864 16.6038 1.65138zm83.83719-3.07094l-.41864-2.76c5.48869-.83319 11.01965-1.8 16.43471-2.87594l.54409 2.73821c-5.45725 1.08407-11.02916 2.05908-16.56012 2.89773zm-117.205-1.02138c-5.503-.93273-11.05784-2.00456-16.50971-3.18821l.59251-2.73c5.41028 1.17547 10.92215 2.23912 16.38357 3.16367zm150.17807-5.53232l-.67091-2.71094c5.38778-1.33228 10.80556-2.805 16.10334-4.37595l.79364 2.67821c-5.33867 1.5832-10.79736 3.06685-16.22605 4.40868zm-183.0318-1.60093c-5.398-1.43592-10.83011-3.015-16.14562-4.69641l.84138-2.66184c5.27528 1.66774 10.66578 3.23458 16.02152 4.65823zm215.263-7.961l-.91637-2.6373c5.22823-1.81775 10.48646-3.78277 15.63152-5.84188l1.03637 2.59366c-5.18318 2.07413-10.48233 4.05415-15.75147 5.88554zm-247.362-2.1873c-5.24255-1.92684-10.51783-4.0064-15.67788-6.18006l1.0841-2.57457c5.12051 2.15729 10.35488 4.2205 15.55789 6.1337zm278.54184-10.28874l-1.15637-2.54184c5.021-2.28139 10.06783-4.71687 15.00015-7.23825l1.27102 2.48735c-4.97055 2.54044-10.0556 4.99365-15.11474 7.29276zm-309.5914-2.78455c-5.03937-2.40139-10.09783-4.9555-15.03288-7.5928l1.31593-2.46275c4.89823 2.61684 9.91714 5.15187 14.91833 7.53553zm339.47176-12.48967l-1.38274-2.42457c4.815-2.74775 9.62191-5.636 14.28423-8.58554l1.49183 2.35912c-4.69777 2.97275-9.54009 5.88415-14.39332 8.65099zm-369.16864-3.3764c-4.79323-2.85139-9.59328-5.85824-14.26583-8.936l1.53684-2.33184c4.63641 3.05457 9.39964 6.03824 14.15673 8.86781zm397.54755-14.57741l-1.59819-2.28821c4.53413-3.16776 9.05872-6.48552 13.44831-9.85918l1.70184 2.21456c-4.42232 3.39958-8.98236 6.74189-13.55196 9.93283zm-425.65169-3.93277c-4.50755-3.27412-9.01032-6.7037-13.38423-10.196l1.74275-2.18184c4.34049 3.465 8.80918 6.86871 13.28195 10.11692zm452.29059-16.54107l-1.8-2.13548c4.226-3.56594 8.43144-7.28189 12.50194-11.04556l1.89547 2.05093c-4.1005 3.79231-8.33873 7.53689-12.59741 11.13011zM330.978 643.59907c-4.198-3.6764-8.36872-7.50007-12.39558-11.366l1.93366-2.01547c3.99685 3.83731 8.13553 7.63235 12.30148 11.28147zm503.25564-18.3779l-1.9882-1.96093c3.89595-3.94777 7.74962-8.03326 11.45193-12.14194l2.07548 1.8682c-3.73095 4.1414-7.61326 8.25693-11.53921 12.23467zm-527.51361-4.90369c-3.85163-4.05-7.65553-8.23644-11.306-12.44194l2.10957-1.83c3.62253 4.17413 7.39712 8.32781 11.22011 12.34649zm550.02338-20.07974l-2.15729-1.77275c3.51958-4.28322 6.98461-8.70281 10.30237-13.13876l2.23639 1.67183c-3.34231 4.47005-6.83458 8.92509-10.38147 13.23968zm-572.05519-5.30187c-3.45889-4.3705-6.86461-8.88282-10.12305-13.4115l2.26639-1.63092c3.23389 4.49322 6.6137 8.97145 10.04669 13.31058zm592.20308-21.63976l-2.31-1.5682c3.11457-4.586 6.16506-9.30555 9.06554-14.03059l2.38093 1.46183c-2.92501 4.7605-5.99867 9.51691-9.13647 14.13696zm-611.824-5.62642c-3.043-4.665-6.0212-9.46509-8.85282-14.2706l2.40548-1.41819c2.81048 4.76868 5.7662 9.53327 8.786 14.1615zm629.43967-23.05526l-2.44366-1.35c2.68093-4.85187 5.2855-9.83464 7.74416-14.8106l2.50366 1.23819c-2.47638 5.0128-5.10277 10.03376-7.80416 14.92241zm-646.48184-5.87188c-2.60457-4.92277-5.13-9.97373-7.50621-15.011l2.52548-1.19183c2.35844 4.99914 4.86414 10.01191 7.44894 14.89651zm661.39607-24.31933l-2.5582-1.12092c2.22547-5.08232 4.36231-10.28737 6.35188-15.46924l2.6073 1.00092c-2.00457 5.22281-4.15914 10.46745-6.40098 15.58927zm-675.7103-6.026c-2.14093-5.13824-4.19118-10.39511-6.09347-15.62607l2.625-.95455c1.88729 5.19141 3.92186 10.40737 6.04574 15.50606zm687.78679-25.43616l-2.65094-.87819c1.74275-5.25142 3.38731-10.61875 4.88732-15.95471l2.68912.75546c-1.51229 5.37695-3.17049 10.78654-4.9255 16.07751zM222.23783 476.841c-1.6616-5.32233-3.223-10.7592-4.6405-16.162l2.70139-.7091c1.40661 5.36187 2.9564 10.75783 4.60505 16.03925zm708.36222-26.24481l-2.72048-.63273c1.25046-5.38233 2.3932-10.8792 3.39821-16.33516l2.74639.50455c-1.01182 5.49967-2.16411 11.03745-3.42412 16.46341zm-716.89184-6.27552c-1.16456-5.45459-2.21866-11.01147-3.13231-16.51925l2.75457-.45819c.90751 5.46688 1.95343 10.98148 3.10913 16.3938zm722.97781-26.78753l-2.76821-.3791c.75137-5.4696 1.38547-11.04692 1.88593-16.57789l2.78184.25091c-.50455 5.57467-1.1441 11.19427-1.89956 16.70615zm-728.48151-6.37643c-.65864-5.52824-1.19933-11.15875-1.60774-16.73471l2.78594-.20455c.40432 5.53506.9416 11.12193 1.59547 16.60926zm731.51836-27.10254l-2.79-.12545c.24818-5.5337.375-11.14648.375-16.68153h2.79276c-.00003 5.57739-.12685 11.23245-.37776 16.80705zm-733.97224-6.42552c-.09546-3.42412-.14387-6.91779-.14455-10.38146q0-3.22368.05523-6.43507l2.79275.04909q-.05523 3.18686-.05523 6.386c.00069 3.43776.0491 6.90552.14319 10.3051zm731.53676-14.27741c-.05728-5.5371-.24273-11.1492-.54955-16.68153l2.7873-.15545c.30955 5.5746.49637 11.229.555 16.807zM209.1168 344.18862l-2.7873-.17455c.34841-5.58.82978-11.216 1.4291-16.75175l2.77639.30068c-.59523 5.49415-1.07183 11.08716-1.41819 16.62562zm726.31466-14.152c-.55773-5.50573-1.25183-11.07624-2.06184-16.55812l2.76276-.40773c.81546 5.52347 1.515 11.13625 2.0782 16.68358zM212.7093 311.02057l-2.76-.42683c.85569-5.52482 1.8498-11.09329 2.955-16.55266l2.73685.55364c-1.09635 5.41778-2.08295 10.94397-2.93185 16.42585zm717.84163-13.9856c-1.065-5.44778-2.26639-10.9317-3.57276-16.299l2.71366-.66c1.31592 5.40824 2.52684 10.93443 3.6 16.42312zM219.3244 278.32161l-2.70889-.6791c1.35615-5.40892 2.85821-10.86284 4.46459-16.21107l2.67411.80319c-1.59342 5.30733-3.08391 10.71965-4.42981 16.08698zm703.33375-13.70332c-1.55729-5.31755-3.25912-10.66647-5.05777-15.90016l2.64-.90819c1.81366 5.27392 3.52913 10.66511 5.09869 16.02289zm-693.72-18.29268l-2.63457-.92592c1.85592-5.27937 3.85981-10.584 5.95574-15.76652l2.58957 1.04729c-2.08027 5.14232-4.06915 10.40669-5.91076 15.64515zm682.87492-13.25809c-2.0373-5.13959-4.21914-10.2976-6.48552-15.33151l2.5473-1.14683c2.28411 5.07278 4.48231 10.27033 6.53461 15.44879zM241.4728 215.32985l-2.53776-1.16592c2.33253-5.0796 4.815-10.17351 7.37871-15.13992l2.48185 1.28042c-2.54457 4.929-5.00801 9.984-7.3228 15.02542zm656.67238-12.61717c-2.49957-4.93028-5.14777-9.87078-7.871-14.68242l2.43-1.37592c2.745 4.84914 5.41233 9.82714 7.931 14.7956zm-641.34428-17.077l-2.42048-1.39365c2.78594-4.83755 5.72392-9.67987 8.73282-14.39128l2.35366 1.50275c-2.98571 4.67593-5.90188 9.48146-8.666 14.28219zm624.93685-11.9183c-2.95094-4.69777-6.041-9.37782-9.18418-13.91059l2.29366-1.59138c3.16776 4.56755 6.28233 9.28305 9.25509 14.017zm-606.96122-16.23083l-2.28274-1.60911c3.21957-4.56618 6.58574-9.11736 10.00714-13.5274l2.20637 1.71139c-3.39479 4.3773-6.73642 8.89371-9.93077 13.42512zm587.96421-11.16012c-3.36548-4.408-6.87006-8.79009-10.41964-13.02422l2.14093-1.79388c3.57549 4.26686 7.10734 8.68168 10.49874 13.12308zm-567.50264-15.219l-2.12593-1.81093c3.613-4.24368 7.37871-8.46758 11.19216-12.55444l2.04138 1.905c-3.78413 4.05619-7.52121 8.24874-11.10761 12.46037zm546.08107-10.34465c-3.7514-4.08345-7.64326-8.13076-11.56512-12.02807l1.96912-1.98139c3.95185 3.928 7.87235 8.00531 11.65238 12.11944zM318.0056 106.70969l-1.95275-1.99639c3.99345-3.90685 8.126-7.76939 12.28171-11.47988l1.86 2.08365c-4.12434 3.68186-8.22551 7.51508-12.18896 11.39262zm499.64879-9.46714c-4.1114-3.7289-8.35645-7.40667-12.61649-10.931l1.78093-2.15184c4.2914 3.551 8.56917 7.25666 12.71194 11.0142zM342.88675 84.49106l-1.7632-2.16548c4.31936-3.51753 8.78327-6.98666 13.26832-10.31124l1.66365 2.24321c-4.45164 3.30003-8.88213 6.74257-13.16877 10.23351zm449.0492-8.52759c-4.436-3.34026-9.00008-6.61779-13.56558-9.74123l1.57638-2.30457c4.601 3.14663 9.19918 6.4487 13.66922 9.81487zM369.67224 64.63836l-1.55865-2.31684c4.62277-3.11048 9.38191-6.1562 14.14582-9.05463l1.45089 2.38638c-4.72706 2.87594-9.45006 5.89916-14.03806 8.98509zm394.6989-7.528c-4.71959-2.92093-9.566-5.76823-14.40424-8.46417l1.3582-2.43957c4.87641 2.71639 9.75964 5.58619 14.516 8.52827zm-366.23-9.789l-1.34047-2.45047c4.89073-2.67617 9.90556-5.27256 14.9047-7.71826l1.22728 2.50911c-4.96094 2.42663-9.93758 5.00324-14.79149 7.65963zm337.04378-6.47051c-4.96914-2.47571-10.05964-4.86755-15.12969-7.10871l1.1291-2.55412c5.10959 2.25821 10.23964 4.66846 15.247 7.16326zm-307.13074-8.16076l-1.11-2.56229c5.111-2.21525 10.3392-4.33982 15.53879-6.31507l.99138 2.61139c-5.16005 1.95957-10.34805 4.06777-15.42017 6.26597zm276.555-5.35437c-5.171-2.00524-10.46328-3.91845-15.73106-5.68574l.8891-2.6482c5.30732 1.7816 10.64056 3.70912 15.85106 5.73073zM459.2054 20.86111l-.87-2.65366c5.30733-1.74 10.72238-3.37844 16.0938-4.86823l.74659 2.69048c-5.33049 1.47888-10.70397 3.10435-15.97039 4.83141zm213.73438-4.15231c-5.32642-1.51842-10.7592-2.93253-16.147-4.20277l.64092-2.71775c5.43005 1.27978 10.90374 2.7048 16.27243 4.23413zm-181.58702-4.76937l-.62182-2.72252c5.441-1.243 10.98352-2.37548 16.47289-3.36549l.49637 2.74775c-5.44847.9832-10.94807 2.10684-16.34744 3.34026zm149.11579-2.88616c-5.43825-1.02069-10.97738-1.92884-16.46471-2.69935l.38728-2.76548c5.5296.7766 11.11238 1.69161 16.59289 2.7198zM524.18468 6.01438l-.36955-2.76821c5.52823-.73774 11.15056-1.3582 16.71016-1.84229l.24273 2.78184c-5.51732.48137-11.09602 1.09638-16.58334 1.82866zm83.24673-1.60229c-5.501-.51819-11.10011-.91774-16.64335-1.1857l.13637-2.79c5.58414.27068 11.22556.673 16.7688 1.19523zm-50.0105-1.29752l-.11727-2.79c5.13278-.2141 10.36374-.32319 15.5497-.32455l1.2641.002-.00818 2.79276-1.25592-.00205c-5.14642.00139-10.33919.1098-15.43243.32184z"/><path fill="#0560ff" d="M121.4206 632.74007c-8.38218 30.98558-37.093 50.17573-37.093 50.17573s-15.12066-31.0474-6.73848-62.033 37.09305-50.17573 37.09305-50.17573 15.12061 31.04742 6.73843 62.033z"/><path fill="#0560ff" d="M45.16613 632.74007c8.38218 30.98558 37.093 50.17573 37.093 50.17573s15.12066-31.0474 6.73848-62.033-37.093-50.17573-37.093-50.17573-15.12066 31.04742-6.73848 62.033z"/><path fill="#3f3d56" d="M57.48315 626.08094c23.00083 22.39037 25.81021 56.8096 25.81021 56.8096s-34.48232-1.88276-57.48315-24.27313S0 601.80781 0 601.80781s34.4823 1.88275 57.48315 24.27313zM109.10357 626.08094c-23.00082 22.39037-25.81021 56.8096-25.81021 56.8096s34.48233-1.88276 57.48315-24.27313 25.81021-56.8096 25.81021-56.8096-34.48232 1.88275-57.48315 24.27313z"/><ellipse cx="829.47729" cy="801.57739" fill="#3f3d56" rx="84.99088" ry="13.15147"/><path fill="#0560ff" d="M878.64173 731.39385c-10.84912 40.10487-48.00981 64.94282-48.00981 64.94282s-19.57078-40.18488-8.72166-80.28975 48.00981-64.94283 48.00981-64.94283 19.57079 40.18489 8.72166 80.28976z"/><path fill="#0560ff" d="M779.94499 731.39385c10.84912 40.10487 48.00981 64.94282 48.00981 64.94282s19.57079-40.18488 8.72167-80.28975-48.00981-64.94283-48.00981-64.94283-19.57079 40.18489-8.72167 80.28976z"/><path fill="#3f3d56" d="M795.88701 722.77488c29.77015 28.98 33.40635 73.5291 33.40635 73.5291s-44.63073-2.43686-74.40088-31.4169-33.40635-73.5291-33.40635-73.5291 44.63073 2.43686 74.40088 31.4169zM862.69972 722.77488c-29.77015 28.98-33.40636 73.5291-33.40636 73.5291s44.63074-2.43686 74.40088-31.4169 33.40636-73.5291 33.40636-73.5291-44.63074 2.43686-74.40088 31.4169z"/><ellipse cx="410.43547" cy="728.96485" fill="#3f3d56" rx="243.5" ry="37.67914"/><circle cx="526.66422" cy="231.29653" r="16.64272" fill="#2f2e41"/><path fill="#2f2e41" d="M508.83274 224.16393a16.64236 16.64236 0 0114.85956-16.54433 16.64273 16.64273 0 100 33.08867 16.64237 16.64237 0 01-14.85956-16.54434z"/><path fill="#0560ff" d="M510.02151 231.29653s-2.58476 11.88765 13.56719 16.64272"/><circle cx="533.5473" cy="288.46962" r="55.87198" fill="#2f2e41"/><path fill="#a0616a" d="M479.6006 462.74726l-2 42 96 32s-5-53-2-58zM323.601 649.747l-9 35h42v-35h-33zM541.601 659.052l19 6.695 10-25.108-17-13.392-12 31.805z"/><path fill="#2f2e41" d="M575.26897 615.46943s28.33163-3.72217 28.33163 20.27783 4 83-36 76c0 0-18 2-11-19 0 0 7.12574-8.54279 4.56287-13.7714s-17.56287-9.2286-15.56287-12.2286 24-27 24-27z"/><path fill="#2f2e41" d="M575.6006 531.74726l-98-34-6 24s-147-85-156-27c0 0-8 47 4 109l1 50s25 6 37 1l1-54s10-35 5-62c0 0 75 59 109 66 0 0-119 92-105 121s31 34 53 29c15.16081-3.44564 83.03522-58.18019 123.77058-91.87808 28.1707-23.30392 44.16815-58.49417 42.16236-94.99947-.72886-13.26528-3.79009-26.12245-10.93294-36.12245z"/><path fill="#2f2e41" d="M321.6006 671.74726s-1-12-7-7-27 24-27 24-76 20-30 39c0 0 30 6 62-8 0 0 51.11135 1.4643 50.05568-11.26785s-13.05568-33.99593-13.05568-33.99593-14 10.26378-30-3.73622z"/><circle cx="519.6006" cy="310.74726" r="37" fill="#a0616a"/><path fill="#a0616a" d="M549.6006 312.74726s6 30 17 37l-61 72-23-22 17-30s19-11 13-26zM571.6006 352.74726s44 9 49 38-5 82-5 82l-21 156s-1 66-27 55 7-61 7-61l9-98s4-83-4-93l-32-10s7-66 24-69z"/><path fill="#a0616a" d="M499.6006 369.74726s-30-1-49 23-65 42-65 42l-115 45s-21-37-34-24 24 46 41 42 120-35 120-35l82-37z"/><path fill="#d0cde1" d="M565.0503 347.36443s-38.4497 51.38283-55.4497 50.38283-5.5503-31.38283-5.5503-31.38283l-12 3s-16.4497 31.38283-18.4497 33.38283c0 0-24 39 3 48l1 21s67-3 96 12l6-52s-38-19-17-56c0 0 7.4497-19.38283 15.4497-21.38283z"/><path d="M575.1006 622.24726l-153 112s154-91 153-112z" opacity=".1"/><path fill="#2f2e41" d="M521.61072 267.31678c-19.69611 0-35.663 9.314-35.663 20.8034 0 5.14084 3.20947 9.83924 8.50725 13.469l6.86552-4.97455-1.867 7.79322c.77469.359 1.5657.70649 2.39074 1.02762l10.25637-11.9658v14.7a59.86933 59.86933 0 009.51012.75393c19.69612 0 35.663-9.314 35.663-20.80339s-15.96688-20.80343-35.663-20.80343z"/><circle cx="594.66422" cy="257.29653" r="16.64272" fill="#2f2e41"/><path fill="#2f2e41" d="M576.83274 250.16393a16.64236 16.64236 0 0114.85956-16.54433 16.64273 16.64273 0 100 33.08867 16.64237 16.64237 0 01-14.85956-16.54434z"/><path fill="#0560ff" d="M578.02151 257.29653s-2.58476 11.88765 13.56719 16.64272"/><ellipse cx="558.1006" cy="307.74726" fill="#a0616a" rx="2.88889" ry="6.5"/><path fill="#d0cde1" d="M239.2593 332.89329l-43.84885 10.62376-.14286.034-4.76653 4.31527-1.3719 1.24039-2.94109-.5329-5.20645-.94105 3.62818-12.24512.68029-23.35642-2.49438-14.286 13.83245-9.524s26.98458-1.58726 42.63114 44.67207z"/><path d="M195.41042 343.51705c-.59411 1.26761.65081.43086-.02948 1.73474l-6.34932 2.04085-2.84358 1.28119-5.20645-.94105 3.62818-12.24512.68029-23.35642-2.49438-14.286 13.83245-9.524s14.84606 21.02536-1.21771 55.29581z" opacity=".1"/><path fill="#d0cde1" d="M290.96087 299.3326s-57.59739 26.75785-80.95382 30.83955-21.31557 27.43813-21.31557 27.43813l130.84133-20.40852s-4.53523-21.08881-28.57194-37.86916z"/><path fill="#0560ff" d="M179.84779 294.79737s9.9775 24.26347-1.13381 54.42274l12.9254 5.8958 4.98875-5.8958.11338-.5669-13.71907-1.24719s11.33807-30.386 2.04086-51.47484c0 0-2.04086-4.53523-5.21551-1.13381z"/><path fill="#0560ff" d="M370.1006 474.61916c-51.02132-11.33807-98.52783 12.13174-98.52783 12.13174l-.12926-.11565-18.9187-16.89146-73.92421-120.63706 18.02753.11338c50.11427-29.9325 120.63706-25.8508 120.63706-25.8508 30.38603 34.46773 52.83541 151.24985 52.83541 151.24985z"/><path d="M271.44351 486.63525l-18.9187-16.89146-73.92421-120.63706 18.02753.11338s71.85161 94.89737 74.81538 137.41514z" opacity=".1"/><ellipse cx="404.24361" cy="417.36634" fill="#d0cde1" rx="29.25222" ry="18.59443" transform="rotate(-17.052 197.06825036 829.46376706)"/></svg>