<svg xmlns="http://www.w3.org/2000/svg" data-name="Layer 1" viewBox="0 0 998 698">
  <defs/>
  <path fill="#f2f2f2" d="M150 24h103v120H150zM428 94h103v120H428zM707 24h103v120H707z"/>
  <path fill="#3f3d56" d="M229 430h271v68H229zM784 696H545l67-116 53-90 119 206zM137 516h397v181H137z"/>
  <circle cx="664.4" cy="442.3" r="47.1" fill="var(--accent)"/>
  <path fill="#3f3d56" d="M2 696h861v2H2z"/>
  <path d="M500 435v63h-64l39-68h22l3 5zM534 516v180H321l104-180h109zM680 696H545l67-116 3 5 65 111z" opacity=".1"/>
  <path fill="var(--accent)" d="M665 696H335l108-187 57-98 100 174 65 111z"/>
  <circle cx="499.4" cy="393.3" r="20.3" fill="#3f3d56"/>
  <path fill="#3f3d56" d="M443 400a368 368 0 01-120-20c-52-18-95-43-127-74-61-59-110-68-141-65-34 3-53 21-54 21l-1-2s20-18 54-21c20-2 41 2 63 10 26 11 53 29 80 55a379 379 0 00420 52c31-16 61-26 89-32 37-6 71-5 103 5 70 22 117 21 145 16 29-5 43-16 43-16l1 2s-14 11-44 16c-28 5-76 6-146-16s-142 2-190 27a384 384 0 01-145 41l-30 1z"/>
  <path fill="#3f3d56" d="M218 323l-2-1a73 73 0 0015-26c5-14 7-37-9-64a93 93 0 01-15-65c2-15 9-23 9-24l1 2s-6 8-8 23c-3 14-2 35 15 62 16 28 14 52 9 67-6 16-15 26-15 26z"/>
  <path fill="#3f3d56" d="M293 145H149V1h144zm-142-2h140V3H151zM497 394l-2-1a73 73 0 0015-26c5-14 7-37-9-64a93 93 0 01-15-65c2-15 9-23 9-24l1 2s-6 8-8 23c-3 14-2 35 15 62 16 28 14 52 9 67-6 16-15 26-15 26z"/>
  <path fill="#3f3d56" d="M572 216H428V72h144zm-142-2h140V74H430zM775 322l-2-1a73 73 0 0015-26c5-14 7-37-9-64a93 93 0 01-15-65c2-15 9-23 9-24l1 2s-6 8-8 23c-3 14-2 35 15 62 16 28 14 52 9 67-6 16-15 26-15 26z"/>
  <path fill="#3f3d56" d="M850 144H706V0h144zm-142-2h140V2H708zM179 43h88v2h-88zM179 65h88v2h-88zM179 87h88v2h-88zM456 111h88v2h-88zM456 133h88v2h-88zM456 155h88v2h-88z"/>
  <path fill="#3f3d56" d="M734 43h88v2h-88zM734 65h88v2h-88zM734 87h88v2h-88z"/>
  <path fill="var(--accent)" d="M821 664c6 20 24 32 24 32s10-20 5-39-24-33-24-33-10 20-5 40z"/>
  <path fill="#3f3d56" d="M829 660c15 14 17 36 17 36s-22-1-37-15-17-37-17-37 23 1 37 16z"/>
  <path fill="#f2f2f2" d="M192 558h103v120H192z"/>
  <path fill="#fff" d="M335 678H191V534h144zm-142-2h140V536H193z"/>
  <path fill="var(--accent)" d="M219 577h88v2h-88zM219 599h88v2h-88zM219 621h88v2h-88z"/>
  <path fill="#2f2e41" d="M227 217c-24 0-44 22-44 48v34h10l6-12-1 12h67l5-11-1 11h8v-26c0-31-23-56-50-56zM177 439l-27 11-93 75a27 27 0 00-6 15c-1 9-29 54-19 60s46 24 48 12l13-63 90-80z"/>
  <path fill="#2f2e41" d="M72 602l-12 34s12 12 6 23v37h-9l-3-20s-10 19-16 20c-11 0-33 4-34-2s17-12 17-12l19-51 8-31zM246 430s6 59-11 69-94 45-94 45 32 31 26 38-37 28-41 24-49-53-43-68 79-65 79-65l9-32 2-25 28-18z"/>
  <circle cx="215.5" cy="265.2" r="27.8" fill="#ffb9b9"/>
  <path fill="#ffb9b9" d="M237 277s-1 25 19 33-51 60-51 60v-58s9-10 0-25zM282 396l-6 26-16 89s14 38-5 38-9-42-9-42l9-74v-28zM167 383l-6 24-28 66s-18 31-3 30 15-30 15-30l32-54v-30z"/>
  <path fill="#2f2e41" d="M162 578l22 21s15-3 21 15l10 29-8 5-10-14s-6 25-12 27-36 15-33 0l15-21s2-24-4-26-22-22-22-22z"/>
  <path fill="#3f3d56" d="M247 451s-63-23-67-21a30 30 0 01-9 2v-9s21-7 32-2l46 25z"/>
  <path fill="#d0cde1" d="M209 357s18-21 23-34a33 33 0 0118-17s40 9 39 25-25 41-25 41 3 89-15 88a39 39 0 01-8-16c-2-10-64-20-64-20s-5 10-6 6 5-103 5-103l32-21z"/>
  <path fill="#d0cde1" d="M284 325h1a9 9 0 014 8v50a9 9 0 004 7c2 2 4 5 0 7-8 2-40 16-41 11s-2-10 0-10 11-48 19-68a9 9 0 0113-5zM185 325l-9 3-11 46s-12 2-8 7 20 17 20 17z"/>
  <path fill="#2f2e41" d="M239 230a23 23 0 00-18-9h-1c-16 0-30 15-30 34h6l1-7 1 7h33l2-6v6h6q5 22-13 44h11l6-11-2 11h21l4-26c0-20-11-37-27-43z"/>
  <path d="M311 430h104v34H311z" opacity=".1"/>
  <path fill="var(--accent)" d="M317 401h94v58h-94z"/>
</svg>
