<svg xmlns="http://www.w3.org/2000/svg" data-name="Layer 1" viewBox="0 0 790 512.21"><path fill="#e6e6e6" d="M720.56 510.7 698 442.6s24.82 24.82 24.82 45.18l-4.46-47.09s12.73 17.18 11.46 43.28-9.26 26.72-9.26 26.72ZM236.02 448.7 214 382.23s24.22 24.22 24.22 44.1l-4.35-45.96s12.43 16.76 11.18 42.23-9.03 26.08-9.03 26.08Z"/><path fill="#e6e6e6" d="M579.73 479.36c.03 43.71-86.67 30.27-192.81 30.36s-191.54 13.69-191.58-30.03 86.64-53.3 192.78-53.39 191.57 9.34 191.6 53.06Z"/><path fill="#3f3d56" d="M0 509.69h790v2H0z"/><path fill="#a0616a" d="M505.34 420.32h-13.88l-6.6-53.52h20.48v53.52z"/><path fill="#2f2e41" d="M480 416.36h28.31v16.85H464.7v-1.54a15.3 15.3 0 0 1 15.3-15.31Z"/><path fill="#a0616a" d="M607.34 499.32h-13.88l-6.6-53.52h20.48v53.52z"/><path fill="#2f2e41" d="M582 495.36h28.31v16.85H566.7v-1.54a15.3 15.3 0 0 1 15.3-15.31Z"/><path fill="#a0616a" d="M671.34 340.3a10.32 10.32 0 0 0-2.9-15.54l-32.22-131.3-20.6 8.87 38.33 126.95a10.37 10.37 0 0 0 17.4 11.03ZM646.2 74.96a11.38 11.38 0 0 0-17.4 1.16l-49.9 5.72 7.6 19.24 45.36-8.49a11.44 11.44 0 0 0 14.35-17.63Z"/><path fill="#2f2e41" d="m564 326.7 21.77 163.37 27.1-5.58s-4-118.98 9.55-133.33S605 311.7 605 311.7Z"/><path fill="#2f2e41" d="m573 281.7-10 15s-77-32-77 19-4.4 85.6-6 88 18.44 8.59 28 7c0 0 11.8-82.23 11-87 0 0 75.53 37.03 89.88 33.84s17.73-14.47 20.12-20.85-1-57-1-57l-47.81-14.59Z"/><path fill="#ccc" d="m574.35 191.63-2.85-3.42s-31.92-71.83-19.38-91.2 67.26-22.24 68.97-21.1-4.08 15.94-.09 22.78c0 0-42.4 9.2-45.24 10.33s21.96 43.28 21.96 43.28l-2.85 25.65Z"/><path fill="#ccc" d="M630.22 156.29s-29.65 3.42-30.79 3.42-1.7-7.41-1.7-7.41L571.5 188.2s-12.92 104.2-9.5 102.48 66.5 8.11 67.08 3.55-.57-27.36 1.14-28.5 29.64-71.83 29.64-71.83-2.85-14.82-12.54-19.95-17.1-17.67-17.1-17.67Z"/><path fill="#ccc" d="m650.74 184.22 9.12 9.7S673.4 305.26 666 308.68s-22 3-22 3l-14.35-52.79Z"/><circle cx="601.73" cy="123" r="26.24" fill="#a0616a"/><path fill="#2f2e41" d="M595.57 127.1c-.35-5.45-7.22-5.64-12.68-5.7s-11.97.15-15.06-4.35c-2.04-2.97-1.65-7.1.03-10.28s4.46-5.64 7.19-8c7.04-6.09 14.3-12.13 22.75-16.03s18.36-5.47 27.13-2.34c10.77 3.84 25.33 23.62 26.59 34.99s-3.29 22.95-10.95 31.45-25.18 5.06-36.2 8.08c6.7-9.49 2.28-26.73-8.46-31.16Z"/><circle cx="361.72" cy="403.5" r="62.99" fill="var(--primary)"/><path fill="var(--primary)" d="M319.66 336.04a45.16 45.16 0 0 1-41.26-26.79L178.45 84.16A59.83 59.83 0 1 1 290.32 42.3l72.38 235.4a45.08 45.08 0 0 1-43.04 58.34Z"/></svg>
