<svg xmlns="http://www.w3.org/2000/svg" data-name="Layer 1" viewBox="0 0 1000 671">
  <defs/>
  <path fill="#e6e6e6" d="M911 368a456 456 0 01-31 70l-2 3V194l2-6c27-82 47-159 41-188 2 7 50 193-10 368z"/>
  <path fill="#e6e6e6" d="M1000 252c-1 4-24 141-120 222l-2 1v-73l2-2 31-32c43-46 85-95 89-116z"/>
  <ellipse cx="111.5" cy="660.6" fill="#e6e6e6" rx="111.5" ry="10"/>
  <path fill="#e6e6e6" d="M874 120H243a6 6 0 00-6 6v350a6 6 0 006 6h631a6 6 0 006-6V126a6 6 0 00-6-6zm4 356a4 4 0 01-4 4H243a4 4 0 01-4-4V126a4 4 0 014-4h631a4 4 0 014 4z"/>
  <path fill="#e6e6e6" d="M299 120h2v362h-2z"/>
  <path fill="var(--accent)" d="M251 151a19 19 0 1118 18 19 19 0 01-18-18zM251 224a19 19 0 1118 18 19 19 0 01-18-18zM251 297a19 19 0 1118 18 19 19 0 01-18-18z"/>
  <path fill="#fff" d="M262 149h6v-6a2 2 0 113 0v6h6a2 2 0 010 4h-6v5a2 2 0 01-3 0v-5h-6a2 2 0 110-4zM266 229h16l-8-13a1 1 0 00-1 0l-5 9z"/>
  <path d="M266 229h5l-2-4h-1l-2 4z" opacity=".2" style="isolation:isolate"/>
  <path fill="#fff" d="M257 229h14l-3-4-4-5a1 1 0 00-1 0z"/>
  <circle cx="267.3" cy="216.9" r="2.3" fill="#fff"/>
  <path fill="#e6e6e6" d="M369 351l225-184 1 2-225 184z"/>
  <path fill="#e6e6e6" d="M369 169l1-1 225 185-1 1z"/>
  <path fill="#e6e6e6" d="M591 165H372a6 6 0 00-6 6v178a6 6 0 006 6h219a6 6 0 007-6V171a6 6 0 00-7-6zM372 353a5 5 0 01-4-4V171a5 5 0 014-4h219a5 5 0 015 4v178a5 5 0 01-5 4z"/>
  <path fill="#e6e6e6" d="M633 265c-2 0-3 2-3 4 0 3 1 5 3 5h177c2 0 4-2 4-5s-2-4-4-4z" data-name="Path 40"/>
  <path fill="var(--accent)" d="M633 239c-2 0-3 2-3 4 0 3 1 5 3 5h96c2 0 4-2 4-5s-2-4-4-4z" data-name="Path 40"/>
  <path fill="#e6e6e6" d="M633 292c-2 0-3 2-3 4 0 3 1 5 3 5h177c2 0 4-2 4-5s-2-4-4-4zM633 319c-2 0-3 2-3 4 0 3 1 5 3 5h177c2 0 4-2 4-5s-2-4-4-4zM633 346c-2 0-3 2-3 4 0 3 1 5 3 5h177c2 0 4-2 4-5s-2-4-4-4zM366 373c-1 1-3 3-3 5s2 4 3 4h445c2 0 4-2 4-4s-2-4-3-5h-1zM366 401c-1 0-3 2-3 4 0 3 2 5 3 5h445c2 0 4-2 4-5s-2-4-3-4h-1zM366 427c-1 0-3 2-3 5 0 2 2 4 3 4h445c2 0 4-2 4-4s-2-5-3-5h-1z" data-name="Path 40"/>
  <path fill="#2f2e41" d="M180 632l-27-1-39-161-66 157-30-1c29-122 57-248 79-282l61 17z"/>
  <path fill="#2f2e41" d="M63 665h-2a12 12 0 01-6-1l-36-4a13 13 0 01-7-17l8-18h26l26 21a12 12 0 01-9 19zM196 665h-2a12 12 0 01-6-1l-36-4a13 13 0 01-7-17l8-18h26l26 21a12 12 0 01-9 19z"/>
  <path fill="#a0616a" d="M175 321l-48-31 22-14 31 20 51 7 8-8a12 12 0 0118 2 12 12 0 01-7 19l-8 1z"/>
  <path fill="#e6e6e6" d="M128 298c-6-11-15-20-27-27l24-25c12 7 22 17 32 30z"/>
  <circle cx="126.6" cy="192.1" r="27.5" fill="#a0616a"/>
  <path fill="#a0616a" d="M141 248l-35-9c3-9 1-22 0-36h35c-6 16-7 32 0 45z"/>
  <path fill="#e6e6e6" d="M160 368l-66-16c-7-48-8-98 12-116l33 4 25 32a43 43 0 014 8c6 11 5 24-1 34-10 17-12 34-7 54z"/>
  <path fill="#a0616a" d="M96 336l11-56 21 15-6 36 32 40 10 4a12 12 0 015 18 12 12 0 01-19 0l-5-7z"/>
  <path fill="#e6e6e6" d="M137 269c-5 11-5 24-2 38l-35-1c-3-13-2-28 1-44z"/>
  <path fill="#2f2e41" d="M139 162s-33-18-49 15-11 63-11 63l30-1 7-7 6 6a94 94 0 0013-44c1-4 2-8 6-10l13-5s7-16-15-17z"/>
  <path fill="#fff" d="M277 289h-15a2 2 0 00-2 1 2 2 0 002 3h4a1 1 0 011 1v9a2 2 0 002 2 2 2 0 002-2v-9a1 1 0 011-1h5a2 2 0 002-2 2 2 0 00-2-2z"/>
  <circle cx="276.8" cy="302.8" r="2" fill="#fff"/>
</svg>
