<svg xmlns="http://www.w3.org/2000/svg" xmlns:xlink="http://www.w3.org/1999/xlink" data-name="Layer 1" viewBox="0 0 1283.8 965.37"><defs/><defs><linearGradient id="a" x1="252.52" x2="252.52" y1="136" gradientUnits="userSpaceOnUse"><stop offset="0" stop-color="gray" stop-opacity=".25"/><stop offset=".54" stop-color="gray" stop-opacity=".12"/><stop offset="1" stop-color="gray" stop-opacity=".1"/></linearGradient><linearGradient id="b" x1="660.5" x2="660.5" y1="458.72" gradientUnits="userSpaceOnUse"><stop offset="0" stop-color="gray" stop-opacity=".25"/><stop offset=".54" stop-color="gray" stop-opacity=".12"/><stop offset="1" stop-color="gray" stop-opacity=".1"/></linearGradient><linearGradient id="e" x1="459.55" x2="459.55" y1="723.31" y2="473.18" xlink:href="#b"/><linearGradient id="f" x1="459.55" x2="459.55" y1="723.31" y2="473.18" xlink:href="#c"/><linearGradient id="c" x1="660.5" x2="660.5" y1="458.72" gradientUnits="userSpaceOnUse"><stop offset="0" stop-color="gray" stop-opacity=".25"/><stop offset=".54" stop-color="gray" stop-opacity=".12"/><stop offset="1" stop-color="gray" stop-opacity=".1"/></linearGradient><linearGradient id="g" x1="459.55" x2="459.55" y1="723.31" y2="473.18" xlink:href="#d"/><linearGradient id="d" x1="660.5" x2="660.5" y1="458.72" gradientUnits="userSpaceOnUse"><stop offset="0" stop-color="gray" stop-opacity=".25"/><stop offset=".54" stop-color="gray" stop-opacity=".12"/><stop offset="1" stop-color="gray" stop-opacity=".1"/></linearGradient></defs><path fill="#00c853" d="M947.91 862.25c1.24 42.13-23.38 57.57-54.28 58.47l-2.14.04q-2.15.01-4.26-.07c-27.94-1.16-50.05-16-51.2-55.18-1.18-40.55 49.15-93.23 52.93-97.13l.22-.23s57.5 51.96 58.74 94.1z"/><path fill="#3f3d56" d="M891.41 914.33l19.62-29.18-19.58 32.32.04 3.29q-2.15.01-4.25-.07l.97-42.22-.03-.32.04-.07.09-3.98-21.5-31.2 21.47 28.21.08.84.74-31.89-18.57-32.35 18.62 26.75-.2-66.08v-.22l.01.22 1.24 52.07 16.91-21.15-16.86 25.64.37 28.53 15.57-27.84-15.51 32.03.2 15.87 22.64-38.79-22.57 44.32z"/><path fill="#e6e6e6" d="M250.33 204c12.12 17.14 15.32 114.66 16.03 145.92l.05 2h30.68c.38-.67.73-1.33 1.05-2 18.2-35.9 8.1-78.94 7.57-81.12 1.38 6.84-4.87 26.68-11.93 45.89-4.3-59.07-41.15-107.7-43.45-110.69z"/><g transform="matrix(.81039 0 0 .81039 -329.43 48.07)"><path fill="#3f3d56" d="M776.17 50.2h-2.53v-69.12a40 40 0 00-40-40H587.19a40 40 0 00-40 40v379.21a40 40 0 0040 40h146.45a40 40 0 0040-40V99.4h2.53z"/><path fill="#f2f2f2" d="M765.12-16.57v378.66a29.88 29.88 0 01-29.87 29.88H588.1a29.88 29.88 0 01-29.87-29.88V-16.57a29.88 29.88 0 0129.87-29.87h17.85a14.2 14.2 0 0013.14 19.55H703a14.2 14.2 0 0013.15-19.55h19.11a29.88 29.88 0 0129.87 29.87z"/><path fill="#ccc" d="M619.22 3.9h124.32v4.62H619.22zM619.22 18.53h124.32v4.62H619.22zM619.22 33.16h124.32v4.62H619.22zM579.8 6.76h28.17v28.17H579.8zM619.22 332.52h124.32v4.62H619.22zM619.22 347.14h124.32v4.62H619.22zM619.22 361.77h124.32v4.62H619.22zM579.8 335.37h28.17v28.17H579.8z"/><circle cx="610.13" cy="169.94" r="21.24" fill="#00c853"/><circle cx="666.76" cy="169.94" r="16.88" fill="#00c853"/><circle cx="723.38" cy="169.94" r="11.07" fill="#00c853"/></g><g transform="translate(-354.32 -1005.94)"><path fill="#3f3d56" d="M1606.05 1046.8h-1.35v-2.36h1.01a.67.67 0 00.68-.67v-12.11a.67.67 0 00-.68-.68h-1v-6.87a14.65 14.65 0 00-14.66-14.66h-1.5v-1.68a.67.67 0 00-.67-.67h-12.1a.67.67 0 00-.68.67v1.68h-218.83a14.65 14.65 0 00-14.66 14.66v311.83a14.65 14.65 0 0014.66 14.66h233.78a14.65 14.65 0 0014.65-14.66v-275.69h1.35a.67.67 0 00.67-.67v-12.11a.67.67 0 00-.67-.67z"/><path fill="#f2f2f2" d="M1353.72 1019.04h240.89v319.62h-240.89z"/><path fill="#ccc" d="M1425.94 1034.85h141.24v5.25h-141.24zM1425.94 1051.47h141.24v5.25h-141.24zM1425.94 1068.09h141.24v5.25h-141.24zM1381.15 1038.1h32v32h-32zM1425.46 1283.85h141.24v5.25h-141.24zM1425.46 1300.47h141.24v5.25h-141.24zM1425.46 1317.09h141.24v5.25h-141.24zM1380.67 1287.1h32v32h-32z"/><circle cx="1416.53" cy="1181.13" r="23.86" fill="#00c853"/><circle cx="1480.17" cy="1181.13" r="19.5" fill="#00c853"/><circle cx="1543.8" cy="1181.13" r="11.86" fill="#00c853"/></g><g transform="matrix(.81039 0 0 .81039 -761.51 596.29)"><ellipse cx="2436.75" cy="-281.71" fill="#e6e6e6" rx="94.98" ry="5.34" transform="rotate(-.1)"/><path fill="#ffb8b8" d="M2516.3-469.09l1.5 10.22a9.04 9.04 0 01-10.2 10.26 9.04 9.04 0 01-7.18-12.2l5.08-13.14-2.7-88.56 15.66-5.94z"/><circle cx="2472.02" cy="-637.57" r="21.6" fill="#ffb8b8"/><path fill="#ffb8b8" d="M2497.94-597.07l-39.96-1.62c4.43-9.71 6.2-19.11 4.32-28.08h26.46c-1.4 8.46 2.44 18.61 9.18 29.7z"/><path fill="#575a88" d="M2491.46-512.83l-58.86 4.32 2.14-33.26c-6.79-16.13-5.7-27.78 2.28-35.5l.72-11.24a17.24 17.24 0 0112.74-15.54l10.2-2.74c13.2 7.74 23.73 7.63 31.32-1.08l12.13 6.22a16.28 16.28 0 018.76 16.3z"/><path fill="#ffb8b8" d="M2401.28-509.59l-16.62 8.73a7.16 7.16 0 01-8.7-1.61 7.16 7.16 0 013.94-11.75l11.66-2.39 36.18-14.04 5.94-42.12 16.74 4.32-3.24 49.68z"/><path fill="#575a88" d="M2519.54-565.75l-18.36 10.8-1.08-43.2 3.16-1.08a16.27 16.27 0 0116.28 16.28z"/><path fill="#2f2e41" d="M2506.85-300.88l-15.62-2.44c-3.15-53.34-9.5-103.14-20.83-147.4-26.22 34.73-48.2 85.93-66.96 149.57l-18.36-4.86 48.06-209.52 57.24-1.08c23.4 32.06 16.55 131.05 16.47 215.73z"/><path fill="#2f2e41" d="M2395.33-282.44l-27.13-3.8a5.35 5.35 0 01-4.42-6.7 5.35 5.35 0 014.4-3.9l4.82-.7 15.24-9.3 12.6 3.36 3.75 11.03a8.3 8.3 0 01-9.26 10zM2501.7-282.44l-27.12-3.8a5.35 5.35 0 01-4.42-6.7 5.35 5.35 0 014.4-3.9l4.82-.7 15.24-9.3 12.6 3.36 3.75 11.03a8.3 8.3 0 01-9.26 10z"/><path fill="#575a88" d="M2453.66-557.65c-4.91-10.79-13.4-14.97-27.54-8.64l1.9-14.07a27.34 27.34 0 0119.7-22.65z"/><path fill="#2f2e41" d="M2446.52-648.65s-3.4-26.44 24.33-17.77c0 0 19.8-3.63 26.3 21.13l6.57 25.97-3.2-1.75-1.5 3.27-5.19 1.31-2.22-4.4-1.08 5.35-42.53 4.24s19.05-11.27 19.35-31.46l-3.63 3.84z"/><circle cx="2493.65" cy="-666.16" r="10.69" fill="#2f2e41"/><path fill="#2f2e41" d="M2482.63-668.78a10.69 10.69 0 0110.7-10c-.23-.02-.45-.06-.67-.07a10.7 10.7 0 10-1.38 21.34c.23.02.45.01.67.01a10.69 10.69 0 01-9.32-11.28z"/></g><g transform="translate(64)"><path fill="#ffb9b9" d="M280.45 825.22a7.08 7.08 0 10-14.08.93l-20.34 26.63a9.86 9.86 0 001.33 10.82l1.6 1.87 7.32-1.47 8.3-7.32-.98-8.3 10.24-16.1a7.07 7.07 0 006.61-7.06z"/><path fill="#ffb8b8" d="M139.82 955.42l-3.32-12.34 45.97-18.67 4.9 18.2z"/><path fill="#2f2e41" d="M128.71 961.78l-10.7-39.76.5-.13a16.03 16.03 0 0119.64 11.3l6.54 24.29z"/><path fill="#ffb8b8" d="M203.15 953.44l-10.33-7.5 24.06-43.4 15.23 11.08z"/><path fill="#2f2e41" d="M198.5 965.37l-33.3-24.21.31-.42a16.03 16.03 0 0122.39-3.54l20.33 14.79zM290.92 892.8l-25.98-25.25a13.12 13.12 0 00-17.18-.96l-49.07 54.5 4.4 6.84 46.84-31.72 31.72 41.48 30.26-15.13z"/><path fill="#ffb9b9" d="M279.7 898.16l-19.03-1.46-13.78-3.34a7.08 7.08 0 10-1.35 9.18v.01l8.3 3.42 35.62 12.2 4.4-3.42z"/><path fill="#2f2e41" d="M325.57 950.87l-10.74 6.83h-12.68l-59.05-21.96-86.37 15.61-2.44-18.54 79.05-34.65 69.3 22.93z"/><circle cx="302.64" cy="813.25" r="19.03" fill="#ffb9b9"/><path fill="#ccc" d="M351.88 889.24a109.35 109.35 0 01-5.36 33.82l-1.43 4.38-6.83 31.23-7.32 1.95-5.37-6.83-10.73-7.8-7.81-12.7-6.7-11.15-2.09-3.48-7.32-36.6-27.81-15.62-9.27-1.46 1.95-5.37 8.3-11.22 8.29-.98 2.44-1.95 1.95.97 10.76 4.15 34.89-14.74 5.1.83 17.57 14.64a109.25 109.25 0 016.79 37.93z"/><path style="isolation:isolate" d="M346.55 884.99l-18.54 12.2-27.68 24.95-2.08-3.48-5.86-29.28h1.47l15.12-27.82z" opacity=".1"/><path fill="#ccc" d="M308.98 858.63l-15.12 27.82-8.79 9.76-7.81 1.95 20.99 22.93L328 894.26l18.54-12.2z"/><path fill="#2f2e41" d="M287.83 799.1l-2.06.8a2.88 2.88 0 01-.77-4l.04-.05-3.82-.18a28.77 28.77 0 0142.96-3.46c.17-.6 2.07.56 2.84 1.74.26-.97 2.03 3.73 2.66 7.05.29-1.1 1.4.68.43 2.4.62-.1.9 1.49.42 2.37.67-.32.56 1.58-.18 2.84.97-.09-.08 19.84-14.6 18.39-1-4.64-.72-4.36-1.91-10.33a26.35 26.35 0 00-1.77-1.66l-3.27-2.89c-3.81-3.36-7.28-7.51-12.35-8.77-3.5-.86-5.7-1.06-3.8-4.99-1.71.72-3.32 1.79-5.05 2.45.02-.55.27-1.16.23-1.71z"/><circle cx="312.15" cy="815.45" r="3.42" fill="#ffb9b9"/><path style="isolation:isolate" fill="#e6e6e6" d="M151.81 750.43l1.04-15.66 15.66 1.04-1.04 15.66z"/><path fill="#ccc" d="M142.75 743.08l19.01 1.27-1.26 19-19.01-1.26zm18.13 2.04l-17.35-1.16-1.16 17.36 17.35 1.15z"/><path style="isolation:isolate" fill="#e6e6e6" d="M225.97 691.65l15.34-3.3 3.3 15.35-15.34 3.3z"/><path fill="#ccc" d="M230.55 680.92l4 18.63-18.63 4-4-18.62zm3.01 18l-3.65-17.01-17 3.65 3.65 17z"/><path style="isolation:isolate" fill="#e6e6e6" d="M213.74 772.74L225.2 762l10.73 11.45-11.45 10.73z"/><path fill="#ccc" d="M236.74 760.4l-13.9 13.03-13.02-13.9 13.9-13.03zm-13.86 11.86l12.7-11.9-11.9-12.69-12.7 11.9z"/></g><g transform="translate(-31.6)"><path fill="#3f3d56" d="M901.3 648.37H437.13a12.78 12.78 0 00-12.78 12.77v258.62a12.78 12.78 0 0012.78 12.77h464.15a12.78 12.78 0 0012.78-12.77V661.14a12.78 12.78 0 00-12.78-12.77z"/><path fill="#fff" d="M441.49 670.94h455.45v256.92H441.49z"/><circle cx="668.83" cy="659.27" r="4.67" fill="#fff"/><path style="isolation:isolate" fill="#f2f2f2" d="M766.69 927.86h-325.2V670.94z"/><circle cx="512.75" cy="864.86" r="43.78" fill="#00c853"/><path fill="#3f3d56" d="M522.5 897.76a54.46 54.46 0 1154.46-54.45 54.46 54.46 0 01-54.46 54.45zm0-108.2a53.75 53.75 0 1053.75 53.75 53.75 53.75 0 00-53.75-53.75zM748.96 804.42h42.54v8.89h-42.54zM708.71 756.26h123.04v3.81H708.71zM708.71 771.23h123.04v3.81H708.71zM708.71 786.2h123.04v3.81H708.71z"/><path fill="#00c853" d="M846.94 686.32h17.78v17.78h-17.78z"/><path fill="#ccc" d="M872.97 712.35h-21.59v-21.59h21.6zm-20.65-.94h19.71v-19.7h-19.71z"/><path fill="#3f3d56" d="M926.86 923.2H882.4v-3.21a.63.63 0 00-.64-.64h-15.24a.63.63 0 00-.63.64v3.2h-9.53V920a.63.63 0 00-.63-.64H840.5a.63.63 0 00-.64.64v3.2h-9.52V920a.63.63 0 00-.64-.64h-15.24a.63.63 0 00-.63.64v3.2h-9.53V920a.63.63 0 00-.63-.64h-15.24a.63.63 0 00-.64.64v3.2h-9.52V920a.63.63 0 00-.64-.64H762.4a.63.63 0 00-.63.64v3.2h-9.53V920a.63.63 0 00-.63-.64h-15.24a.63.63 0 00-.63.64v3.2h-9.53V920a.63.63 0 00-.63-.64H606.19a.63.63 0 00-.64.64v3.2h-9.52V920a.63.63 0 00-.64-.64h-15.24a.63.63 0 00-.63.64v3.2h-9.53V920a.63.63 0 00-.63-.64h-15.24a.63.63 0 00-.63.64v3.2h-9.53V920a.63.63 0 00-.63-.64h-15.24a.63.63 0 00-.64.64v3.2h-9.52V920a.63.63 0 00-.64-.64h-15.24a.63.63 0 00-.63.64v3.2h-9.53V920a.63.63 0 00-.63-.64h-15.24a.63.63 0 00-.64.64v3.2h-9.52V920a.63.63 0 00-.64-.64h-15.24a.63.63 0 00-.63.64v3.2h-29.21a15.24 15.24 0 00-15.24 15.24v6.9a15.24 15.24 0 0015.24 15.23h506.72a15.24 15.24 0 0015.23-15.24v-6.89a15.24 15.24 0 00-15.23-15.24z"/></g><g transform="matrix(.67051 0 0 .67051 284.67 146.2)"><path fill="#00ff6d" d="M536.57 590.88v-1.17c2.34 0 4.71-.05 7.06-.15l.04 1.18c-2.35.1-4.74.14-7.1.14zm-7.1-.13c-2.35-.1-4.73-.24-7.08-.42l.1-1.17c2.33.18 4.7.32 7.03.41zm21.29-.44l-.1-1.17c2.34-.19 4.7-.42 7.02-.7l.14 1.16c-2.34.29-4.71.52-7.06.71zm-35.44-.68c-2.34-.28-4.7-.62-7.03-.99l.19-1.16c2.3.37 4.65.7 6.98.98zm49.53-1.02l-.19-1.16c2.31-.37 4.64-.8 6.94-1.27l.24 1.15c-2.32.48-4.67.9-6.99 1.28zm-63.54-1.24c-2.32-.46-4.65-.99-6.93-1.54l.28-1.15c2.27.56 4.58 1.08 6.88 1.54zm77.45-1.6l-.28-1.13c2.28-.56 4.57-1.18 6.82-1.83l.32 1.13c-2.26.66-4.56 1.27-6.86 1.84zM487.52 584c-2.27-.66-4.55-1.37-6.78-2.1l.37-1.12c2.21.73 4.48 1.44 6.73 2.09zm104.88-2.17l-.37-1.12c2.22-.74 4.45-1.54 6.64-2.37l.42 1.1c-2.2.84-4.46 1.64-6.69 2.39zm-118.37-2.33c-2.2-.83-4.43-1.72-6.6-2.65l.46-1.08c2.16.92 4.36 1.8 6.55 2.64zm131.62-2.7l-.46-1.09c2.15-.92 4.31-1.89 6.42-2.89l.5 1.06c-2.12 1.01-4.3 1.99-6.46 2.91zm-144.71-2.87a174.8 174.8 0 01-6.37-3.18l.55-1.04a175.9 175.9 0 006.32 3.16zm157.5-3.22l-.54-1.04c2.07-1.09 4.14-2.23 6.16-3.4l.6 1.01a177.81 177.81 0 01-6.21 3.43zm-170.1-3.4c-2.04-1.18-4.09-2.42-6.07-3.68l.62-1c1.98 1.26 4.01 2.49 6.05 3.67zm182.38-3.7l-.63-1c1.97-1.24 3.94-2.55 5.87-3.88l.67.97a176.7 176.7 0 01-5.91 3.91zm-194.38-3.9a176.25 176.25 0 01-5.76-4.16l.7-.94c1.87 1.41 3.8 2.8 5.73 4.13zm206.04-4.16l-.7-.94c1.86-1.4 3.73-2.87 5.54-4.35l.75.9c-1.83 1.5-3.71 2.98-5.59 4.39zm-217.4-4.38c-1.82-1.5-3.64-3.04-5.4-4.6l.78-.88a177.5 177.5 0 005.37 4.57zm228.4-4.6l-.79-.88c1.75-1.55 3.5-3.16 5.18-4.78l.82.85c-1.7 1.63-3.46 3.25-5.22 4.8zm-239.02-4.82c-1.7-1.63-3.39-3.32-5.03-5.02l.85-.81c1.63 1.69 3.3 3.37 5 4.98zm249.25-5.01l-.85-.82c1.62-1.68 3.23-3.43 4.79-5.18l.88.78a177.57 177.57 0 01-4.82 5.22zm-259.1-5.22a177.35 177.35 0 01-4.6-5.4l.92-.75c1.47 1.8 3.01 3.61 4.57 5.37zm268.52-5.4l-.9-.75c1.48-1.82 2.95-3.68 4.35-5.55l.94.7c-1.41 1.89-2.9 3.76-4.39 5.6zm-277.5-5.59a178.78 178.78 0 01-4.15-5.75l.97-.67c1.33 1.93 2.72 3.85 4.12 5.72zm286.05-5.77l-.97-.66a178.1 178.1 0 003.9-5.89l1 .63a178.46 178.46 0 01-3.93 5.92zm-294.12-5.89c-1.26-1.98-2.5-4.02-3.67-6.06l1.01-.59c1.18 2.02 2.4 4.05 3.66 6.02zm301.73-6.11l-1.02-.59a176.3 176.3 0 003.42-6.18l1.04.55a177.1 177.1 0 01-3.44 6.22zm-308.83-6.15c-1.1-2.08-2.17-4.21-3.18-6.34l1.06-.5c1 2.1 2.07 4.22 3.16 6.29zm315.45-6.44l-1.06-.5c1-2.12 1.99-4.28 2.9-6.44l1.09.46c-.93 2.17-1.91 4.35-2.93 6.48zm-321.54-6.35c-.93-2.17-1.82-4.38-2.65-6.57l1.1-.42a176 176 0 002.63 6.52zm327.13-6.73l-1.1-.42c.83-2.2 1.63-4.44 2.37-6.66l1.12.37c-.75 2.24-1.55 4.5-2.4 6.7zm-332.17-6.52c-.75-2.24-1.47-4.52-2.12-6.78l1.13-.33a174 174 0 002.1 6.73zm336.67-6.97l-1.13-.33c.65-2.24 1.26-4.53 1.82-6.81l1.14.28c-.56 2.3-1.18 4.6-1.83 6.86zm-340.63-6.67c-.57-2.29-1.1-4.62-1.56-6.92l1.15-.24c.47 2.3.99 4.6 1.55 6.88zm344.01-7.12l-1.15-.23c.46-2.3.89-4.63 1.26-6.94l1.16.19c-.37 2.33-.8 4.68-1.27 6.98zm-346.85-6.79c-.38-2.32-.71-4.68-1-7.03l1.17-.14c.28 2.33.61 4.68.99 6.98zm349.11-7.22l-1.17-.14a175 175 0 00.7-7.02l1.18.1a178.7 178.7 0 01-.7 7.06zm-350.82-6.87c-.19-2.35-.34-4.73-.43-7.09l1.17-.05c.1 2.34.24 4.71.43 7.04zm351.95-7.28l-1.18-.05c.1-2.34.14-4.72.14-7.05v-.4h1.18v.4c0 2.35-.05 4.74-.14 7.1zm-351.35-6.9h-1.18v-.2c0-2.3.05-4.62.13-6.9l1.18.04c-.09 2.27-.13 4.58-.13 6.86zm350.16-7.64c-.1-2.34-.25-4.7-.44-7.04l1.17-.1c.2 2.36.34 4.74.44 7.09zm-349.62-6.46l-1.17-.1c.18-2.35.42-4.72.7-7.06l1.16.14c-.27 2.32-.5 4.68-.69 7.02zm348.47-7.6a174.1 174.1 0 00-1-6.98l1.16-.19c.38 2.33.72 4.7 1 7.03zm-346.8-6.4l-1.16-.19c.37-2.33.8-4.68 1.26-6.98l1.15.23c-.46 2.3-.88 4.63-1.25 6.94zm344.52-7.51c-.47-2.3-1-4.61-1.56-6.88l1.14-.28a175 175 0 011.57 6.92zm-341.73-6.32l-1.15-.27c.56-2.3 1.18-4.6 1.83-6.87l1.13.33c-.65 2.25-1.26 4.54-1.81 6.81zm338.34-7.37c-.66-2.25-1.37-4.51-2.11-6.73l1.11-.37c.75 2.23 1.47 4.51 2.13 6.77zm-334.44-6.18l-1.12-.37c.75-2.24 1.55-4.5 2.38-6.7l1.1.4c-.83 2.2-1.62 4.45-2.36 6.67zm329.95-7.19c-.84-2.18-1.73-4.38-2.65-6.52l1.09-.46c.92 2.15 1.81 4.36 2.65 6.56zm-324.95-6.03l-1.08-.46c.92-2.17 1.9-4.36 2.91-6.5l1.06.51c-1 2.12-1.98 4.29-2.9 6.45zm319.4-6.9c-1-2.1-2.07-4.22-3.16-6.28l1.04-.55c1.1 2.08 2.17 4.2 3.18 6.33zm-313.35-5.87l-1.04-.55c1.1-2.08 2.25-4.18 3.43-6.22l1.02.58a175 175 0 00-3.4 6.19zm306.78-6.57a176.1 176.1 0 00-3.66-6.02l1-.63c1.25 1.98 2.5 4.02 3.68 6.06zm-299.72-5.66l-1-.63c1.27-2 2.59-3.99 3.93-5.93l.97.67c-1.34 1.93-2.65 3.9-3.9 5.89zm292.16-6.23a177.2 177.2 0 00-4.13-5.7l.94-.71c1.41 1.87 2.81 3.8 4.16 5.74zm-284.14-5.39l-.94-.7c1.42-1.89 2.9-3.77 4.38-5.6l.91.75a177.21 177.21 0 00-4.35 5.55zM672 303.58c-1.48-1.81-3.02-3.62-4.58-5.37l.88-.78c1.57 1.76 3.12 3.58 4.61 5.4zm-266.73-5.08l-.88-.78c1.56-1.76 3.18-3.52 4.81-5.22l.85.81a177.63 177.63 0 00-4.78 5.2zm257.36-5.46c-1.62-1.69-3.3-3.36-5-4.98l.82-.85c1.7 1.63 3.4 3.31 5.03 5.01zm-247.6-4.72l-.8-.84c1.69-1.64 3.44-3.26 5.2-4.82l.78.88c-1.75 1.55-3.49 3.16-5.17 4.78zm237.42-5.04a176.9 176.9 0 00-5.38-4.57l.74-.9c1.83 1.48 3.65 3.03 5.42 4.6zm-226.87-4.32l-.75-.9c1.83-1.5 3.7-2.98 5.58-4.4l.7.95c-1.86 1.4-3.72 2.87-5.53 4.35zm215.93-4.6c-1.87-1.4-3.8-2.79-5.73-4.12l.67-.96a178.6 178.6 0 015.77 4.15zm-204.68-3.88l-.67-.97c1.94-1.34 3.93-2.66 5.9-3.92l.64 1a175.47 175.47 0 00-5.87 3.89zm193.06-4.13a176.02 176.02 0 00-6.04-3.65l.58-1.02c2.05 1.18 4.1 2.42 6.09 3.68zm-181.17-3.42l-.6-1.02c2.04-1.18 4.13-2.33 6.21-3.43l.55 1.04c-2.07 1.09-4.14 2.23-6.16 3.4zm168.94-3.63c-2.08-1.09-4.2-2.15-6.33-3.15l.5-1.07c2.14 1.01 4.28 2.08 6.37 3.18zm-156.5-2.94l-.5-1.06c2.12-1.01 4.3-2 6.46-2.92l.46 1.08c-2.15.92-4.3 1.9-6.41 2.9zm143.73-3.1c-2.16-.92-4.37-1.81-6.57-2.64l.42-1.1c2.2.84 4.43 1.73 6.6 2.65zm-130.8-2.44l-.41-1.1c2.2-.83 4.45-1.64 6.68-2.39l.38 1.11c-2.22.75-4.46 1.55-6.64 2.38zm117.57-2.56c-2.22-.74-4.49-1.44-6.74-2.08l.33-1.13c2.26.65 4.54 1.35 6.78 2.1zm-104.2-1.92l-.32-1.13c2.26-.66 4.57-1.28 6.86-1.85l.28 1.15c-2.27.56-4.57 1.17-6.81 1.83zm90.64-1.97a174.2 174.2 0 00-6.88-1.53l.23-1.16c2.32.47 4.65.99 6.93 1.54zm-76.94-1.42l-.24-1.15c2.3-.47 4.66-.9 6.99-1.28l.18 1.16c-2.3.37-4.64.8-6.93 1.27zm63.12-1.37c-2.31-.36-4.66-.7-6.99-.97l.14-1.16c2.34.27 4.7.6 7.03.97zm-49.2-.9l-.15-1.16c2.34-.29 4.72-.53 7.07-.72l.1 1.17c-2.34.2-4.7.43-7.02.71zm35.2-.75c-2.33-.19-4.7-.32-7.05-.41l.05-1.18c2.36.1 4.74.23 7.09.41zm-21.15-.39l-.05-1.17c2.35-.1 4.74-.15 7.1-.16v1.18c-2.34 0-4.71.05-7.05.15z"/><circle cx="697.09" cy="347.8" r="11.17" fill="#00c853"/><circle cx="568.09" cy="240.94" r="16.46" fill="#00c853"/><circle cx="557.18" cy="589.03" r="11.17" fill="#00c853"/><circle cx="369.2" cy="366.57" r="16.46" fill="#00c853"/></g><path fill="none" stroke="#3f3d56" stroke-width="6.33" d="M212.25 412.23l155.3 212.9"/><path fill="none" stroke="#3f3d56" stroke-width="6" d="M1024.9 400.32l-130 225.18"/><g transform="matrix(1.15433 0 0 1.15433 -849.63 -304.09)"><circle cx="1292.12" cy="629.61" r="23.98" fill="#00c853"/><path fill="#fff" d="M1302.05 640.05h-19.86a1.37 1.37 0 01-1.37-1.37V626.7a1.37 1.37 0 011.37-1.37h19.86a1.37 1.37 0 011.37 1.37v11.98a1.37 1.37 0 01-1.37 1.37zm-19.86-13.35v11.98h19.86V626.7z"/><path fill="#fff" d="M1298.28 626.7h-12.33v-5.48c0-3.97 2.6-6.85 6.17-6.85s6.16 2.88 6.16 6.85zm-10.96-1.37h9.6v-4.11c0-3.23-1.98-5.48-4.8-5.48-2.83 0-4.8 2.25-4.8 5.48z"/><circle cx="1292.12" cy="632.35" r="1.37" fill="#fff"/></g><path fill="none" stroke="#3f3d56" stroke-width="6.47" d="M340.01 184.4H943.8"/><path fill="url(#e)" d="M459.55 473.18l-97.06 59.73s0 123.2 97.06 190.39c97.06-67.2 97.06-190.39 97.06-190.39z" opacity=".7" transform="matrix(.20359 0 0 .20359 196.34 396.9)"/><path fill="#00c853" d="M289.9 494.66l-18.64 11.48s0 23.66 18.65 36.57c18.65-12.9 18.65-36.57 18.65-36.57z"/><path d="M290.22 494.66l-.32.2v47.64l.32.23c18.65-12.91 18.65-36.58 18.65-36.58z" opacity=".05"/><path fill="#00c853" d="M289.9 497.43l-16.5 10.15s0 20.94 16.5 32.36c16.49-11.42 16.49-32.36 16.49-32.36z"/><path d="M289.9 497.51v42.5c16.49-11.42 16.49-32.36 16.49-32.36z" opacity=".08"/><g><path fill="url(#f)" d="M459.55 473.18l-97.06 59.73s0 123.2 97.06 190.39c97.06-67.2 97.06-190.39 97.06-190.39z" opacity=".7" transform="matrix(.20359 0 0 .20359 548.34 62.61)"/><path fill="#00c853" d="M641.9 160.38l-18.64 11.48s0 23.67 18.65 36.57c18.65-12.9 18.65-36.57 18.65-36.57z"/><path d="M642.22 160.38l-.32.2v47.64l.32.23c18.65-12.91 18.65-36.58 18.65-36.58z" opacity=".05"/><path fill="#00c853" d="M641.9 163.15l-16.5 10.15s0 20.94 16.5 32.36c16.49-11.42 16.49-32.36 16.49-32.36z"/><path d="M641.9 163.23v42.5c16.49-11.42 16.49-32.35 16.49-32.35z" opacity=".08"/></g><g><path fill="url(#g)" d="M459.55 473.18l-97.06 59.73s0 123.2 97.06 190.39c97.06-67.2 97.06-190.39 97.06-190.39z" opacity=".7" transform="matrix(.20359 0 0 .20359 866.34 391.12)"/><path fill="#00c853" d="M959.9 488.89l-18.64 11.47s0 23.67 18.65 36.58c18.65-12.9 18.65-36.58 18.65-36.58z"/><path d="M960.22 488.89l-.32.2v47.64l.32.22c18.65-12.9 18.65-36.58 18.65-36.58z" opacity=".05"/><path fill="#00c853" d="M959.9 491.66l-16.5 10.15s0 20.94 16.5 32.36c16.49-11.42 16.49-32.36 16.49-32.36z"/><path d="M959.9 491.74v42.5c16.49-11.42 16.49-32.36 16.49-32.36z" opacity=".08"/></g></svg>