<svg xmlns="http://www.w3.org/2000/svg" data-name="Layer 1" viewBox="0 0 1162 792">
  <defs/>
  <path fill="#3f3d56" d="M565 40h-1v-3h1a1 1 0 001 0V25a1 1 0 00-1-1h-1v-7a15 15 0 00-15-15h-1V1a1 1 0 00-1-1h-12a1 1 0 00-1 1v1H316a15 15 0 00-15 15v312a15 15 0 0015 14h233a15 15 0 0015-14V53h1a1 1 0 001-1V40a1 1 0 00-1 0z"/>
  <path fill="#f2f2f2" d="M313 12h241v320H313z"/>
  <path fill="#3f3d56" d="M0 668h1162v2H0z"/>
  <path fill="#0560ff" d="M271 568c2 77-42 105-99 107h-11c-51-2-92-29-94-101-2-74 90-170 97-177s105 94 107 171z"/>
  <path fill="#3f3d56" d="M168 663l36-53-36 59v6h-7l1-77v-1l1-7-40-57 40 51v2l1-58-34-59 34 49V397l2 95 31-38-31 46 1 52 28-50-28 58v29l42-71-42 81zM867 106h-1V66a24 24 0 00-24-24h-87a24 24 0 00-23 24v223a24 24 0 0023 24h87a24 24 0 0024-24V135h1z"/>
  <path fill="#f2f2f2" d="M860 67v223a18 18 0 01-17 18h-87a18 18 0 01-18-18V67a18 18 0 0118-18h11a8 8 0 007 12h50a8 8 0 008-12h11a18 18 0 0117 18z"/>
  <path fill="#ccc" d="M774 79h73v3h-73zM774 88h73v3h-73zM774 96h73v3h-73zM751 81h17v17h-17zM774 273h73v3h-73zM774 282h73v3h-73zM774 290h73v3h-73zM751 275h17v17h-17z"/>
  <path fill="#3f3d56" d="M840 381H631v-5h-94v5H327a14 14 0 00-14 14v285a14 14 0 0014 15h513a14 14 0 0014-15V395a14 14 0 00-14-14z"/>
  <path fill="#f2f2f2" d="M332 406h503v284H332z"/>
  <circle cx="583" cy="392.6" r="5.2" fill="#0560ff"/>
  <path fill="#3f3d56" d="M868 684h-49v-3a1 1 0 00-1-1h-17a1 1 0 000 1v3h-11v-3a1 1 0 000-1h-17a1 1 0 00-1 1v3h-11v-3a1 1 0 000-1h-17a1 1 0 00-1 1v3h-10v-3a1 1 0 00-1-1h-17a1 1 0 00-1 1v3h-10v-3a1 1 0 00-1-1h-17a1 1 0 000 1v3h-11v-3a1 1 0 00-1-1h-16a1 1 0 00-1 1v3h-11v-3a1 1 0 000-1H514a1 1 0 00-1 1v3h-10v-3a1 1 0 00-1-1h-17a1 1 0 00-1 1v3h-10v-3a1 1 0 00-1-1h-17a1 1 0 000 1v3h-11v-3a1 1 0 00-1-1h-17a1 1 0 000 1v3h-11v-3a1 1 0 000-1h-17a1 1 0 00-1 1v3h-11v-3a1 1 0 000-1h-17a1 1 0 00-1 1v3h-10v-3a1 1 0 00-1-1h-17a1 1 0 00-1 1v3h-32a17 17 0 00-17 17v8a17 17 0 0017 17h560a17 17 0 0017-17v-8a17 17 0 00-17-17z"/>
  <path fill="#e6e6e6" d="M535 428h141v5H535zM535 444h141v5H535zM535 461h141v5H535z"/>
  <path fill="#ccc" d="M535 428h141v5H535zM535 444h141v5H535zM535 461h141v5H535zM490 431h32v32h-32zM535 615h141v5H535zM535 631h141v5H535zM535 648h141v5H535zM490 618h32v32h-32z"/>
  <path fill="#3f3d56" d="M924 309a53 53 0 00-31-17l5-4-6-1-7 7 6 7h6l-4-5a49 49 0 01-8 99v4a53 53 0 0039-90zM234 309a53 53 0 0131-17l-5-4 6-1 7 7-6 7h-6l4-5a49 49 0 008 99v4a53 53 0 01-39-90z"/>
  <path fill="#ccc" d="M385 28h141v5H385zM385 44h141v5H385zM385 61h141v5H385zM341 31h32v32h-32zM385 277h141v5H385zM385 293h141v5H385zM385 310h141v5H385zM340 280h32v32h-32z"/>
  <path fill="#ffb8b8" d="M967 328l31-46s28-23 20-27-29 16-29 16-60 46-50 53 28 4 28 4z"/>
  <path fill="#0560ff" d="M971 267h41a144 144 0 000-49h-41a89 89 0 010 49z"/>
  <path fill="#2f2e41" d="M1079 269c-13-21-37-21-37-21s-24-4-40 28c-14 30-34 59-3 66l6-17 3 18a121 121 0 0013 0c33-1 65 1 64-11-1-16 5-42-6-63z"/>
  <path fill="#ffb8b8" d="M1013 399l-16 36 55 9 29-38z"/>
  <circle cx="1038.8" cy="289.8" r="29.4" fill="#ffb8b8"/>
  <path fill="#ffb8b8" d="M1032 311s13 31 12 34 28-17 28-17-13-21-12-25zM1076 324s24-14 38 24c0 0 44 52 36 62s-38-23-38-23l-19-20s-27-7-25-22 8-21 8-21zM1021 342l-56-16s-30-12-29-4 54 47 72 45 13-25 13-25z"/>
  <path fill="#d0cde1" d="M1052 337s-18-3-22 1-11 1-11 1l-13 23s-9 13-2 26-3 29-3 29 57 0 69 6 26-53 26-53-15-18-11-29 2-20 2-20l-18 2z"/>
  <path fill="#ffb8b8" d="M984 688l6 61 25-12-8-54-23 5zM1077 687l21 56 20-15-25-53-16 12z"/>
  <path fill="#2f2e41" d="M1015 716a50 50 0 01-6 13c-4 6-13 3-13 3s-11-9-14-5l-15 24s-42 35-6 40 43-20 43-20 27-10 28-19-17-36-17-36zM1098 728s-12-4-12 2 6 32 6 32-9 36 16 29 25-40 25-40 13-46 4-47l-33-3s14 23-6 27zM1073 267l-24-12-34 5-7 31 18-1 4-11v11l8-1 5-18 3 20 28-1-1-23zM1061 442l-67-15s-33 57-38 105-26 162 8 163 54 2 56-1-17-129-17-129 39 154 60 144 46-24 45-32-53-92-53-92l8-73s8-30-7-57z"/>
  <path fill="#0560ff" d="M1013 422h41a144 144 0 000-49h-41a89 89 0 010 49z"/>
  <path fill="#ffb8b8" d="M1133 386l-70-2s-31-23-31-9 32 22 32 22 72 26 83 15z"/>
  <circle cx="375.9" cy="174" r="23.9" fill="#0560ff"/>
  <circle cx="439.5" cy="174" r="19.5" fill="#0560ff"/>
  <circle cx="503.1" cy="174" r="11.9" fill="#0560ff"/>
  <circle cx="769" cy="177" r="12.5" fill="#0560ff"/>
  <circle cx="802.4" cy="177" r="10" fill="#0560ff"/>
  <circle cx="835.8" cy="177" r="6.5" fill="#0560ff"/>
  <circle cx="583" cy="538" r="56" fill="#0560ff"/>
  <path fill="#d0cde1" d="M604 550l-21-42-21 42h12v18h18v-18h12z"/>
</svg>
