<svg xmlns="http://www.w3.org/2000/svg" data-name="Layer 1" viewBox="0 0 922 727"><defs/><ellipse cx="211" cy="709.2" fill="#f2f2f2" rx="141" ry="17"/><ellipse cx="508" cy="709.2" fill="#f2f2f2" rx="141" ry="17"/><path fill="#3f3d56" d="M692 408l12-74-154-33 6-190h-75l-6 174-207-44 4-130h-75l-4 114-151-32-13 75 162 34-5 147-174-37-12 75 183 39-6 183h75l6-168 207 44-4 124h75l4-108 122 26 13-74-132-28 5-148zM468 509l-207-44 4-147 208 44z"/><path d="M489 509l4-147-207-44v4l187 40-5 143 21 4zm7-224l6-174h-21l-6 170 21 4zm72 92v5l124 26v-4l-124-27zM214 225l4-114h-21l-4 110 21 4zm347 376v5l101 21 1-4-102-22zm-282-60v5l186 39-4 124h21l4-124-207-44zm-93-96l21 4 4-147-161-34 12-70-20-5-13 75 162 34-5 143zM21 487l11-70-20-5-12 75 183 39-6 183h21l6-183-183-39z" opacity=".2"/><path fill="#2f2e41" d="M734 116h76v131h-76z"/><path fill="#2f2e41" d="M826 111c-9 24-21 47-47 47s-45-21-47-47c-2-33 21-47 47-47 31 0 56 18 47 47z"/><path fill="#ffb9b9" d="M748 294l-27 102s-36 9-32 18 42-6 42-6l35-85zm22 335s24 24 9 41h32l-21-52z"/><path fill="#2f2e41" d="M795 669s0-11-11-4l-43 23s-23 13 10 15 66-6 66-10l-4-24s-7 7-18 0z"/><path fill="#ffb9b9" d="M799 649l-1 43 24 3v-41l-23-5z"/><circle cx="776" cy="132.4" r="34.7" fill="#ffb9b9"/><path fill="#ffb9b9" d="M764 160s17 39 4 51 19 0 19 0 17-24 30-25c0 0-20-11-18-38z"/><path fill="#2f2e41" d="M741 347l-2 61s-47 120-29 149 61 79 61 79 24-11 24-18c0 0-24-60-45-74 0 0 2-25 21-50l18 63 8 96s21 8 29 4c0 0 17-62 5-98l-2-99s33-49-9-106l-7-21s-65 6-72 14zm61 338s0-13-12-5l-49 28s-25 16 12 18 73-6 73-11l-4-30s-7 9-20 0z"/><path fill="var(--primary)" d="M774 208l41-24s59 2 56 33c0 0-12 39-16 36l-8-8s-28 58-28 69a70 70 0 01-4 22l-69 10s8-43-4-51-15-28-4-46a149 149 0 0012-22 39 39 0 0121-21z"/><path fill="#ffb9b9" d="M864 213s68 55 57 67-75 57-75 57-6 39-19 38 2-48 2-48l54-51-29-31z"/><circle cx="778.9" cy="55.5" r="18.4" fill="#2f2e41"/><path fill="#2f2e41" d="M757 46a18 18 0 0116-19h-1a18 18 0 100 37h1a18 18 0 01-16-18zm1 49s-1-2-16 4-24 47-16 72c3 10 0 17-4 22-15 18-9 46 13 56l2 1 9 5s-12-15-6-36a104 104 0 002-53l-2-9c-8-26-4-23 22-49 0 0 15 11 29 17s24 11 15 30-32 35-17 60 17 15 15 24l-2 10 11-11-7 15s24 0 32-19l3 4s16-27-13-51c0 0-9-6 4-25s3-59-14-67-60 0-60 0z"/><path fill="#f2f2f2" d="M386 41l-19-8-19-7 16-13 16-13 3 20 3 21zm-15 143l-19-8-19-7 15-11 15-10 4 18 4 18zm-33 193l-19-8-19-7 16-13 16-13 3 20 3 21zM138 594l-18 10-18 10 1-21v-20l18 11 17 10zm-18-460l-18 10-18 10 1-21v-20l18 11 17 10zm92 544c12 21 37 29 37 29s5-26-7-47-38-29-38-29-4 26 8 47z"/><path fill="var(--primary)" d="M220 670c21 12 30 37 30 37s-26 5-47-6-30-37-30-37 25-5 47 6zm384-10c-14 20-12 46-12 46s26-6 40-25 12-46 12-46-26 6-40 25z"/><path fill="var(--primary)" d="M614 665c-2 24-21 42-21 42s-16-21-13-46 21-42 21-42 15 21 13 46zm241-463l-5 38 5 12s22-27 15-42-15-8-15-8z"/></svg>