<svg xmlns="http://www.w3.org/2000/svg" data-name="Layer 1" viewBox="0 0 921.96994 726.74574"><defs/><ellipse cx="211.00006" cy="709.22497" fill="#f2f2f2" rx="141" ry="17"/><ellipse cx="508.00006" cy="709.22497" fill="#f2f2f2" rx="141" ry="17"/><path fill="#3f3d56" d="M691.66982 407.99051l12.33024-74.32455-153.94809-32.61553 6.31964-189.589h-75.34033l-5.79131 173.73923-207.238-43.90558 4.3278-129.83367H196.9894l-3.79943 113.9839-151.41631-32.07916-12.33024 74.3245 161.2 34.152-4.91179 147.35372L12.3303 412.45943.00005 486.78393l183.18492 38.80969-6.11314 183.39491h75.34037l5.58486-167.54513 207.238 43.90563-4.12133 123.6395h75.34037l3.593-107.78978 122.17937 25.885 12.33025-74.32455-131.963-27.95781 4.91179-147.35372zm-223.88821 100.9612l-207.238-43.90559 4.91179-147.35377 207.238 43.90563z"/><path d="M488.565 508.952l4.912-147.354-207.238-43.906-.146 4.373 186.6 39.533-4.766 142.981 20.638 4.373zM496.024 285.201l5.791-173.74h-20.784l-5.645 169.367 20.638 4.373zM568.289 377.448l-.146 4.372 123.527 26.171.706-4.254-124.087-26.289zM213.974 225.445l3.799-113.984h-20.784l-3.653 109.612 20.638 4.372zM560.831 601.199l-.146 4.372 101.541 21.513.706-4.254-102.101-21.631zM278.781 541.443l-.146 4.373 186.6 39.533-4.121 123.64h20.783l4.122-123.64-207.238-43.906zM185.877 444.824l20.638 4.372 4.912-147.353-161.2-34.152 11.624-70.071-20.077-4.254-12.331 74.325 161.2 34.152-4.766 142.981zM20.784 486.784l11.624-70.071-20.078-4.254L0 486.784l183.185 38.81-6.113 183.395h20.783l6.114-183.395-183.185-38.81z" opacity=".2"/><path fill="#2f2e41" d="M733.95985 116.34681h76.44942v130.56214h-76.44942z"/><path fill="#2f2e41" d="M825.68655 110.86287c-8.26 24.45585-20.92568 46.7388-46.73881 46.7388s-45.28437-20.96672-46.73877-46.7388c-1.85847-32.93163 20.33021-46.87521 46.7388-46.7388 31.19744.1611 56.54144 17.71561 46.73878 46.7388z"/><path fill="#ffb9b9" d="M747.7541 294.38178l-26.99447 101.55063s-35.99263 8.99816-32.13628 17.99631 42.41989-6.42725 42.41989-6.42725l34.70717-84.83977zM769.60677 628.59904s24.42357 24.42357 8.99815 41.13444h32.13628l-20.56722-51.418z"/><path fill="#2f2e41" d="M794.78897 668.91439s0-10.55657-10.29635-4.22263-43.47351 23.22447-43.47351 23.22447-22.8808 12.66789 10.29635 14.77921 65.21027-5.27829 65.21027-9.50092-3.43212-24.44222-3.43212-24.44222-6.86424 7.5517-18.30464.16209z"/><path fill="#ffb9b9" d="M799.172 649.166l-1.285 42.42 24.423 3.856v-41.134l-23.138-5.142z"/><circle cx="776.03402" cy="132.41495" r="34.70718" fill="#ffb9b9"/><path fill="#ffb9b9" d="M763.82224 160.05215s16.71086 38.56353 3.85635 51.418 19.28177 0 19.28177 0 16.71086-24.42357 29.56537-25.709c0 0-19.28177-10.28361-17.99632-37.27808z"/><path fill="#2f2e41" d="M741.32684 347.08527l-2.5709 60.4162s-46.27623 120.8324-28.27992 149.11232 60.4162 79.698 60.4162 79.698 24.42357-11.56906 24.42357-17.99631c0 0-24.42357-60.4162-44.99079-74.55616 0 0 1.28545-24.42357 20.56722-50.13259l17.99631 62.9871 7.71271 96.40882s21.85267 7.71271 29.56537 3.85636c0 0 16.71086-61.70165 5.14181-97.69428l-2.57091-98.97973s33.42173-48.84714-8.99815-106.69243l-6.42726-20.56722s-65.558 6.42722-71.98526 14.13992zM801.74304 685.15887s0-12.85451-11.56906-5.14181-48.84714 28.27993-48.84714 28.27993-25.709 15.42541 11.56906 17.99631 73.27071-6.42725 73.27071-11.56906-3.85635-29.76274-3.85635-29.76274-7.71271 9.19555-20.56722.19737z"/><path fill="#0560ff" d="M774.10585 207.61387l40.3954-23.16175s59.86977 1.30908 56.01342 32.1599c0 0-11.56906 39.849-15.42541 35.99263l-7.71271-7.7127s-28.27992 57.84529-28.27992 69.41435a70.04087 70.04087 0 01-3.85635 21.85267l-69.41431 10.28358s7.71271-43.70534-3.85635-51.418-15.42541-28.27993-3.85635-46.27624a149.40828 149.40828 0 0011.4287-21.70887 38.54273 38.54273 0 0121.3475-20.61009z"/><path fill="#ffb9b9" d="M864.08742 212.75564s68.1289 55.27439 56.55984 66.84345-74.55616 57.8453-74.55616 57.8453-6.42725 38.56353-19.28176 37.27808 2.5709-47.56169 2.5709-47.56169l53.98894-51.418-29.56537-30.85082z"/><circle cx="778.94774" cy="55.51425" r="18.44953" fill="#2f2e41"/><path fill="#2f2e41" d="M756.80831 45.6745a18.4503 18.4503 0 0116.60458-18.35636c-.607-.06029-1.22209-.09317-1.845-.09317a18.44953 18.44953 0 100 36.89906c.62287 0 1.238-.03288 1.845-.09317a18.45035 18.45035 0 01-16.60458-18.35636zM757.66397 95.37905s-.38524-2.14454-15.452 3.50551-24.09831 47.34494-16.56491 71.82849c3.03593 9.86677.56626 16.98075-3.4646 21.95823-15.12625 18.67857-9.17167 46.73327 12.86088 56.33844q.93285.40668 1.90382.804l9.41675 5.65005s-12.00433-15.79518-5.99691-36.00011a103.59291 103.59291 0 001.86938-53.03255c-.68921-2.95888-1.4721-6.00891-2.36141-9.12149-7.5334-26.3669-3.86948-23.32192 22.49742-49.68882 0 0 15.0668 11.3001 28.25025 16.95015s24.48355 11.3001 15.0668 30.1336-32.01695 35.78365-16.95015 60.26719 16.95015 15.0668 15.0668 24.48355l-1.88335 9.41675 11.3001-11.3001-7.5334 15.0668s24.48355 0 32.017-18.8335l3.76669 3.7667s15.0668-26.3669-13.18344-50.85044c0 0-9.41675-5.65005 3.7667-24.48355s3.0584-59.32553-13.89175-66.85893-60.50067.00003-60.50067.00003z"/><path fill="#f2f2f2" d="M386.429 40.573l-19.079-7.528-19.079-7.528 16.059-12.758L380.389 0l3.02 20.287 3.02 20.286zM371.248 183.963l-19.078-7.528-19.079-7.529 15.149-10.453L363.389 148l3.93 17.981 3.929 17.982zM338.429 376.573l-19.079-7.528-19.079-7.528 16.059-12.758L332.389 336l3.02 20.287 3.02 20.286zM138.374 594.33l-18.019 9.797-18.019 9.798.524-20.504.525-20.503 17.494 10.706 17.495 10.706zM120.374 134.33l-18.019 9.797-18.019 9.798.524-20.504.525-20.503 17.494 10.706 17.495 10.706zM211.84737 677.80931c12.30975 20.99239 37.13647 29.30356 37.13647 29.30356s4.86867-25.72425-7.44108-46.71665-37.13647-29.30353-37.13647-29.30353-4.86866 25.72418 7.44108 46.71662z"/><path fill="#0560ff" d="M219.52857 670.4825c21.28835 11.79052 30.20667 36.40564 30.20667 36.40564s-25.59693 5.49892-46.88528-6.2916-30.20668-36.40567-30.20668-36.40567 25.59693-5.49889 46.88529 6.29163zM604.01977 660.42124c-14.29766 19.69232-11.96005 45.76868-11.96005 45.76868s25.51871-5.8512 39.81637-25.54351 11.96005-45.76868 11.96005-45.76868-25.5187 5.8512-39.81637 25.54351z"/><path fill="#0560ff" d="M613.81119 664.52136c-2.26834 24.22942-21.24441 42.26688-21.24441 42.26688s-15.29835-21.24621-13.03-45.47564 21.24442-42.26688 21.24442-42.26688 15.29834 21.24621 13.02999 45.47564zM855.00006 202.22497l-5 38 5 12s22-27 15-42-15-8-15-8z"/></svg>