<svg xmlns="http://www.w3.org/2000/svg" data-name="Layer 1" viewBox="0 0 920.3 515.1"><defs/><path fill="#e6e6e6" d="M193.7 513.1H53s-2.9-41.8 14-42.2 15 18.5 36-7.6 46.9-24.7 50.2-9.3-6.4 27.8 11.4 24 43.5 6.2 29 35.1z" data-name="Path 1"/><path fill="#fff" d="M121 513.1h-.5c1.1-27.5 6.9-45.2 11.5-55.2a50 50 0 0110-15.3l.3.4s-4.8 4.4-9.8 15.2c-4.7 10-10.4 27.5-11.5 55z" data-name="Path 2"/><path fill="#fff" d="M171.9 513.2l-.5-.1a73.7 73.7 0 0118.6-30.9l.3.3a73.2 73.2 0 00-18.4 30.7z" data-name="Path 3"/><path fill="#fff" d="M75.2 513.2l-.4-.1a51.7 51.7 0 00-4.7-30.2 41.6 41.6 0 00-7.3-10.8l.3-.3a42.2 42.2 0 017.4 10.8 52.2 52.2 0 014.7 30.6z" data-name="Path 4"/><path fill="#2f2e41" d="M212.8 513.8H37.9v-.6c-.1-1.5-2.4-36.3 8.9-48.7a12.3 12.3 0 019-4.3c7.4-.2 12 2.6 15.7 4.8 7 4.1 11.6 6.9 28.5-14 18.2-22.5 38-27.4 49.2-24.7a17.6 17.6 0 0113.9 13.6c1.4 6.4 1 12.5.6 17.4-.4 5.3-.7 9.4 1.4 11.3 1.8 1.6 5.4 1.7 11.3.4 12-2.5 28.8-.3 37.2 10.5 4.5 5.9 8 16.5-.7 34zM39 512.5H212c6.5-13.2 6.7-24.3.6-32.2-7.8-10-24-12.6-36-10-6.3 1.3-10.2 1.1-12.3-.8-2.6-2.2-2.3-6.7-2-12.3a59 59 0 00-.5-17c-1.3-6.4-6-11-12.9-12.6-11-2.6-30 2.2-48 24.3-17.5 21.6-22.7 18.5-30 14.2-3.8-2.3-8.1-4.8-15-4.6a11.1 11.1 0 00-8.2 3.9c-10 11.1-8.8 42.4-8.6 47z" data-name="Path 5"/><path fill="#3f3d56" d="M784 514.5H611.9v-1l-8.2-235.2h188.7zm-170.2-2H782l8.1-232.2H605.7z" data-name="Path 8"/><g fill="#3f3d56" data-name="Group 1"><path d="M639.8 321.9h13.1V484h-13.1z" data-name="Rectangle 17"/><path d="M691.4 321.9h13.1V484h-13.1z" data-name="Rectangle 18"/><path d="M743 321.9h13.1V484H743z" data-name="Rectangle 19"/></g><path fill="#3f3d56" d="M901.7 347.4l-.8-.6-214-135.1 18.6-29.4.9.5L920.3 318zM689.7 211l211.4 133.6 16.4-26-211.3-133.5z"/><path fill="#3f3d56" d="M850.1 200.8a38.5 38.5 0 00-58.6 38l10.2 6.5a30.3 30.3 0 1129 18.3l10.2 6.5a38.5 38.5 0 009.2-69.3z" data-name="Path 10"/><path fill="#3f3d56" d="M0 513.1h909v2H0z" data-name="Rectangle 21"/><g data-name="Group 6"><path fill="#feb8b8" d="M397 499.4h-14.5l-7-56.1H397z" data-name="Path 111"/><path fill="#2f2e41" d="M354.4 513h45.8v-17.7h-28.4a17.4 17.4 0 00-17.4 17.4z" data-name="Path 112"/><path fill="#feb8b8" d="M392 412.4l10 10.5 45.4-33.7-14.8-15.6z" data-name="Path 113"/><path fill="#2f2e41" d="M412.3 427.8l-19.5-20.5-12.8 12.2 31.5 33.1.2-.2a17.4 17.4 0 00.6-24.6z" data-name="Path 114"/><path fill="#feb8b8" d="M290.5 258.5a12 12 0 015.8-17.4l57.1-145.7 22.3 13.3-63.5 139.8a12 12 0 01-21.7 10z" data-name="Path 115"/><path fill="#feb8b8" d="M507.6 269a12 12 0 01-10.7-15l-84.4-131.8 23.9-10.2 75.8 133.5a12 12 0 01-4.6 23.4z" data-name="Path 116"/><path fill="#2f2e41" d="M354 243.9l15 222 35.6-3.2 7.4-163.8 19.9 70.4 43 3.1-17-139z" data-name="Path 117"/><path fill="#2f2e41" d="M438.2 358.8l-6.3 10.5-44 30.4 31.4 16.8s60.9-33.6 55.6-44z" data-name="Path 118"/><path fill="#ccc" d="M322.8 154.1l12.4-35a62.5 62.5 0 0132.3-35.6 89.4 89.4 0 0152.5-3l4.5 1.2a87.4 87.4 0 0133.1 16c7.7 6 14.6 13.7 15.2 21.9 2.1 9.3 3.2 57.6 3.2 57.6h-18.7l3 65-.3-.4s-107.9 20.4-107.9 10v-67.2l-2.2-24.4z" data-name="Path 119"/><circle cx="423.4" cy="41.6" r="29.9" fill="#feb8b8" data-name="Ellipse 12"/><path fill="#2f2e41" d="M428 28.2l23.1 1c3 0 6.1-.2 8.3-2 3.4-3 2.8-8.3 1-12.3C455.4 3.7 444.3-.3 432 0s-25 4.5-31.6 14.8-8.4 23.4-6 35.4a38.5 38.5 0 0131.6-22z" data-name="Path 120"/></g><g data-name="Group 4"><path fill="var(--primary)" d="M565.7 320.5l-84-58.8a3.6 3.6 0 01-.9-5l66-94.1a3.6 3.6 0 015-.9l84 58.9a3.6 3.6 0 01.9 5l-66 94a3.6 3.6 0 01-5 1z" data-name="Path 81"/><path fill="#fff" d="M584.6 256.7L535.3 222a5.3 5.3 0 116.1-8.7l49.3 34.6a5.3 5.3 0 01-6 8.7z" data-name="Path 82"/><path fill="#fff" d="M573.3 272.8L524 238.3a5.3 5.3 0 116.1-8.7l49.3 34.5a5.3 5.3 0 01-6.1 8.7z" data-name="Path 83"/><path fill="#fff" d="M561.9 289.1l-49.3-34.5a5.3 5.3 0 116-8.7l49.4 34.5a5.3 5.3 0 01-6.1 8.7z" data-name="Path 84"/><path fill="#fff" d="M584.5 224.7l-19.1-13.3a5.3 5.3 0 116-8.7l19.2 13.4a5.3 5.3 0 01-6.1 8.6z" data-name="Path 85"/></g></svg>