<svg xmlns="http://www.w3.org/2000/svg" data-name="Layer 1" viewBox="0 0 909 591.27023"><defs/><path fill="#0560ff" d="M306.59472 589.96821H39.72779s-5.40946-79.33882 26.59654-80.24039 28.39969 35.16152 68.51988-14.42524 88.80538-46.882 95.11643-17.58076-12.1713 52.74228 21.63786 45.52966 82.49433 11.7205 54.99622 66.71673z"/><path fill="#f2f2f2" d="M168.65645 589.98626l-.9007-.0361c2.10053-52.236 13.04052-85.79821 21.84807-104.75467 9.563-20.58331 18.77817-28.91585 18.87017-28.99774l.59915.67377c-.09069.081-9.19847 8.33078-18.68484 28.77476-8.75891 18.87633-19.63903 52.30073-21.73185 104.33998zM265.24234 590.09412l-.86548-.2518c10.42185-35.77167 34.96386-58.35689 35.21082-58.581l.60575.66738c-.24476.22233-24.6032 22.64775-34.95109 58.16542zM81.76054 590.03028l-.89321-.12414c3.53587-25.50126-2.85111-45.28666-8.832-57.39368-6.47591-13.109-13.86484-20.26877-13.9388-20.33964l.6238-.65065c.07506.07175 7.57822 7.3416 14.12325 20.591 6.0368 12.2206 12.48431 32.1887 8.91696 57.91711z"/><path fill="#cfcce0" d="M342.81362 591.17426H10.94368l-.07656-1.12419c-.1908-2.79665-4.42434-68.76359 16.95-92.301 4.77826-5.26173 10.53408-8.02363 17.10728-8.20854 13.93256-.39633 22.68819 4.82242 29.75017 9.0112 13.31069 7.89644 22.104 13.11342 54.07547-26.40232 34.635-42.80824 72.00485-52.0179 93.48758-46.8969 13.88015 3.30956 23.44668 12.66291 26.24686 25.66209 2.65118 12.309 1.80671 23.8748 1.12831 33.16809-.7261 9.94342-1.29968 17.79745 2.78428 21.35671 3.40909 2.96977 10.21372 3.24007 21.41324.84977 22.78006-4.85953 54.56543-.70137 70.51966 19.91216 8.58367 11.09 15.34532 31.24889-1.18308 64.30627zm-329.60507-2.41214h328.11164c12.31665-24.9884 12.7012-46.09836 1.1024-61.08445-14.6357-18.90987-45.341-23.88718-68.10933-19.02942-12.16766 2.59642-19.41808 2.16771-23.50086-1.39037-4.9932-4.35072-4.38076-12.73535-3.60578-23.35069.66781-9.13959 1.49814-20.514-1.08-32.485-2.59642-12.05459-11.50751-20.73779-24.44839-23.823-20.79726-4.962-57.123 4.13165-91.0531 46.06715-33.28175 41.13519-43.30761 35.18975-57.1807 26.96-7.14913-4.24-15.2664-9.04889-28.45166-8.67495-5.89244.16607-11.07 2.66238-15.39007 7.41944-19.21023 21.15362-16.8647 80.47317-16.39415 89.39129z"/><path fill="#f2f2f2" d="M670.7402 421.17934l-96.5491-16.78764c17.25764-35.79353 25.14382-71.15859 18.40573-105.855l96.5491 16.78765a214.51078 214.51078 0 00-18.40573 105.85499z"/><path fill="#3f3d56" d="M612.52436608 321.77537387l50.01940846 8.69721352-.40452143 2.32648342-50.01940847-8.69721351zM610.90627865 331.08130401l50.01940847 8.69721352-.40452144 2.32648342-50.01940847-8.69721351zM609.2881093 340.39099243l50.01952088 8.69739156-.40452972 2.32648866-50.01952088-8.69739157zM607.67010067 349.69318057l50.01940846 8.69721351-.40452144 2.32648343-50.01940846-8.69721351zM606.05202153 358.99913056l50.01940846 8.69721352-.40452143 2.32648342-50.01940847-8.69721351zM604.43393425 368.30505899l50.01940847 8.69721351-.40452144 2.32648343-50.01940847-8.69721352zM602.81584526 377.61099727l50.01940846 8.69721351-.40452144 2.32648343-50.01940846-8.69721352zM601.19776612 386.91693726l50.01940846 8.69721351-.40452144 2.32648343-50.01940846-8.69721352z"/><path fill="#f2f2f2" d="M713.7402 455.17934l-96.5491-16.78764c17.25764-35.79353 25.14382-71.15859 18.40573-105.855l96.5491 16.78765a214.51078 214.51078 0 00-18.40573 105.85499z"/><path fill="#3f3d56" d="M655.52436011 355.77537779l50.01940846 8.69721351-.40452143 2.32648343-50.01940847-8.69721352zM653.90628268 365.08130792l50.01940847 8.69721352-.40452144 2.32648343-50.01940846-8.69721352zM652.2880893 374.39122243l50.01952088 8.69739156-.40452972 2.32648866-50.01952088-8.69739157zM650.6701047 383.69318448l50.01940846 8.69721352-.40452143 2.32648342-50.01940847-8.69721351zM649.05202556 392.99912447l50.01940846 8.69721352-.40452143 2.32648343-50.01940847-8.69721352zM647.43392828 402.3050529l50.01940847 8.69721352-.40452144 2.32648342-50.01940847-8.69721351zM645.81583929 411.61099118l50.01940846 8.69721351-.40452144 2.32648343-50.01940846-8.69721351zM644.19776015 420.91694117l50.01940846 8.69721352-.40452143 2.32648342-50.01940847-8.69721351z"/><path fill="#3f3d56" d="M740.05762 589.87989H567.8418l-.03321-.96485-8.22265-235.17578h188.72754zm-170.28418-2H738.126l8.11718-232.14063H561.65625z"/><path fill="#3f3d56" d="M730.627 577.241H577.272l-7.373-210.863H738l-7.373 210.863z"/><g fill="#fff" opacity=".2"><path d="M595.82376 397.31046h13.09875v162.09701h-13.09875zM647.40008 397.31046h13.09875v162.09701h-13.09875zM698.97641 397.31046h13.09875v162.09701h-13.09875z"/></g><path fill="#3f3d56" d="M639.37058052 289.76846275l17.4990191-27.67926707 213.1303657 134.74245296-17.4990191 27.67926707z"/><path fill="#3f3d56" d="M785.105 295.1835a38.45916 38.45916 0 00-58.62044 38.06983l10.19586 6.44589a30.3441 30.3441 0 1128.98 18.32135l10.19585 6.44589a38.45915 38.45915 0 009.24874-69.283zM0 588.5h909v2H0z"/><path fill="#ffb8b8" d="M480 248.5s39 29 23 34-36-17-35-23 12-11 12-11z"/><path fill="#575a89" d="M446 211.5l40 37-16 17-27-20 3-34z"/><path fill="#0560ff" d="M535.508 363.43952l-82.46814-52.93921c29.79536-26.29142 50.78741-55.82468 58.04178-90.41687l82.46814 52.93921a214.51093 214.51093 0 00-58.04178 90.41687z"/><path fill="#3f3d56" d="M520.42934842 249.23415197l42.72445223 27.4263364-1.27564318 1.98718323-42.72445222-27.42633639zM515.32676614 257.18287828l42.72445223 27.42633639-1.27564317 1.98718324-42.72445223-27.4263364zM510.22419688 265.1316184l42.72445223 27.4263364-1.27564318 1.98718323-42.72445223-27.4263364zM505.12162762 273.08036852l42.72445222 27.4263364-1.27564317 1.98718323-42.72445223-27.4263364zM500.01904534 281.02909483l42.72445223 27.42633639-1.27564318 1.98718324-42.72445223-27.4263364zM494.91647608 288.97783495l42.72445222 27.42633639-1.27564317 1.98718324-42.72445223-27.4263364zM489.8139038 296.92656125l42.72445223 27.4263364-1.27564318 1.98718323-42.72445223-27.4263364zM484.71132453 304.87530137l42.72445223 27.4263364-1.27564317 1.98718323-42.72445223-27.42633639z"/><path fill="#ffb8b8" d="M303.165 490.416l-15.178 31.932 42.459 10.16-1.183-30.783-26.098-11.309zM455 533.5l5 35 41-15-18-25-28 5z"/><path fill="#2f2e41" d="M364.19185 203.90577s-6.28309 40.23087-4.57334 59.364-5.03144 99.85833-5.03144 99.85833-30.153 32.79933-36.99741 70.258a312.689 312.689 0 01-21.46982 68.55689l35.52851 11.564 70.40647-133.29639s50.49159-110.5061 45.47418-121.03348-12.88445-52.94328-12.88445-52.94328z"/><path fill="#2f2e41" d="M297.11935 514.0054s-.043-18.02771-6.40352-10.24671-27.126 22.80749-14.89746 33.31765 83.64359 67.47407 87.48678 50.82385c2.13364-9.24378-33.48383-71.63844-33.48383-71.63844s-11.89349.74487-12.71826 3.7977-19.98371-6.05405-19.98371-6.05405z"/><path fill="#ffb8b8" d="M424 40.5l-27 31 27 28 25-38-25-21z"/><path fill="#ffb8b8" d="M470 42.5a27.01163 27.01163 0 11-.49-5.11 27.00223 27.00223 0 01.49 5.11z"/><path fill="#2f2e41" d="M425.21494 22.05859c9.37029-4.35474 20.41342-3.79867 30.297-.7851 5.60679 1.70956 11.141 4.28669 15.06511 8.641s5.94341 10.76868 3.90251 16.26353l-8.17236-6.18019-.74886 5.44719c-5.39378-8.41458-15.63876-12.07049-25.14056-15.17109-2.97176-.96973-6.91679-1.63184-8.63038.98261-.7222 1.10187-.80413 2.53991-1.57236 3.6102-1.43969 2.00577-4.44914 1.82912-6.65324 2.94167-2.06384 1.04175-3.31374 3.16881-4.42655 5.19521s-.6195 4.86408-2.63522 5.99639c-8.08359 4.54053-3.31824-12.94456-2-16 2.60333-6.03413 4.77255-8.17977 10.71491-10.94142zM347.5 261s17 37 29 52 51 86 51 86-7 44 8 79a312.68908 312.68908 0 0120 69l36-10-15-150s-19-120-29-126-40-37-40-37z"/><path fill="#575a89" d="M431 97.5s-17-45-40-31-41 139-41 139-21 57 0 63 38 14 41 3 1-30 6-20 3 22 13 22 49-5 48-12-27-164-27-164z"/><path fill="#ffb8b8" d="M348 274.5s-13 39 5 39 15.39871-39.37416 15.39871-39.37416z"/><path fill="#2f2e41" d="M463 556.5s-10-15-11-5-10 34 6 36 107 10 101-6c-3.33105-8.88279-67.5-41.19444-67.5-41.19444S482 547.5 483 550.5s-20 6-20 6z"/><path fill="#575a89" d="M487.5 49s-4.74 4.07-10.89-3.98A39.01675 39.01675 0 01472.5 38a27.46081 27.46081 0 00-18.56006-7.97q-.705-.02994-1.43994-.03c-13 0-16-9-16-9l-21 7s3-28 32-28 30 24 30 24 23 9 10 25z"/><path d="M476.61 45.01996a39.01675 39.01675 0 01-4.11-7.02 27.46081 27.46081 0 00-18.56006-7.97c7.31006-2.29 20.02-4.95 25.56006 1.97 5.1 6.37004.86 10.71001-2.89 13.02z" opacity=".2"/><path fill="#575a89" d="M392 74.5s-27-5-34 19-22 95-22 95l9 73-1 18h29v-19c0-2 4-80 4-80l33-75s7-24-18-31z"/><path d="M410.5 116l-33 65-4.049 93.126L384.5 180l26-64zM450.525 215.686l7.494 38.408-3.747-34.942-3.747-3.466zM365.5 305.5l43 61-4.5 9-38.5-70z" opacity=".2"/></svg>