<svg xmlns="http://www.w3.org/2000/svg" data-name="Layer 1" viewBox="0 0 909 591"><defs/><path fill="#0560ff" d="M307 590H40s-6-79 26-80 29 35 69-15 89-47 95-17-12 52 22 45 82 12 55 67z"/><path fill="#f2f2f2" d="M169 590h-1c2-52 13-86 22-105 9-20 18-29 18-29l1 1s-9 8-19 29c-8 19-19 52-21 104zm96 0h-1c11-36 35-59 36-59v1s-24 23-35 58zm-183 0h-1c3-26-3-45-9-57-6-14-14-21-14-21h1s7 7 14 20c6 12 12 32 9 58z"/><path fill="#cfcce0" d="M343 591H11v-1c0-3-5-69 17-92 5-6 10-8 17-8 14-1 23 4 30 9 13 7 22 13 54-27 34-43 72-52 93-47 14 4 24 13 26 26 3 12 2 24 2 33-1 10-2 18 2 21s11 4 22 1c23-5 54 0 70 20 9 11 16 31-1 65zm-330-2h328c13-25 13-46 1-61-14-19-45-24-68-19-12 2-19 2-23-2-5-4-5-12-4-23 1-9 2-21-1-33-2-12-11-20-24-23-21-5-57 4-91 46-34 41-44 35-58 27-7-5-15-9-28-9-6 0-11 3-15 7-20 22-17 81-17 90z"/><path fill="#f2f2f2" d="M671 421l-97-17c17-35 25-71 19-105l96 16a215 215 0 00-18 106z"/><path fill="#3f3d56" d="M613 322l50 8-1 3-50-9zm-2 9l50 9v2l-50-9zm-2 9l50 9v2l-50-8zm-1 10l50 8-1 3-50-9zm-2 9l50 9v2l-50-9zm-2 9l50 9v2l-50-8zm-1 10l50 8-1 3-50-9zm-2 9l50 9v2l-50-9z"/><path fill="#f2f2f2" d="M714 455l-97-17c17-35 25-71 19-105l96 16a215 215 0 00-18 106z"/><path fill="#3f3d56" d="M656 356l50 8-1 3-50-9zm-2 9l50 9v2l-50-9zm-2 9l50 9v2l-50-8zm-1 10l50 8-1 3-50-9zm-2 9l50 9v2l-50-9zm-2 9l50 9v2l-50-8zm-1 10l50 8-1 3-50-9zm-2 9l50 9v2l-50-9z"/><path fill="#3f3d56" d="M740 590H568v-1l-8-235h188zm-170-2h168l8-232H562z"/><path fill="#3f3d56" d="M731 577H577l-7-211h168l-7 211z"/><path fill="#fff" d="M596 397h13v162h-13zm51 0h13v162h-13zm52 0h13v162h-13z" opacity=".2"/><path fill="#3f3d56" d="M639 290l18-28 213 135-17 28z"/><path fill="#3f3d56" d="M785 295a38 38 0 00-59 38l11 7a30 30 0 1129 18l10 6a38 38 0 009-69zM0 589h909v2H0z"/><path fill="#ffb8b8" d="M480 249s39 29 23 34-36-17-35-23 12-11 12-11z"/><path fill="#575a89" d="M446 212l40 37-16 17-27-20 3-34z"/><path fill="#0560ff" d="M536 363l-83-52c30-27 51-56 58-91l83 53a215 215 0 00-58 90z"/><path fill="#3f3d56" d="M520 249l43 28-1 2-43-28zm-5 8l43 28-1 2-43-28zm-5 8l43 28-1 2-43-28zm-5 8l43 28-1 1-43-27zm-5 8l43 27-2 2-42-27zm-5 8l43 27-2 2-42-27zm-5 8l43 27-2 2-42-27zm-5 8l42 27-1 2-43-27z"/><path fill="#ffb8b8" d="M303 490l-15 32 42 11-1-31-26-12zm152 44l5 35 41-15-18-25-28 5z"/><path fill="#2f2e41" d="M364 204s-6 40-4 59-5 100-5 100-31 33-37 70a313 313 0 01-22 69l36 12 70-134s51-110 46-121-13-53-13-53z"/><path fill="#2f2e41" d="M297 514s0-18-6-10-27 23-15 33 83 68 87 51c2-9-33-72-33-72s-12 1-13 4-20-6-20-6z"/><path fill="#ffb8b8" d="M424 41l-27 31 27 28 25-38-25-21z"/><path fill="#ffb8b8" d="M470 43a27 27 0 110-6 27 27 0 010 6z"/><path fill="#2f2e41" d="M425 22c10-4 21-4 31-1 5 2 11 5 15 9s6 11 3 16l-8-6v5c-6-8-16-12-26-15-3-1-6-1-8 1l-2 4c-1 2-4 2-6 3-3 1-4 3-5 5s0 5-2 6c-9 5-4-13-2-16 2-6 4-8 10-11zm-77 239s17 37 29 52 51 86 51 86-7 44 8 79a313 313 0 0120 69l36-10-15-150s-19-120-29-126-40-37-40-37z"/><path fill="#575a89" d="M431 98s-17-45-40-31-41 139-41 139-21 57 0 63 38 14 41 3 1-30 6-20 3 22 13 22 49-5 48-12L431 98z"/><path fill="#ffb8b8" d="M348 275s-13 39 5 39 15-40 15-40z"/><path fill="#2f2e41" d="M463 557s-10-15-11-5-10 34 6 36 107 10 101-6c-3-9-67-42-67-42s-10 8-9 11-20 6-20 6z"/><path fill="#575a89" d="M488 49s-5 4-11-4a39 39 0 01-4-7 27 27 0 00-19-8h-2c-12 0-15-9-15-9l-21 7s3-28 32-28 30 24 30 24 23 9 10 25z"/><path d="M477 45a39 39 0 01-4-7 27 27 0 00-19-8c7-2 20-5 25 2 6 6 1 11-2 13z" opacity=".2"/><path fill="#575a89" d="M392 75s-27-5-34 19-22 95-22 95l9 73-1 18h29v-19l4-80 33-75s7-24-18-31z"/><path d="M411 116l-33 65-5 93 12-94 26-64zm40 100l7 38-4-35-3-3zm-85 90l43 61-5 9-38-70z" opacity=".2"/></svg>