<svg xmlns="http://www.w3.org/2000/svg" xmlns:xlink="http://www.w3.org/1999/xlink" data-name="Layer 1" viewBox="0 0 678.3 733"><defs><path id="reuse-2" fill="#e6e6e6" d="M-117.05 577.07h-162.7a3.92 3.92 0 010-7.84h162.7a3.92 3.92 0 010 7.84zM-200.56 592.76h-79.2a3.92 3.92 0 010-7.85h79.2a3.92 3.92 0 010 7.85z"/><path id="reuse-1" fill="#fff" d="M-234.81 561.4h-43.82c-2.78 0-5.05-3.23-5.05-7.2 0-3.96 2.27-7.18 5.05-7.18h43.82c2.78 0 5.04 3.22 5.04 7.18 0 3.97-2.26 7.2-5.04 7.2z"/><path id="reuse-0" fill="#00c853" d="M-72.29 609.75h-252.23a5.56 5.56 0 01-5.55-5.56v-68.61a5.56 5.56 0 015.55-5.55h252.23a5.56 5.56 0 015.55 5.55v68.61a5.56 5.56 0 01-5.55 5.56z"/></defs><defs><linearGradient id="a" x1="585.48" x2="585.48" y1="733" y2="673.63" gradientUnits="userSpaceOnUse"><stop offset="0" stop-color="gray" stop-opacity=".25"/><stop offset=".54" stop-color="gray" stop-opacity=".12"/><stop offset="1" stop-color="gray" stop-opacity=".1"/></linearGradient><linearGradient id="c" x1="93.98" x2="93.98" y2="673.63" xlink:href="#a"/><linearGradient id="d" x1="339.15" x2="339.15" y1="681.8" y2="0" xlink:href="#a"/><linearGradient id="e" x1="339.15" x2="339.15" y1="569.14" y2="111.49" xlink:href="#a"/><linearGradient id="f" x1="339.15" x2="339.15" y1="423.21" y2="255.09" xlink:href="#a"/><linearGradient id="g" x1="290.11" x2="290.11" y1="525.36" y2="499.67" xlink:href="#a"/><linearGradient id="h" x1="322.8" x2="322.8" y1="525.36" y2="499.67" xlink:href="#a"/><linearGradient id="i" x1="355.49" x2="355.49" y1="525.36" y2="499.67" xlink:href="#a"/><linearGradient id="j" x1="388.18" x2="388.18" y1="525.36" y2="499.67" xlink:href="#a"/><linearGradient id="k" x1="339.15" x2="339.15" y1="389.93" y2="288.36" xlink:href="#a"/><linearGradient id="l" x1="377.6" x2="377.6" y1="380.54" y2="283.64" xlink:href="#a"/><linearGradient id="m" x1="377.6" x2="377.6" y1="563.83" y2="466.93" xlink:href="#a"/><linearGradient id="n" x1="193.94" x2="198.69" y1="166.83" y2="223.35" gradientTransform="rotate(5.2 4448.38 -4204.34) scale(2.93671)" gradientUnits="userSpaceOnUse" xlink:href="#b"/><linearGradient id="b"><stop offset="0"/><stop offset="1" stop-color="#fff9f9" stop-opacity="0"/></linearGradient><linearGradient id="o" x1="167.82" x2="270.55" y1="76.9" y2="64.21" gradientTransform="scale(1.50082) rotate(5.2 310.04 -1365.73)" gradientUnits="userSpaceOnUse" xlink:href="#b"/></defs><path fill="url(#a)" d="M560.38 673.63h50.2V733h-50.2z"/><path fill="#f5f5f5" d="M609.42 730.83h-47.87v-57.21h47.87z"/><path fill="url(#c)" d="M68.88 673.63h50.2V733h-50.2z"/><path fill="#f5f5f5" d="M70.05 673.63h47.87v57.21H70.05z"/><rect width="678.3" height="681.8" fill="url(#d)" rx="14.86" ry="14.86"/><rect width="670.12" height="670.12" x="4.67" y="3.5" fill="#fafafa" rx="14.86" ry="14.86"/><ellipse cx="403.71" cy="369.97" fill="#fff" rx="25.68" ry="14.01" transform="rotate(-14.86)"/><path fill="url(#e)" d="M112.66 111.49h452.98v457.65H112.66z"/><g transform="matrix(.62599 0 0 .62599 703.88 -12.95)"><ellipse cx="803.13" cy="473.61" fill="#fff" rx="14.01" ry="25.68" transform="rotate(-71.04 324.22 1269.17)"/><use xlink:href="#reuse-0"/><use xlink:href="#reuse-1"/><use xlink:href="#reuse-2"/></g><g transform="rotate(-10.6 -91.93 -3466.7) scale(.62599)"><ellipse cx="803.13" cy="473.61" fill="#fff" rx="14.01" ry="25.68" transform="rotate(-71.04 324.22 1269.17)"/><use xlink:href="#reuse-0"/><use xlink:href="#reuse-1"/><use xlink:href="#reuse-2"/></g><g transform="rotate(11.2 58.28 3952.7) scale(.62599)"><ellipse cx="803.13" cy="473.61" fill="#fff" rx="14.01" ry="25.68" transform="rotate(-71.04 324.22 1269.17)"/><use xlink:href="#reuse-0"/><use xlink:href="#reuse-1"/><use xlink:href="#reuse-2"/></g><path fill="#fff" d="M116.16 116.16h445.97v445.97H116.16z"/><circle cx="339.15" cy="339.15" r="84.06" fill="url(#f)"/><circle cx="339.15" cy="339.15" r="80.56" fill="#fafafa"/><path fill="url(#g)" d="M277.86 499.67h24.52v25.68h-24.52z"/><path fill="url(#h)" d="M310.55 499.67h24.52v25.68h-24.52z"/><path fill="url(#i)" d="M343.23 499.67h24.52v25.68h-24.52z"/><path fill="url(#j)" d="M375.92 499.67h24.52v25.68h-24.52z"/><path fill="#00c853" d="M278.44 500.84h23.35v23.35h-23.35z"/><path fill="#00c853" d="M311.13 500.84h23.35v23.35h-23.35z" opacity=".7"/><path fill="#00c853" d="M343.82 500.84h23.35v23.35h-23.35z" opacity=".5"/><path fill="#00c853" d="M376.51 500.84h23.35v23.35h-23.35z" opacity=".3"/><path fill="#00c853" d="M372.87 287.94l3.83 2.68-9.38 13.38-3.82-2.68zM390.36 372.87l-2.68 3.82-13.38-9.37 2.68-3.83zM305.42 390.36l-3.82-2.68 9.37-13.39 3.83 2.68zM287.94 305.43l2.68-3.83 13.38 9.38-2.67 3.82z"/><path d="M372.83 287.8l3.82 2.68-9.37 13.38-3.82-2.68zM390.32 372.73l-2.67 3.83-13.39-9.37 2.68-3.83zM305.4 390.22l-3.83-2.68 9.37-13.39 3.82 2.68zM287.9 305.3l2.68-3.83 13.39 9.37-2.68 3.82z" opacity=".2"/><circle cx="339.15" cy="339.15" r="50.78" fill="url(#k)"/><circle cx="339.15" cy="339.15" r="47.87" fill="#00c853"/><path fill="#fff" d="M300.04 345.57A47.86 47.86 0 01371.71 304a47.86 47.86 0 10-57 76 47.71 47.71 0 01-14.67-34.43z" opacity=".2"/><path fill="url(#l)" d="M396.28 380.54h-37.36v-93.28a3.63 3.63 0 013.63-3.62h30.11a3.63 3.63 0 013.63 3.63z" transform="translate(-260.85 -84)"/><path fill="url(#m)" d="M392.47 563.83h-29.74a3.81 3.81 0 01-3.81-3.81v-93.09h37.36V560a3.81 3.81 0 01-3.81 3.83z" transform="translate(-260.85 -84)"/><path fill="#fafafa" d="M102.4 200.8h28.69a3.17 3.17 0 013.17 3.17v90.23h-35V204a3.17 3.17 0 013.14-3.2zM99.23 384.1h35v92.33a1.06 1.06 0 01-1.06 1.06H100.3a1.06 1.06 0 01-1.06-1.06V384.1h-.01z"/><g transform="matrix(.24066 0 0 .24069 290.73 161.35)"><path fill="url(#n)" d="M159.61 205.33l154.87 41.43-141.28 44.01L18.33 248.7z"/><path fill="url(#o)" d="M159.61-34.91v240.18l154.87 41.5c0-80.07.47-159.25.47-252.62z"/><g fill="none" stroke-width="1.18"><path d="M159.61 204.74V-35.44M159.61 204.74L18.33 248.69M159.61 204.74l154.87 41.5"/></g><text x="50.83" y="226.02" stroke-width=".71" font-family="Noto Sans" font-size="15.16" font-weight="400" letter-spacing="0" style="line-height:1.25;-inkscape-font-specification:'Noto Sans'" transform="skewY(-17.25)" word-spacing="0"><tspan x="50.83" y="226.02" font-family="Atkinson Hyperlegible" font-size="136.47" font-weight="700" style="-inkscape-font-specification:'Atkinson Hyperlegible Bold'">N</tspan></text><rect width="86.09" height="12.64" x="184.89" y="97.08" fill="#bebebe" ry="2.27" transform="skewY(14.78) scale(.9669 1)"/><path fill="#bebebe" d="M180.8 168.95l99.07 26.47a2.9 2.9 0 012.03 2.67v7.57c0 1.18-.9 1.88-2.03 1.58l-99.07-26.47a2.9 2.9 0 01-2.03-2.67v-7.57c0-1.18.9-1.88 2.03-1.58zM180.8 122.33l99.07 26.48a2.9 2.9 0 012.03 2.66v7.58c0 1.17-.9 1.88-2.03 1.58l-99.07-26.48a2.9 2.9 0 01-2.03-2.66v-7.58c0-1.17.9-1.88 2.03-1.58z"/></g></svg>