<svg xmlns="http://www.w3.org/2000/svg" data-name="Layer 1" viewBox="0 0 802 833.5"><path fill="#3f3d56" d="M802 432.5a399 399 0 0 1-34.2 162.2l-2.9 6.4-.4 1-1.2 2.4-.8 1.8-2.1 4.3-2.4 4.7-2.4 4.7-2.2 4-2.8 5.2-2.6 4.4-2.7 4.7-.1.1-.6 1-.6 1-.6.9-1.8 3-4.2 6.5-8 12-5.1 7-3.3 4.4-3.4 4.4-.7 1a329 329 0 0 1-4.4 5.5l-1 1.2-1.4 1.7-.5.6-2.5 3-2.4 2.9-.6.6-.8 1-2.1 2.3-.1.1a401.8 401.8 0 0 1-72.5 64.2 2.7 2.7 0 0 1-.3.2l-1 .7a350.6 350.6 0 0 1-10.8 7.2h-.2a258.6 258.6 0 0 1-3.6 2.4l-1.5.9-1.5 1-1.9 1-4.1 2.5-1.5.9-1.5.9h-.1l-4.2 2.4-3.5 1.9-8.1 4.3-5.7 3-3.5 1.6-3 1.4-.8.4-1.3.6-1 .6-2.7 1.2a375.8 375.8 0 0 1-14.2 6.1 392.1 392.1 0 0 1-41.3 14.3l-2 .5q-9 2.5-18 4.6-16 3.7-32.2 6l-4 .6a3.7 3.7 0 0 1-.3 0l-4.3.6h-.3a497.5 497.5 0 0 1-8.4 1l-6.7.6h-.1l-2.6.2q-15.6 1.2-31.4 1.2-17.2 0-34-1.4h-.1l-7.2-.7c-.6 0-1.2 0-1.9-.2h-1.2l-2.5-.4c-1 0-1.9-.2-2.8-.3l-2.8-.4h-.6a66.1 66.1 0 0 1-5-.7 395.2 395.2 0 0 1-60.3-13.6l-3.2-1-1-.3-8.3-2.8-11.3-4-3-1.3-6-2.4q-5.2-2-10.3-4.3l-8-3.7-1.4-.6a1 1 0 0 1-.3-.1l-2-1h-.1l-10.5-5.3q-6.4-3.3-12.8-6.9l-10.4-6-12-7.6-3.8-2.5-3.3-2.3q-6-4-11.6-8.2-6-4.4-11.7-9-7.5-6-14.7-12.2-13.4-11.8-25.8-24.7a61.5 61.5 0 0 1-3.2-3.4 317 317 0 0 1-3.5-3.8q-2.9-3.1-5.7-6.4l-3.3-3.8-.5-.6-2-2.5a167.7 167.7 0 0 1-3.4-4l-2.2-2.8-1.1-1.3-6.4-8.4a125 125 0 0 1-1.7-2.3l-7.9-11-2.8-4.2-2.8-4.2-2.8-4.4-.2-.3L59 642a217 217 0 0 1-3.5-6l-.5-.7a592.8 592.8 0 0 1-12-21.9l-1.5-3.2-1.2-2.4a2.2 2.2 0 0 1-.1-.2l-.6-1.2a.7.7 0 0 1 0-.2 145 145 0 0 1-2.8-5.7l-1-2.3-1.5-3.3-1.5-3.4a31.7 31.7 0 0 1-1-2.4l-1.8-4.2-1.9-4.7-1.7-4.4-.2-.6a399.2 399.2 0 0 1-19.6-70.5A399.9 399.9 0 0 1 1 463.2l-.1-2.3q-1-14.1-1-28.4 0-6.3.2-12.5a399.1 399.1 0 0 1 88.5-239l7.3-8.9 8.4-9.4 6-6.4a1.4 1.4 0 0 1 0-.1l.7-.7a399.6 399.6 0 0 1 39.2-36 237.2 237.2 0 0 1 9-7l5-3.7q13.1-9.6 27-18.2l11.8-6.9a306.3 306.3 0 0 1 10.3-5.7A401.6 401.6 0 0 1 598 83.2l.8.5 5.2 3 6.6 4q16.5 10.1 32 21.8a336.3 336.3 0 0 1 11.4 9 402.4 402.4 0 0 1 47 45.1l.7.8 2 2.3.3.3 3 3.5a402.2 402.2 0 0 1 33 45q5.6 8.6 10.6 17.7A399 399 0 0 1 802 432.5Z"/><path fill="#3f3d56" d="m683.1 24.7 24 649.7-2.5 3.3a110.2 110.2 0 0 1-3.5 4.7 429.1 429.1 0 0 1-72.5 74.9v.2h-.3l-1 .8-7.2 5.6-3.6 2.7h-.1l-.1.2-2.8 2-.8.6-1.5 1-1.5 1.1-6 4.2-1.5 1c-.5.4-1 .8-1.5 1v.1h-.1c-1.5 1-2.8 2-4.3 2.8a357 357 0 0 1-23.7 14.3l-.8.4-1.3.8h-339l-1.4-.8a1 1 0 0 1-.3-.2l-2-1.1h-.1l-10.5-6.1q-11.8-7.1-23.2-15.1-6.1-4.3-12-8.9l-3.8-2.8-3.3-2.7q-6-4.7-11.6-9.6-6-5-11.7-10.4-7.5-7-14.7-14.3-13.4-13.7-25.8-28.7a69 69 0 0 1-.8-1q-3-3.6-5.9-7.4l20-662.3a32.2 32.2 0 0 1 2.2-11.8c3-7.7 9-12.9 15.7-12.9h522.9C672 0 678 5.4 681 13.2l.3.8a32.3 32.3 0 0 1 1.8 10.7Z"/><ellipse cx="190.6" cy="43.6" fill="#fff" rx="27" ry="31.4"/><path fill="#fff" d="M476.6 128a696.4 696.4 0 0 1-147.2 21.2 184.4 184.4 0 0 1-22.6-.2c-16.5-1.4-30.6-6.6-46.4-9.4-7.5-1.4-16-2.4-23.6-3.8q2.6-3.3 5.4-6.5c16.4 1.4 33.1 6 49.7 8 28.3 3.6 60-.4 81.4-10.3 10.4-4.8 18.3-10.8 28.7-15.6a13.4 13.4 0 0 1 4.5-1.4c3.3-.3 6.2 1 8.5 2.3a113 113 0 0 0 66 12c1.8 1.3-1.5 2.9-4.4 3.6Zm-8.8 109.5.9-.1a23.9 23.9 0 0 1-3.5-2.6Zm191.9 23.7q-20 1.6-40.4 2.4a254.4 254.4 0 0 1-30.8-.2c-22.6-2-42-9-63.5-12.9-19.8-3.5-43.8-5.3-56.3-13.1 32.4-5.6 66 5.8 99.4 10a237.4 237.4 0 0 0 81-4q5.5 8.8 10.6 17.8Z"/><path fill="#2f2e41" d="M380.8 501.9v-9.6a14.3 14.3 0 0 0-13.5-14.3v-37.4H364v37.3h-14.3v23.9h-67.6V776h149.5V555.6a53.9 53.9 0 0 0-50.9-53.7Z"/><path fill="#fff" d="M306.9 540.7h19.9v15.9h-19.9zm32.6 0h19.9v15.9h-19.9zm32.6 0H392v15.9h-19.9zm-65.2 40.6h19.9v15.9h-19.9zm32.6 0h19.9v15.9h-19.9zm32.6 0H392v15.9h-19.9zm-65.2 40.5h19.9v15.9h-19.9zm32.6 0h19.9v15.9h-19.9zm32.6 0H392v15.9h-19.9zm-65.2 40.6h19.9v15.9h-19.9zm32.6 0h19.9v15.9h-19.9zm32.6 0H392v15.9h-19.9zm-65.2 40.5h19.9v15.9h-19.9zm32.6 0h19.9v15.9h-19.9zm32.6 0H392v15.9h-19.9zm-65.2 40.6h19.9v15.9h-19.9zm32.6 0h19.9v15.9h-19.9zm32.6 0H392v15.9h-19.9z"/><path fill="#2f2e41" d="M286.3 422v354H194q-6-3.6-12-7.5l-3.8-2.5-3.3-2.3q-6-4-11.6-8.2-6-4.4-11.7-9-7.5-6-14.7-12.2V368.2h26.6v-42.5h27V285h3.2v40.6h19.9a14.4 14.4 0 0 1 14.3 14.3v28.2h4.6a53.9 53.9 0 0 1 51.6 38.5 55.6 55.6 0 0 1 1.4 6 54.5 54.5 0 0 1 .8 9.4Z"/><path fill="#fff" d="M179.4 400.4h64.4v4.8h-64.4zm0 29.4h64.4v4.8h-64.4zm0 29.4h64.4v4.8h-64.4zm0 29.5h64.4v4.8h-64.4zm0 29.4h64.4v4.8h-64.4zm0 29.4h64.4v4.8h-64.4zm0 29.4h64.4v4.8h-64.4zm0 29.4h64.4v4.8h-64.4zm0 29.4h64.4v4.8h-64.4zm0 29.5h64.4v4.8h-64.4zm0 29.4h64.4v4.8h-64.4zm0 29.4h64.4v4.8h-64.4zm6.4-389.6h19.9v15.9h-19.9z"/><path fill="#2f2e41" d="m681.3 14-.2-.8C678 5.4 672 0 665 0H142.5c-6.9 0-12.8 5.2-15.8 13a32.2 32.2 0 0 0-2.2 11.7l-20 677.7a317.5 317.5 0 0 0 6 6.4l20-684.1a21.6 21.6 0 0 1 .7-5.8c1.8-6.3 6.1-10.7 11.3-10.7h522.8a8.9 8.9 0 0 1 3.5.7c4.7 2 8.2 7.9 8.4 14.9v.9l24 657.7 2.2-2.8.7-1 .7-.9 2.4-3.3-24-649.7a32.3 32.3 0 0 0-1.8-10.7ZM217.2 789l10.5 5.3 2 1h.1a1 1 0 0 0 .3 0l1.4.7h339l1.3-.6a388 388 0 0 0 3.7-1.8 306.4 306.4 0 0 0 9.2-4.6Z"/><path fill="#2f2e41" d="M127.4 83.7h552.8v6.9H127.4zm-5.7 86h566v6.9h-566z"/><path fill="#2f2e41" d="M213.4 304.4h-6l20-301.3h6l-20 301.3zm390.7 2h-6l-24-303.3h6l24 303.3z"/><path fill="#2f2e41" d="M122.7 296.3h568v19.9h-568zm285.1-11h6a11 11 0 0 1 10.8 11h-27.8a11 11 0 0 1 11-11Z"/><path fill="#ccc" d="M205.7 765.4c-9 9-8.3 12.7-11.7 10.7l-12-7.6-3.8-2.5-3.3-2.3q-6-4-11.6-8.2-6-4.4-11.7-9-7.5-6-14.7-12.2-13.4-11.8-25.8-24.7a61.5 61.5 0 0 1-3.2-3.4l4-14.7 5-214.2.4-64.6v-6l4.4-93.3v-6l2.7-125.9v-11.8l-14-13.5 20.4-65.6v-6.9l.3-64.8v-5.2c10.6-9.7 25.6-11.6 44-9.9l2.7.3.3 4.1.4 7.3 3.6 58 .7 10.2.4 7 1.1 18.1-16.2 61 .4 6.9 3.2 50.3.4 7 .9 14.2 3.7 59.2.3 6 .8 12.3 1 15.2v1.7l.5 7 1.2 20 .4 5.5 1.5 25.3.2 3.4.1 1.4.1 1.5.2 2.6.2 3.4.8 12 .3 5.1.3 4.8.2 3.4.3 5.6.3 4.3.7 11.3.3 4.8.5 8.3.3 5v.6l.7 10.8.3 4.7.2 3.7.6 9.5.4 5.5.4 6 .2 4.7 1.2 18 .3 5.6v1l.4 4.9 1.4 22.8.1 1.8.2 3.7v1l1.6 24.7.2 3 .1 1.8.3 3.8 1.3 20.8.3 4.8.2 3.1.3 5.6 1 16 .3 4.7.5 8 .3 5.5.7 11.2.3 4.7.8 12.8.4 5.6.2 6.3.1 4.8ZM704.1 695l-.8 1-2.1 2.5h-.1a401.8 401.8 0 0 1-72.5 64.2 2.7 2.7 0 0 1-.3.2l-1 .7a350.6 350.6 0 0 1-10.8 7.2h-.2a258.6 258.6 0 0 1-3.6 2.4l-1.5.9-1.5 1-1.9 1v-3.3l.1-4.3.3-20.2 1-16.1 6-95.5.9-15 .2-3.5 2.7-42.9.9-14.7 2-33.2 1-15.1.9-14.6v-.6l.1-1.3v-.9l1.1-17v-.6l.8-12 1-17.4.8-10.9.7-12.2.6-9.9.2-2.2.3-6v-.2l2.4-37.1.6-9.7.6-10.1.4-7 .9-14.1 1-15.1.3-6 1.3-21.1.8-11.8.7-11.8 1-17.3.8-11.5.4-7 3.1-50.3.2-2.1.3-4.8 1-16.3-21.7-37.2 1.6-25.6.4-6.9 4.6-73.3.1-2.2.3-4.1C650 1.9 666 3.5 677 13.6l.3 70.1v7l6.4 76.7v9.3l2.6 130.7v6l4.4 93.3v6l2.4 64.6V497L704 678.6Z"/><path fill="#2f2e41" d="M620 768.5a277 277 0 0 1-3.5 2.3h-.2a258.6 258.6 0 0 1-3.6 2.4l-1.5.9-1.5 1-1.9 1-4.1 2.5-1.5.9-1.5.9h-.1l-4.2 2.4-3.5 1.9-8.1 4.3-5.7 3-3.5 1.6-3 1.4-.8.4-1.3.6-1 .6-2.7 1.2a375.8 375.8 0 0 1-14.2 6.1 392.1 392.1 0 0 1-41.3 14.3l-2 .5q-9 2.5-18 4.6-16 3.7-32.2 6l-4 .6a3.7 3.7 0 0 1-.3 0l-4.3.6h-.3a497.5 497.5 0 0 1-8.4 1l-6.7.6h-.1l-2.6.2q-15.6 1.2-31.4 1.2-17.2 0-34-1.4h-.1l-7.2-.7c-.6 0-1.2 0-1.9-.2h-1.2l-2.5-.4c-1 0-1.9-.2-2.8-.3l-2.8-.4h-.6a66.1 66.1 0 0 1-5-.7 395.2 395.2 0 0 1-60.3-13.6l-3.2-1-1-.3-8.3-2.8-11.3-4-3-1.3-6-2.4q-5.2-2-10.3-4.3l-8-3.7-1.4-.6a1 1 0 0 1-.3-.1l-2-1h-.1l-10.5-5.3q-6.4-3.3-12.8-6.9l-10.4-6-12-7.6Z"/><ellipse cx="257.6" cy="51.8" fill="#fff" rx="2" ry="2.3"/><ellipse cx="379.1" cy="54.7" fill="#fff" rx="2" ry="2.3"/><ellipse cx="454.1" cy="57" fill="#fff" rx="2" ry="2.3"/><circle cx="559.6" cy="352" r="2" fill="#fff"/><circle cx="438.1" cy="239.5" r="2" fill="#fff"/><circle cx="337.6" cy="342" r="2" fill="#fff"/><circle cx="320.6" cy="237" r="2" fill="#fff"/><circle cx="186.6" cy="216" r="2" fill="#fff"/><path fill="#b3b3b3" d="M641.7 626.4h2l3 110h-2zm31-431h2l3 201.8h-2z"/><path fill="#f2f2f2" d="M606 404h-28.2a4.4 4.4 0 0 0-3.3 1.6 6.3 6.3 0 0 0-1.2-.2 6.7 6.7 0 1 0 0 13.4 6.6 6.6 0 0 0 2.9-.6l.4 5.7 2 23a4.2 4.2 0 0 0 .3.7 4.4 4.4 0 0 0 3.8 2.3h18.4a4.4 4.4 0 0 0 3.9-2.3 4.5 4.5 0 0 0 .3-.8l5-37a4.4 4.4 0 0 0-4.3-5.8Zm-32.7 13a4.8 4.8 0 0 1 0-9.6h.2a4.4 4.4 0 0 0 0 2.3l2.1 6.6a4.7 4.7 0 0 1-2.3.6Z"/><path fill="#2f2e41" d="m596.3 782.8-4.7-8.6 2.4-1 1.8-1 8-3.7 5-2.3 2-1 1.5-.7 2.7 4 1.3 2 .2.3a.7.7 0 0 0-.1 0h-.1c-1 .7-1.8 1.3-2.8 1.8l-.8.6-1.5.9-1.5 1-6 3.5-1.5.9-1.5.9h-.1l-4.3 2.4Z"/><g fill="#fff" opacity=".5"><path d="M591.6 389a8 8 0 0 0 .6-1 6.5 6.5 0 0 1-1 .4Z"/><path d="M594.2 368.6c-1.8-3.5-3.8-6.9-4.6-10.7-.7-3.8 0-7.8.2-11.7.2-3.9 0-8-2.3-11.2-3.1 9.7-6.2 20.4-2.2 29.8 1.7 4.1 4.6 7.6 6.5 11.6 1.7 3.6 2.4 8.2.4 11.6 3.2-1.3 5.2-4.9 5.3-8.4.1-3.9-1.5-7.6-3.3-11Z"/></g><path fill="#fff" d="M588.2 402a3.1 3.1 0 0 0 .2-.4 2.5 2.5 0 0 1-.4.1Zm1-8a15.4 15.4 0 0 1-1.8-4.1 18.7 18.7 0 0 1 0-4.5 6.8 6.8 0 0 0-.8-4.4c-1.2 3.8-2.4 8-.9 11.6.7 1.6 1.8 3 2.6 4.5a5.1 5.1 0 0 1 .1 4.5 3.7 3.7 0 0 0 2-3.3 8.8 8.8 0 0 0-1.2-4.3Z" opacity=".5"/><path fill="#2f2e41" d="M196.2 94.9h-63a7 7 0 1 1 0-14h63a7 7 0 0 1 0 14Zm540.1-80.5h-661a7 7 0 0 1 0-14h661a7 7 0 0 1 0 14ZM174.2 164.9h-63a7 7 0 0 1 0-14h63a7 7 0 0 1 0 14Zm502-70h-63a7 7 0 1 1 0-14h63a7 7 0 0 1 0 14Zm25 67h-63a7 7 0 0 1 0-14h63a7 7 0 0 1 0 14Z"/><path fill="#b3b3b3" d="M134.7 186.4h2l3 201.8h-2zm20 232h2l3 201.8h-2zm-22 171h2l3 110h-2z"/><path fill="#2f2e41" d="M533 659.7V656a5.7 5.7 0 0 0-5.3-5.7v-14.9h-1.3v14.9h-5.7v9.5h-26.9V769h59.6v-87.8a21.5 21.5 0 0 0-20.3-21.5Z"/><path fill="#fff" d="M503.6 675.2h7.9v6.3h-7.9zm13 0h7.9v6.3h-7.9zm13 0h7.9v6.3h-7.9zm-26 16.2h7.9v6.3h-7.9zm13 0h7.9v6.3h-7.9zm13 0h7.9v6.3h-7.9zm-26 16.1h7.9v6.3h-7.9zm13 0h7.9v6.3h-7.9zm13 0h7.9v6.3h-7.9zm-26 16.2h7.9v6.3h-7.9zm13 0h7.9v6.3h-7.9zm13 0h7.9v6.3h-7.9zm-26 16.1h7.9v6.3h-7.9zm13 0h7.9v6.3h-7.9zm13 0h7.9v6.3h-7.9zm-26 16.2h7.9v6.3h-7.9zm13 0h7.9v6.3h-7.9zm13 0h7.9v6.3h-7.9z"/><path fill="#2f2e41" d="M474 606.5h-1.8v-11.2a5.7 5.7 0 0 0-5.8-5.8h-7.9v-16.1h-1.2v16.1h-10.8v17h-10.6V769h59.5V628a21.5 21.5 0 0 0-21.4-21.5Z"/><path fill="#fff" d="M452.8 619.3h25.7v1.9h-25.7zm0 11.7h25.7v1.9h-25.7zm0 11.8h25.7v1.9h-25.7zm0 11.7h25.7v1.9h-25.7zm0 11.7h25.7v1.9h-25.7zm0 11.7h25.7v1.9h-25.7zm0 11.7h25.7v1.9h-25.7zm0 11.8h25.7v1.9h-25.7zm0 11.7h25.7v1.9h-25.7zm0 11.7h25.7v1.9h-25.7zm0 11.7h25.7v1.9h-25.7zm0 11.7h25.7v1.9h-25.7zm2.6-155.2h7.9v6.3h-7.9z"/><path fill="#2f2e41" d="M716.9 670.3v9.3l-4.4 5.5-1 1.2-1.4 1.7-.5.6a325 325 0 0 1-2.5 3l-2.5 2.9a97.5 97.5 0 0 1-3.5 4v-28.2Z"/><path fill="#2f2e41" d="m737.4 650.9-8 11.9-5.1 7-3.3 4.5-3.4 4.3-.7 1-4.4 5.5-1 1.2-1.4 1.7-.5.6a325 325 0 0 1-2.5 3l-2.5 2.9-1.3 1.5h-32.7a13.1 13.1 0 0 1-13.1-13.1v-19a13.2 13.2 0 0 1 13.1-13Z"/><path fill="#2f2e41" d="M754.7 489a19 19 0 0 0-6.3-1h-5.3a19.7 19.7 0 0 0-5.8.8 19.4 19.4 0 0 0-13.6 18.5v159.5a18.4 18.4 0 0 0 .6 3l5-7q4.2-5.9 8.1-12l4.2-6.5a398.4 398.4 0 0 0 26.2-49.6v-87.4a19.4 19.4 0 0 0-13.1-18.3Z"/><path fill="#ffb6b6" d="m521.4 782.3-13.6-6.5 18.7-56.9 20.1 9.6-25.2 53.8zm91.3-9.1a296.5 296.5 0 0 1-12 7.2h-.1l-1.6.4-2.2-5.8-1-2.7-1.4-3.8-2.7-7-13.9-36.7 21.6-5.3.8 3.3.5 1.6 7.5 30.6 1.5 6.3.1.2 1 3.7.7 3.3 1 3.6ZM557.6 535a14.2 14.2 0 0 0 19.2 4.8 13.6 13.6 0 0 0 1.8-1.3l43 24.7-1.8-25.3-40.6-19.6a14.1 14.1 0 0 0-17.1-2.2 13.6 13.6 0 0 0-4.7 18.6q0 .2.2.3Z"/><path fill="var(--background-secondary)" d="m603.2 554 7.6 4.6 34.1 20.8a20.1 20.1 0 0 0 27.8-6.4 19.7 19.7 0 0 0 2.5-14L660 483.3a21 21 0 0 0-27.6-16 20 20 0 0 0-12.6 24.4l15.8 53.8-24.3-11.3Z"/><path fill="#2f2e41" d="M743.3 628.7v-.3h-.1l-.3-1.3a269.8 269.8 0 0 0-7.8-30 92 92 0 0 0-7.5-17.3c0-.2-.2-.4-.3-.5l-.4-.6-3 1.1h-.2l-47.3 17.4-13.7 5-.4.1-2.3 9.5-32.7-4.2-26.6-3.4-7.7-1a25.2 25.2 0 0 0-18.8 5.1 26.2 26.2 0 0 0-10 17.6l-.1 2.3-2.4 86.2v.1l1.1 2.2 22.4 44.8h32l-15.4-39.1.3-.5a17.2 17.2 0 0 0 1.8-15.3l1.7-5c3.6-10.4 2-15.4-.2-21.7a53.7 53.7 0 0 1-3.4-16l-.4-7.2c9.1 1.6 17.6 3.4 25.7 5.1l8 1.8c7.7 1.7 15 3.4 22.2 4.7a162.7 162.7 0 0 0 43.6 3.4 110.6 110.6 0 0 0 16.5-2.7c.6 0 1.2-.2 1.7-.4a19.4 19.4 0 0 0 4.5-1.8 29.2 29.2 0 0 0 5.5-4q4.2-5.9 8.1-12l4.2-6.5a28 28 0 0 0 1.7-15.6Z"/><path fill="#2f2e41" d="M743.6 612.5a26 26 0 0 0-.5-1.9 136.8 136.8 0 0 0-5.6-14c-2.3-5.2-5.2-10.8-8.5-16.8l-5.3-9.1-3-4.8a2.5 2.5 0 0 0 0-.3l-.4-.4-46.7 6.2-17.5 2.3-1 8.7-.2 2.2-.7 5.8-1 7.8-25.9-3.4-26.6-3.4-14.4-1.9a25.2 25.2 0 0 0-18.7 5.2 26.2 26.2 0 0 0-10 17.6l-.2 2.1-13.5 32a206.4 206.4 0 0 0-15.3 60l-9.9 31.7 1.5.2 21 2 5.5.4 12.2-17.8a94 94 0 0 0 4-6.2 95 95 0 0 0 5.3-10.9l26.4-62.8 6 1q14 2.3 26.7 3.7c27.7 3 51.6 3.3 73 .7q9-1.1 17.3-2.9 3.1-.6 6.1-1.4c.5 0 1-.2 1.4-.3a25.5 25.5 0 0 0 17.8-16.7 26 26 0 0 0 .7-14.6Z"/><ellipse cx="644.1" cy="390.6" fill="#ffb6b6" rx="32.4" ry="33.1"/><path fill="var(--background-secondary)" d="m721 567-.2-1.1c-.8-4.1-2.8-8-4.7-12a40.7 40.7 0 0 1-4.3-10.6c-.8-3.4-.3-6.8 0-10 .5-3.7 1-7.4 0-11a266.7 266.7 0 0 0-21.5-52.8 40.2 40.2 0 0 0-33.3-28 9.5 9.5 0 0 0 1-5.5 9.3 9.3 0 0 0-3.3-6.3 9 9 0 0 0-6.6-2l-15 1.8a9.2 9.2 0 0 0-8 10.2 10 10 0 0 0 .4 2.1c-14 17.8-21.1 34-21.8 49.3a52.2 52.2 0 0 0 0 5.4 53 53 0 0 0 3.7 16.6 71.1 71.1 0 0 0 10 17.2l2.6 3 2.8 3.2 2.7 4.2 2.4 3.8 13.1 30.2 6.7-.2 1 6.7.1 1.5 4.3 15.5.4 1.1 5.9-2.8 35.2-16.7 26.4-12.5Z"/><path d="M806.8 546.2a70.8 70.8 0 0 0 12.5 20.1l2.9 3.2 5.1 8c18.9-14 34.2-69.8 34.2-69.8l-21.3-4.1Z" opacity=".2" style="isolation:isolate" transform="translate(-199 -33.2)"/><path fill="#ffb6b6" d="M595 426.8a14.2 14.2 0 0 1-5 19.2 13.6 13.6 0 0 1-2 1l1.5 49.6-21.5-13.5 1.9-45a14.2 14.2 0 0 1 6.1-16.3 13.6 13.6 0 0 1 18.7 4.6l.1.4Z"/><path fill="var(--background-secondary)" d="m591.5 477.9-23.6 3.3 1 49a20.5 20.5 0 0 0 10 17.2 19.6 19.6 0 0 0 23.4-2.7l55.8-53.6a21.1 21.1 0 0 0 1.6-29 20 20 0 0 0-28.3-2.4l-.5.4a20.6 20.6 0 0 0-1.5 1.6L592.5 504Z"/><path fill="#2f2e41" d="m525.8 773-14.8-7-2.3-1.1-3.7 9-25.7 5.7a6.1 6.1 0 0 0-1 11.6l25.1 10.3 8-7.2-2 9.7 9.6 3.8 10.3-33Zm204.9-396.8c-5.5-6.4-8.1-14.9-12.5-22.2-4.4-7.3-12-13.8-20.1-12-5.6 1-10 6-12 11.5a57 57 0 0 0-3 17.4c0-12.1-8-24-19-27.8-11-3.9-24.3.4-31.2 10.2a16.9 16.9 0 0 0-22.4-.5c-6.2 5.6-7.6 16.2-3 23.2s14.4 9.7 21.7 5.8l2.6 2.4a11 11 0 0 0 6 12.9c3.8 1.5 9.2 1.3 10.7 5.3 1 2.8-1 5.8-2.9 8-2 2-4.3 4.3-4.6 7.3-.3 4.5 4.3 7.6 8.5 8.6a26.5 26.5 0 0 0 27.3-11.4l.4-.6a39.3 39.3 0 0 0 8-30c-.4-2 0-3.6 1.3-4.1 6.2-2.1 23.5 2.3 28.8 6.4 5.2 4 9.4 9.3 14.5 13.6 5 4.3 11.5 7.6 17.9 6.4 5.1-1 9.5-4.6 12.4-9.1 3-4.5 4.6-9.8 6.2-15a29 29 0 0 1-35.6-6.3Z"/><path fill="#2f2e41" d="M628.6 762.7v.3h-.3l-1 .6-7.2 4.9-3.6 2.3h-.2V586c0-5.3-1.8-9.7-4-9.7H445.8c-2.2 0-4 4.4-4 9.7v245.5l-6.7.6h-.1l-2.7.2-1.5-3V573.5l.1-4.4a56.9 56.9 0 0 1 .8-6c1.7-9.3 5.5-15.6 9.8-15.6h175a4.7 4.7 0 0 1 1.9.4 7.2 7.2 0 0 1 2.2 1.5 14 14 0 0 1 2.3 3c2.1 3.9 3.6 9.5 4.2 16v.2l.2 5 .1 21.4.1 12.7.3 40.1V662Zm-131-274.8-11.6 51-7.4 8.1h-5.3l22-92.7 1.1 15.8 1.2 17.8z"/><path fill="#2f2e41" d="m553.3 540-67.9-.4h-6l-4.3-.1h-5a2.8 2.8 0 0 0-2 .8l-8.5 8.4a2.2 2.2 0 0 0-.4.7 1 1 0 0 0-.2.2 2.8 2.8 0 0 0 2.6 4h88a2.8 2.8 0 0 0 2.5-1.7l.7-1.5 1.4-3 1.6-3.5a2.7 2.7 0 0 0 .3-1.1 2.8 2.8 0 0 0-2.8-2.8Z"/><path d="m751.8 583.6-.7 1.5a2.8 2.8 0 0 1-2.5 1.6h-88a2.8 2.8 0 0 1-2.6-3.9.8.8 0 0 1 .2-.2Z" opacity=".2" style="isolation:isolate" transform="translate(-199 -33.2)"/><path d="M496.4 470.1 477.5 547h-4.2l22-92.7 1.1 15.8z" opacity=".2" style="isolation:isolate"/><path fill="#2f2e41" d="m519.5 484.2-26.7-203a2.9 2.9 0 0 0-1-1.9l-18.4-23-1.7-1.2a3 3 0 0 0-2.1-.6l-2.8.4a2.9 2.9 0 0 0-2.5 3.2L492 468.4l1.7 12.8 2 15.3 3 23.8a2.8 2.8 0 0 0 1.3 2 2.9 2.9 0 0 0 2.4.4l1.7-.4a3 3 0 0 0 1.7-1.2l.8-1 .3-.6 12.1-33.3a2.9 2.9 0 0 0 .5-2Z"/><path d="m672.4 289.6 33.5 263.1-.3.6-.8 1a3 3 0 0 1-1.7 1.2l-1.7.4a3 3 0 0 1-3.6-2.4l-34.5-262.2a2.9 2.9 0 0 1 2.5-3.2l2.8-.4a2.9 2.9 0 0 1 2.1.6Z" opacity=".2" style="isolation:isolate" transform="translate(-199 -33.2)"/><path fill="var(--accent)" d="m474.4 263.9 17.8 25.4 21.1 161-11.4 22.7-27.5-209.1z"/><path fill="#2f2e41" d="M743.1 588.5a8.7 8.7 0 0 1-5.6 8 8.5 8.5 0 0 1-2.4.6h-17.5v81.5l-.7 1-4.4 5.5-1 1.2-1.4 1.7-.5.6a325 325 0 0 1-2.5 3l-2.5 2.9a8.5 8.5 0 0 1-3.5-3.7.5.5 0 0 1 0-.1 8.5 8.5 0 0 1-.8-3.8v-89.7h-37.7a8.4 8.4 0 0 1-3.2-.7 8.7 8.7 0 0 1-5.2-6 8.6 8.6 0 0 1 .7-6 8.2 8.2 0 0 1 1.5-2 8.7 8.7 0 0 1 6.2-2.7h71.8a8.7 8.7 0 0 1 8.7 8.7Zm-.6-167.4a27.2 27.2 0 0 0-27.2 27.3 27.2 27.2 0 0 0 22 26.7v44.5h17.4V421Z"/><path fill="#fd6584" d="M632.5 351.8c7.5 10 17.2 33.8 13.7 45.6"/></svg>