<svg xmlns="http://www.w3.org/2000/svg" data-name="Layer 1" viewBox="0 0 864.7 644.3"><path fill="#f2f2f2" d="M828.5 559.3c1-28.4-12-56.7-37.4-66.4 6 29 1 61.8-14.1 90.5-5.9 11.2-13.5 23.1-11.4 34.5A24.2 24.2 0 0 0 778 634a76 76 0 0 0 20 7l1.3 1.1c15.5-25.9 28.3-54.4 29.2-82.8Z"/><path fill="#fff" d="M790.8 493.4a99.8 99.8 0 0 1 17.8 63.9 51.4 51.4 0 0 1-3 15.2 33.5 33.5 0 0 1-8.8 12.8c-3.7 3.3-7.7 6.4-10.5 10.5a18.2 18.2 0 0 0-3 13.9c1 5.7 4.1 10.3 7.4 14.8 3.5 5 7.4 10 8.2 16.4 0 .8 1.3.4 1.2-.3-1.4-11.3-11.2-17.8-14.7-28a17.4 17.4 0 0 1 1.2-15.2c2.6-4.3 6.8-7.5 10.5-10.8a36 36 0 0 0 9-12.3 48.3 48.3 0 0 0 3.6-15 103.6 103.6 0 0 0-2.7-33.4 96.8 96.8 0 0 0-15.2-33.4c-.5-.6-1.4.3-1 1Z"/><path fill="#fff" d="M809.4 549.7a20.1 20.1 0 0 0 15.5-17.5c0-.8-1.2-.8-1.3 0a18.6 18.6 0 0 1-14.4 16.3.6.6 0 1 0 .2 1.2Zm-10.6 34.1a27 27 0 0 1-11.4-19c-.2-.8-1.4-.4-1.3.3a28.2 28.2 0 0 0 12 19.8c.6.4 1.3-.7.7-1.1Zm3.8-68.9a9.2 9.2 0 0 1-8.8-.6c-.7-.5-1.4.6-.8 1a10.2 10.2 0 0 0 9.8.8.8.8 0 0 0 .6-.8.5.5 0 0 0-.8-.4Z"/><path fill="#f2f2f2" d="m701.6 542.2 1.2.9a101.7 101.7 0 0 1 14 12.8l1 1.1a110.2 110.2 0 0 1 22.2 40 115.9 115.9 0 0 1 4.2 18.4c1.2 8.7 1.8 18.3 5.8 25.4a18.1 18.1 0 0 0 1.4 2.2l46 .8.4-.2 1.8.2v-1.6l-.1-.4v-.4l-.6-5.8c-1.5-14.6-4.3-29-9.2-42.2l-.5-1.2a103.1 103.1 0 0 0-8.3-17 88.7 88.7 0 0 0-5.8-8.3 73.2 73.2 0 0 0-19.8-17.4 66.7 66.7 0 0 0-53.7-7.3Z"/><path fill="#fff" d="M701.6 542.8a93 93 0 0 1 54.6 34.8 40.4 40.4 0 0 1 6.7 12.6 27.3 27.3 0 0 1-.1 14.5c-1.1 4.6-2.8 9.2-2.9 13.9a14.4 14.4 0 0 0 5.8 11.7 38 38 0 0 0 15.6 6c6.1 1.4 12.6 2.7 17.3 6.8.5.5 1.4-.5.8-1-8.1-7.2-20.7-5.9-30-11-4.4-2.4-7.8-6.2-8.2-11.6-.3-4.6 1.5-9.4 2.7-14a29.6 29.6 0 0 0 .6-14.3 37.7 37.7 0 0 0-6.1-13 88.3 88.3 0 0 0-22.7-22 97.5 97.5 0 0 0-33.8-14.6c-.7-.2-1 1-.3 1.2Z"/><path fill="#fff" d="M752.3 571.6c6.2-6.3 7.5-15.6 3-21.9-.4-.6-1.5.2-1 .8 4.1 5.9 2.9 14.5-2.9 20.4-.6.6.3 1.3 1 .7Zm11.4 30.8a28.7 28.7 0 0 1-21.7-6.6c-.6-.5-1.4.5-.9 1a30 30 0 0 0 22.6 6.8c.8 0 .8-1.3 0-1.2Zm-38.5-51.5a11.3 11.3 0 0 1-8.3 5c-.8 0-.7 1.3 0 1.2a12.7 12.7 0 0 0 9.2-5.5.6.6 0 0 0 0-.8.7.7 0 0 0-1 .1Z"/><path fill="#3f3d56" d="m688 527-2-.3V481h-66v3.7h-29.8a13.2 13.2 0 0 0-13.1 13.1v19a13.1 13.1 0 0 0 13.1 13l30.5.1h27.6l37.4.1h3.2c.5-.5-1.4-2.5-1-3Z"/><path fill="#3f3d56" d="M688.6 527.8c-2.2 3.2-4 3.1-5.5 1a16.5 16.5 0 0 1-2-3.8c-4.6-12-7.7-39.7-16.6-30l-5.3 5.7-10.2 10.6v-.4c-1.6 1.7-.4-12.6-1-16.7-.2-.8-.4-1.2-.8-.9v-1.2a16.4 16.4 0 0 1 0-1.8l.3-1.8 29-155a19.4 19.4 0 0 1 16.8-15.7 20 20 0 0 1 5.8.2l5.3 1a19.2 19.2 0 0 1 6 2.1 19.4 19.4 0 0 1 9.5 20.5Z"/><path fill="#a0616a" d="m441 616.2-13.6-6.5 18.7-56.9 20.1 9.6-25.2 53.8zm91.3-9.2a296.5 296.5 0 0 1-12 7.2h-.1l-1.6.4-2.2-5.8-1-2.7-1.4-3.8-2.7-7-13.9-36.7 21.6-5.3.8 3.3.4 1.6 7.6 30.7 1.5 6.2v.2l1 3.8.8 3.2 1 3.6Z"/><path fill="#2f2e41" d="m661.2 478.1-4.2 6.6-8 12a28.2 28.2 0 0 1-5.4 3.8l-.2.2a19.5 19.5 0 0 1-4.5 1.7l-1.7.5a112.8 112.8 0 0 1-16.5 2.6h-.8a159 159 0 0 1-42.8-3.4 714.7 714.7 0 0 1-29.6-6.3l-.6-.1a832.1 832.1 0 0 0-25.7-5.2l.4 7.2a53.7 53.7 0 0 0 3.4 16c2.1 6.3 3.8 11.3.2 21.7l-1.7 5a17.2 17.2 0 0 1-1.8 15.3l-.3.5 14.5 36.7 1 2.4h-32.1l-22.4-44.8-1-2.2 2.3-86.2.1-2.3a26.2 26.2 0 0 1 10-17.7 25.2 25.2 0 0 1 18.8-5.1l7.7 1 15.6 2 11 1.4h.2l32.5 4.3 2.3-9.5.4-.2 13.7-5 47.3-17.3h.1l3.1-1.2.4.6.3.5a92.7 92.7 0 0 1 7.5 17.4 272.2 272.2 0 0 1 7.8 30l.3 1.1v.4a27 27 0 0 1-1.6 15.6Z"/><path fill="#2f2e41" d="M663.2 446.4a26 26 0 0 0-.6-2 136.8 136.8 0 0 0-5.5-14c-2.4-5.2-5.2-10.7-8.6-16.8q-2.4-4.4-5.2-9l-3-5a2.5 2.5 0 0 0 0-.1l-.4-.5-46.7 6.2-17.5 2.4-1 8.7-.3 2.1-.7 5.9-.9 7.7-26-3.3-26.6-3.5-14.3-1.8a25.2 25.2 0 0 0-18.8 5.1 26.2 26.2 0 0 0-10 17.6l-.1 2.2-13.5 32a206.4 206.4 0 0 0-15.3 60l-9.9 31.7h1.4l21 2 5.6.6 12.2-17.9a94 94 0 0 0 4-6.2 95 95 0 0 0 5.3-10.9l26.4-62.8 6 1q14 2.3 26.7 3.7c27.7 3.1 51.6 3.3 73 .7q9-1 17.3-2.9l6-1.3 1.5-.4a25.5 25.5 0 0 0 17.8-16.7 26 26 0 0 0 .7-14.5ZM445.4 606.9l-14.8-7-2.3-1.2-3.7 9-25.7 5.7a6.1 6.1 0 0 0-1 11.7l25.1 10.2 8-7.1-2 9.6 9.5 3.9 10.4-33.1Zm90.5-14 .9 2.4h-.9v-2.4z"/><path fill="#3f3d56" d="M359.9 419.9c0-5.4-1.8-9.8-4-9.8H189.4c-2.2 0-4 4.4-4 9.8v220.6a2 2 0 0 1-1.8 2l-4.9.4h-.1l-2.7.2-1.3-2.5a2 2 0 0 1-.2-1V407.3l.1-4.4a56.9 56.9 0 0 1 .8-6c1.7-9.3 5.5-15.6 9.8-15.6h175a4.7 4.7 0 0 1 1.9.4 7.2 7.2 0 0 1 2.2 1.6 14 14 0 0 1 2.3 3c2.1 3.8 3.6 9.4 4.2 16v.1l.2 5 .1 21.4.1 12.8.3 40v14.3L372 642a2 2 0 0 1-2 2h-8a2 2 0 0 1-2-2Zm-118.7-98.2-11.6 51-7.4 8.1h-5.3l22-92.6 1.1 15.7 1.2 17.8z"/><path fill="#3f3d56" d="m297 373.8-68-.4h-10.3l-5-.1a2.8 2.8 0 0 0-2 .8l-8.5 8.4a2.2 2.2 0 0 0-.4.7 1 1 0 0 0-.2.2 2.8 2.8 0 0 0 2.6 4h88a2.8 2.8 0 0 0 2.5-1.7l.7-1.5 1.4-3 1.6-3.4a2.7 2.7 0 0 0 .3-1.2 2.8 2.8 0 0 0-2.8-2.8Z"/><path d="m463.7 511.8-.7 1.5a2.8 2.8 0 0 1-2.5 1.6h-88a2.8 2.8 0 0 1-2.6-4 .8.8 0 0 1 .2-.1Z" opacity=".2" style="isolation:isolate" transform="translate(-167.3 -127.6)"/><path d="m240 303.9-18.9 76.9h-4.2l22-92.6 1.1 15.7z" opacity=".2" style="isolation:isolate"/><path fill="#3f3d56" d="m263.1 318-26.7-203a2.9 2.9 0 0 0-1-1.8l-18.4-23-1.7-1.3a3 3 0 0 0-2.1-.6l-2.8.4a2.9 2.9 0 0 0-2.5 3.2l27.7 210.3 1.6 12.9 2 15.2 3.2 23.8a2.8 2.8 0 0 0 1.2 2 2.9 2.9 0 0 0 2.4.4l1.7-.4a3 3 0 0 0 1.7-1.1l.7-1.1.4-.6 12-33.3a2.9 2.9 0 0 0 .6-2Z"/><path d="m384.3 217.8 33.5 263.1-.4.5-.7 1.1a3 3 0 0 1-1.7 1.2l-1.7.4a3 3 0 0 1-3.6-2.4l-34.5-262.2a2.9 2.9 0 0 1 2.5-3.2l2.8-.4a2.9 2.9 0 0 1 2.1.6Z" opacity=".2" style="isolation:isolate" transform="translate(-167.3 -127.6)"/><path fill="var(--accent)" d="m218 97.7 17.8 25.4 21.1 161-11.5 22.8L218 97.7z"/><path fill="#3f3d56" d="m600.6 642.3-12.2.3 33.9-117.9 12.2 3.7-33.9 113.9zm80 .2-12.2-.2L635 530l-.5-1.5 7.8-2.4 4.8.1 1.2 3.8Z"/><path fill="#2f2e41" d="m530.8 595.8-15.5 5.4-2.4.8 3.7 9-14.3 22.2a6.1 6.1 0 0 0 7.5 9l25.1-10.5.6-10.7 5.4 8.3 9.5-4-15.9-30.8Z"/><path fill="#a0616a" d="M437 265a11 11 0 0 0 16.5 3.7l32.4 21.5V270l-30.7-17.4A11 11 0 0 0 437 265Z"/><path fill="#e6e6e6" d="m461.3 274.3 15.2-17.2 61.6 36.6 81.7-7.5a27.6 27.6 0 0 1 30 30 27.7 27.7 0 0 1-30 25l-92-8.5Z"/><path fill="#e6e6e6" d="m651 274.6-.1-.2-38.7-3.8-26 46c-22.5 27.4-6.2 46.3-5.2 49.1l-7.8 36 1.7 12 1 3.5 88.8 46.5-18.3-61 17.9-55.4a78.2 78.2 0 0 0-13.3-72.7Z"/><path fill="#2f2e41" d="M693.3 234.1v1.5a33.6 33.6 0 0 1-44 31.8l-6-2h-.2l-10.2-3.4a7 7 0 0 1 0-1.2c-15.2-6.5 5.8-27.8 11-43.8.8-2.5-27-.6-25.7-2.8l-.8-.4a41.2 41.2 0 0 1 45.5-17.8l.6.2c19.8.5 30.2 14.3 30.2 32.2a49 49 0 0 1-.4 5.7Z"/><path fill="#a0616a" d="M676.2 241.1a32.2 32.2 0 0 1-40.6 20.7l-2.7-1a32.2 32.2 0 0 1-18-39.6 31.9 31.9 0 0 1 3.3-7 32.2 32.2 0 0 1 58 27Z"/><path fill="#2f2e41" d="M643.2 265.4h-.1l-10.2-3.4a7 7 0 0 1 0-1.2c.3-3.4 2.7-6.9 5.8-10.7a19.5 19.5 0 0 0-8.5-31h-.3a90.2 90.2 0 0 1-11.7-4.9l-.8-.4a14 14 0 0 1-5.2-4.2 29.7 29.7 0 0 1 37.5-19l5.9 2a29.6 29.6 0 0 1 17.2 14.5c4.1 3 7.4 7.4 10 12.6 12.9 26-12 54.6-39.6 45.7Z"/><path fill="#3f3d56" d="M662.7 422.3a8.7 8.7 0 0 1-5.6 8.1 8.5 8.5 0 0 1-2.4.6h-17.5v81.4l-.7 1a329 329 0 0 1-4.4 5.5l-1 1.2-1.4 1.8-.5.6-2.5 2.9-.4.5-2 2.4a8.4 8.4 0 0 1-2.5-2 8 8 0 0 1-1-1.7.5.5 0 0 1-.1-.1 8.5 8.5 0 0 1-.8-3.8V431h-37.7a8.4 8.4 0 0 1-3.2-.6 8.6 8.6 0 0 1-5.2-6.1 8.6 8.6 0 0 1 .7-5.9 8 8 0 0 1 1.5-2.1 8.7 8.7 0 0 1 6.2-2.7H654a8.7 8.7 0 0 1 8.7 8.7Zm47.8-168.1a27.2 27.2 0 0 0-31.8 21.7 27.2 27.2 0 0 0 16.8 30.3l-8.2 43.8 17 3.2 18.2-96.8Z"/><circle cx="685.9" cy="208" r="14" fill="#2f2e41"/><path fill="#2f2e41" d="M849.1 248.2c-6 2-12.5 2.4-19 2.5-18.6.3-37.7-1.3-54.6-9S743.9 219.1 740 201c-1.6-7.9-1.4-16.6-6.3-23-6-7.5-17.8-8.5-26-3.7s-13 14.2-14.4 23.6l-3.3 5.4c0 3.5 3.8 5.8 7.2 6 3.5.4 7-.5 10.4-.3 7.6.6 13.8 7 16 14.4s1.2 15.1-.7 22.5-4.6 14.6-5.7 22-.3 15.8 4 22c3.4 4.6 8.5 7.7 13.6 10.2a91.4 91.4 0 0 0 128.9-63.6 25 25 0 0 1-14.7 11.7Z"/><path fill="var(--shade)" d="M580.3 544.2h-28.5a6.5 6.5 0 0 1-6.4-5.6 145 145 0 0 1 0-39 6.5 6.5 0 0 1 6.3-5.6c9-4 18.6-4 28.7 0a6.4 6.4 0 0 1 5 2.4 6.6 6.6 0 0 1 1.3 5.4 87.7 87.7 0 0 0 0 34.6 6.6 6.6 0 0 1-1.4 5.5 6.4 6.4 0 0 1-5 2.3Z"/><path fill="#fff" d="M577.3 508.9h-24a1.5 1.5 0 0 1 0-3h24a1.5 1.5 0 0 1 0 3Zm0 12h-24a1.5 1.5 0 0 1 0-3h24a1.5 1.5 0 0 1 0 3Zm0 12h-24a1.5 1.5 0 0 1 0-3h24a1.5 1.5 0 0 1 0 3Z"/><path fill="#3f3d56" d="M239.6 226.4a1 1 0 0 1 1-.8l154.3.4a1 1 0 0 1 1 .8 1 1 0 0 1-1 .8l-154.3-.4a1 1 0 0 1-1-.8Z"/><path fill="var(--paragraph-secondary))" d="m280.4 321.4-6.6 7.2a2 2 0 0 1-2.2.3 6.6 6.6 0 0 1-2.8-2 95.9 95.9 0 0 0-15.7-14.2 6.6 6.6 0 0 1-2.1-2.6 2.1 2.1 0 0 1 0-2.2c0-4 2.3-6.4 6.6-7.2.8-.8 2.5-.5 4 .7a159.2 159.2 0 0 1 17.7 16c1.4 1.5 1.8 3.2 1.1 4Z"/><path fill="#fff" d="m263.6 306-5.6 6c-.1.2-.6 0-1-.3s-.5-.8-.3-1l5.5-6c.2-.2.6-.1 1 .2s.5.8.4 1Zm5.4 4.9-5.5 6c-.2.2-.7.1-1-.2s-.6-.8-.4-1l5.5-6c.2-.3.7-.2 1 .2s.6.8.4 1Zm5.4 4.9-5.5 6c-.2.3-.6.2-1-.2s-.5-.8-.3-1l5.5-6c.2-.2.6-.1 1 .2s.5.8.3 1Z"/><path fill="#ccc" d="M864.7 643.1a1.2 1.2 0 0 1-1.2 1.2H1.2a1.2 1.2 0 1 1 0-2.4h862.3a1.2 1.2 0 0 1 1.2 1.2Z"/><path fill="#a0616a" d="M588.7 507.8a11 11 0 0 0 2.7-16.6l19.6-33.7-20.2 1.2-15.5 31.8a11 11 0 0 0 13.4 17.3Z"/><path fill="#e6e6e6" d="m596.6 483-18.1-14 32.9-63.8-12.3-81.1a27.6 27.6 0 0 1 28.2-31.8 27.7 27.7 0 0 1 26.7 28.5l-3 92.4ZM439.7 282.3h-61.1a6.2 6.2 0 0 1-6.2-6.2v-81a6.2 6.2 0 0 1 6.2-6.1h61a6.2 6.2 0 0 1 6.2 6.2V276a6.2 6.2 0 0 1-6.1 6.2Z"/><path fill="#fff" d="M435.4 277.1h-52.5a5.5 5.5 0 0 1-5.5-5.5v-72a5.5 5.5 0 0 1 5.5-5.5h52.5a5.5 5.5 0 0 1 5.5 5.5v72a5.5 5.5 0 0 1-5.5 5.5Z"/><path fill="var(--paragraph-secondary))" d="M430.1 207.8h-42a1.4 1.4 0 1 1 0-2.7h42a1.4 1.4 0 1 1 0 2.7Zm0 5.4h-42a1.4 1.4 0 0 1 0-2.7h42a1.4 1.4 0 1 1 0 2.7Zm-23.8 5.5h-18.2a1.4 1.4 0 0 1 0-2.8h18.2a1.4 1.4 0 1 1 0 2.8Z"/><path fill="#e4e4e4" d="M430.1 230h-42a1.4 1.4 0 1 1 0-2.7h42a1.4 1.4 0 1 1 0 2.7Zm0 5.4h-42a1.4 1.4 0 1 1 0-2.7h42a1.4 1.4 0 1 1 0 2.7Zm-23.8 5.4h-18.2a1.4 1.4 0 0 1 0-2.7h18.2a1.4 1.4 0 0 1 0 2.7Zm23.8 11.4h-42a1.4 1.4 0 1 1 0-2.8h42a1.4 1.4 0 1 1 0 2.8Zm0 5.4h-42a1.4 1.4 0 0 1 0-2.7h42a1.4 1.4 0 1 1 0 2.7Zm-23.8 5.4h-18.2a1.4 1.4 0 0 1 0-2.7h18.2a1.4 1.4 0 1 1 0 2.7Z"/><path fill="#2f2e41" d="m231.7 174.5 164-140.2h.2v2h.5L233.1 176l-1.4-1.5z"/><path fill="#fff" d="M345 335.5h-75.5a4.4 4.4 0 0 0-4.4 4.4v47a4.4 4.4 0 0 0 4.4 4.4H345a4.4 4.4 0 0 0 4.5-4.5V340a4.4 4.4 0 0 0-4.5-4.4Z"/><path fill="#cacaca" d="M345 335.5h-75.5a4.4 4.4 0 0 0-4.4 4.4v47a4.4 4.4 0 0 0 4.4 4.4H345a4.4 4.4 0 0 0 4.5-4.5V340a4.4 4.4 0 0 0-4.5-4.4Zm1.4 33.7a18.3 18.3 0 0 1-18 18.2c-7.6 0 4.3.1-5 .1-21 0-43-.2-51.3-.3a4.1 4.1 0 0 1-4-4.2v-43a1.5 1.5 0 0 1 1.4-1.5H345a1.5 1.5 0 0 1 1.5 1.4Z"/><path fill="#cacaca" d="M335 365.4h-57.4a2.5 2.5 0 0 1-2.4-1.6l-8.8-24.9a2.5 2.5 0 0 1 2.3-3.3l77-.1a2.5 2.5 0 0 1 2.3 3.4h-.2.2l-10.8 25a2.5 2.5 0 0 1-2.2 1.5Z"/><circle cx="307.2" cy="365.4" r="6.1" fill="#3f3d56"/><path fill="#e6e6e6" d="M142.1 612.4a33.1 33.1 0 0 1-15 22 39.5 39.5 0 0 1-5.7 3.3 50.5 50.5 0 0 1-6.9 2.5c-10.3 3-21.4 3.1-32.2 3.2l-32.9.2c-8.6 0-17.5 0-25.5-3.2a3.7 3.7 0 0 1-.3-.2C15.7 636.8 9 629.4 9.2 621a17.4 17.4 0 0 1 2.5-8.5 24.9 24.9 0 0 1 3.6-4.8c4.4-4.5 10.4-8 16-10.8C40.6 592 51.2 586 54 576.4a17.2 17.2 0 0 0 .6-3c.6-6.6-2.6-12.7-6.7-18.1a58.8 58.8 0 0 0-4-5l-1.3-1.4a50 50 0 0 1-9.6-14.3 20.7 20.7 0 0 1-1.4-6.9c-.2-8.5 9.3-17 16.5-13l10.5-1 13-1.4 2.9-.2 26.8-2.7c4-.4 8.7-.6 11.3 2.5 2.8 3.3 1.4 8.6-1.4 12-2.8 3.3-6.7 5.7-9.3 9.2a20 20 0 0 0-3.2 15.8 28.3 28.3 0 0 0 1.2 4.7 31.8 31.8 0 0 0 4 7.8c6 8.2 14.7 14 22.4 20.5 7.7 6.5 15 14.8 16 24.9v.8a22.9 22.9 0 0 1 0 4.8Z"/><path fill="#e6e6e6" d="M79.2 520.8a113.7 113.7 0 0 1-19.7-26A116 116 0 0 1 48 464.2a111.4 111.4 0 0 1-2.4-33 115.4 115.4 0 0 1 23.9-61.8q1.2-1.7 2.6-3.2c1-1.2 2.6.5 1.7 1.7a112.8 112.8 0 0 0-25.5 59.5A112.1 112.1 0 0 0 81 519.2c1.1 1-.6 2.7-1.7 1.6Z"/><path fill="#e6e6e6" d="M68.5 371.5a28.9 28.9 0 0 0 2.8-1.2l.2.2Zm18.5-21a23 23 0 0 1-2.2 6.3 30.1 30.1 0 0 1-12.5 13l-1 .5-1-1.8a40.3 40.3 0 0 1-5.6-12.4 18 18 0 0 1 2.8-15.3c3.3-4.1 9.7-6 14.3-3.3a10 10 0 0 1 3.3 3.2l-1.4 1.7a1.7 1.7 0 0 1-.1.1l-1.2 1.5-5 6.2a31.6 31.6 0 0 0 7 .5h.7l1.8-.2Zm-33.8 41-.7 8.3-.1 2.3-.6-.3a48.8 48.8 0 0 1-25.4-31.2 47.4 47.4 0 0 1-1.3-7l9.7-1.6a32 32 0 0 0-9.6-8.3 48.3 48.3 0 0 1 8.7-23.2c.9 14 15.5 22.9 20.9 35.8a29 29 0 0 1-1.6 25.2Zm-2.8 73.2h-2.3a48.9 48.9 0 0 1-35.5-15.5A47.5 47.5 0 0 1 4 435.6h.2l9.7-1.6A31.8 31.8 0 0 0 .6 424a47.7 47.7 0 0 1-.2-13.7c7.3 12 24.5 12.9 35.3 21.7a29.1 29.1 0 0 1 10 16.9 27.4 27.4 0 0 1 .4 5v1.1l.3.5Zm32.2 13.8-6.2 7.7a31.7 31.7 0 0 0 7.7.4 48.9 48.9 0 0 1-12.8 21.7l-1.8 1.6c0 .2-.2.3-.3.4l-.6-1.6-3-8.4a29 29 0 0 1-7.8-14.2 28 28 0 0 1-.5-9.7c1.7-13.9 13.5-26.3 10.6-40A48.5 48.5 0 0 1 82.4 456l-5 6.2a31.6 31.6 0 0 0 7 .5A46.8 46.8 0 0 1 86 473v1.5l-3.2 3.9a1.7 1.7 0 0 1-.1.1ZM448.7 68.3h-61.1a6.2 6.2 0 0 1-6.2-6.2V6a6.2 6.2 0 0 1 6.2-6.1h61a6.2 6.2 0 0 1 6.2 6.2V62a6.2 6.2 0 0 1-6.1 6.2Z"/><path fill="#fff" d="M444.4 63.1h-52.5a5.5 5.5 0 0 1-5.5-5.5v-47a5.5 5.5 0 0 1 5.5-5.5h52.5a5.5 5.5 0 0 1 5.5 5.5v47a5.5 5.5 0 0 1-5.5 5.5Z"/><path fill="var(--paragraph-secondary))" d="M439.1 18.8h-42a1.4 1.4 0 1 1 0-2.7h42a1.4 1.4 0 1 1 0 2.7Zm0 5.4h-42a1.4 1.4 0 0 1 0-2.7h42a1.4 1.4 0 1 1 0 2.7Zm-23.8 5.5h-18.2a1.4 1.4 0 0 1 0-2.8h18.2a1.4 1.4 0 1 1 0 2.8Z"/><path fill="#e4e4e4" d="M439.1 41h-42a1.4 1.4 0 1 1 0-2.7h42a1.4 1.4 0 1 1 0 2.7Zm0 5.4h-42a1.4 1.4 0 1 1 0-2.7h42a1.4 1.4 0 1 1 0 2.7Zm-23.8 5.4h-18.2a1.4 1.4 0 0 1 0-2.7h18.2a1.4 1.4 0 1 1 0 2.7Z"/></svg>