<?xml version="1.0" encoding="UTF-8"?>
<svg id="Layer_2" data-name="Layer 2" xmlns="http://www.w3.org/2000/svg" viewBox="0 0 140 84.34">
  <defs>
    <style>
      .cls-1 {
        fill: #f00;
        stroke-width: 0px;
      }
    </style>
  </defs>
  <g id="Layer_1-2" data-name="Layer 1">
    <g>
      <path class="cls-1" d="M44.18,55.74l7.41,12.99H3.42c-2.62,0-4.27-2.83-2.96-5.11L35.93,1.66c1.26-2.2,4.43-2.21,5.71-.02l36.36,62.46c1.19,2.05-.29,4.63-2.66,4.63l-12.93-.1-23.57-42.46-16.8,29.44,22.15.13Z"/>
      <path class="cls-1" d="M108,49.31l7.59,12.88,23.95-41.79c1.3-2.28-.34-5.11-2.96-5.11l-71.4-.04c-2.54,0-4.12,2.74-2.86,4.94l36.11,62.61c1.19,2.06,4.16,2.05,5.34,0l6.35-11.26-25.11-41.57,33.9.06-10.91,19.28Z"/>
    </g>
  </g>
</svg>
