
<svg xmlns="http://www.w3.org/2000/svg" width="51" height="31" viewBox="0 0 51 31" fill="none">
  <g clip-path="url(#clip0_2073_16837)">
    <path d="M16.151 20.2975L18.8493 25.0277H1.30856C0.354508 25.0277 -0.246326 23.9972 0.2307 23.1669L13.1468 0.604704C13.6056 -0.196408 14.76 -0.20005 15.2261 0.597421L28.4663 23.3417C28.8996 24.0882 28.3607 25.0277 27.4976 25.0277L22.7893 24.9913L14.2065 9.52982L8.08888 20.2501L16.1546 20.2975H16.151Z" fill="#FF0000"/>
    <path d="M39.3908 17.9558L42.1546 22.6459L50.8758 7.42843C51.3492 6.59819 50.752 5.56767 49.798 5.56767L23.7983 5.5531C22.8733 5.5531 22.298 6.55085 22.7568 7.35196L35.906 30.1509C36.3393 30.901 37.4208 30.8974 37.8505 30.1509L40.1628 26.0506L31.0192 10.9133L43.3636 10.9351L39.3908 17.9558Z" fill="#FF0000"/>
  </g>
  <defs>
    <clipPath id="clip0_2073_16837">
      <rect width="50.9799" height="30.7117" fill="white"/>
    </clipPath>
  </defs>
</svg>