<?xml version="1.0" encoding="UTF-8" standalone="no" ?>
<!DOCTYPE svg PUBLIC "-//W3C//DTD SVG 1.1//EN" "http://www.w3.org/Graphics/SVG/1.1/DTD/svg11.dtd">
<svg xmlns="http://www.w3.org/2000/svg" xmlns:xlink="http://www.w3.org/1999/xlink" version="1.1" width="1080" height="300" viewBox="190 316.67 1080 300" xml:space="preserve">
<desc>Created with Fabric.js 5.2.4</desc>
<defs>
</defs>
<rect x="0" y="0" width="100%" height="100%" fill="transparent"></rect>
<g transform="matrix(1 0 0 1 540 150)" id="5dcc1cd7-5787-4f32-b637-d599b35b1af0"  >
<rect style="stroke: none; stroke-width: 1; stroke-dasharray: none; stroke-linecap: butt; stroke-dashoffset: 0; stroke-linejoin: miter; stroke-miterlimit: 4; fill: rgb(255,255,255); fill-rule: nonzero; opacity: 1; visibility: hidden;" vector-effect="non-scaling-stroke"  x="-540" y="-150" rx="0" ry="0" width="1080" height="300" />
</g>
<g transform="matrix(Infinity NaN NaN Infinity 0 0)" id="b497d6a8-4f2c-4700-9634-868d954af08f"  >
</g>
<g transform="matrix(1.78 0 0 1.78 986.07 451.06)"  >
<path style="stroke: none; stroke-width: 1; stroke-dasharray: none; stroke-linecap: butt; stroke-dashoffset: 0; stroke-linejoin: miter; stroke-miterlimit: 4; fill: rgb(106,115,125); fill-rule: nonzero; opacity: 1;" vector-effect="non-scaling-stroke"  transform=" translate(-458.95, -310)" d="M 588.4 347.8 L 588.4 312.40000000000003 C 588.4 304.6 588.4 299.50000000000006 588.1 295.00000000000006 L 602.2 295.00000000000006 L 602.8000000000001 304.6000000000001 L 603.1 304.6000000000001 C 605.8000000000001 296.80000000000007 612.1 293.50000000000006 617.5 293.50000000000006 C 619 293.50000000000006 619.9 293.50000000000006 621.1 293.80000000000007 L 621.1 309.4000000000001 C 619.9 309.1000000000001 618.4 309.1000000000001 616.6 309.1000000000001 C 610.6 309.1000000000001 606.4 312.4000000000001 605.5 317.50000000000006 C 605.2 318.70000000000005 605.2 319.90000000000003 605.2 321.1000000000001 L 605.2 347.80000000000007 C 605.2 347.8 588.4 347.8 588.4 347.8 z M 577.9 326.5 L 543.6999999999999 326.5 C 543.9999999999999 333.4 550.9 336.7 558.6999999999999 336.7 C 564.4 336.7 568.9 335.8 573.4 334.3 L 575.5 345.40000000000003 C 570.1 347.8 563.5 348.70000000000005 556.3 348.70000000000005 C 538.3 348.70000000000005 528.0999999999999 338.20000000000005 528.0999999999999 321.70000000000005 C 528.0999999999999 308.20000000000005 536.4999999999999 293.50000000000006 554.8 293.50000000000006 C 571.9 293.50000000000006 578.5 306.70000000000005 578.5 319.90000000000003 C 578.5 322.9 578.2 325.3 577.9 326.5 z M 543.7 315.4 L 563.2 315.4 C 563.2 311.5 561.4000000000001 304.59999999999997 553.9000000000001 304.59999999999997 C 547 304.6 544.3 310.9 543.7 315.4 z M 501.7 271 L 518.2 271 L 518.2 331.9 C 518.2 337.9 518.5 344.2 518.5 347.79999999999995 L 503.8 347.79999999999995 L 503.2 339.99999999999994 L 502.9 339.99999999999994 C 499.59999999999997 345.69999999999993 493.29999999999995 348.99999999999994 486.4 348.99999999999994 C 473.79999999999995 348.99999999999994 463.9 338.19999999999993 463.9 321.69999999999993 C 463.9 303.69999999999993 475 293.49999999999994 487.59999999999997 293.49999999999994 C 494.2 293.49999999999994 499.29999999999995 295.8999999999999 501.7 299.49999999999994 L 502 299.49999999999994 L 502 271 L 501.7 271 z M 501.7 324.1 L 501.7 317.20000000000005 C 501.7 316.30000000000007 501.7 315.1 501.4 314.20000000000005 C 500.5 310.00000000000006 496.9 306.1 491.79999999999995 306.1 C 484.29999999999995 306.1 480.4 312.70000000000005 480.4 321.1 C 480.4 330.1 484.9 335.8 491.5 335.8 C 496.3 335.8 500.2 332.5 501.1 328 C 501.4 326.8 501.7 325.6 501.7 324.1 z M 445.6 271.9 C 451 271.9 454 275.5 454.3 280 C 454.3 284.5 451 288.1 445.3 288.1 C 440.2 288.1 436.90000000000003 284.5 436.90000000000003 280 C 436.6 275.5 440.2 271.9 445.6 271.9 z M 453.7 347.8 L 437.2 347.8 L 437.2 295 L 453.7 295 L 453.7 347.8 z M 387.1 345.1 L 390.1 333.40000000000003 C 393.1 335.20000000000005 399.40000000000003 337.3 404.20000000000005 337.3 C 409.30000000000007 337.3 411.1 335.8 411.1 333.1 C 411.1 330.40000000000003 409.6 328.90000000000003 403.3 326.8 C 392.2 323.2 388 317.2 388.3 310.90000000000003 C 388.3 301.00000000000006 396.7 293.50000000000006 409.90000000000003 293.50000000000006 C 416.20000000000005 293.50000000000006 421.6 295.00000000000006 424.6 296.50000000000006 L 421.90000000000003 307.90000000000003 C 419.50000000000006 306.70000000000005 415.00000000000006 304.90000000000003 410.50000000000006 304.90000000000003 C 406.6000000000001 304.90000000000003 404.20000000000005 306.40000000000003 404.20000000000005 309.1 C 404.20000000000005 311.8 406.30000000000007 313 412.6 315.40000000000003 C 422.8 319.00000000000006 426.70000000000005 324.1 427 331.6 C 427 341.5 419.2 348.70000000000005 404.2 348.70000000000005 C 397.3 349 391.3 347.5 387.1 345.1 z M 326.8 347.8 L 326.8 311.8 C 326.8 305.2 326.5 299.8 326.5 295 L 340.9 295 L 341.79999999999995 302.5 L 342.09999999999997 302.5 C 344.2 298.9 349.59999999999997 294.1 358.29999999999995 294.1 C 369.09999999999997 294.1 377.19999999999993 301.3 377.19999999999993 316.90000000000003 L 377.19999999999993 348.1 L 360.69999999999993 348.1 L 360.69999999999993 318.70000000000005 C 360.69999999999993 311.80000000000007 358.29999999999995 307.30000000000007 352.29999999999995 307.30000000000007 C 347.79999999999995 307.30000000000007 345.09999999999997 310.30000000000007 343.9 313.6000000000001 C 343.59999999999997 314.80000000000007 343.29999999999995 316.30000000000007 343.29999999999995 317.80000000000007 L 343.29999999999995 348.4000000000001 L 326.79999999999995 348.4000000000001 L 326.79999999999995 347.8 z M 305.5 271.9 C 310.9 271.9 313.9 275.5 314.2 280 C 314.2 284.5 310.9 288.1 305.2 288.1 C 300.09999999999997 288.1 296.8 284.5 296.8 280 C 296.8 275.5 300.4 271.9 305.5 271.9 z M 313.6 347.8 L 297.1 347.8 L 297.1 295 L 313.6 295 L 313.6 347.8 z" stroke-linecap="round" />
</g>
<g transform="matrix(1.78 0 0 1.78 443.7 469.76)"  >
<path style="stroke: none; stroke-width: 1; stroke-dasharray: none; stroke-linecap: butt; stroke-dashoffset: 0; stroke-linejoin: miter; stroke-miterlimit: 4; fill: rgb(57,65,74); fill-rule: nonzero; opacity: 1;" vector-effect="non-scaling-stroke"  transform=" translate(-154.45, -320.5)" d="M 68.2 316.9 L 68.2 335.5 C 68.2 340.6 68.5 345.4 69.10000000000001 348.4 L 54.4 348.4 L 53.5 343 L 53.2 343 C 49.6 347.2 44.2 349.6 38.2 349.6 C 27.400000000000002 349.6 21.1 341.8 21.1 333.1 C 20.8 319.3 33.1 313 51.7 313 L 51.7 312.4 C 51.7 309.4 50.2 305.5 42.1 305.5 C 36.7 305.5 31 307.3 27.400000000000002 309.4 L 24.400000000000002 298.59999999999997 C 28.000000000000004 296.49999999999994 35.2 293.79999999999995 45.1 293.79999999999995 C 62.8 293.8 68.2 304.3 68.2 316.9 z M 52.3 328.9 L 52.3 323.2 C 43.599999999999994 323.2 37 325.3 37 331.59999999999997 C 37 335.79999999999995 39.7 337.9 43.6 337.9 C 47.5 337.9 51.1 335.2 52 331.9 C 52.3 331 52.3 330.1 52.3 328.9 z M 81.4 370 L 81.4 313 C 81.4 306.1 81.10000000000001 300.1 81.10000000000001 295 L 95.50000000000001 295 L 96.40000000000002 302.5 L 96.70000000000002 302.5 C 100.60000000000002 296.8 106.60000000000002 293.8 114.40000000000002 293.8 C 126.10000000000002 293.8 136.3 304 136.3 320.8 C 136.3 340.3 124.00000000000001 349.3 112.30000000000001 349.3 C 106.00000000000001 349.3 100.9 346.6 98.50000000000001 343.3 L 98.20000000000002 343.3 L 98.20000000000002 370 L 81.4 370 z M 97.9 318.1 L 97.9 325.3 C 97.9 326.5 97.9 327.7 98.2 328.90000000000003 C 99.4 333.40000000000003 103 336.70000000000005 107.8 336.70000000000005 C 115 336.70000000000005 119.2 330.70000000000005 119.2 321.70000000000005 C 119.2 313.30000000000007 115.3 306.70000000000005 108.10000000000001 306.70000000000005 C 103.30000000000001 306.70000000000005 99.4 310.30000000000007 98.2 315.1 C 97.9 316 97.9 317.2 97.9 318.1 z M 146.2 370 L 146.2 313 C 146.2 306.1 145.89999999999998 300.1 145.89999999999998 295 L 160.29999999999998 295 L 161.2 302.5 L 161.5 302.5 C 164.8 296.8 170.8 293.8 178.6 293.8 C 190.29999999999998 293.8 200.5 304 200.5 320.8 C 200.5 340.3 188.2 349.3 176.5 349.3 C 170.2 349.3 165.1 346.6 162.7 343.3 L 162.39999999999998 343.3 L 162.39999999999998 370 L 146.2 370 z M 162.4 318.1 L 162.4 325.3 C 162.4 326.5 162.4 327.7 162.70000000000002 328.90000000000003 C 163.9 333.40000000000003 167.50000000000003 336.70000000000005 172.3 336.70000000000005 C 179.5 336.70000000000005 183.70000000000002 330.70000000000005 183.70000000000002 321.70000000000005 C 183.70000000000002 313.30000000000007 179.8 306.70000000000005 172.60000000000002 306.70000000000005 C 167.8 306.70000000000005 163.90000000000003 310.30000000000007 162.70000000000002 315.1 C 162.7 316 162.4 317.2 162.4 318.1 z M 210.7 348.4 L 227.2 348.4 L 227.2 271 L 210.7 271 C 210.7 271 210.7 348.4 210.7 348.4 z M 287.2 327.1 L 253.29999999999998 327.1 C 253.6 334 260.5 337.3 268.29999999999995 337.3 C 273.99999999999994 337.3 278.49999999999994 336.40000000000003 282.99999999999994 334.90000000000003 L 284.79999999999995 346.00000000000006 C 279.4 348.40000000000003 272.79999999999995 349.30000000000007 265.59999999999997 349.30000000000007 C 247.59999999999997 349.30000000000007 237.39999999999998 338.80000000000007 237.39999999999998 322.30000000000007 C 237.39999999999998 308.80000000000007 245.79999999999998 293.80000000000007 264.09999999999997 293.80000000000007 C 281.2 293.80000000000007 287.79999999999995 307.30000000000007 287.79999999999995 320.50000000000006 C 287.8 323.2 287.5 325.9 287.2 327.1 z M 253 315.7 L 272.5 315.7 C 272.5 311.8 270.7 304.9 263.2 304.9 C 256.3 304.9 253.6 311.2 253 315.7 z" stroke-linecap="round" />
</g>
</svg>