<svg viewBox="0 0 562 86" class="logo " fill="none" aria-hidden="true" xmlns="http://www.w3.org/2000/svg">
<path d="M83.7452 0.571289H0V23.5009H83.7452V0.571289Z" fill="white"></path>
<path d="M114.652 0.570801H91.7227V23.5004H114.652V0.570801Z" fill="#DA0A08"></path>
<path d="M114.656 31.478H45.8633V54.4077H114.656V31.478Z" fill="white"></path>
<path d="M114.652 62.3843H0V85.3139H114.652V62.3843Z" fill="white"></path>
<path d="M156.232 5.55482H139.481V16.0221H153.739V20.7078H139.481V35.2636H134.297V0.869141H156.229L156.232 5.55482Z" fill="white"></path>
<path d="M174.874 0.869141C181.354 0.869141 185.541 5.05605 185.541 10.9395C185.541 15.8254 182.549 19.0183 178.664 20.0123L186.539 35.1652H180.459L173.17 20.7078H166.7V35.1652H161.516V0.869141H174.874ZM166.7 5.55482V16.3242H174.378C177.866 16.3242 180.262 14.3291 180.262 10.9395C180.262 7.54993 177.968 5.55482 174.48 5.55482H166.7Z" fill="white"></path>
<path d="M214.158 5.55482H197.407V15.5233H211.664V20.209H197.407V30.4796H214.155V35.1652H192.223V0.869141H214.155L214.158 5.55482Z" fill="white"></path>
<path d="M242.272 5.55531H225.506V15.5238H239.764V20.2095H225.506V30.48H242.254V35.1657H220.336V0.869629H242.268L242.272 5.55531Z" fill="white"></path>
<path d="M260.515 0.869141C264.804 0.869141 267.891 2.27414 270.287 5.25626C272.781 8.34726 272.879 12.6325 272.879 18.1191C272.879 23.6056 272.781 27.8908 270.287 30.9818C267.895 33.9745 264.804 35.369 260.515 35.369H248.453V0.869141H260.515ZM253.638 5.55482V30.4936H259.928C262.422 30.4936 264.414 29.8965 265.812 28.1999C267.508 26.3067 267.607 23.1138 267.607 18.0137C267.607 12.9135 267.508 9.73822 265.812 7.82741C264.407 6.13087 262.422 5.53375 259.928 5.53375L253.638 5.55482Z" fill="white"></path>
<path d="M299.6 4.05823C302.99 7.4478 303.088 10.8374 303.088 18.0169C303.088 25.1965 302.99 28.5861 299.6 31.9756C297.408 34.1674 294.514 35.4635 290.728 35.4635C286.941 35.4635 284.054 34.1674 281.855 31.9756C278.466 28.5861 278.367 25.1965 278.367 18.0169C278.367 10.8374 278.466 7.4478 281.855 4.05823C284.047 1.86643 286.938 0.570312 290.724 0.570312C294.511 0.570312 297.405 1.86643 299.6 4.05823ZM285.642 7.34945C283.945 9.14434 283.646 11.2378 283.646 18.0169C283.646 24.7961 283.945 26.8895 285.642 28.6844C286.937 30.0894 288.632 30.7919 290.728 30.7919C291.674 30.8036 292.613 30.6229 293.487 30.2606C294.362 29.8983 295.153 29.362 295.814 28.6844C297.514 26.8895 297.805 24.7961 297.805 18.0029C297.805 11.2097 297.507 9.02842 295.81 7.3354C294.515 5.9304 292.82 5.22789 290.724 5.22789C288.628 5.22789 286.934 5.93508 285.642 7.34945Z" fill="white"></path>
<path d="M340.177 35.1652H334.992V12.2356L327.019 28.9832H323.127L315.048 12.2356V35.1652H309.867V0.869141H315.052L325.122 22.2181L334.992 0.869141H340.177V35.1652Z" fill="white"></path>
<path d="M378.757 4.05823C382.146 7.4478 382.244 10.8374 382.244 18.0169C382.244 25.1965 382.146 28.5861 378.757 31.9756C376.565 34.1674 373.67 35.4635 369.884 35.4635C366.097 35.4635 363.21 34.1674 361.011 31.9756C357.622 28.5861 357.523 25.1965 357.523 18.0169C357.523 10.8374 357.622 7.4478 361.011 4.05823C363.196 1.86643 366.097 0.570312 369.87 0.570312C373.642 0.570312 376.565 1.86643 378.757 4.05823ZM364.798 7.34945C363.101 9.14434 362.803 11.2378 362.803 18.0169C362.803 24.7961 363.101 26.8895 364.798 28.6844C366.093 30.0894 367.788 30.7919 369.884 30.7919C370.83 30.8036 371.769 30.6229 372.643 30.2606C373.518 29.8983 374.309 29.362 374.97 28.6844C376.667 26.8895 376.965 24.7961 376.965 18.0169C376.965 11.2378 376.667 9.04247 374.97 7.34945C373.675 5.94445 371.98 5.24194 369.884 5.24194C367.788 5.24194 366.094 5.94445 364.801 7.34945H364.798Z" fill="#C0C7CF"></path>
<path d="M410.966 5.55482H394.212V16.0221H408.469V20.7078H394.212V35.2636H389.027V0.869141H410.966V5.55482Z" fill="#C0C7CF"></path>
<path d="M447.949 5.55531H438.465V35.2641H433.281V5.55531H423.797V0.869629H447.924L447.949 5.55531Z" fill="#C0C7CF"></path>
<path d="M477.355 35.1657H472.17V20.2095H458.212V35.1657H453.027V0.869629H458.212V15.5238H472.17V0.869629H477.355V35.1657Z" fill="#C0C7CF"></path>
<path d="M507.272 5.55482H490.524V15.5233H504.782V20.209H490.524V30.4796H507.272V35.1652H485.34V0.869141H507.272V5.55482Z" fill="#C0C7CF"></path>
<path d="M147.258 50.5181C153.932 50.5181 158.224 55.0035 158.224 60.9853C158.224 66.9671 153.935 71.3542 147.258 71.3542H139.481V84.9125H134.297V50.5181H147.258ZM139.481 55.2037V66.6686H146.959C150.648 66.6686 153.04 64.5611 153.04 60.9853C153.04 57.2972 150.648 55.2037 146.959 55.2037H139.481Z" fill="white"></path>
<path d="M176.967 50.5181C183.447 50.5181 187.634 54.705 187.634 60.5884C187.634 65.4743 184.642 68.6672 180.757 69.6612L188.625 84.8142H182.552L175.372 70.3567H168.891V84.8142H163.707V50.5181H176.967ZM168.888 55.2037V65.9696H176.566C180.054 65.9696 182.45 63.9745 182.45 60.5849C182.45 57.1953 180.058 55.2002 176.566 55.2002L168.888 55.2037Z" fill="white"></path>
<path d="M216.252 55.2037H199.515V65.2741H213.772V69.9598H199.515V80.2304H216.263V84.916H194.316V50.5181H216.248L216.252 55.2037Z" fill="white"></path>
<path d="M242.666 54.1078L239.374 57.399C237.267 55.4039 234.787 54.7084 231.798 54.7084C227.709 54.7084 225.616 56.9002 225.616 60.0931C225.616 61.3892 225.915 62.4851 226.912 63.2825C227.808 64.0798 228.805 64.5786 230.702 64.7788L234.791 65.3759C237.882 65.8747 239.677 66.5737 241.173 67.9681C242.968 69.6647 243.965 72.0567 243.965 75.0458C243.965 81.3262 238.879 85.1162 231.601 85.1162C226.417 85.1162 222.729 83.9184 219.438 80.6307L222.827 77.2412C225.321 79.735 228.212 80.5324 231.7 80.5324C236.185 80.5324 238.777 78.6391 238.777 75.2636C238.777 73.7673 238.377 72.4712 237.372 71.6738C236.477 70.8765 235.377 70.4761 233.582 70.1775L229.494 69.5804C226.701 69.18 224.51 68.2843 223.013 66.7879C221.317 65.2916 220.421 62.998 220.421 60.209C220.421 54.2378 224.808 50.1387 231.886 50.1387C236.586 50.2195 239.775 51.4172 242.666 54.1078Z" fill="white"></path>
<path d="M269.986 54.1078L266.695 57.399C264.587 55.4039 262.107 54.7084 259.118 54.7084C255.03 54.7084 252.936 56.9002 252.936 60.0931C252.936 61.3892 253.235 62.4851 254.232 63.2825C255.128 64.0798 256.126 64.5786 258.022 64.7788L262.111 65.3759C265.202 65.8747 266.997 66.5737 268.493 67.9681C270.288 69.6647 271.286 72.0567 271.286 75.0458C271.286 81.3262 266.2 85.1162 258.922 85.1162C253.737 85.1162 250.049 83.9184 246.758 80.6307L250.147 77.2412C252.641 79.735 255.532 80.5324 259.02 80.5324C263.505 80.5324 266.098 78.6391 266.098 75.2636C266.098 73.7673 265.697 72.4712 264.693 71.6738C263.797 70.8765 262.698 70.4761 260.903 70.1775L256.814 69.5804C254.022 69.18 251.83 68.2843 250.334 66.7879C248.637 65.2916 247.741 62.998 247.741 60.209C247.741 54.2378 252.128 50.1387 259.206 50.1387C263.902 50.2195 266.993 51.4172 269.986 54.1078Z" fill="white"></path>
<path d="M309.768 55.2037H293.016V65.671H307.274V70.3567H293.016V84.916H287.832V50.5181H309.764L309.768 55.2037Z" fill="white"></path>
<path d="M334.092 53.7076C337.482 57.0972 337.58 60.4868 337.58 67.6663C337.58 74.8459 337.482 78.2355 334.092 81.625C331.901 83.8168 329.006 85.113 325.22 85.113C321.433 85.113 318.546 83.8168 316.347 81.625C312.958 78.2355 312.859 74.8459 312.859 67.6663C312.859 60.4868 312.958 57.0972 316.347 53.7076C318.539 51.5158 321.433 50.2197 325.22 50.2197C329.006 50.2197 331.901 51.5158 334.092 53.7076ZM320.137 56.9918C318.441 58.7867 318.142 60.8802 318.142 67.6593C318.142 74.4384 318.441 76.5319 320.137 78.3268C321.432 79.7318 323.128 80.4343 325.223 80.4343C326.17 80.446 327.109 80.2652 327.983 79.9029C328.857 79.5407 329.649 79.0044 330.309 78.3268C332.006 76.5319 332.305 74.4384 332.305 67.6593C332.305 60.8802 332.006 58.6849 330.309 56.9918C329.015 55.5868 327.319 54.8843 325.223 54.8843C323.128 54.8843 321.432 55.5868 320.137 56.9918Z" fill="white"></path>
<path d="M368.483 73.251C368.483 80.3287 363.099 85.1162 356.119 85.1162C349.14 85.1162 343.871 80.3287 343.871 73.251V50.5181H349.056V73.0508C349.056 77.6381 351.848 80.5289 356.133 80.5289C360.418 80.5289 363.313 77.6381 363.313 73.0508V50.5181H368.497V73.251H368.483Z" fill="white"></path>
<path d="M401.883 84.8142H397.099L381.247 60.6868V84.8142H376.062V50.5181H380.847L396.698 74.6455V50.5181H401.883V84.8142Z" fill="white"></path>
<path d="M421.933 50.5181C426.222 50.5181 429.309 51.9231 431.705 54.9052C434.199 57.9962 434.297 62.2814 434.297 67.768C434.297 73.2545 434.199 77.5398 431.705 80.6308C429.313 83.6234 426.222 85.0179 421.933 85.0179H409.871V50.5181H421.933ZM415.056 55.2037V80.2268H421.336C423.83 80.2268 425.821 79.6297 427.219 77.9332C428.916 76.0399 429.014 72.8471 429.014 67.7469C429.014 62.6467 428.916 59.4714 427.219 57.5606C425.814 55.8641 423.83 55.267 421.336 55.267H415.056V55.2037Z" fill="white"></path>
<path d="M465.896 84.8144H460.314L457.922 77.9369H444.364L441.972 84.8144H436.391L448.951 50.4199H453.117L465.896 84.8144ZM445.857 73.5498H456.426L451.157 58.295L445.857 73.5498Z" fill="white"></path>
<path d="M487.73 55.2037H478.246V84.916H473.062V55.2037H463.578V50.5181H487.706L487.73 55.2037Z" fill="white"></path>
<path d="M497.895 84.8142H492.711V50.5181H497.895V84.8142Z" fill="white"></path>
<path d="M525.913 53.7076C529.302 57.0972 529.401 60.4868 529.401 67.6663C529.401 74.8459 529.302 78.2355 525.913 81.625C523.721 83.8168 520.827 85.113 517.04 85.113C513.254 85.113 510.366 83.8168 508.168 81.625C504.778 78.2355 504.68 74.8459 504.68 67.6663C504.68 60.4868 504.778 57.0972 508.168 53.7076C510.359 51.5158 513.254 50.2197 517.04 50.2197C520.827 50.2197 523.717 51.5158 525.913 53.7076ZM511.863 56.9989C510.166 58.7938 509.868 60.8872 509.868 67.6663C509.868 74.4455 510.166 76.5389 511.863 78.3338C513.158 79.7388 514.853 80.4413 516.949 80.4413C517.895 80.453 518.834 80.2723 519.708 79.91C520.583 79.5477 521.374 79.0114 522.035 78.3338C523.731 76.5389 524.03 74.4455 524.03 67.6663C524.03 60.8872 523.731 58.6919 522.035 56.9989C520.74 55.5939 519.045 54.8914 516.949 54.8914C516.001 54.8743 515.06 55.0519 514.184 55.4132C513.308 55.7745 512.516 56.3118 511.856 56.9918L511.863 56.9989Z" fill="white"></path>
<path d="M562 84.8142H557.216L541.364 60.6868V84.8142H536.18V50.5181H540.964L556.816 74.6455V50.5181H562V84.8142Z" fill="white"></path>
</svg>
