<svg width="164" height="25" viewBox="0 0 164 25" fill="none" xmlns="http://www.w3.org/2000/svg">
<g clip-path="url(#clip0_2073_16847)">
<path d="M24.4967 0.166077H0.0585938V6.83166H24.4967V0.166077Z" fill="#181818"/>
<path d="M33.5163 0.165955H26.8252V6.83154H33.5163V0.165955Z" fill="#DA0A08"/>
<path d="M33.5171 9.15057H13.4424V15.8162H33.5171V9.15057Z" fill="#181818"/>
<path d="M33.5158 18.1349H0.0585938V24.8005H33.5158V18.1349Z" fill="#181818"/>
<path d="M45.65 1.6148H40.7618V4.65762H44.9225V6.01974H40.7618V10.2511H39.249V0.252686H45.6491L45.65 1.6148Z" fill="#181818"/>
<path d="M51.0904 0.252686C52.9814 0.252686 54.2032 1.46981 54.2032 3.18012C54.2032 4.60044 53.3301 5.5286 52.1964 5.81756L54.4945 10.2225H52.7202L50.5932 6.01974H48.7051V10.2225H47.1924V0.252686H51.0904ZM48.7051 1.6148V4.74544H50.9457C51.9636 4.74544 52.6627 4.16546 52.6627 3.18012C52.6627 2.19478 51.9933 1.6148 50.9755 1.6148H48.7051Z" fill="#181818"/>
<path d="M62.5543 1.61474H57.6661V4.51255H61.8265V5.87468H57.6661V8.86032H62.5534V10.2224H56.1533V0.252625H62.5534L62.5543 1.61474Z" fill="#181818"/>
<path d="M70.7577 1.61492H65.8651V4.51274H70.0258V5.87486H65.8651V8.86047H70.7524V10.2226H64.3564V0.252808H70.7565L70.7577 1.61492Z" fill="#181818"/>
<path d="M76.0814 0.252686C77.333 0.252686 78.2338 0.661115 78.933 1.52801C79.6608 2.42656 79.6894 3.67227 79.6894 5.26721C79.6894 6.86212 79.6608 8.10782 78.933 9.00637C78.235 9.87634 77.333 10.2817 76.0814 10.2817H72.5615V0.252686H76.0814ZM74.0746 1.6148V8.86445H75.9101C76.6379 8.86445 77.2192 8.69087 77.6271 8.19767C78.1221 7.64732 78.1509 6.71916 78.1509 5.23657C78.1509 3.75395 78.1221 2.83091 77.6271 2.27544C77.2171 1.78226 76.6379 1.60868 75.9101 1.60868L74.0746 1.6148Z" fill="#181818"/>
<path d="M87.4871 1.1797C88.4764 2.16504 88.505 3.15039 88.505 5.23745C88.505 7.32454 88.4764 8.30989 87.4871 9.29521C86.8475 9.93236 86.0029 10.3091 84.8981 10.3091C83.793 10.3091 82.9506 9.93236 82.3089 9.29521C81.3199 8.30989 81.291 7.32454 81.291 5.23745C81.291 3.15039 81.3199 2.16504 82.3089 1.1797C82.9485 0.54255 83.7922 0.165771 84.897 0.165771C86.0021 0.165771 86.8466 0.54255 87.4871 1.1797ZM83.414 2.13645C82.9188 2.65822 82.8315 3.26678 82.8315 5.23745C82.8315 7.20815 82.9188 7.81669 83.414 8.33847C83.7919 8.7469 84.2865 8.95111 84.8981 8.95111C85.1742 8.95451 85.4482 8.90198 85.7033 8.79667C85.9586 8.69135 86.1894 8.53544 86.3823 8.33847C86.8784 7.81669 86.9633 7.20815 86.9633 5.23338C86.9633 3.25862 86.8764 2.62452 86.3811 2.13237C86.0032 1.72394 85.5086 1.51972 84.897 1.51972C84.2853 1.51972 83.791 1.7253 83.414 2.13645Z" fill="#181818"/>
<path d="M99.3273 10.2225H97.8143V3.55689L95.4876 8.42538H94.3519L91.9943 3.55689V10.2225H90.4824V0.252686H91.9955L94.9341 6.45878L97.8143 0.252686H99.3273V10.2225Z" fill="#181818"/>
<path d="M110.586 1.1797C111.575 2.16504 111.604 3.15039 111.604 5.23745C111.604 7.32454 111.575 8.30989 110.586 9.29521C109.946 9.93236 109.102 10.3091 107.997 10.3091C106.892 10.3091 106.049 9.93236 105.407 9.29521C104.419 8.30989 104.39 7.32454 104.39 5.23745C104.39 3.15039 104.419 2.16504 105.407 1.1797C106.045 0.54255 106.892 0.165771 107.993 0.165771C109.093 0.165771 109.946 0.54255 110.586 1.1797ZM106.513 2.13645C106.017 2.65822 105.93 3.26678 105.93 5.23745C105.93 7.20815 106.017 7.81669 106.513 8.33847C106.891 8.7469 107.385 8.95111 107.997 8.95111C108.273 8.95451 108.547 8.90198 108.802 8.79667C109.057 8.69135 109.288 8.53544 109.481 8.33847C109.976 7.81669 110.063 7.20815 110.063 5.23745C110.063 3.26678 109.976 2.62861 109.481 2.13645C109.103 1.72802 108.608 1.5238 107.997 1.5238C107.385 1.5238 106.891 1.72802 106.513 2.13645H106.513Z" fill="#6C7C8F"/>
<path d="M119.985 1.6148H115.096V4.65762H119.256V6.01974H115.096V10.2511H113.583V0.252686H119.985V1.6148Z" fill="#6C7C8F"/>
<path d="M130.776 1.61486H128.009V10.2511H126.496V1.61486H123.729V0.252747H130.769L130.776 1.61486Z" fill="#6C7C8F"/>
<path d="M139.358 10.2225H137.845V5.8748H133.772V10.2225H132.259V0.252747H133.772V4.51268H137.845V0.252747H139.358V10.2225Z" fill="#6C7C8F"/>
<path d="M148.09 1.61474H143.202V4.51255H147.363V5.87468H143.202V8.86032H148.09V10.2224H141.689V0.252625H148.09V1.61474Z" fill="#6C7C8F"/>
<path d="M43.0312 14.6855C44.9788 14.6855 46.2313 15.9894 46.2313 17.7283C46.2313 19.4672 44.9797 20.7425 43.0312 20.7425H40.7618V24.6839H39.249V14.6855H43.0312ZM40.7618 16.0476V19.3804H42.944C44.0205 19.3804 44.7185 18.7678 44.7185 17.7283C44.7185 16.6562 44.0205 16.0476 42.944 16.0476H40.7618Z" fill="#181818"/>
<path d="M51.7005 14.6855C53.5915 14.6855 54.8133 15.9027 54.8133 17.613C54.8133 19.0333 53.9402 19.9614 52.8065 20.2504L55.1025 24.6553H53.3303L51.2351 20.4526H49.3438V24.6553H47.8311V14.6855H51.7005ZM49.3429 16.0476V19.1773H51.5835C52.6014 19.1773 53.3005 18.5973 53.3005 17.6119C53.3005 16.6266 52.6025 16.0466 51.5835 16.0466L49.3429 16.0476Z" fill="#181818"/>
<path d="M63.1649 16.0476H58.2808V18.975H62.4412V20.3371H58.2808V23.3228H63.1681V24.6849H56.7637V14.6855H63.1638L63.1649 16.0476Z" fill="#181818"/>
<path d="M70.873 15.729L69.9123 16.6857C69.2975 16.1058 68.5738 15.9036 67.7016 15.9036C66.5083 15.9036 65.8976 16.5407 65.8976 17.4689C65.8976 17.8457 65.9848 18.1643 66.2758 18.3961C66.5372 18.6278 66.8282 18.7728 67.3817 18.831L68.575 19.0046C69.477 19.1496 70.0008 19.3528 70.4373 19.7582C70.9611 20.2514 71.2521 20.9467 71.2521 21.8156C71.2521 23.6413 69.7679 24.7431 67.6441 24.7431C66.1313 24.7431 65.0551 24.3949 64.0947 23.4392L65.0837 22.4538C65.8115 23.1788 66.6551 23.4106 67.673 23.4106C68.9817 23.4106 69.7381 22.8602 69.7381 21.8789C69.7381 21.444 69.6214 21.0672 69.3281 20.8354C69.067 20.6036 68.746 20.4872 68.2222 20.4004L67.0292 20.2269C66.2142 20.1105 65.5748 19.8501 65.138 19.4151C64.643 18.9801 64.3816 18.3134 64.3816 17.5026C64.3816 15.7668 65.6618 14.5752 67.7272 14.5752C69.0988 14.5987 70.0294 14.9469 70.873 15.729Z" fill="#181818"/>
<path d="M78.8447 15.729L77.8843 16.6857C77.2692 16.1058 76.5455 15.9036 75.6732 15.9036C74.4803 15.9036 73.8692 16.5407 73.8692 17.4689C73.8692 17.8457 73.9565 18.1643 74.2474 18.3961C74.5089 18.6278 74.8001 18.7728 75.3534 18.831L76.5466 19.0046C77.4486 19.1496 77.9725 19.3528 78.409 19.7582C78.9328 20.2514 79.224 20.9467 79.224 21.8156C79.224 23.6413 77.7399 24.7431 75.616 24.7431C74.103 24.7431 73.0268 24.3949 72.0664 23.4392L73.0554 22.4538C73.7832 23.1788 74.6268 23.4106 75.6446 23.4106C76.9534 23.4106 77.7101 22.8602 77.7101 21.8789C77.7101 21.444 77.5931 21.0672 77.3001 20.8354C77.0386 20.6036 76.7179 20.4872 76.1941 20.4004L75.0009 20.2269C74.1862 20.1105 73.5465 19.8501 73.1099 19.4151C72.6147 18.9801 72.3533 18.3134 72.3533 17.5026C72.3533 15.7668 73.6335 14.5752 75.6989 14.5752C77.0693 14.5987 77.9713 14.9469 78.8447 15.729Z" fill="#181818"/>
<path d="M90.454 16.0476H85.5655V19.0904H89.7262V20.4525H85.5655V24.6849H84.0527V14.6855H90.4528L90.454 16.0476Z" fill="#181818"/>
<path d="M97.5526 15.6127C98.5418 16.598 98.5704 17.5834 98.5704 19.6704C98.5704 21.7575 98.5418 22.7429 97.5526 23.7282C96.9132 24.3654 96.0684 24.7422 94.9636 24.7422C93.8585 24.7422 93.016 24.3654 92.3743 23.7282C91.3853 22.7429 91.3564 21.7575 91.3564 19.6704C91.3564 17.5834 91.3853 16.598 92.3743 15.6127C93.0139 14.9755 93.8585 14.5988 94.9636 14.5988C96.0684 14.5988 96.9132 14.9755 97.5526 15.6127ZM93.4803 16.5674C92.9854 17.0892 92.8981 17.6977 92.8981 19.6684C92.8981 21.6391 92.9854 22.2476 93.4803 22.7694C93.8582 23.1779 94.3531 23.3821 94.9644 23.3821C95.2408 23.3855 95.5148 23.3329 95.7699 23.2276C96.0249 23.1223 96.256 22.9664 96.4486 22.7694C96.9438 22.2476 97.0311 21.6391 97.0311 19.6684C97.0311 17.6977 96.9438 17.0596 96.4486 16.5674C96.071 16.159 95.5761 15.9547 94.9644 15.9547C94.3531 15.9547 93.8582 16.159 93.4803 16.5674Z" fill="#181818"/>
<path d="M107.587 21.2939C107.587 23.3514 106.016 24.7431 103.979 24.7431C101.943 24.7431 100.405 23.3514 100.405 21.2939V14.6855H101.918V21.2358C101.918 22.5693 102.733 23.4096 103.984 23.4096C105.234 23.4096 106.079 22.5693 106.079 21.2358V14.6855H107.592V21.2939H107.587Z" fill="#181818"/>
<path d="M117.335 24.6553H115.939L111.313 17.6416V24.6553H109.8V14.6855H111.196L115.822 21.6993V14.6855H117.335V24.6553Z" fill="#181818"/>
<path d="M123.186 14.6855C124.437 14.6855 125.338 15.094 126.037 15.9609C126.765 16.8594 126.794 18.1051 126.794 19.7001C126.794 21.295 126.765 22.5407 126.037 23.4392C125.339 24.3092 124.437 24.7146 123.186 24.7146H119.666V14.6855H123.186ZM121.179 16.0476V23.3218H123.012C123.739 23.3218 124.32 23.1482 124.728 22.655C125.224 22.1047 125.252 21.1765 125.252 19.6939C125.252 18.2113 125.224 17.2882 124.728 16.7328C124.318 16.2396 123.739 16.066 123.012 16.066H121.179V16.0476Z" fill="#181818"/>
<path d="M136.014 24.6553H134.385L133.687 22.6561H129.731L129.033 24.6553H127.404L131.069 14.6569H132.285L136.014 24.6553ZM130.167 21.3807H133.251L131.713 16.9462L130.167 21.3807Z" fill="#181818"/>
<path d="M142.386 16.0476H139.618V24.6849H138.105V16.0476H135.338V14.6855H142.379L142.386 16.0476Z" fill="#181818"/>
<path d="M145.352 24.6553H143.839V14.6855H145.352V24.6553Z" fill="#181818"/>
<path d="M153.528 15.6127C154.517 16.598 154.546 17.5834 154.546 19.6704C154.546 21.7575 154.517 22.7429 153.528 23.7282C152.888 24.3654 152.044 24.7422 150.939 24.7422C149.834 24.7422 148.991 24.3654 148.35 23.7282C147.361 22.7429 147.332 21.7575 147.332 19.6704C147.332 17.5834 147.361 16.598 148.35 15.6127C148.989 14.9755 149.834 14.5988 150.939 14.5988C152.044 14.5988 152.887 14.9755 153.528 15.6127ZM149.428 16.5695C148.933 17.0912 148.846 17.6998 148.846 19.6704C148.846 21.6411 148.933 22.2497 149.428 22.7715C149.806 23.1799 150.301 23.3841 150.912 23.3841C151.188 23.3875 151.462 23.335 151.717 23.2297C151.973 23.1243 152.204 22.9684 152.396 22.7715C152.891 22.2497 152.979 21.6411 152.979 19.6704C152.979 17.6998 152.891 17.0616 152.396 16.5695C152.019 16.161 151.524 15.9568 150.912 15.9568C150.636 15.9518 150.361 16.0035 150.105 16.1085C149.85 16.2135 149.619 16.3697 149.426 16.5674L149.428 16.5695Z" fill="#181818"/>
<path d="M164.058 24.6553H162.662L158.036 17.6416V24.6553H156.523V14.6855H157.919L162.545 21.6993V14.6855H164.058V24.6553Z" fill="#181818"/>
</g>
<defs>
<clipPath id="clip0_2073_16847">
<rect width="164" height="25" fill="white"/>
</clipPath>
</defs>
</svg>
