<svg width="29" height="30" viewBox="0 0 29 30" fill="none" xmlns="http://www.w3.org/2000/svg">
<g clip-path="url(#clip0_2073_16881)">
<path fill-rule="evenodd" clip-rule="evenodd" d="M4.08957 3.8268C3.99027 4.16121 4.04651 4.55209 4.15724 5.33298L5.56682 15.2365C5.81024 16.9474 5.93151 17.8033 6.25403 18.5674C6.53963 19.245 6.94036 19.868 7.43688 20.4089C7.99754 21.0186 8.7243 21.4827 10.1761 22.4109L12.2403 23.73C13.2298 24.3618 13.7255 24.6786 14.2571 24.8012C14.6658 24.8965 15.0894 24.908 15.5015 24.8383C15.1605 24.0556 14.9716 23.1909 14.9716 22.2821C14.9716 18.7562 17.8189 15.8974 21.3305 15.8974C22.3552 15.8974 23.3236 16.1409 24.1804 16.5733C24.2411 16.1921 24.3035 15.7536 24.3764 15.2374L25.786 5.33298C25.8967 4.55209 25.9529 4.16121 25.8536 3.8268C25.7666 3.5321 25.597 3.26915 25.3642 3.06886C25.1005 2.8421 24.7226 2.73357 23.9669 2.51651L15.6702 0.136802C15.4101 0.0618022 15.2801 0.0247434 15.1482 0.00974336C15.0305 -0.00349193 14.9127 -0.00349193 14.795 0.00974336C14.6632 0.0247434 14.5331 0.0618022 14.273 0.136802L5.97633 2.51651C5.22057 2.73357 4.84269 2.8421 4.57906 3.06886C4.34618 3.26915 4.17657 3.5321 4.08957 3.8268Z" fill="#FFD06F"/>
<path fill-rule="evenodd" clip-rule="evenodd" d="M11.7051 2.39913C11.7631 2.39295 11.8229 2.39295 11.8818 2.39913C11.9318 2.4053 11.989 2.41854 12.2737 2.49971L20.5695 4.8803C20.9596 4.99148 21.2083 5.06383 21.3955 5.13354C21.573 5.19971 21.6363 5.24295 21.6688 5.27118C21.7848 5.37089 21.8701 5.50236 21.9131 5.64971C21.9254 5.69118 21.9395 5.76707 21.9272 5.95677C21.914 6.15619 21.878 6.41383 21.82 6.81619L20.6371 15.1332C17.0121 15.4835 14.1772 18.5506 14.1772 22.2821C14.1772 23.0188 14.2879 23.73 14.4935 24.3997L14.0972 24.6521C13.0576 25.3165 12.6964 25.5353 12.3291 25.62C11.9767 25.7012 11.6102 25.7012 11.2569 25.62C10.8905 25.5353 10.5284 25.3165 9.48882 24.6521L7.42454 23.3338C5.93675 22.3827 5.31721 21.9794 4.84266 21.4632C4.40766 20.9903 4.05703 20.4459 3.80745 19.853C3.53503 19.2062 3.4243 18.473 3.17472 16.7197L1.76603 6.81619C1.70803 6.41383 1.67199 6.15619 1.65969 5.95677C1.64651 5.76707 1.66057 5.69118 1.67287 5.64971C1.71681 5.50236 1.80118 5.37089 1.91806 5.27118C1.94969 5.24295 2.01384 5.19971 2.19048 5.13354C2.37766 5.06383 2.62636 4.99148 3.01654 4.8803L11.3123 2.49971C11.597 2.41854 11.6542 2.4053 11.7051 2.39913ZM23.3983 7.01471L22.24 15.1571C25.7613 15.6053 28.4847 18.6247 28.4847 22.2821C28.4847 26.2491 25.2824 29.4653 21.3314 29.4653C18.6862 29.4653 16.3759 28.0235 15.1377 25.8794L14.9514 25.9994L14.8327 26.0744C13.9575 26.6338 13.3537 27.0203 12.6858 27.1756C12.0988 27.3115 11.4872 27.3115 10.9001 27.1756C10.2323 27.0203 9.62854 26.6338 8.75327 26.0744L8.63551 25.9994L6.46842 24.6141C5.11421 23.7494 4.30572 23.2332 3.67475 22.5459C3.11496 21.938 2.66503 21.2374 2.34339 20.475C1.98045 19.6138 1.84512 18.6627 1.61839 17.0665L0.187722 7.01471C0.135873 6.64766 0.0901761 6.32824 0.0726003 6.06089C0.0541458 5.77589 0.0620549 5.48913 0.149055 5.19619C0.279116 4.75413 0.534843 4.35883 0.882843 4.05883C1.11484 3.85942 1.37233 3.73589 1.6386 3.63707C1.88906 3.54354 2.19751 3.4553 2.55254 3.35295L2.57978 3.34501L10.8755 0.965302L10.9195 0.952949C11.1365 0.890302 11.3281 0.835596 11.5285 0.812655C11.7042 0.793243 11.8818 0.793243 12.0584 0.812655C12.2579 0.835596 12.4495 0.890302 12.6665 0.952949L12.7105 0.965302L21.0335 3.35295C21.3885 3.4553 21.6969 3.54354 21.9474 3.63707C22.2145 3.73589 22.4712 3.85942 22.7032 4.05883C23.052 4.35883 23.3069 4.75413 23.4369 5.19619C23.5239 5.48913 23.5319 5.77589 23.5134 6.06089C23.4958 6.32824 23.4501 6.64854 23.3983 7.01471ZM21.3314 16.6959C18.2582 16.6959 15.7669 19.1974 15.7669 22.2821C15.7669 25.3677 18.2582 27.8691 21.3314 27.8691C24.4045 27.8691 26.895 25.3677 26.895 22.2821C26.895 19.1974 24.4045 16.6959 21.3314 16.6959ZM25.1216 20.3991C25.4019 20.0603 25.3571 19.5574 25.0196 19.275C24.6822 18.9927 24.1813 19.0385 23.9001 19.3774L20.4833 23.4944L18.7143 21.7183C18.4032 21.4068 17.9006 21.4068 17.5895 21.7183C17.2793 22.0297 17.2793 22.5353 17.5895 22.8468L19.9745 25.2406C20.1327 25.3994 20.3498 25.4841 20.5721 25.4735C20.7953 25.4638 21.0045 25.3597 21.1468 25.1877L25.1216 20.3991ZM7.81912 11.1088C7.81912 8.9056 9.59778 7.11883 11.793 7.11883C13.9882 7.11883 15.7669 8.9056 15.7669 11.1088C15.7669 12.4147 15.1429 13.5741 14.1772 14.3021V17.4935C14.1772 18.8162 13.1103 19.8883 11.793 19.8883C10.4757 19.8883 9.40885 18.8162 9.40885 17.4935V14.3021C8.44306 13.5741 7.81912 12.4147 7.81912 11.1088ZM12.5874 15.0997H10.9986V17.4935C10.9986 17.9347 11.3545 18.2921 11.793 18.2921C12.2324 18.2921 12.5874 17.9347 12.5874 17.4935V15.0997ZM11.793 13.5035C13.1103 13.5035 14.1772 12.4315 14.1772 11.1088C14.1772 9.78707 13.1103 8.71501 11.793 8.71501C10.4757 8.71501 9.40885 9.78707 9.40885 11.1088C9.40885 12.4315 10.4757 13.5035 11.793 13.5035Z" fill="#475362"/>
</g>
<defs>
<clipPath id="clip0_2073_16881">
<rect width="29" height="30" fill="white"/>
</clipPath>
</defs>
</svg>

