<svg width="30" height="30" viewBox="0 0 30 30" fill="none" xmlns="http://www.w3.org/2000/svg">
<g clip-path="url(#clip0_2073_16887)">
<mask id="mask0_2073_16887" style="mask-type:luminance" maskUnits="userSpaceOnUse" x="0" y="0" width="31" height="30">
<path d="M0.0615234 0H30.0615V30H0.0615234V0Z" fill="white"/>
</mask>
<g mask="url(#mask0_2073_16887)">
<path d="M15.06 29.9962C23.343 29.9962 30.0578 23.2815 30.0578 14.9985C30.0578 6.71475 23.343 0 15.06 0C6.77627 0 0.0615234 6.71475 0.0615234 14.9985C0.0615234 23.2815 6.77627 29.9962 15.06 29.9962Z" fill="#EE5128"/>
<mask id="mask1_2073_16887" style="mask-type:luminance" maskUnits="userSpaceOnUse" x="0" y="0" width="31" height="30">
<path d="M15.06 29.9962C23.343 29.9962 30.0578 23.2815 30.0578 14.9985C30.0578 6.71475 23.343 0 15.06 0C6.77627 0 0.0615234 6.71475 0.0615234 14.9985C0.0615234 23.2815 6.77627 29.9962 15.06 29.9962Z" fill="white"/>
</mask>
<g mask="url(#mask1_2073_16887)">
<path fill-rule="evenodd" clip-rule="evenodd" d="M-1.73145 31.8342L31.8963 -1.79205L45.8208 12.1317L12.1938 45.7587L-1.72995 31.8342H-1.73145Z" fill="#FAB314"/>
<path fill-rule="evenodd" clip-rule="evenodd" d="M15.0593 -1.79248V12.5115L15.1051 14.9985L27.9421 2.16152L20.6311 -1.79173H15.0586L15.0593 -1.79248Z" fill="#7CBB41"/>
<path fill-rule="evenodd" clip-rule="evenodd" d="M34.133 14.9985H15.1055L28.8162 1.28778L34.1337 14.9978L34.133 14.9985Z" fill="#279AD5"/>
</g>
<path d="M15.0605 28.2233C22.364 28.2233 28.2852 22.302 28.2852 14.9985C28.2852 7.69426 22.364 1.77301 15.0605 1.77301C7.75621 1.77301 1.83496 7.69426 1.83496 14.9985C1.83496 22.302 7.75621 28.2233 15.0605 28.2233Z" fill="black"/>
<mask id="mask2_2073_16887" style="mask-type:luminance" maskUnits="userSpaceOnUse" x="1" y="1" width="28" height="28">
<path d="M15.0605 28.2233C22.364 28.2233 28.2852 22.302 28.2852 14.9985C28.2852 7.69426 22.364 1.77301 15.0605 1.77301C7.75621 1.77301 1.83496 7.69426 1.83496 14.9985C1.83496 22.302 7.75621 28.2233 15.0605 28.2233Z" fill="white"/>
</mask>
<g mask="url(#mask2_2073_16887)">
<path d="M15.06 64.3455C27.6923 64.3455 37.932 54.105 37.932 41.4728C37.932 28.8413 27.6923 18.6008 15.06 18.6008C2.42777 18.6 -7.81348 28.8413 -7.81348 41.4728C-7.81348 54.105 2.42777 64.3455 15.06 64.3455Z" fill="white"/>
<path fill-rule="evenodd" clip-rule="evenodd" d="M15.2249 24.0248C15.1741 24.0518 15.1175 24.0659 15.0599 24.0659C15.0024 24.0659 14.9457 24.0518 14.8949 24.0248C14.4314 23.7683 13.0822 22.932 11.9864 21.3698C11.1689 20.2058 10.7984 18.8888 10.6477 18.1913C10.634 18.1284 10.6331 18.0634 10.645 18.0001C10.6568 17.9369 10.6812 17.8766 10.7167 17.823C10.7523 17.7693 10.7981 17.7232 10.8517 17.6876C10.9053 17.6519 10.9655 17.6273 11.0287 17.6153C11.5537 17.5125 12.4267 17.3003 13.1624 16.9283C13.7683 16.6138 14.3251 16.2129 14.8154 15.738C14.881 15.6748 14.9685 15.6395 15.0596 15.6395C15.1506 15.6395 15.2381 15.6748 15.3037 15.738C15.794 16.2129 16.3509 16.6138 16.9567 16.9283C17.6924 17.301 18.5654 17.5125 19.0904 17.6153C19.1535 17.6276 19.2135 17.6524 19.2669 17.6881C19.3203 17.7239 19.3661 17.7699 19.4016 17.8235C19.437 17.8771 19.4615 17.9372 19.4735 18.0004C19.4855 18.0635 19.4848 18.1284 19.4714 18.1913C19.3214 18.8888 18.9502 20.2058 18.1334 21.3698C17.0369 22.932 15.6884 23.7683 15.2249 24.0248Z" fill="#FAB314"/>
<path fill-rule="evenodd" clip-rule="evenodd" d="M14.7535 7.88778C14.7842 7.94207 14.8288 7.98722 14.8827 8.01864C14.9366 8.05006 14.9979 8.06661 15.0603 8.06661C15.1226 8.06661 15.1839 8.05006 15.2378 8.01864C15.2917 7.98722 15.3363 7.94207 15.367 7.88778C15.9483 6.84753 16.8655 6.06528 18.016 5.75778C20.5323 5.08278 23.218 6.93153 24.0085 9.88278C24.7998 12.834 23.398 15.7778 20.881 16.452C18.7465 17.0235 16.4905 15.7808 15.3723 13.59C15.3428 13.5325 15.298 13.4843 15.2429 13.4506C15.1878 13.4169 15.1245 13.3991 15.0599 13.3991C14.9953 13.3991 14.9319 13.4169 14.8768 13.4506C14.8217 13.4843 14.777 13.5325 14.7475 13.59C13.63 15.7808 11.3733 17.0235 9.23875 16.452C6.72175 15.777 5.32075 12.834 6.11125 9.88278C6.9025 6.93153 9.5875 5.08278 12.1038 5.75778C13.2543 6.06528 14.1723 6.84753 14.7535 7.88778Z" fill="white"/>
<path d="M12.3763 13.5698C12.7644 13.5698 13.1366 13.4156 13.411 13.1412C13.6854 12.8668 13.8396 12.4946 13.8396 12.1066C13.8396 11.7185 13.6854 11.3463 13.411 11.0719C13.1366 10.7975 12.7644 10.6433 12.3763 10.6433C11.9883 10.6433 11.6161 10.7975 11.3417 11.0719C11.0672 11.3463 10.9131 11.7185 10.9131 12.1066C10.9131 12.4946 11.0672 12.8668 11.3417 13.1412C11.6161 13.4156 11.9883 13.5698 12.3763 13.5698Z" fill="black"/>
<path d="M17.7425 13.5698C18.1306 13.5698 18.5028 13.4156 18.7772 13.1412C19.0516 12.8668 19.2058 12.4946 19.2058 12.1066C19.2058 11.7185 19.0516 11.3463 18.7772 11.0719C18.5028 10.7975 18.1306 10.6433 17.7425 10.6433C17.3545 10.6433 16.9823 10.7975 16.7079 11.0719C16.4335 11.3463 16.2793 11.7185 16.2793 12.1066C16.2793 12.4946 16.4335 12.8668 16.7079 13.1412C16.9823 13.4156 17.3545 13.5698 17.7425 13.5698Z" fill="black"/>
</g>
</g>
</g>
<defs>
<clipPath id="clip0_2073_16887">
<rect width="30" height="30" fill="white"/>
</clipPath>
</defs>
</svg>

