<svg xmlns="http://www.w3.org/2000/svg" fill="none" viewBox="0 0 40 40"><g clip-path="url(#a)"><path fill="#EE5128" d="M19.998 39.995c11.044 0 19.997-8.953 19.997-19.997C39.995 8.953 31.042 0 19.998 0 8.953 0 0 8.953 0 19.998c0 11.044 8.953 19.997 19.998 19.997Z"></path><mask id="b" width="40" height="40" x="0" y="0" maskUnits="userSpaceOnUse" style="mask-type:luminance"><path fill="#fff" d="M19.998 39.995c11.044 0 19.997-8.953 19.997-19.997C39.995 8.953 31.042 0 19.998 0 8.953 0 0 8.953 0 19.998c0 11.044 8.953 19.997 19.998 19.997Z"></path></mask><g fill-rule="evenodd" clip-rule="evenodd" mask="url(#b)"><path fill="#FAB314" d="M-2.39 42.446 42.447-2.389l18.566 18.565-44.836 44.836-18.565-18.566Z"></path><path fill="#7CBB41" d="M19.998-2.39v19.072l.061 3.316L37.175 2.882l-9.748-5.271h-7.43Z"></path><path fill="#279AD5" d="M45.429 19.998h-25.37L38.34 1.717l7.09 18.28Z"></path></g><path fill="#000" d="M19.998 37.631c9.738 0 17.633-7.895 17.633-17.633 0-9.739-7.895-17.634-17.633-17.634-9.739 0-17.634 7.895-17.634 17.634 0 9.738 7.895 17.633 17.634 17.633Z"></path><mask id="c" width="36" height="36" x="2" y="2" maskUnits="userSpaceOnUse" style="mask-type:luminance"><path fill="#fff" d="M19.998 37.631c9.738 0 17.633-7.895 17.633-17.633 0-9.739-7.895-17.634-17.633-17.634-9.739 0-17.634 7.895-17.634 17.634 0 9.738 7.895 17.633 17.634 17.633Z"></path></mask><g mask="url(#c)"><path fill="#fff" d="M19.998 85.794c16.843 0 30.496-13.654 30.496-30.497 0-16.842-13.653-30.496-30.496-30.496C3.155 24.8-10.5 38.455-10.5 55.297c0 16.843 13.654 30.497 30.497 30.497Z"></path><path fill="#FAB314" fill-rule="evenodd" d="M20.218 32.033a.469.469 0 0 1-.44 0c-.618-.342-2.417-1.457-3.878-3.54-1.09-1.552-1.584-3.308-1.785-4.238a.643.643 0 0 1 .508-.768c.7-.137 1.864-.42 2.845-.916a9.381 9.381 0 0 0 2.204-1.587.469.469 0 0 1 .651 0 9.38 9.38 0 0 0 2.204 1.587c.981.497 2.145.779 2.845.916a.646.646 0 0 1 .508.768c-.2.93-.695 2.686-1.784 4.238-1.462 2.083-3.26 3.198-3.878 3.54Z" clip-rule="evenodd"></path><path fill="#fff" fill-rule="evenodd" d="M19.589 10.517a.47.47 0 0 0 .818 0c.775-1.387 1.998-2.43 3.532-2.84 3.355-.9 6.936 1.565 7.99 5.5 1.055 3.935-.814 7.86-4.17 8.759-2.846.762-5.854-.895-7.345-3.816a.468.468 0 0 0-.833 0c-1.49 2.921-4.499 4.578-7.345 3.816-3.356-.9-5.224-4.824-4.17-8.759 1.055-3.935 4.635-6.4 7.99-5.5 1.534.41 2.758 1.453 3.533 2.84Z" clip-rule="evenodd"></path><path class="logo-eye logo-eye--left" fill="#000" d="M16.42 18.093a1.951 1.951 0 1 0 0-3.902 1.951 1.951 0 0 0 0 3.902Z"></path><path class="logo-eye logo-eye--right" fill="#000" d="M23.575 18.093a1.951 1.951 0 1 0 0-3.902 1.951 1.951 0 0 0 0 3.902Z"></path></g></g><defs><clipPath id="a"><path fill="#fff" d="M0 0h40v40H0z"></path></clipPath></defs></svg>
