<svg width="186" height="50" viewBox="0 0 186 50" fill="none" xmlns="http://www.w3.org/2000/svg">
<path d="M116.837 17.3862L116.718 20.9357C112.557 20.6516 111.368 21.7167 111.368 25.195V25.6439H107.802V17.599H111.368V19.8944C112.438 18.0252 113.889 17.1733 116.837 17.3862ZM31.9541 31.821H35.5204V18.0956H31.9541V31.821ZM49.6201 17.41C47.1235 17.41 45.6019 18.5221 44.7934 19.7524V12.1803H26.0098V15.493H41.4648V25.6439H44.8645C44.8645 22.7333 46.553 20.6755 48.6214 20.6755C50.405 20.6755 51.2131 21.5508 51.2131 24.6981V31.821H54.7795V23.4205C54.7795 19.3979 52.7111 17.41 49.6201 17.41ZM63.6482 29.0991C61.4847 29.0991 60.0818 27.7976 59.8442 25.6443H56.4915C56.8243 29.4305 59.3209 32.1047 63.6246 32.1047C66.9533 32.1047 68.8315 30.6138 69.8066 28.3658L66.7867 27.0404C66.3349 28.3893 65.5029 29.0991 63.6482 29.0991ZM63.5056 17.4805C62.2325 17.4525 60.973 17.7455 59.8442 18.3323L61.5558 20.7459C62.1978 20.4149 62.8876 20.249 63.6246 20.2724C65.6219 20.2724 66.6441 21.5743 66.7867 23.2777H63.339V25.6443H70.1394C70.1869 25.2893 70.2109 24.9579 70.2109 24.6034C70.2344 19.4444 66.8107 17.4805 63.5056 17.4805ZM98.814 29.0991C96.6505 29.0991 95.2476 27.7976 95.0099 25.6443H91.6573C91.9901 29.4305 94.4867 32.1047 98.7904 32.1047C102.119 32.1047 103.997 30.6138 104.972 28.3658L101.953 27.0404C101.477 28.3893 100.645 29.0991 98.814 29.0991ZM98.6953 17.4805C97.4221 17.4524 96.1625 17.7454 95.0335 18.3323L96.7456 20.7459C97.3875 20.4149 98.077 20.249 98.814 20.2724C100.811 20.2724 101.834 21.5743 101.976 23.2777H98.5288V25.6443H105.329C105.377 25.2893 105.4 24.9579 105.4 24.6034C105.424 19.4444 102 17.4805 98.6953 17.4805ZM140.494 29.0991C138.331 29.0991 136.928 27.7976 136.69 25.6443H133.338C133.671 29.4305 136.167 32.1047 140.471 32.1047C143.8 32.1047 145.678 30.6138 146.653 28.3658L143.633 27.0404C143.158 28.3893 142.326 29.0991 140.494 29.0991ZM140.304 17.4805C139.031 17.4525 137.772 17.7455 136.643 18.3323L138.355 20.7459C138.997 20.4149 139.686 20.249 140.423 20.2724C142.421 20.2724 143.443 21.5743 143.586 23.2777H140.138V25.6443H146.938C146.986 25.2893 147.01 24.9579 147.01 24.6034C147.033 19.4444 143.609 17.4805 140.304 17.4805ZM72.0416 10.5L78.4561 25.6439H82.3556L77.4626 13.5999H83.7872V10.5239L72.0416 10.5004V10.5ZM91.0629 10.5235L83.7157 29.0521L82.622 31.821H86.3549L95.1761 10.5239H91.0629V10.5235ZM123.851 31.4896C125.373 31.4896 126.633 31.0634 127.513 30.3301L126.086 28.0821C125.634 28.2715 125.135 28.3423 124.636 28.3423C122.686 28.3423 121.568 27.1829 121.188 25.6447H117.693C118.168 28.934 120.546 31.4896 123.851 31.4896ZM128.25 19.5869C127.441 18.3093 125.8 17.3862 123.518 17.3862C121.283 17.3627 119.215 18.5695 118.121 20.5334L121.093 22.4266C121.64 21.2906 122.71 20.5334 124.35 20.5334C126.68 20.5334 128.25 22.3319 128.25 24.4613C128.25 24.864 128.202 25.2663 128.083 25.6447H131.816V17.6229H128.25V19.5869ZM124.802 34.7077C122.496 34.7077 121.64 33.5956 121.473 32.2941H118.073C118.144 34.7789 119.809 37.5 124.873 37.5C128.297 37.5 130.532 35.7963 131.46 33.2407L128.25 32.1286C127.798 33.785 126.561 34.7077 124.802 34.7077Z" fill="#181818"/>
</svg>
