<svg width="101" height="30" viewBox="0 0 101 30" fill="none" xmlns="http://www.w3.org/2000/svg">
<g clip-path="url(#clip0_2073_16918)">
<path d="M14.2734 3.92858V0.0892944H23.9474V21.9643H14.2734V18.2143H19.9536V3.92858H14.2734Z" fill="#2DAAE9"/>
<path d="M9.74723 3.92858V0.0892944H0.0732422V21.9643H4.95461L9.74723 30V18.2143H4.06709V3.92858H9.74723Z" fill="#E43F64"/>
<path d="M51.6379 1.16071L51.7267 0.892857L52.6142 0H47.8216L40.8989 8.21429L34.065 0H29.1836L30.0711 0.982143L38.5026 11.0714L30.0711 21.25L29.1836 22.1429H34.065L40.8989 13.9286L47.8216 22.1429H52.6142L51.8154 21.25L43.2952 11.0714L51.6379 1.16071Z" fill="#181818"/>
<path d="M72.4945 0H54.6553V22.1429H72.5832C73.737 22.1429 74.7133 21.6964 75.512 20.8929C76.3108 20.0893 76.7546 19.1071 76.7546 17.9464V4.10714C76.7546 2.94643 76.3108 1.96429 75.512 1.16071C74.6245 0.446429 73.6482 0 72.4945 0ZM58.2941 4.10714C58.2941 4.01786 58.2941 3.92857 58.3829 3.83929C58.4716 3.75 58.5604 3.75 58.6491 3.75H72.4057C72.4945 3.75 72.5832 3.75 72.672 3.83929C72.7607 3.92857 72.7607 4.01786 72.7607 4.10714V17.9464C72.7607 18.0357 72.7607 18.125 72.672 18.2143C72.5832 18.3036 72.4945 18.3036 72.4057 18.3036H58.7379C58.6491 18.3036 58.5604 18.3036 58.4716 18.2143C58.3829 18.125 58.3829 18.0357 58.3829 17.9464V4.10714H58.2941Z" fill="#181818"/>
<path d="M99.8304 1.25C99.0316 0.446429 98.0554 0 96.9016 0H83.145C81.9912 0 81.0149 0.446429 80.2162 1.25C79.4174 2.05357 78.9736 3.03571 78.9736 4.19643V22.2321H82.6125V14.6429H97.2566V22.2321H100.895V4.10714C101.073 3.03571 100.629 2.05357 99.8304 1.25ZM82.7012 4.10714C82.7012 4.01786 82.7012 3.92857 82.79 3.83929C82.8787 3.75 82.9675 3.75 83.0562 3.75H96.8128C96.9016 3.75 96.9903 3.75 97.0791 3.83929C97.1678 3.92857 97.1678 4.01786 97.1678 4.10714V10.8036H82.7012V4.10714Z" fill="#181818"/>
</g>
<defs>
<clipPath id="clip0_2073_16918">
<rect width="101" height="30" fill="white"/>
</clipPath>
</defs>
</svg>

