<?xml version="1.0" encoding="UTF-8"?>
<!-- Generator: Adobe Illustrator 26.0.1, SVG Export Plug-In . SVG Version: 6.00 Build 0)  -->
<svg version="1.1" id="Layer_1" xmlns="http://www.w3.org/2000/svg" xmlns:xlink="http://www.w3.org/1999/xlink" x="0px" y="0px" viewBox="0 0 113.8 33.6" style="enable-background:new 0 0 113.8 33.6;" xml:space="preserve">
<style type="text/css">
	.st0{fill:#2DAAE9;}
	.st1{fill:#E43F64;}
	.st2{fill:#BCBCBC;}
</style>
<g>
	<g>
		<path class="st0" d="M16,4.4V0.1h10.9v24.5H16v-4.2h6.4v-16H16z"/>
	</g>
	<polygon class="st1" points="10.9,4.4 10.9,0.1 0,0.1 0,24.6 5.5,24.6 10.9,33.6 10.9,20.4 4.5,20.4 4.5,4.4  "/>
	<polygon class="st2" points="58.1,1.3 58.2,1 59.2,0 53.8,0 46,9.2 38.3,0 32.8,0 33.8,1.1 43.3,12.4 33.8,23.8 32.8,24.8    38.3,24.8 46,15.6 53.8,24.8 59.2,24.8 58.3,23.8 48.7,12.4  "/>
	<path class="st2" d="M81.6,0H61.5v24.8h20.2c1.3,0,2.4-0.5,3.3-1.4c0.9-0.9,1.4-2,1.4-3.3V4.6c0-1.3-0.5-2.4-1.4-3.3   C84,0.5,82.9,0,81.6,0z M65.6,4.6c0-0.1,0-0.2,0.1-0.3c0.1-0.1,0.2-0.1,0.3-0.1h15.5c0.1,0,0.2,0,0.3,0.1c0.1,0.1,0.1,0.2,0.1,0.3   v15.5c0,0.1,0,0.2-0.1,0.3c-0.1,0.1-0.2,0.1-0.3,0.1H66.1c-0.1,0-0.2,0-0.3-0.1c-0.1-0.1-0.1-0.2-0.1-0.3V4.6z"/>
	<path class="st2" d="M112.4,1.4c-0.9-0.9-2-1.4-3.3-1.4H93.6c-1.3,0-2.4,0.5-3.3,1.4c-0.9,0.9-1.4,2-1.4,3.3v20.2h4.1v-8.5h16.5   v8.5h4.1V4.6C113.8,3.4,113.3,2.3,112.4,1.4z M93.1,4.6c0-0.1,0-0.2,0.1-0.3c0.1-0.1,0.2-0.1,0.3-0.1h15.5c0.1,0,0.2,0,0.3,0.1   c0.1,0.1,0.1,0.2,0.1,0.3v7.5H93.1V4.6z"/>
</g>
</svg>