<svg preserveAspectRatio="none" width="100%" height="100%" overflow="visible" style="display: block;" viewBox="0 0 16 16" fill="none" xmlns="http://www.w3.org/2000/svg">
<g id="ArrowsClockwise">
<path id="Vector" d="M14 3V6C14 6.13261 13.9473 6.25979 13.8536 6.35355C13.7598 6.44732 13.6326 6.5 13.5 6.5H10.5C10.3674 6.5 10.2402 6.44732 10.1464 6.35355C10.0527 6.25979 10 6.13261 10 6C10 5.86739 10.0527 5.74021 10.1464 5.64645C10.2402 5.55268 10.3674 5.5 10.5 5.5H12.2931L11.3787 4.58563C10.4495 3.65213 9.1878 3.12547 7.87063 3.12125H7.8425C6.53636 3.11819 5.28151 3.62942 4.34937 4.54437C4.25389 4.63351 4.12731 4.68174 3.99672 4.67875C3.86612 4.67575 3.74189 4.62177 3.65059 4.52835C3.55929 4.43492 3.50817 4.30948 3.50818 4.17885C3.50819 4.04823 3.55932 3.92279 3.65062 3.82938C4.78033 2.72525 6.29988 2.11117 7.87952 2.12042C9.45916 2.12966 10.9714 2.76148 12.0881 3.87875L13 4.79313V3C13 2.86739 13.0527 2.74022 13.1464 2.64645C13.2402 2.55268 13.3674 2.5 13.5 2.5C13.6326 2.5 13.7598 2.55268 13.8536 2.64645C13.9473 2.74022 14 2.86739 14 3ZM11.6506 11.4556C10.7093 12.3751 9.44337 12.8865 8.12747 12.8788C6.81156 12.8711 5.55175 12.3449 4.62125 11.4144L3.70688 10.5H5.5C5.63261 10.5 5.75979 10.4473 5.85355 10.3536C5.94732 10.2598 6 10.1326 6 10C6 9.86739 5.94732 9.74021 5.85355 9.64645C5.75979 9.55268 5.63261 9.5 5.5 9.5H2.5C2.36739 9.5 2.24021 9.55268 2.14645 9.64645C2.05268 9.74021 2 9.86739 2 10V13C2 13.1326 2.05268 13.2598 2.14645 13.3536C2.24021 13.4473 2.36739 13.5 2.5 13.5C2.63261 13.5 2.75979 13.4473 2.85355 13.3536C2.94732 13.2598 3 13.1326 3 13V11.2069L3.91438 12.1213C5.02951 13.242 6.544 13.8741 8.125 13.8787H8.15812C9.72568 13.8828 11.2317 13.2691 12.35 12.1706C12.4413 12.0772 12.4924 11.9518 12.4924 11.8211C12.4925 11.6905 12.4413 11.5651 12.35 11.4717C12.2587 11.3782 12.1345 11.3242 12.0039 11.3213C11.8733 11.3183 11.7467 11.3665 11.6512 11.4556H11.6506Z" fill="var(--fill-0, #181818)"/>
</g>
</svg>
