<svg width="16" height="16" viewBox="0 0 16 16" fill="none" xmlns="http://www.w3.org/2000/svg">
<path d="M14 8.00009C14.0001 9.57752 13.3791 11.0915 12.2712 12.2145C11.1634 13.3374 9.65791 13.9789 8.08062 14.0001H8C6.46765 14.0039 4.99268 13.4175 3.88125 12.3626C3.83352 12.3174 3.79515 12.2633 3.76833 12.2034C3.74152 12.1434 3.72677 12.0787 3.72494 12.0131C3.72311 11.9474 3.73424 11.882 3.75768 11.8206C3.78112 11.7593 3.81642 11.7031 3.86156 11.6554C3.9067 11.6077 3.9608 11.5693 4.02077 11.5425C4.08074 11.5157 4.14541 11.5009 4.21108 11.4991C4.27675 11.4973 4.34213 11.5084 4.4035 11.5318C4.46487 11.5553 4.52102 11.5906 4.56875 11.6357C5.28362 12.3099 6.1813 12.7585 7.14964 12.9255C8.11799 13.0924 9.11406 12.9704 10.0134 12.5745C10.9128 12.1787 11.6756 11.5266 12.2065 10.6998C12.7375 9.87291 13.013 8.90796 12.9987 7.92543C12.9844 6.9429 12.6809 5.98637 12.1262 5.17532C11.5714 4.36427 10.79 3.73466 9.87944 3.36515C8.96893 2.99564 7.96973 2.90261 7.00665 3.09768C6.04358 3.29275 5.15933 3.76727 4.46438 4.46196C4.45927 4.46749 4.45384 4.4727 4.44812 4.47759L2.78688 6.00009H4.5C4.63261 6.00009 4.75979 6.05277 4.85355 6.14654C4.94732 6.2403 5 6.36748 5 6.50009C5 6.6327 4.94732 6.75987 4.85355 6.85364C4.75979 6.94741 4.63261 7.00009 4.5 7.00009H1.5C1.36739 7.00009 1.24021 6.94741 1.14645 6.85364C1.05268 6.75987 1 6.6327 1 6.50009V3.50009C1 3.36748 1.05268 3.2403 1.14645 3.14654C1.24021 3.05277 1.36739 3.00009 1.5 3.00009C1.63261 3.00009 1.75979 3.05277 1.85355 3.14654C1.94732 3.2403 2 3.36748 2 3.50009V5.36259L3.76562 3.75009C4.60561 2.91336 5.67467 2.34426 6.83783 2.11461C8.001 1.88496 9.20612 2.00507 10.3011 2.45977C11.396 2.91447 12.3317 3.68338 12.9901 4.66943C13.6484 5.65548 13.9998 6.81447 14 8.00009Z" fill="#181818"/>
</svg>
