<svg width="16" height="16" viewBox="0 0 16 16" fill="none" xmlns="http://www.w3.org/2000/svg">
<path d="M14.9998 3.49993V6.49993C14.9998 6.63253 14.9472 6.75971 14.8534 6.85348C14.7596 6.94725 14.6325 6.99993 14.4998 6.99993H11.4998C11.3672 6.99993 11.2401 6.94725 11.1463 6.85348C11.0525 6.75971 10.9998 6.63253 10.9998 6.49993C10.9998 6.36732 11.0525 6.24014 11.1463 6.14637C11.2401 6.05261 11.3672 5.99993 11.4998 5.99993H13.2123L11.5505 4.47743L11.5348 4.46243C10.8399 3.76773 9.95564 3.29321 8.99256 3.09814C8.02949 2.90307 7.03029 2.9961 6.11978 3.36561C5.20927 3.73512 4.42782 4.36473 3.87305 5.17578C3.31829 5.98683 3.0148 6.94336 3.00051 7.92589C2.98621 8.90842 3.26174 9.87338 3.79268 10.7002C4.32361 11.5271 5.08641 12.1791 5.98578 12.575C6.88516 12.9708 7.88123 13.0929 8.84957 12.9259C9.81792 12.759 10.7156 12.3104 11.4305 11.6362C11.5269 11.545 11.6555 11.4959 11.7881 11.4996C11.9208 11.5032 12.0465 11.5595 12.1377 11.6559C12.2288 11.7523 12.278 11.8809 12.2743 12.0135C12.2706 12.1462 12.2144 12.2719 12.118 12.3631C11.0064 13.4173 9.53182 14.0034 7.99984 13.9999H7.91734C6.93468 13.9865 5.97036 13.7318 5.10915 13.2584C4.24794 12.785 3.51621 12.1073 2.97825 11.2848C2.4403 10.4624 2.11261 9.5204 2.02397 8.54165C1.93533 7.5629 2.08846 6.57736 2.46991 5.67165C2.85136 4.76594 3.44944 3.96779 4.21159 3.34736C4.97373 2.72693 5.87662 2.3032 6.84087 2.11342C7.80513 1.92365 8.80125 1.97363 9.74166 2.25898C10.6821 2.54433 11.538 3.05631 12.2342 3.74993L13.9998 5.36243V3.49993C13.9998 3.36732 14.0525 3.24014 14.1463 3.14637C14.2401 3.0526 14.3672 2.99993 14.4998 2.99993C14.6325 2.99993 14.7596 3.0526 14.8534 3.14637C14.9472 3.24014 14.9998 3.36732 14.9998 3.49993Z" fill="#181818"/>
</svg>
