<svg preserveAspectRatio="none" width="100%" height="100%" overflow="visible" style="display: block;" viewBox="0 0 16 16" fill="none" xmlns="http://www.w3.org/2000/svg">
<g id="ArrowUUpLeft">
<path id="Vector" d="M14.5 9C14.4988 10.0605 14.077 11.0773 13.3271 11.8271C12.5773 12.577 11.5605 12.9988 10.5 13H5C4.86739 13 4.74022 12.9473 4.64645 12.8536C4.55268 12.7598 4.5 12.6326 4.5 12.5C4.5 12.3674 4.55268 12.2402 4.64645 12.1464C4.74022 12.0527 4.86739 12 5 12H10.5C11.2956 12 12.0587 11.6839 12.6213 11.1213C13.1839 10.5587 13.5 9.79565 13.5 9C13.5 8.20435 13.1839 7.44129 12.6213 6.87868C12.0587 6.31607 11.2956 6 10.5 6H3.20688L5.35375 8.14625C5.44757 8.24007 5.50028 8.36732 5.50028 8.5C5.50028 8.63268 5.44757 8.75993 5.35375 8.85375C5.25993 8.94757 5.13268 9.00028 5 9.00028C4.86732 9.00028 4.74007 8.94757 4.64625 8.85375L1.64625 5.85375C1.59976 5.80731 1.56288 5.75217 1.53772 5.69147C1.51256 5.63077 1.49961 5.56571 1.49961 5.5C1.49961 5.43429 1.51256 5.36923 1.53772 5.30853C1.56288 5.24783 1.59976 5.19269 1.64625 5.14625L4.64625 2.14625C4.74007 2.05243 4.86732 1.99972 5 1.99972C5.13268 1.99972 5.25993 2.05243 5.35375 2.14625C5.44757 2.24007 5.50028 2.36732 5.50028 2.5C5.50028 2.63268 5.44757 2.75993 5.35375 2.85375L3.20688 5H10.5C11.5605 5.00116 12.5773 5.42296 13.3271 6.17285C14.077 6.92275 14.4988 7.93949 14.5 9Z" fill="var(--fill-0, #181818)"/>
</g>
</svg>
