<svg preserveAspectRatio="none" width="100%" height="100%" overflow="visible" style="display: block;" viewBox="0 0 16 16" fill="none" xmlns="http://www.w3.org/2000/svg">
<g id="ArrowFatUp">
<path id="Vector" d="M14.3538 7.14625L8.35375 1.14625C8.30731 1.09976 8.25217 1.06288 8.19147 1.03772C8.13077 1.01256 8.06571 0.999607 8 0.999607C7.93429 0.999607 7.86923 1.01256 7.80853 1.03772C7.74783 1.06288 7.69269 1.09976 7.64625 1.14625L1.64625 7.14625C1.57624 7.21618 1.52856 7.3053 1.50924 7.40235C1.48991 7.49939 1.49981 7.59998 1.53769 7.6914C1.57556 7.78281 1.63971 7.86092 1.72201 7.91586C1.80431 7.9708 1.90105 8.00008 2 8H4.5V13C4.5 13.2652 4.60536 13.5196 4.79289 13.7071C4.98043 13.8946 5.23478 14 5.5 14H10.5C10.7652 14 11.0196 13.8946 11.2071 13.7071C11.3946 13.5196 11.5 13.2652 11.5 13V8H14C14.0989 8.00008 14.1957 7.9708 14.278 7.91586C14.3603 7.86092 14.4244 7.78281 14.4623 7.6914C14.5002 7.59998 14.5101 7.49939 14.4908 7.40235C14.4714 7.3053 14.4238 7.21618 14.3538 7.14625ZM11 7C10.8674 7 10.7402 7.05268 10.6464 7.14645C10.5527 7.24021 10.5 7.36739 10.5 7.5V13H5.5V7.5C5.5 7.36739 5.44732 7.24021 5.35355 7.14645C5.25979 7.05268 5.13261 7 5 7H3.20688L8 2.20688L12.7931 7H11Z" fill="var(--fill-0, #181818)"/>
</g>
</svg>
