<svg width="10" height="10" viewBox="0 0 10 10" fill="none" xmlns="http://www.w3.org/2000/svg">
<path d="M8.65859 5.22127L5.84609 8.03377C5.78746 8.0924 5.70793 8.12535 5.625 8.12535C5.54207 8.12535 5.46254 8.0924 5.40391 8.03377C5.34527 7.97513 5.31233 7.8956 5.31233 7.81267C5.31233 7.72975 5.34527 7.65022 5.40391 7.59158L7.6832 5.31267H1.5625C1.47962 5.31267 1.40013 5.27975 1.34153 5.22114C1.28292 5.16254 1.25 5.08305 1.25 5.00017C1.25 4.91729 1.28292 4.83781 1.34153 4.7792C1.40013 4.7206 1.47962 4.68767 1.5625 4.68767H7.6832L5.40391 2.40877C5.34527 2.35013 5.31233 2.2706 5.31233 2.18767C5.31233 2.10475 5.34527 2.02522 5.40391 1.96658C5.46254 1.90794 5.54207 1.875 5.625 1.875C5.70793 1.875 5.78746 1.90794 5.84609 1.96658L8.65859 4.77908C8.68765 4.8081 8.7107 4.84257 8.72642 4.8805C8.74215 4.91844 8.75024 4.95911 8.75024 5.00017C8.75024 5.04124 8.74215 5.08191 8.72642 5.11984C8.7107 5.15778 8.68765 5.19224 8.65859 5.22127Z" fill="#008836"/>
</svg>
