<svg width="16" height="16" viewBox="0 0 16 16" fill="none" xmlns="http://www.w3.org/2000/svg">
<path d="M8 6H14.5C14.6326 6 14.7598 6.05268 14.8536 6.14645C14.9473 6.24021 15 6.36739 15 6.5C15 6.63261 14.9473 6.75979 14.8536 6.85355C14.7598 6.94732 14.6326 7 14.5 7H8C7.86739 7 7.74021 6.94732 7.64645 6.85355C7.55268 6.75979 7.5 6.63261 7.5 6.5C7.5 6.36739 7.55268 6.24021 7.64645 6.14645C7.74021 6.05268 7.86739 6 8 6ZM14.5 8H8C7.86739 8 7.74021 8.05268 7.64645 8.14645C7.55268 8.24021 7.5 8.36739 7.5 8.5C7.5 8.63261 7.55268 8.75979 7.64645 8.85355C7.74021 8.94732 7.86739 9 8 9H14.5C14.6326 9 14.7598 8.94732 14.8536 8.85355C14.9473 8.75979 15 8.63261 15 8.5C15 8.36739 14.9473 8.24021 14.8536 8.14645C14.7598 8.05268 14.6326 8 14.5 8ZM14.5 10H5C4.86739 10 4.74021 10.0527 4.64645 10.1464C4.55268 10.2402 4.5 10.3674 4.5 10.5C4.5 10.6326 4.55268 10.7598 4.64645 10.8536C4.74021 10.9473 4.86739 11 5 11H14.5C14.6326 11 14.7598 10.9473 14.8536 10.8536C14.9473 10.7598 15 10.6326 15 10.5C15 10.3674 14.9473 10.2402 14.8536 10.1464C14.7598 10.0527 14.6326 10 14.5 10ZM14.5 12H5C4.86739 12 4.74021 12.0527 4.64645 12.1464C4.55268 12.2402 4.5 12.3674 4.5 12.5C4.5 12.6326 4.55268 12.7598 4.64645 12.8536C4.74021 12.9473 4.86739 13 5 13H14.5C14.6326 13 14.7598 12.9473 14.8536 12.8536C14.9473 12.7598 15 12.6326 15 12.5C15 12.3674 14.9473 12.2402 14.8536 12.1464C14.7598 12.0527 14.6326 12 14.5 12ZM6 9C6.13261 9 6.25979 8.94732 6.35355 8.85355C6.44732 8.75979 6.5 8.63261 6.5 8.5C6.5 8.36739 6.44732 8.24021 6.35355 8.14645C6.25979 8.05268 6.13261 8 6 8H5.5V4H7.5V4.5C7.5 4.63261 7.55268 4.75979 7.64645 4.85355C7.74021 4.94732 7.86739 5 8 5C8.13261 5 8.25979 4.94732 8.35355 4.85355C8.44732 4.75979 8.5 4.63261 8.5 4.5V3.5C8.5 3.36739 8.44732 3.24021 8.35355 3.14645C8.25979 3.05268 8.13261 3 8 3H2C1.86739 3 1.74021 3.05268 1.64645 3.14645C1.55268 3.24021 1.5 3.36739 1.5 3.5V4.5C1.5 4.63261 1.55268 4.75979 1.64645 4.85355C1.74021 4.94732 1.86739 5 2 5C2.13261 5 2.25979 4.94732 2.35355 4.85355C2.44732 4.75979 2.5 4.63261 2.5 4.5V4H4.5V8H4C3.86739 8 3.74021 8.05268 3.64645 8.14645C3.55268 8.24021 3.5 8.36739 3.5 8.5C3.5 8.63261 3.55268 8.75979 3.64645 8.85355C3.74021 8.94732 3.86739 9 4 9H6Z" fill="#181818"/>
</svg>
