<svg width="16" height="16" viewBox="0 0 16 16" fill="none" xmlns="http://www.w3.org/2000/svg">
<path d="M13.5002 2.5H4.28328C4.11068 2.5005 3.94111 2.54544 3.79092 2.6305C3.64073 2.71555 3.51498 2.83786 3.42578 2.98563L0.571405 7.7425C0.524683 7.82027 0.5 7.90928 0.5 8C0.5 8.09072 0.524683 8.17973 0.571405 8.2575L3.42578 13.0144C3.51498 13.1621 3.64073 13.2844 3.79092 13.3695C3.94111 13.4546 4.11068 13.4995 4.28328 13.5H13.5002C13.7654 13.5 14.0197 13.3946 14.2073 13.2071C14.3948 13.0196 14.5002 12.7652 14.5002 12.5V3.5C14.5002 3.23478 14.3948 2.98043 14.2073 2.79289C14.0197 2.60536 13.7654 2.5 13.5002 2.5ZM13.5002 12.5H4.28328L1.58328 8L4.28328 3.5H13.5002V12.5ZM6.64641 9.14625L7.79328 8L6.64641 6.85375C6.55259 6.75993 6.49988 6.63268 6.49988 6.5C6.49988 6.36732 6.55259 6.24007 6.64641 6.14625C6.74023 6.05243 6.86747 5.99972 7.00016 5.99972C7.13284 5.99972 7.26009 6.05243 7.35391 6.14625L8.50016 7.29313L9.64641 6.14625C9.69286 6.09979 9.74801 6.06294 9.80871 6.0378C9.8694 6.01266 9.93446 5.99972 10.0002 5.99972C10.0659 5.99972 10.1309 6.01266 10.1916 6.0378C10.2523 6.06294 10.3075 6.09979 10.3539 6.14625C10.4004 6.1927 10.4372 6.24786 10.4624 6.30855C10.4875 6.36925 10.5004 6.4343 10.5004 6.5C10.5004 6.5657 10.4875 6.63075 10.4624 6.69145C10.4372 6.75214 10.4004 6.8073 10.3539 6.85375L9.20703 8L10.3539 9.14625C10.4004 9.1927 10.4372 9.24786 10.4624 9.30855C10.4875 9.36925 10.5004 9.4343 10.5004 9.5C10.5004 9.5657 10.4875 9.63075 10.4624 9.69145C10.4372 9.75214 10.4004 9.8073 10.3539 9.85375C10.3075 9.90021 10.2523 9.93706 10.1916 9.9622C10.1309 9.98734 10.0659 10.0003 10.0002 10.0003C9.93446 10.0003 9.8694 9.98734 9.80871 9.9622C9.74801 9.93706 9.69286 9.90021 9.64641 9.85375L8.50016 8.70687L7.35391 9.85375C7.30745 9.90021 7.2523 9.93706 7.1916 9.9622C7.13091 9.98734 7.06585 10.0003 7.00016 10.0003C6.93446 10.0003 6.8694 9.98734 6.80871 9.9622C6.74801 9.93706 6.69286 9.90021 6.64641 9.85375C6.59995 9.8073 6.5631 9.75214 6.53796 9.69145C6.51282 9.63075 6.49988 9.5657 6.49988 9.5C6.49988 9.4343 6.51282 9.36925 6.53796 9.30855C6.5631 9.24786 6.59995 9.1927 6.64641 9.14625Z" fill="#181818"/>
</svg>
