<svg preserveAspectRatio="none" width="100%" height="100%" overflow="visible" style="display: block;" viewBox="0 0 16 16" fill="none" xmlns="http://www.w3.org/2000/svg">
<g id="BagSimple">
<path id="Vector" d="M13.5 4H11C11 3.20435 10.6839 2.44129 10.1213 1.87868C9.55871 1.31607 8.79565 1 8 1C7.20435 1 6.44129 1.31607 5.87868 1.87868C5.31607 2.44129 5 3.20435 5 4H2.5C2.23478 4 1.98043 4.10536 1.79289 4.29289C1.60536 4.48043 1.5 4.73478 1.5 5V12.5C1.5 12.7652 1.60536 13.0196 1.79289 13.2071C1.98043 13.3946 2.23478 13.5 2.5 13.5H13.5C13.7652 13.5 14.0196 13.3946 14.2071 13.2071C14.3946 13.0196 14.5 12.7652 14.5 12.5V5C14.5 4.73478 14.3946 4.48043 14.2071 4.29289C14.0196 4.10536 13.7652 4 13.5 4ZM8 2C8.53043 2 9.03914 2.21071 9.41421 2.58579C9.78929 2.96086 10 3.46957 10 4H6C6 3.46957 6.21071 2.96086 6.58579 2.58579C6.96086 2.21071 7.46957 2 8 2ZM13.5 12.5H2.5V5H13.5V12.5Z" fill="var(--fill-0, #181818)"/>
</g>
</svg>
