<svg width="16" height="16" viewBox="0 0 16 16" fill="none" xmlns="http://www.w3.org/2000/svg">
<path d="M9.49963 9C9.49963 9.13261 9.44695 9.25979 9.35318 9.35355C9.25941 9.44732 9.13224 9.5 8.99963 9.5H6.99963C6.90914 9.49995 6.82036 9.47534 6.74276 9.42879C6.66515 9.38225 6.60164 9.31552 6.55898 9.23572C6.51632 9.15591 6.49611 9.06603 6.50052 8.97565C6.50493 8.88527 6.53378 8.79777 6.584 8.7225L8.06525 6.5H6.99963C6.86702 6.5 6.73984 6.44732 6.64607 6.35355C6.55231 6.25978 6.49963 6.13261 6.49963 6C6.49963 5.86739 6.55231 5.74021 6.64607 5.64645C6.73984 5.55268 6.86702 5.5 6.99963 5.5H8.99963C9.09012 5.50005 9.1789 5.52466 9.2565 5.57121C9.3341 5.61775 9.39762 5.68448 9.44028 5.76428C9.48294 5.84409 9.50314 5.93397 9.49873 6.02435C9.49433 6.11473 9.46547 6.20223 9.41525 6.2775L7.93713 8.5H8.99963C9.13224 8.5 9.25941 8.55268 9.35318 8.64645C9.44695 8.74021 9.49963 8.86739 9.49963 9ZM13.8646 12C13.7779 12.1527 13.6521 12.2796 13.5 12.3675C13.348 12.4554 13.1752 12.5011 12.9996 12.5H10.449C10.3336 13.0645 10.0269 13.5718 9.58054 13.9361C9.13423 14.3004 8.57577 14.4994 7.99963 14.4994C7.42349 14.4994 6.86503 14.3004 6.41871 13.9361C5.97239 13.5718 5.66561 13.0645 5.55025 12.5H2.99963C2.82384 12.4998 2.65122 12.4532 2.49916 12.365C2.34711 12.2768 2.221 12.15 2.13353 11.9975C2.04607 11.845 2.00035 11.6722 2.00098 11.4964C2.00161 11.3206 2.04857 11.1481 2.13713 10.9962C2.484 10.3987 2.99963 8.70875 2.99963 6.5C2.99963 5.17392 3.52641 3.90215 4.46409 2.96447C5.40178 2.02678 6.67354 1.5 7.99963 1.5C9.32571 1.5 10.5975 2.02678 11.5352 2.96447C12.4728 3.90215 12.9996 5.17392 12.9996 6.5C12.9996 8.70812 13.5159 10.3987 13.8628 10.9962C13.9522 11.1483 13.9995 11.3215 13.9998 11.4979C14.0002 11.6743 13.9535 11.8476 13.8646 12ZM9.41338 12.5H6.58588C6.68947 12.7921 6.88101 13.045 7.13417 13.2238C7.38733 13.4027 7.68967 13.4987 7.99963 13.4987C8.30958 13.4987 8.61193 13.4027 8.86509 13.2238C9.11825 13.045 9.30979 12.7921 9.41338 12.5ZM12.9996 11.5C12.5165 10.6706 11.9996 8.75312 11.9996 6.5C11.9996 5.43913 11.5782 4.42172 10.8281 3.67157C10.0779 2.92143 9.06049 2.5 7.99963 2.5C6.93876 2.5 5.92135 2.92143 5.1712 3.67157C4.42105 4.42172 3.99963 5.43913 3.99963 6.5C3.99963 8.75375 3.48213 10.6712 2.99963 11.5H12.9996Z" fill="#181818"/>
</svg>
