<svg width="16" height="16" viewBox="0 0 16 16" fill="none" xmlns="http://www.w3.org/2000/svg">
<g clip-path="url(#clip0_2311_26083)">
<path d="M15.5001 2C15.3675 2 15.2403 2.05268 15.1465 2.14645C15.0527 2.24021 15.0001 2.36739 15.0001 2.5C14.9877 2.87231 14.9123 3.23982 14.7769 3.58687C14.5238 4.20125 14.1063 4.5 13.5001 4.5C12.8088 4.5 12.3219 3.89 11.6569 2.95937C11.0001 2.04125 10.2576 1 9.00006 1C7.97568 1 7.18756 1.55562 6.78568 2.5625C6.66794 2.86435 6.58612 3.17902 6.54193 3.5H5.50006C5.23484 3.5 4.98049 3.60536 4.79295 3.79289C4.60542 3.98043 4.50006 4.23478 4.50006 4.5V5.09937C3.39902 5.66033 2.51897 6.57572 2.00177 7.69797C1.48456 8.82022 1.36035 10.0839 1.64915 11.2854C1.93795 12.4869 2.62293 13.5561 3.59368 14.3207C4.56442 15.0853 5.76436 15.5007 7.00006 15.5H7.09943C8.32673 15.4789 9.51169 15.0479 10.4657 14.2755C11.4197 13.5031 12.0879 12.4338 12.364 11.2378C12.64 10.0417 12.5081 8.78775 11.9891 7.67539C11.4701 6.56303 10.5939 5.65624 9.50006 5.09937V4.5C9.50006 4.23478 9.3947 3.98043 9.20717 3.79289C9.01963 3.60536 8.76528 3.5 8.50006 3.5H7.55506C7.59054 3.29947 7.64689 3.10319 7.72318 2.91438C7.97631 2.29875 8.39381 2 9.00006 2C9.69131 2 10.1782 2.61 10.8432 3.54063C11.5001 4.45875 12.2426 5.5 13.5001 5.5C14.5244 5.5 15.3126 4.94438 15.7144 3.9375C15.8913 3.47825 15.9879 2.992 16.0001 2.5C16.0001 2.36739 15.9474 2.24021 15.8536 2.14645C15.7598 2.05268 15.6327 2 15.5001 2ZM6.99318 13.0825C6.97366 13.1992 6.91341 13.3052 6.82312 13.3816C6.73283 13.458 6.61836 13.5 6.50006 13.5C6.47221 13.4999 6.44442 13.4976 6.41693 13.4931C5.69207 13.3645 5.02419 13.0164 4.50362 12.4958C3.98306 11.9752 3.63493 11.3074 3.50631 10.5825C3.49481 10.5175 3.49631 10.4508 3.51072 10.3863C3.52513 10.3219 3.55217 10.2609 3.59028 10.207C3.62839 10.153 3.67681 10.1071 3.73275 10.072C3.78868 10.0369 3.85102 10.0132 3.91617 10.0023C3.98131 9.99138 4.04797 9.9935 4.11229 10.0085C4.17662 10.0235 4.23733 10.0511 4.29092 10.0897C4.34451 10.1283 4.38993 10.1772 4.42454 10.2334C4.45915 10.2897 4.48226 10.3523 4.49256 10.4175C4.585 10.9378 4.83495 11.4172 5.20861 11.7908C5.58227 12.1645 6.06164 12.4144 6.58193 12.5069C6.64675 12.5176 6.7088 12.5411 6.76456 12.5758C6.82031 12.6106 6.86866 12.656 6.90685 12.7095C6.94505 12.7629 6.97233 12.8234 6.98714 12.8874C7.00196 12.9514 7.00401 13.0177 6.99318 13.0825Z" fill="#666666"/>
</g>
<defs>
<clipPath id="clip0_2311_26083">
<rect width="16" height="16" fill="white"/>
</clipPath>
</defs>
</svg>
