<svg width="16" height="16" viewBox="0 0 16 16" fill="none" xmlns="http://www.w3.org/2000/svg">
<path d="M4.6665 1.33331C3.56986 1.33331 2.6665 2.23667 2.6665 3.33331V12.6666C2.6665 13.7633 3.56986 14.6666 4.6665 14.6666H13.3332V13.3333H4.6665C4.28982 13.3333 3.99984 13.0433 3.99984 12.6666C3.99984 12.29 4.28982 12 4.6665 12H13.3332V10.6666V1.33331H10.6665H6.6665H4.6665ZM4.6665 2.66665H6.6665V8.08201L7.71598 7.34633L8.6665 6.67836L10.6665 8.08201V2.66665H11.9998V10.6666H4.6665C4.43194 10.6666 4.20976 10.7159 3.99984 10.7916V3.33331C3.99984 2.95663 4.28982 2.66665 4.6665 2.66665ZM7.99984 2.66665H9.33317V5.51821L8.6665 5.05076L7.99984 5.51821V2.66665Z" fill="#666666"/>
</svg>
