<svg preserveAspectRatio="none" width="100%" height="100%" overflow="visible" style="display: block;" viewBox="0 0 16 16" fill="none" xmlns="http://www.w3.org/2000/svg">
<g id="BugDroid">
<path id="Vector" d="M11.9894 3.2175L12.8538 2.35375C12.9476 2.25993 13.0003 2.13268 13.0003 2C13.0003 1.86732 12.9476 1.74007 12.8538 1.64625C12.7599 1.55243 12.6327 1.49972 12.5 1.49972C12.3673 1.49972 12.2401 1.55243 12.1463 1.64625L11.2369 2.55625C10.2972 1.86994 9.16364 1.50007 8 1.50007C6.83636 1.50007 5.70283 1.86994 4.76313 2.55625L3.85375 1.64625C3.75993 1.55243 3.63268 1.49972 3.5 1.49972C3.36732 1.49972 3.24007 1.55243 3.14625 1.64625C3.05243 1.74007 2.99972 1.86732 2.99972 2C2.99972 2.13268 3.05243 2.25993 3.14625 2.35375L4.01063 3.2175C3.04005 4.23757 2.49914 5.59196 2.5 7V9.5C2.5 10.9587 3.07946 12.3576 4.11091 13.3891C5.14236 14.4205 6.54131 15 8 15C9.45869 15 10.8576 14.4205 11.8891 13.3891C12.9205 12.3576 13.5 10.9587 13.5 9.5V7C13.5009 5.59196 12.96 4.23757 11.9894 3.2175ZM8 2.5C9.19307 2.50132 10.3369 2.97585 11.1805 3.81948C12.0241 4.66311 12.4987 5.80693 12.5 7V7.5H3.5V7C3.50132 5.80693 3.97585 4.66311 4.81948 3.81948C5.66311 2.97585 6.80693 2.50132 8 2.5ZM8 14C6.80693 13.9987 5.66311 13.5241 4.81948 12.6805C3.97585 11.8369 3.50132 10.6931 3.5 9.5V8.5H12.5V9.5C12.4987 10.6931 12.0241 11.8369 11.1805 12.6805C10.3369 13.5241 9.19307 13.9987 8 14ZM9 5.75C9 5.60166 9.04399 5.45666 9.1264 5.33332C9.20881 5.20999 9.32594 5.11386 9.46299 5.05709C9.60003 5.00032 9.75083 4.98547 9.89632 5.01441C10.0418 5.04335 10.1754 5.11478 10.2803 5.21967C10.3852 5.32456 10.4567 5.4582 10.4856 5.60368C10.5145 5.74917 10.4997 5.89997 10.4429 6.03701C10.3861 6.17406 10.29 6.29119 10.1667 6.3736C10.0433 6.45601 9.89834 6.5 9.75 6.5C9.55109 6.5 9.36032 6.42098 9.21967 6.28033C9.07902 6.13968 9 5.94891 9 5.75ZM5.5 5.75C5.5 5.60166 5.54399 5.45666 5.6264 5.33332C5.70881 5.20999 5.82594 5.11386 5.96299 5.05709C6.10003 5.00032 6.25083 4.98547 6.39632 5.01441C6.5418 5.04335 6.67544 5.11478 6.78033 5.21967C6.88522 5.32456 6.95665 5.4582 6.98559 5.60368C7.01453 5.74917 6.99968 5.89997 6.94291 6.03701C6.88614 6.17406 6.79001 6.29119 6.66668 6.3736C6.54334 6.45601 6.39834 6.5 6.25 6.5C6.05109 6.5 5.86032 6.42098 5.71967 6.28033C5.57902 6.13968 5.5 5.94891 5.5 5.75Z" fill="var(--fill-0, #181818)"/>
</g>
</svg>
