<svg preserveAspectRatio="none" width="100%" height="100%" overflow="visible" style="display: block;" viewBox="0 0 16 16" fill="none" xmlns="http://www.w3.org/2000/svg">
<g id="ChartLineUp">
<path id="Vector" d="M14.5 13C14.5 13.1326 14.4473 13.2598 14.3536 13.3536C14.2598 13.4473 14.1326 13.5 14 13.5H2C1.86739 13.5 1.74021 13.4473 1.64645 13.3536C1.55268 13.2598 1.5 13.1326 1.5 13V3C1.5 2.86739 1.55268 2.74021 1.64645 2.64645C1.74021 2.55268 1.86739 2.5 2 2.5C2.13261 2.5 2.25979 2.55268 2.35355 2.64645C2.44732 2.74021 2.5 2.86739 2.5 3V9.79313L5.64625 6.64625C5.69269 6.59976 5.74783 6.56288 5.80853 6.53772C5.86923 6.51256 5.93429 6.49961 6 6.49961C6.06571 6.49961 6.13077 6.51256 6.19147 6.53772C6.25217 6.56288 6.30731 6.59976 6.35375 6.64625L8 8.29313L11.2931 5H10C9.86739 5 9.74021 4.94732 9.64645 4.85355C9.55268 4.75979 9.5 4.63261 9.5 4.5C9.5 4.36739 9.55268 4.24021 9.64645 4.14645C9.74021 4.05268 9.86739 4 10 4H12.5C12.6326 4 12.7598 4.05268 12.8536 4.14645C12.9473 4.24021 13 4.36739 13 4.5V7C13 7.13261 12.9473 7.25979 12.8536 7.35355C12.7598 7.44732 12.6326 7.5 12.5 7.5C12.3674 7.5 12.2402 7.44732 12.1464 7.35355C12.0527 7.25979 12 7.13261 12 7V5.70687L8.35375 9.35375C8.30731 9.40024 8.25217 9.43712 8.19147 9.46228C8.13077 9.48744 8.06571 9.50039 8 9.50039C7.93429 9.50039 7.86923 9.48744 7.80853 9.46228C7.74783 9.43712 7.69269 9.40024 7.64625 9.35375L6 7.70687L2.5 11.2069V12.5H14C14.1326 12.5 14.2598 12.5527 14.3536 12.6464C14.4473 12.7402 14.5 12.8674 14.5 13Z" fill="var(--fill-0, #181818)"/>
</g>
</svg>
