<svg width="16" height="16" viewBox="0 0 16 16" fill="none" xmlns="http://www.w3.org/2000/svg">
<path d="M8.00011 1.5C7.8675 1.5 7.74033 1.55268 7.64656 1.64645C7.55279 1.74021 7.50011 1.86739 7.50011 2V5.5C7.50011 5.63261 7.55279 5.75979 7.64656 5.85355C7.74033 5.94732 7.8675 6 8.00011 6C8.44036 6.0001 8.86828 6.14546 9.2175 6.41353C9.56672 6.68161 9.81773 7.05742 9.9316 7.48269C10.0455 7.90796 10.0158 8.35891 9.84731 8.76563C9.67878 9.17234 9.38076 9.51208 8.99947 9.73216C8.61818 9.95225 8.17492 10.0404 7.73844 9.98287C7.30196 9.92537 6.89666 9.72546 6.58537 9.41413C6.27408 9.10281 6.07422 8.69748 6.01677 8.261C5.95931 7.82451 6.04749 7.38127 6.26761 7C6.30045 6.94313 6.32177 6.88034 6.33034 6.81522C6.33891 6.7501 6.33457 6.68394 6.31757 6.6205C6.30056 6.55706 6.27122 6.4976 6.23123 6.4455C6.19124 6.3934 6.14137 6.3497 6.08449 6.31688L3.05324 4.56688C2.99636 4.53403 2.93357 4.51272 2.86846 4.50414C2.80334 4.49557 2.73717 4.49991 2.67374 4.51692C2.6103 4.53392 2.55083 4.56326 2.49874 4.60325C2.44664 4.64325 2.40293 4.69311 2.37011 4.75C1.65469 5.98914 1.36813 7.42972 1.55487 8.84832C1.74161 10.2669 2.39121 11.5843 3.40294 12.596C4.41466 13.6078 5.73196 14.2575 7.15055 14.4444C8.56913 14.6312 10.0097 14.3447 11.2489 13.6294C12.4881 12.914 13.4566 11.8098 14.0043 10.4879C14.552 9.16605 14.6482 7.7004 14.278 6.31828C13.9078 4.93616 13.0919 3.71481 11.9568 2.84365C10.8217 1.97248 9.43095 1.50018 8.00011 1.5ZM3.00574 5.69375L5.18761 6.95375C5.06345 7.28859 4.99996 7.64288 5.00011 8C5.00011 8.09563 5.00511 8.1875 5.01386 8.2825L2.58011 8.9375C2.39032 7.8381 2.53874 6.70697 3.00574 5.69375ZM2.83886 9.90063L5.27636 9.24813C5.48015 9.69235 5.78918 10.0802 6.17667 10.378C6.56415 10.6759 7.01842 10.8748 7.50011 10.9575V13.4769C6.465 13.3809 5.47812 12.9943 4.65336 12.3615C3.82859 11.7287 3.19956 10.8756 2.83886 9.90063ZM8.50011 13.4769V10.9575C9.19887 10.8391 9.83314 10.4771 10.2905 9.93566C10.7479 9.39426 10.9988 8.70842 10.9988 7.99969C10.9988 7.29096 10.7479 6.60512 10.2905 6.06372C9.83314 5.52231 9.19887 5.16031 8.50011 5.04188V2.5225C9.86648 2.64734 11.1369 3.27837 12.0619 4.29174C12.9869 5.30511 13.4997 6.62763 13.4997 7.99969C13.4997 9.37175 12.9869 10.6943 12.0619 11.7076C11.1369 12.721 9.86648 13.352 8.50011 13.4769Z" fill="#181818"/>
</svg>
