<svg width="12" height="12" viewBox="0 0 12 12" fill="none" xmlns="http://www.w3.org/2000/svg">
<g clip-path="url(#clip0_2961_32908)">
<path d="M6 1.02539C7.319 1.02678 8.58393 1.55073 9.5166 2.4834C10.4493 3.41607 10.9732 4.681 10.9746 6L10.9609 6.36816C10.8976 7.22235 10.6148 8.048 10.1367 8.76367C9.59011 9.58173 8.81325 10.2201 7.9043 10.5967C6.99523 10.9732 5.99435 11.0718 5.0293 10.8799C4.06425 10.6879 3.17818 10.2133 2.48242 9.51758C1.78666 8.82182 1.31208 7.93575 1.12012 6.9707C0.928156 6.00565 1.02677 5.00477 1.40332 4.0957C1.77988 3.18675 2.41827 2.40989 3.23633 1.86328C4.0544 1.31674 5.01615 1.02539 6 1.02539ZM7.54004 2.28125C6.80464 1.9767 5.99552 1.89745 5.21484 2.05273C4.43407 2.20804 3.7172 2.59139 3.1543 3.1543C2.59139 3.7172 2.20804 4.43407 2.05273 5.21484C1.89745 5.99552 1.9767 6.80464 2.28125 7.54004C2.58588 8.27547 3.10181 8.90441 3.76367 9.34668C4.42558 9.78895 5.20393 10.0254 6 10.0254L6.19922 10.0195C7.19376 9.96918 8.13725 9.5522 8.84473 8.84473C9.59929 8.09016 10.0242 7.06711 10.0254 6L10.0137 5.70215C9.96239 5.01098 9.7336 4.34274 9.34668 3.76367C8.90441 3.10181 8.27547 2.58588 7.54004 2.28125ZM7.875 4.39941C7.9373 4.39941 7.99908 4.41174 8.05664 4.43555C8.11429 4.45944 8.16683 4.49492 8.21094 4.53906C8.25508 4.58317 8.29056 4.63571 8.31445 4.69336C8.33826 4.75093 8.35059 4.8127 8.35059 4.875C8.35059 4.9373 8.33826 4.99907 8.31445 5.05664C8.29056 5.11429 8.25508 5.16683 8.21094 5.21094L5.58594 7.83594C5.54183 7.88008 5.48929 7.91556 5.43164 7.93945C5.37408 7.96326 5.3123 7.97559 5.25 7.97559C5.1877 7.97559 5.12593 7.96326 5.06836 7.93945C5.01071 7.91556 4.95817 7.88008 4.91406 7.83594L3.78906 6.71094C3.69994 6.62182 3.64941 6.50103 3.64941 6.375L3.65918 6.28223C3.6774 6.19076 3.72215 6.10598 3.78906 6.03906C3.87818 5.94994 3.99897 5.89941 4.125 5.89941C4.25103 5.89941 4.37182 5.94994 4.46094 6.03906L5.25 6.82812L7.53906 4.53906C7.58317 4.49492 7.63571 4.45944 7.69336 4.43555C7.75092 4.41174 7.8127 4.39941 7.875 4.39941Z" fill="#008836" stroke="#008836" stroke-width="0.2"/>
</g>
<defs>
<clipPath id="clip0_2961_32908">
<rect width="12" height="12" fill="white"/>
</clipPath>
</defs>
</svg>
