<svg width="16" height="16" viewBox="0 0 16 16" fill="none" xmlns="http://www.w3.org/2000/svg">
<path d="M9.00586 4.44977C9.07802 4.45044 9.14939 4.46551 9.21582 4.49371C9.28229 4.52196 9.34294 4.56329 9.39355 4.61481C9.44391 4.66617 9.48375 4.72684 9.51074 4.79352C9.53776 4.8604 9.55137 4.93233 9.55078 5.00446C9.55014 5.07672 9.53508 5.14888 9.50684 5.21539C9.47867 5.28159 9.43799 5.34169 9.38672 5.39215L9.37207 5.4068H9.37109L3.78613 10.8922C3.68334 10.9933 3.54457 11.0503 3.40039 11.0504C3.25609 11.0504 3.11752 10.9933 3.01465 10.8922L0.614258 8.53571C0.56277 8.48506 0.522337 8.42446 0.494141 8.35797C0.465942 8.29147 0.450802 8.22024 0.450195 8.14801C0.449594 8.07579 0.463157 8.00403 0.490234 7.93707C0.51731 7.87018 0.556827 7.80885 0.607422 7.75739C0.658014 7.70594 0.718741 7.66547 0.785156 7.63727C0.851556 7.60911 0.922999 7.59397 0.995117 7.59332C1.06726 7.59272 1.13916 7.60635 1.20605 7.63336C1.27302 7.66044 1.33424 7.70088 1.38574 7.75153L3.39941 9.72809L8.61523 4.60699C8.71931 4.50492 8.86007 4.44848 9.00586 4.44977ZM15.0049 4.44977C15.0771 4.45041 15.1484 4.46549 15.2148 4.49371C15.2814 4.52198 15.342 4.56322 15.3926 4.61481C15.4431 4.66627 15.4837 4.72667 15.5107 4.79352C15.5378 4.86056 15.5505 4.93315 15.5498 5.00543C15.5491 5.07757 15.5341 5.14902 15.5059 5.21539C15.4775 5.28177 15.4363 5.34164 15.3848 5.39215L9.78516 10.8922C9.68228 10.9933 9.54371 11.0504 9.39941 11.0504C9.25513 11.0503 9.11654 10.9933 9.01367 10.8922L7.4873 9.39215C7.38328 9.29003 7.32371 9.15119 7.32227 9.00543C7.32091 8.85963 7.37741 8.7189 7.47949 8.61481C7.58169 8.51069 7.7213 8.45112 7.86719 8.44977C8.01301 8.44842 8.15372 8.50487 8.25781 8.60699L9.39941 9.72809L14.6143 4.60699C14.6657 4.5564 14.727 4.51687 14.7939 4.48981C14.8609 4.46272 14.9326 4.44914 15.0049 4.44977Z" fill="#181818" stroke="#181818" stroke-width="0.1"/>
</svg>
