<svg xmlns="http://www.w3.org/2000/svg" width="20" height="20" viewBox="0 0 20 20" fill="none">
  <path d="M16.25 6.7749C16.3453 6.7749 16.4403 6.79314 16.5283 6.82959C16.6162 6.86604 16.6964 6.91953 16.7637 6.98682C16.831 7.05414 16.8845 7.13423 16.9209 7.22217C16.9573 7.31005 16.9755 7.40439 16.9756 7.49951C16.9756 7.59477 16.9573 7.68983 16.9209 7.77783C16.8844 7.86576 16.831 7.94588 16.7637 8.01318L10.5137 14.2632C10.4464 14.3305 10.3662 14.3839 10.2783 14.4204C10.1903 14.4569 10.0953 14.4751 10 14.4751C9.90487 14.4751 9.81055 14.4568 9.72266 14.4204C9.63472 14.384 9.5546 14.3305 9.4873 14.2632L3.2373 8.01318C3.10128 7.87715 3.02539 7.69189 3.02539 7.49951C3.02548 7.30726 3.10136 7.12276 3.2373 6.98682C3.37325 6.85087 3.55775 6.77499 3.75 6.7749C3.94237 6.7749 4.12764 6.85079 4.26367 6.98682L10 12.7241L15.7373 6.98682C15.8046 6.91947 15.8847 6.86604 15.9727 6.82959C16.0606 6.79318 16.1549 6.77495 16.25 6.7749Z" fill="currentColor" stroke="currentColor" stroke-width="0.2"/>
</svg>
