<svg preserveAspectRatio="none" width="100%" height="100%" overflow="visible" style="display: block;" viewBox="0 0 16 16" fill="none" xmlns="http://www.w3.org/2000/svg">
<g id="ClockCounterClockwise">
<path id="Vector" d="M8.5 5V7.71688L10.7575 9.07125C10.8712 9.13954 10.9531 9.25021 10.9853 9.37891C11.0174 9.50761 10.997 9.64379 10.9288 9.7575C10.8605 9.87121 10.7498 9.95314 10.6211 9.98525C10.4924 10.0174 10.3562 9.99704 10.2425 9.92875L7.7425 8.42875C7.66851 8.3843 7.60728 8.32144 7.56479 8.24631C7.52229 8.17118 7.49997 8.08632 7.5 8V5C7.5 4.86739 7.55268 4.74022 7.64645 4.64645C7.74021 4.55268 7.86739 4.5 8 4.5C8.13261 4.5 8.25979 4.55268 8.35355 4.64645C8.44732 4.74022 8.5 4.86739 8.5 5ZM8 2C7.21125 1.99804 6.42994 2.15252 5.70128 2.45452C4.97263 2.75651 4.31111 3.20002 3.755 3.75938C3.30063 4.21938 2.89687 4.66188 2.5 5.125V4C2.5 3.86739 2.44732 3.74021 2.35355 3.64645C2.25979 3.55268 2.13261 3.5 2 3.5C1.86739 3.5 1.74021 3.55268 1.64645 3.64645C1.55268 3.74021 1.5 3.86739 1.5 4V6.5C1.5 6.63261 1.55268 6.75979 1.64645 6.85355C1.74021 6.94732 1.86739 7 2 7H4.5C4.63261 7 4.75979 6.94732 4.85355 6.85355C4.94732 6.75979 5 6.63261 5 6.5C5 6.36739 4.94732 6.24022 4.85355 6.14645C4.75979 6.05268 4.63261 6 4.5 6H3.0625C3.50938 5.47375 3.95437 4.97813 4.46187 4.46438C5.15678 3.76947 6.04107 3.29476 7.00423 3.09955C7.96739 2.90434 8.96673 2.9973 9.87736 3.3668C10.788 3.73631 11.5696 4.36598 12.1244 5.17713C12.6792 5.98828 12.9827 6.94495 12.9969 7.92759C13.0111 8.91024 12.7354 9.87528 12.2043 10.7021C11.6732 11.529 10.9102 12.181 10.0106 12.5767C9.11103 12.9724 8.1148 13.0942 7.1464 12.927C6.17799 12.7597 5.28034 12.3108 4.56563 11.6362C4.51786 11.5911 4.46166 11.5558 4.40026 11.5324C4.33885 11.509 4.27343 11.4979 4.20773 11.4997C4.14204 11.5016 4.07735 11.5164 4.01736 11.5432C3.95738 11.5701 3.90327 11.6085 3.85812 11.6562C3.81298 11.704 3.77769 11.7602 3.75427 11.8216C3.73084 11.883 3.71974 11.9484 3.7216 12.0141C3.72345 12.0798 3.73823 12.1445 3.76509 12.2045C3.79195 12.2645 3.83036 12.3186 3.87812 12.3638C4.59028 13.0358 5.45609 13.5233 6.4 13.7838C7.34391 14.0443 8.33722 14.0698 9.29326 13.8581C10.2493 13.6464 11.139 13.2039 11.8847 12.5693C12.6304 11.9347 13.2095 11.1272 13.5713 10.2174C13.9332 9.30751 14.0669 8.32291 13.9607 7.34949C13.8546 6.37607 13.5118 5.44343 12.9623 4.63296C12.4128 3.82249 11.6733 3.15881 10.8083 2.69986C9.94334 2.24092 8.97919 2.00064 8 2Z" fill="var(--fill-0, #181818)"/>
</g>
</svg>
