<svg preserveAspectRatio="none" width="100%" height="100%" overflow="visible" style="display: block;" viewBox="0 0 13 13" fill="none" xmlns="http://www.w3.org/2000/svg">
<g id="Clock">
<path id="Vector" d="M6.5 0C5.21442 0 3.95772 0.381218 2.8888 1.09545C1.81988 1.80968 0.986756 2.82484 0.494786 4.01256C0.00281635 5.20028 -0.125905 6.50721 0.124899 7.76809C0.375703 9.02896 0.994767 10.1872 1.90381 11.0962C2.81285 12.0052 3.97104 12.6243 5.23192 12.8751C6.49279 13.1259 7.79973 12.9972 8.98744 12.5052C10.1752 12.0132 11.1903 11.1801 11.9046 10.1112C12.6188 9.04229 13 7.78558 13 6.5C12.9982 4.77665 12.3128 3.12441 11.0942 1.90582C9.8756 0.687224 8.22335 0.00181989 6.5 0ZM6.5 12C5.41221 12 4.34884 11.6774 3.44437 11.0731C2.5399 10.4687 1.83495 9.60975 1.41867 8.60476C1.00238 7.59977 0.893465 6.4939 1.10568 5.427C1.3179 4.36011 1.84173 3.3801 2.61092 2.61091C3.3801 1.84172 4.36011 1.3179 5.42701 1.10568C6.4939 0.893462 7.59977 1.00238 8.60476 1.41866C9.60976 1.83494 10.4687 2.53989 11.0731 3.44436C11.6774 4.34883 12 5.4122 12 6.5C11.9983 7.95818 11.4184 9.35617 10.3873 10.3873C9.35617 11.4184 7.95819 11.9983 6.5 12ZM10.5 6.5C10.5 6.63261 10.4473 6.75979 10.3536 6.85355C10.2598 6.94732 10.1326 7 10 7H6.5C6.36739 7 6.24022 6.94732 6.14645 6.85355C6.05268 6.75979 6 6.63261 6 6.5V3C6 2.86739 6.05268 2.74021 6.14645 2.64645C6.24022 2.55268 6.36739 2.5 6.5 2.5C6.63261 2.5 6.75979 2.55268 6.85356 2.64645C6.94732 2.74021 7 2.86739 7 3V6H10C10.1326 6 10.2598 6.05268 10.3536 6.14645C10.4473 6.24021 10.5 6.36739 10.5 6.5Z" fill="var(--fill-0, #181818)"/>
</g>
</svg>
