<svg preserveAspectRatio="none" width="100%" height="100%" overflow="visible" style="display: block;" viewBox="0 0 16 16" fill="none" xmlns="http://www.w3.org/2000/svg">
<g id="CloudCheck">
<path id="Vector" d="M10 2.5C8.97855 2.50078 7.97746 2.78571 7.10869 3.32291C6.23992 3.86011 5.53772 4.62841 5.08062 5.54187C4.53685 5.46257 3.98257 5.49616 3.45235 5.64055C2.92213 5.78494 2.42735 6.03703 1.99887 6.38111C1.57039 6.72518 1.2174 7.15385 0.961918 7.64038C0.70644 8.12691 0.553951 8.66086 0.513964 9.20893C0.473976 9.75701 0.547348 10.3074 0.729503 10.8259C0.911657 11.3444 1.19869 11.8197 1.57269 12.2223C1.94669 12.625 2.39964 12.9462 2.90329 13.166C3.40693 13.3859 3.95047 13.4995 4.5 13.5H10C11.4587 13.5 12.8576 12.9205 13.8891 11.8891C14.9205 10.8576 15.5 9.45869 15.5 8C15.5 6.54131 14.9205 5.14236 13.8891 4.11091C12.8576 3.07946 11.4587 2.5 10 2.5ZM10 12.5H4.5C3.70435 12.5 2.94129 12.1839 2.37868 11.6213C1.81607 11.0587 1.5 10.2956 1.5 9.5C1.5 8.70435 1.81607 7.94129 2.37868 7.37868C2.94129 6.81607 3.70435 6.5 4.5 6.5C4.56875 6.5 4.6375 6.5 4.70562 6.50688C4.56889 6.99279 4.4997 7.49521 4.5 8C4.5 8.13261 4.55268 8.25979 4.64645 8.35355C4.74021 8.44732 4.86739 8.5 5 8.5C5.13261 8.5 5.25978 8.44732 5.35355 8.35355C5.44732 8.25979 5.5 8.13261 5.5 8C5.5 7.10998 5.76392 6.23995 6.25839 5.49993C6.75285 4.75991 7.45566 4.18314 8.27792 3.84254C9.10019 3.50195 10.005 3.41283 10.8779 3.58647C11.7508 3.7601 12.5526 4.18868 13.182 4.81802C13.8113 5.44736 14.2399 6.24918 14.4135 7.12209C14.5872 7.99501 14.4981 8.89981 14.1575 9.72208C13.8169 10.5443 13.2401 11.2471 12.5001 11.7416C11.76 12.2361 10.89 12.5 10 12.5ZM12.3537 6.64625C12.4002 6.69269 12.4371 6.74783 12.4623 6.80853C12.4874 6.86923 12.5004 6.93429 12.5004 7C12.5004 7.06571 12.4874 7.13077 12.4623 7.19147C12.4371 7.25217 12.4002 7.30731 12.3537 7.35375L9.35375 10.3538C9.30731 10.4002 9.25217 10.4371 9.19147 10.4623C9.13077 10.4874 9.06571 10.5004 9 10.5004C8.93429 10.5004 8.86923 10.4874 8.80853 10.4623C8.74783 10.4371 8.69269 10.4002 8.64625 10.3538L7.14625 8.85375C7.05243 8.75993 6.99972 8.63268 6.99972 8.5C6.99972 8.36732 7.05243 8.24007 7.14625 8.14625C7.24007 8.05243 7.36732 7.99972 7.5 7.99972C7.63268 7.99972 7.75993 8.05243 7.85375 8.14625L9 9.29313L11.6462 6.64625C11.6927 6.59976 11.7478 6.56288 11.8085 6.53772C11.8692 6.51256 11.9343 6.49961 12 6.49961C12.0657 6.49961 12.1308 6.51256 12.1915 6.53772C12.2522 6.56288 12.3073 6.59976 12.3537 6.64625Z" fill="var(--fill-0, #181818)"/>
</g>
</svg>
