<svg width="16" height="16" viewBox="0 0 16 16" fill="none" xmlns="http://www.w3.org/2000/svg">
<path d="M3.66667 13.3333C1.64 13.3333 0 11.6933 0 9.66659C0 7.63992 1.64 5.99992 3.66667 5.99992C4.33333 4.43325 5.86667 3.33325 7.66667 3.33325C9.95333 3.33325 11.8267 5.10659 12 7.35325L12.3333 7.33325C14 7.33325 15.3333 8.66659 15.3333 10.3333C15.3333 11.9999 14 13.3333 12.3333 13.3333H3.66667ZM3.66667 6.66659C2 6.66659 0.666667 7.99992 0.666667 9.66659C0.666667 11.3333 2 12.6666 3.66667 12.6666C4.81333 12.6666 11.1 12.6666 12.3333 12.6666C13.62 12.6666 14.6667 11.6199 14.6667 10.3333C14.6667 9.04659 13.62 7.99992 12.3333 7.99992C11.96 7.99992 11.6 8.08659 11.2867 8.24659C11.3333 8.05992 11.3333 7.86659 11.3333 7.66659C11.3333 5.63992 9.69333 3.99992 7.66667 3.99992C5.97333 3.99992 4.55333 5.14659 4.12667 6.69992L3.66667 6.66659Z" fill="currentColor"/>
</svg>
