<svg width="16" height="16" viewBox="0 0 16 16" fill="none" xmlns="http://www.w3.org/2000/svg">
<g clip-path="url(#clip0_1422_6377)">
<path d="M12.9 6.69341C12.4467 4.39341 10.4267 2.66675 8 2.66675C6.07333 2.66675 4.4 3.76008 3.56667 5.36008C1.56 5.57341 0 7.27342 0 9.33342C0 11.5401 1.79333 13.3334 4 13.3334H12.6667C14.5067 13.3334 16 11.8401 16 10.0001C16 8.24008 14.6333 6.81342 12.9 6.69341ZM12.6667 12.0001H4C2.52667 12.0001 1.33333 10.8067 1.33333 9.33342C1.33333 7.96675 2.35333 6.82675 3.70667 6.68675L4.42 6.61341L4.75333 5.98008C5.38667 4.76008 6.62667 4.00008 8 4.00008C9.74667 4.00008 11.2533 5.24008 11.5933 6.95341L11.7933 7.95341L12.8133 8.02675C13.8533 8.09341 14.6667 8.96675 14.6667 10.0001C14.6667 11.1001 13.7667 12.0001 12.6667 12.0001ZM5.33333 8.66675H7.03333V10.6667H8.96667V8.66675H10.6667L8 6.00008L5.33333 8.66675Z" fill="#858585"/>
</g>
<defs>
<clipPath id="clip0_1422_6377">
<rect width="16" height="16" fill="white"/>
</clipPath>
</defs>
</svg>
