<svg width="10" height="10" viewBox="0 0 10 10" fill="none" xmlns="http://www.w3.org/2000/svg">
<path d="M9.36517 3.5472C9.36517 3.5515 9.36517 3.5554 9.36243 3.5597L8.47649 7.61712C8.44922 7.75999 8.37297 7.88888 8.26088 7.98158C8.14879 8.07427 8.00788 8.12497 7.86243 8.12494H2.13704C1.99165 8.12488 1.85084 8.07414 1.73883 7.98145C1.62682 7.88877 1.55063 7.75993 1.52337 7.61712L0.63743 3.5597C0.63743 3.5554 0.635477 3.5515 0.634695 3.5472C0.610448 3.41286 0.630848 3.27428 0.692778 3.15263C0.754708 3.03098 0.854763 2.93296 0.977653 2.87352C1.10054 2.81409 1.23951 2.79653 1.37332 2.82352C1.50714 2.85051 1.62843 2.92056 1.71868 3.02298L3.03391 4.44056L4.43235 1.30423C4.43242 1.30293 4.43242 1.30163 4.43235 1.30032C4.48236 1.19187 4.56239 1.10001 4.66298 1.03562C4.76357 0.971231 4.8805 0.937012 4.99993 0.937012C5.11936 0.937012 5.23629 0.971231 5.33688 1.03562C5.43747 1.10001 5.5175 1.19187 5.56751 1.30032C5.56744 1.30163 5.56744 1.30293 5.56751 1.30423L6.96595 4.44056L8.28118 3.02298C8.37162 2.92132 8.49275 2.85195 8.6262 2.82541C8.75965 2.79886 8.89811 2.81658 9.02057 2.87589C9.14303 2.9352 9.24278 3.03284 9.3047 3.154C9.36661 3.27516 9.38729 3.41322 9.3636 3.5472H9.36517Z" fill="#E0B637"/>
</svg>
