<svg xmlns="http://www.w3.org/2000/svg" width="32" height="32" viewBox="0 0 24 24"><!-- Icon from Material Symbols Light by Google - https://github.com/google/material-design-icons/blob/master/LICENSE --><path fill="currentColor" d="M12.058 20q-3.333 0-5.667-2.334T4.058 12q0-2.47 1.413-4.535q1.414-2.067 4.01-2.973q.306-.107.536-.056t.381.199t.192.38q.04.233-.063.489q-.194.477-.282.966t-.087 1.03q0 2.667 1.866 4.533t4.534 1.867q.698 0 1.277-.148q.58-.148.988-.24q.218-.04.399.01t.289.176q.118.125.16.308q.04.183-.048.417q-.715 2.45-2.803 4.013T12.058 20m0-1q2.2 0 3.95-1.213t2.55-3.162q-.5.125-1 .2t-1 .075q-3.075 0-5.238-2.162T9.158 7.5q0-.5.075-1t.2-1q-1.95.8-3.163 2.55T5.058 12q0 2.9 2.05 4.95t4.95 2.05m-.25-6.75"/></svg>