<svg preserveAspectRatio="none" width="100%" height="100%" overflow="visible" style="display: block;" viewBox="0 0 16 16" fill="none" xmlns="http://www.w3.org/2000/svg">
<g id="DiscordLogo">
<path id="Vector" d="M6.5 8.75C6.5 8.89834 6.45601 9.04334 6.3736 9.16668C6.29119 9.29001 6.17406 9.38614 6.03701 9.44291C5.89997 9.49967 5.74917 9.51453 5.60368 9.48559C5.4582 9.45665 5.32456 9.38522 5.21967 9.28033C5.11478 9.17544 5.04335 9.0418 5.01441 8.89632C4.98547 8.75083 5.00032 8.60003 5.05709 8.46299C5.11386 8.32594 5.20999 8.20881 5.33332 8.1264C5.45666 8.04399 5.60166 8 5.75 8C5.94891 8 6.13968 8.07902 6.28033 8.21967C6.42098 8.36032 6.5 8.55109 6.5 8.75ZM10.25 8C10.1017 8 9.95666 8.04399 9.83332 8.1264C9.70999 8.20881 9.61386 8.32594 9.55709 8.46299C9.50032 8.60003 9.48547 8.75083 9.51441 8.89632C9.54335 9.0418 9.61478 9.17544 9.71967 9.28033C9.82456 9.38522 9.9582 9.45665 10.1037 9.48559C10.2492 9.51453 10.4 9.49967 10.537 9.44291C10.6741 9.38614 10.7912 9.29001 10.8736 9.16668C10.956 9.04334 11 8.89834 11 8.75C11 8.55109 10.921 8.36032 10.7803 8.21967C10.6397 8.07902 10.4489 8 10.25 8ZM14.9031 12.0562L10.7156 13.9131C10.5897 13.9691 10.4537 13.9987 10.3159 14.0002C10.1781 14.0017 10.0415 13.975 9.91439 13.9217C9.78731 13.8684 9.67246 13.7897 9.57691 13.6905C9.48136 13.5912 9.40712 13.4734 9.35875 13.3444L8.85188 11.9694C8.57188 11.9881 8.28792 11.9977 8 11.9981C7.71208 11.9985 7.42813 11.989 7.14813 11.9694L6.64125 13.3444C6.59281 13.4733 6.51853 13.5911 6.42296 13.6903C6.32739 13.7895 6.21255 13.8682 6.0855 13.9214C5.95844 13.9747 5.82184 14.0014 5.68408 14C5.54632 13.9986 5.4103 13.969 5.28438 13.9131L1.09687 12.0562C0.880742 11.9618 0.705181 11.7936 0.601478 11.5817C0.497774 11.3698 0.472665 11.128 0.530625 10.8994L2.375 3.625C2.42368 3.43582 2.52646 3.26494 2.67077 3.13328C2.81508 3.00162 2.99466 2.91491 3.1875 2.88375L5.44125 2.51313C5.6897 2.47316 5.94414 2.52704 6.15507 2.66427C6.36601 2.80151 6.51836 3.01229 6.5825 3.25563L6.78625 4.05813C7.18333 4.01938 7.58792 4 8 4C8.41208 4 8.81625 4.01938 9.2125 4.05813L9.41625 3.25563C9.48026 3.01221 9.63259 2.80135 9.84356 2.66409C10.0545 2.52683 10.309 2.47302 10.5575 2.51313L12.8125 2.88375C13.0053 2.91491 13.1849 3.00162 13.3292 3.13328C13.4735 3.26494 13.5763 3.43582 13.625 3.625L15.4706 10.8988C15.5287 11.1276 15.5035 11.3697 15.3995 11.5817C15.2955 11.7938 15.1196 11.962 14.9031 12.0562ZM14.5 11.1425L12.6544 3.875C12.6544 3.875 12.6544 3.875 12.6494 3.875L10.3956 3.5C10.394 3.49907 10.3922 3.49858 10.3903 3.49858C10.3884 3.49858 10.3866 3.49907 10.385 3.5L10.2081 4.19625C10.5206 4.255 10.8331 4.325 11.135 4.41C11.254 4.44034 11.3577 4.51342 11.4263 4.61531C11.4949 4.71719 11.5235 4.84076 11.5069 4.96244C11.4902 5.08412 11.4293 5.19541 11.3358 5.27507C11.2423 5.35473 11.1228 5.3972 11 5.39437C10.9544 5.39425 10.9089 5.38794 10.865 5.37563C9.93122 5.12224 8.96754 4.9959 8 5C7.03249 4.99569 6.06881 5.12183 5.135 5.375C5.07121 5.39472 5.00412 5.40147 4.93768 5.39484C4.87124 5.38821 4.8068 5.36834 4.74816 5.3364C4.68953 5.30446 4.63788 5.26111 4.59627 5.20889C4.55466 5.15667 4.52394 5.09664 4.5059 5.03235C4.48787 4.96807 4.48289 4.90082 4.49127 4.83458C4.49965 4.76833 4.52121 4.70444 4.55468 4.64667C4.58815 4.58889 4.63285 4.53841 4.68615 4.49819C4.73945 4.45797 4.80026 4.42883 4.865 4.4125C5.16625 4.3275 5.47625 4.2575 5.79125 4.19875L5.61437 3.5C5.61437 3.5 5.61437 3.5 5.60687 3.5L3.35062 3.87063C3.34878 3.87012 3.34684 3.87012 3.345 3.87063L1.5 11.1456L5.6875 13C5.68961 13.0011 5.69197 13.0018 5.69437 13.0018C5.69678 13.0018 5.69914 13.0011 5.70125 13L6.125 11.8575C5.70043 11.7926 5.28011 11.7024 4.86625 11.5875C4.74298 11.5481 4.63979 11.4625 4.57836 11.3486C4.51693 11.2347 4.50205 11.1014 4.53685 10.9768C4.57165 10.8521 4.65342 10.7458 4.76497 10.6802C4.87652 10.6146 5.00916 10.5948 5.135 10.625C6.06875 10.8785 7.03247 11.0046 8 11C8.96753 11.0046 9.93125 10.8785 10.865 10.625C10.9927 10.5892 11.1294 10.6056 11.2451 10.6706C11.3607 10.7356 11.4458 10.8438 11.4816 10.9716C11.5174 11.0993 11.501 11.236 11.436 11.3516C11.371 11.4672 11.2627 11.5523 11.135 11.5881C10.7207 11.7029 10.3 11.7928 9.875 11.8575L10.2969 13C10.2989 13.0011 10.3011 13.0017 10.3034 13.0017C10.3057 13.0017 10.308 13.0011 10.31 13L14.5 11.1425Z" fill="var(--fill-0, #181818)"/>
</g>
</svg>
