<svg width="20" height="20" viewBox="0 0 20 20" fill="none" xmlns="http://www.w3.org/2000/svg">
<path d="M11.1875 9.9375C11.1875 10.1229 11.1325 10.3042 11.0295 10.4583C10.9265 10.6125 10.7801 10.7327 10.6088 10.8036C10.4375 10.8746 10.249 10.8932 10.0671 10.857C9.88525 10.8208 9.7182 10.7315 9.58709 10.6004C9.45598 10.4693 9.36669 10.3023 9.33051 10.1204C9.29434 9.93854 9.31291 9.75004 9.38386 9.57873C9.45482 9.40743 9.57498 9.26101 9.72915 9.158C9.88332 9.05498 10.0646 9 10.25 9C10.4986 9 10.7371 9.09877 10.9129 9.27459C11.0887 9.4504 11.1875 9.68886 11.1875 9.9375ZM15.5625 9C15.3771 9 15.1958 9.05498 15.0417 9.158C14.8875 9.26101 14.7673 9.40743 14.6964 9.57873C14.6254 9.75004 14.6068 9.93854 14.643 10.1204C14.6792 10.3023 14.7685 10.4693 14.8996 10.6004C15.0307 10.7315 15.1977 10.8208 15.3796 10.857C15.5615 10.8932 15.75 10.8746 15.9213 10.8036C16.0926 10.7327 16.239 10.6125 16.342 10.4583C16.445 10.3042 16.5 10.1229 16.5 9.9375C16.5 9.68886 16.4012 9.4504 16.2254 9.27459C16.0496 9.09877 15.8111 9 15.5625 9ZM4.9375 9C4.75208 9 4.57082 9.05498 4.41665 9.158C4.26248 9.26101 4.14232 9.40743 4.07136 9.57873C4.00041 9.75004 3.98184 9.93854 4.01801 10.1204C4.05419 10.3023 4.14348 10.4693 4.27459 10.6004C4.4057 10.7315 4.57275 10.8208 4.7546 10.857C4.93646 10.8932 5.12496 10.8746 5.29627 10.8036C5.46757 10.7327 5.61399 10.6125 5.717 10.4583C5.82002 10.3042 5.875 10.1229 5.875 9.9375C5.875 9.68886 5.77623 9.4504 5.60041 9.27459C5.4246 9.09877 5.18614 9 4.9375 9Z" fill="#202020"/>
</svg>
