<svg preserveAspectRatio="none" width="100%" height="100%" overflow="visible" style="display: block;" viewBox="0 0 16 16" fill="none" xmlns="http://www.w3.org/2000/svg">
<g id="DownloadSimple">
<path id="Vector" d="M14 9V13C14 13.1326 13.9473 13.2598 13.8536 13.3536C13.7598 13.4473 13.6326 13.5 13.5 13.5H2.5C2.36739 13.5 2.24021 13.4473 2.14645 13.3536C2.05268 13.2598 2 13.1326 2 13V9C2 8.86739 2.05268 8.74021 2.14645 8.64645C2.24021 8.55268 2.36739 8.5 2.5 8.5C2.63261 8.5 2.75979 8.55268 2.85355 8.64645C2.94732 8.74021 3 8.86739 3 9V12.5H13V9C13 8.86739 13.0527 8.74021 13.1464 8.64645C13.2402 8.55268 13.3674 8.5 13.5 8.5C13.6326 8.5 13.7598 8.55268 13.8536 8.64645C13.9473 8.74021 14 8.86739 14 9ZM7.64625 9.35375C7.69269 9.40024 7.74783 9.43712 7.80853 9.46228C7.86923 9.48744 7.93429 9.50039 8 9.50039C8.06571 9.50039 8.13077 9.48744 8.19147 9.46228C8.25217 9.43712 8.30731 9.40024 8.35375 9.35375L10.8538 6.85375C10.9002 6.8073 10.9371 6.75214 10.9622 6.69145C10.9873 6.63075 11.0003 6.5657 11.0003 6.5C11.0003 6.4343 10.9873 6.36925 10.9622 6.30855C10.9371 6.24786 10.9002 6.1927 10.8538 6.14625C10.8073 6.09979 10.7521 6.06294 10.6914 6.0378C10.6308 6.01266 10.5657 5.99972 10.5 5.99972C10.4343 5.99972 10.3692 6.01266 10.3086 6.0378C10.2479 6.06294 10.1927 6.09979 10.1462 6.14625L8.5 7.79313V2C8.5 1.86739 8.44732 1.74021 8.35355 1.64645C8.25979 1.55268 8.13261 1.5 8 1.5C7.86739 1.5 7.74021 1.55268 7.64645 1.64645C7.55268 1.74021 7.5 1.86739 7.5 2V7.79313L5.85375 6.14625C5.75993 6.05243 5.63268 5.99972 5.5 5.99972C5.36732 5.99972 5.24007 6.05243 5.14625 6.14625C5.05243 6.24007 4.99972 6.36732 4.99972 6.5C4.99972 6.63268 5.05243 6.75993 5.14625 6.85375L7.64625 9.35375Z" fill="var(--fill-0, #181818)"/>
</g>
</svg>
