<svg width="17" height="16" viewBox="0 0 17 16" fill="none" xmlns="http://www.w3.org/2000/svg">
<path d="M8.48213 11.8435L11.3332 9.04349L8.48213 6.24349L7.49046 7.21741L8.6415 8.34784H5.6665V9.73915H8.6415L7.49046 10.8696L8.48213 11.8435ZM2.83317 13.9131C2.44359 13.9131 2.1102 13.7769 1.833 13.5047C1.55534 13.232 1.4165 12.9044 1.4165 12.5218V4.17393C1.4165 3.79132 1.55534 3.4639 1.833 3.19167C2.1102 2.91897 2.44359 2.78262 2.83317 2.78262H7.08317L8.49984 4.17393H14.1665C14.5561 4.17393 14.8897 4.31028 15.1674 4.58297C15.4446 4.8552 15.5832 5.18262 15.5832 5.56523V12.5218C15.5832 12.9044 15.4446 13.232 15.1674 13.5047C14.8897 13.7769 14.5561 13.9131 14.1665 13.9131H2.83317ZM2.83317 4.17393V12.5218H14.1665V5.56523H7.91546L6.4988 4.17393H2.83317Z" fill="#666666"/>
</svg>
