<svg xmlns="http://www.w3.org/2000/svg" width="32" height="32" viewBox="0 0 16 16"><!-- Icon from Qlementine Icons by Olivier Cléro - https://github.com/oclero/qlementine-icons/blob/master/LICENSE --><path fill="currentColor" d="M10.5 7a.5.5 0 0 1 .5.5V9h1.5a.5.5 0 0 1 0 1H11v1.5a.5.5 0 0 1-1 0V10H8.5a.5.5 0 0 1 0-1H10V7.5a.5.5 0 0 1 .5-.5"/><path fill="currentColor" fill-rule="evenodd" d="M13.5 3A2.5 2.5 0 0 1 16 5.5v8a2.5 2.5 0 0 1-2.5 2.5h-6A2.5 2.5 0 0 1 5 13.5v-8A2.5 2.5 0 0 1 7.5 3zm-6 1A1.5 1.5 0 0 0 6 5.5v8A1.5 1.5 0 0 0 7.5 15h6a1.5 1.5 0 0 0 1.5-1.5v-8A1.5 1.5 0 0 0 13.5 4z" clip-rule="evenodd"/><path fill="currentColor" d="M8.5 0c.979 0 1.83.563 2.24 1.38c.152.303-.103.618-.442.618c-.227 0-.423-.149-.55-.338a1.5 1.5 0 0 0-1.24-.662h-6a1.5 1.5 0 0 0-1.5 1.5v8a1.5 1.5 0 0 0 1.5 1.5h1a.5.5 0 0 1 0 1h-1a2.5 2.5 0 0 1-2.5-2.5v-8a2.5 2.5 0 0 1 2.5-2.5h6z"/></svg>