<svg width="16" height="16" viewBox="0 0 16 16" fill="none" xmlns="http://www.w3.org/2000/svg">
<path d="M14.25 10.9376C14.1929 10.9702 14.1299 10.9911 14.0647 10.9993C13.9995 11.0075 13.9333 11.0028 13.8699 10.9854C13.8065 10.968 13.7471 10.9382 13.6952 10.8978C13.6434 10.8575 13.6 10.8073 13.5675 10.7501L12.38 8.67509C11.6896 9.14189 10.928 9.49355 10.125 9.71634L10.4919 11.9176C10.5027 11.9824 10.5006 12.0487 10.4858 12.1127C10.471 12.1767 10.4437 12.2372 10.4055 12.2906C10.3674 12.3441 10.319 12.3895 10.2632 12.4243C10.2075 12.459 10.1454 12.4825 10.0806 12.4932C10.054 12.4976 10.027 12.4999 10 12.5001C9.88171 12.4999 9.76732 12.4578 9.67715 12.3813C9.58698 12.3047 9.52687 12.1987 9.5075 12.082L9.14687 9.92072C8.38637 10.0265 7.61488 10.0265 6.85437 9.92072L6.49375 12.082C6.47434 12.1989 6.41405 12.3051 6.32362 12.3817C6.23319 12.4582 6.1185 12.5002 6 12.5001C5.97236 12.5 5.94477 12.4977 5.9175 12.4932C5.85269 12.4825 5.79063 12.459 5.73488 12.4243C5.67913 12.3895 5.63077 12.3441 5.59258 12.2906C5.55439 12.2372 5.5271 12.1767 5.51229 12.1127C5.49748 12.0487 5.49542 11.9824 5.50625 11.9176L5.875 9.71634C5.07227 9.49284 4.31112 9.14055 3.62125 8.67322L2.4375 10.7501C2.37119 10.8656 2.26171 10.9501 2.13313 10.9849C2.00455 11.0197 1.86741 11.002 1.75187 10.9357C1.63634 10.8694 1.55188 10.7599 1.51706 10.6313C1.48225 10.5028 1.49994 10.3656 1.56625 10.2501L2.81625 8.06259C2.37719 7.68327 1.97345 7.26489 1.61 6.81259C1.56467 6.76199 1.53014 6.70267 1.5085 6.63827C1.48686 6.57387 1.47857 6.50574 1.48413 6.43803C1.4897 6.37032 1.50901 6.30446 1.54088 6.24446C1.57275 6.18446 1.61651 6.13159 1.66949 6.08906C1.72248 6.04654 1.78357 6.01526 1.84905 5.99713C1.91452 5.97901 1.983 5.97441 2.05031 5.98363C2.11762 5.99286 2.18235 6.0157 2.24053 6.05076C2.29872 6.08583 2.34915 6.13239 2.38875 6.18759C3.42625 7.47134 5.24125 9.00009 8 9.00009C10.7587 9.00009 12.5737 7.46947 13.6112 6.18759C13.6504 6.13126 13.7007 6.08358 13.7591 6.04752C13.8174 6.01147 13.8826 5.98781 13.9505 5.97802C14.0184 5.96823 14.0876 5.97251 14.1537 5.99061C14.2199 6.0087 14.2817 6.04022 14.3351 6.0832C14.3886 6.12618 14.4326 6.1797 14.4645 6.24044C14.4964 6.30117 14.5155 6.36782 14.5205 6.43624C14.5255 6.50465 14.5164 6.57337 14.4938 6.63812C14.4711 6.70286 14.4354 6.76225 14.3887 6.81259C14.0253 7.26489 13.6216 7.68327 13.1825 8.06259L14.4325 10.2501C14.4661 10.3071 14.488 10.3702 14.4969 10.4358C14.5059 10.5013 14.5018 10.568 14.4848 10.632C14.4679 10.6959 14.4384 10.7558 14.3981 10.8083C14.3577 10.8608 14.3074 10.9047 14.25 10.9376Z" fill="currentColor"/>
</svg>
