<svg preserveAspectRatio="none" width="100%" height="100%" overflow="visible" style="display: block;" viewBox="0 0 16 16" fill="none" xmlns="http://www.w3.org/2000/svg">
<g id="EyeSlash">
<path id="Vector" d="M3.37 2.16375C3.32609 2.11425 3.27279 2.07397 3.2132 2.04522C3.15361 2.01647 3.0889 1.99984 3.02283 1.99629C2.95676 1.99273 2.89064 2.00233 2.82831 2.02451C2.76597 2.0467 2.70866 2.08104 2.65969 2.12554C2.61073 2.17004 2.57108 2.22381 2.54305 2.28375C2.51502 2.34368 2.49917 2.40858 2.4964 2.47469C2.49364 2.5408 2.50403 2.6068 2.52696 2.66886C2.54989 2.73093 2.58492 2.78782 2.63 2.83625L3.8325 4.15938C1.5625 5.5525 0.58625 7.7 0.543125 7.7975C0.514696 7.86144 0.500006 7.93064 0.500006 8.00062C0.500006 8.0706 0.514696 8.1398 0.543125 8.20375C0.565 8.25312 1.09438 9.42687 2.27125 10.6037C3.83938 12.1712 5.82 13 8 13C9.12039 13.0064 10.2295 12.7757 11.2544 12.3231L12.6294 13.8362C12.6733 13.8857 12.7266 13.926 12.7862 13.9548C12.8458 13.9835 12.9105 14.0002 12.9765 14.0037C13.0426 14.0073 13.1087 13.9977 13.1711 13.9755C13.2334 13.9533 13.2907 13.919 13.3397 13.8745C13.3886 13.83 13.4283 13.7762 13.4563 13.7163C13.4844 13.6563 13.5002 13.5914 13.503 13.5253C13.5057 13.4592 13.4953 13.3932 13.4724 13.3311C13.4495 13.2691 13.4145 13.2122 13.3694 13.1637L3.37 2.16375ZM6.32813 6.90375L8.9325 9.76937C8.54031 9.9757 8.0907 10.0459 7.65427 9.96902C7.21784 9.89212 6.81931 9.67245 6.52126 9.3445C6.22321 9.01656 6.04252 8.59891 6.00756 8.15713C5.97261 7.71536 6.08536 7.27449 6.32813 6.90375ZM8 12C6.07625 12 4.39562 11.3006 3.00437 9.92187C2.43332 9.35436 1.94764 8.70699 1.5625 8C1.85563 7.45062 2.79125 5.91312 4.52187 4.91375L5.64687 6.14812C5.21134 6.70594 4.98702 7.39977 5.01358 8.10698C5.04014 8.81419 5.31587 9.48924 5.79202 10.0128C6.26818 10.5364 6.9141 10.8748 7.61562 10.9682C8.31714 11.0615 9.02909 10.9039 9.62562 10.5231L10.5463 11.5356C9.73375 11.8473 8.87024 12.0048 8 12ZM8.375 6.03562C8.24471 6.01076 8.12964 5.93516 8.05509 5.82545C7.98055 5.71574 7.95264 5.58091 7.9775 5.45062C8.00236 5.32034 8.07797 5.20526 8.18768 5.13072C8.29738 5.05617 8.43221 5.02826 8.5625 5.05312C9.19975 5.17667 9.78 5.50291 10.2167 5.98318C10.6534 6.46345 10.9231 7.07202 10.9856 7.71812C10.998 7.85015 10.9574 7.98168 10.8727 8.08377C10.7881 8.18585 10.6664 8.25015 10.5344 8.2625C10.5188 8.26342 10.5031 8.26342 10.4875 8.2625C10.3625 8.26304 10.2419 8.21675 10.1493 8.13277C10.0568 8.04878 9.99906 7.93319 9.9875 7.80875C9.94541 7.379 9.76575 6.9743 9.47523 6.65484C9.18471 6.33538 8.79884 6.11821 8.375 6.03562ZM15.455 8.20375C15.4288 8.2625 14.7956 9.66437 13.37 10.9412C13.3213 10.9863 13.2641 11.0211 13.2018 11.0438C13.1395 11.0666 13.0732 11.0766 13.007 11.0735C12.9407 11.0704 12.8758 11.0541 12.8159 11.0256C12.756 10.9971 12.7023 10.957 12.6581 10.9075C12.6139 10.8581 12.5799 10.8004 12.5582 10.7377C12.5365 10.675 12.5274 10.6087 12.5316 10.5425C12.5358 10.4763 12.5532 10.4116 12.5826 10.3521C12.612 10.2927 12.653 10.2397 12.7031 10.1962C13.4025 9.56789 13.9901 8.82523 14.4406 8C14.0546 7.29236 13.5679 6.64455 12.9956 6.07687C11.6044 4.69937 9.92375 4 8 4C7.59466 3.99951 7.18996 4.03232 6.79 4.09812C6.72496 4.10963 6.65828 4.10813 6.59382 4.09372C6.52936 4.0793 6.4684 4.05226 6.41445 4.01415C6.3605 3.97604 6.31464 3.92762 6.27951 3.87169C6.24438 3.81575 6.22068 3.75341 6.20978 3.68827C6.19888 3.62312 6.201 3.55646 6.21601 3.49214C6.23102 3.42782 6.25863 3.36711 6.29723 3.31351C6.33584 3.25992 6.38468 3.21451 6.44094 3.1799C6.4972 3.14529 6.55976 3.12217 6.625 3.11187C7.07948 3.03683 7.53937 2.99942 8 3C10.18 3 12.1606 3.82875 13.7288 5.39687C14.9056 6.57375 15.435 7.74812 15.4569 7.7975C15.4853 7.86144 15.5 7.93064 15.5 8.00062C15.5 8.0706 15.4853 8.1398 15.4569 8.20375H15.455Z" fill="var(--fill-0, #181818)"/>
</g>
</svg>
