<svg xmlns="http://www.w3.org/2000/svg" width="32" height="32" viewBox="0 0 256 256"><!-- Icon from Phosphor by Phosphor Icons - https://github.com/phosphor-icons/core/blob/main/LICENSE --><path fill="currentColor" d="M245.48 125.57c-.34-.78-8.66-19.23-27.24-37.81C201 70.54 171.38 50 128 50S55 70.54 37.76 87.76c-18.58 18.58-26.9 37-27.24 37.81a6 6 0 0 0 0 4.88c.34.77 8.66 19.22 27.24 37.8C55 185.47 84.62 206 128 206s73-20.53 90.24-37.75c18.58-18.58 26.9-37 27.24-37.8a6 6 0 0 0 0-4.88M128 194c-31.38 0-58.78-11.42-81.45-33.93A134.8 134.8 0 0 1 22.69 128a134.6 134.6 0 0 1 23.86-32.06C69.22 73.42 96.62 62 128 62s58.78 11.42 81.45 33.94A134.6 134.6 0 0 1 233.31 128C226.94 140.21 195 194 128 194m0-112a46 46 0 1 0 46 46a46.06 46.06 0 0 0-46-46m0 80a34 34 0 1 1 34-34a34 34 0 0 1-34 34"/></svg>