<svg width="16" height="16" viewBox="0 0 16 16" fill="none" xmlns="http://www.w3.org/2000/svg">
<path d="M9.33384 7.33333C8.22718 7.33333 7.33384 6.44 7.33384 5.33333V2.66667H4.66718C3.93384 2.66667 3.33384 3.26667 3.33384 4V12.6667C3.33384 13.4 3.93384 14 4.66718 14H10.6672C11.4005 14 12.0005 13.4 12.0005 12.6667V7.33333H9.33384ZM8.00051 5.33333C8.00051 6.06667 8.60051 6.66667 9.33384 6.66667H11.7272L8.00051 2.94V5.33333ZM4.66718 2H8.00051L12.6672 6.66667V12.6667C12.6672 13.7733 11.7738 14.6667 10.6672 14.6667H4.66718C3.56051 14.6667 2.66718 13.7733 2.66718 12.6667V4C2.66718 2.89333 3.56051 2 4.66718 2Z" fill="currentColor"/>
</svg>
