<svg width="16" height="16" viewBox="0 0 16 16" fill="none" xmlns="http://www.w3.org/2000/svg">
<path d="M13.3538 5.14625L9.85375 1.64625C9.80728 1.59983 9.75212 1.56303 9.69143 1.53793C9.63073 1.51284 9.56568 1.49995 9.5 1.5H3.5C3.23478 1.5 2.98043 1.60536 2.79289 1.79289C2.60536 1.98043 2.5 2.23478 2.5 2.5V8C2.5 8.13261 2.55268 8.25979 2.64645 8.35355C2.74021 8.44732 2.86739 8.5 3 8.5C3.13261 8.5 3.25978 8.44732 3.35355 8.35355C3.44732 8.25979 3.5 8.13261 3.5 8V2.5H9V5.5C9 5.63261 9.05268 5.75979 9.14645 5.85355C9.24021 5.94732 9.36739 6 9.5 6H12.5V13.5H11C10.8674 13.5 10.7402 13.5527 10.6464 13.6464C10.5527 13.7402 10.5 13.8674 10.5 14C10.5 14.1326 10.5527 14.2598 10.6464 14.3536C10.7402 14.4473 10.8674 14.5 11 14.5H12.5C12.7652 14.5 13.0196 14.3946 13.2071 14.2071C13.3946 14.0196 13.5 13.7652 13.5 13.5V5.5C13.5001 5.43432 13.4872 5.36927 13.4621 5.30858C13.437 5.24788 13.4002 5.19272 13.3538 5.14625ZM10 3.20688L11.7931 5H10V3.20688ZM6.75 8C6.10837 8 5.48109 8.18992 4.94722 8.54584C4.41335 8.90175 3.99678 9.40772 3.75 10C3.15326 10 2.58097 10.2371 2.15901 10.659C1.73705 11.081 1.5 11.6533 1.5 12.25C1.5 12.8467 1.73705 13.419 2.15901 13.841C2.58097 14.2629 3.15326 14.5 3.75 14.5H6.75C7.61195 14.5 8.4386 14.1576 9.0481 13.5481C9.65759 12.9386 10 12.112 10 11.25C10 10.388 9.65759 9.5614 9.0481 8.9519C8.4386 8.34241 7.61195 8 6.75 8ZM6.75 13.5H3.75C3.43883 13.5005 3.13866 13.3849 2.90818 13.1759C2.6777 12.9668 2.53347 12.6793 2.5037 12.3696C2.47393 12.0599 2.56076 11.7501 2.7472 11.501C2.93365 11.2519 3.20631 11.0813 3.51187 11.0225C3.50889 11.1551 3.55871 11.2835 3.65037 11.3793C3.74202 11.4752 3.86802 11.5308 4.00063 11.5337C4.13323 11.5367 4.2616 11.4869 4.35747 11.3953C4.45335 11.3036 4.50889 11.1776 4.51188 11.045C4.52359 10.9165 4.54574 10.7892 4.57812 10.6644C4.58517 10.644 4.59081 10.6231 4.595 10.6019C4.71513 10.2025 4.94388 9.84441 5.25573 9.56751C5.56758 9.29062 5.95024 9.10585 6.361 9.03382C6.77177 8.96179 7.19447 9.00533 7.58192 9.1596C7.96938 9.31386 8.30633 9.57277 8.55518 9.90742C8.80402 10.2421 8.95496 10.6393 8.99115 11.0548C9.02733 11.4702 8.94734 11.8876 8.7601 12.2602C8.57286 12.6328 8.28574 12.9461 7.93079 13.165C7.57584 13.384 7.16703 13.4999 6.75 13.5Z" fill="#181818"/>
</svg>
