<svg preserveAspectRatio="none" width="100%" height="100%" overflow="visible" style="display: block;" viewBox="0 0 16 16" fill="none" xmlns="http://www.w3.org/2000/svg">
<g id="FileDashed">
<path id="Vector" d="M5 14C5 14.1326 4.94732 14.2598 4.85355 14.3536C4.75979 14.4473 4.63261 14.5 4.5 14.5H3.5C3.23478 14.5 2.98043 14.3946 2.79289 14.2071C2.60536 14.0196 2.5 13.7652 2.5 13.5V11.5C2.5 11.3674 2.55268 11.2402 2.64645 11.1464C2.74021 11.0527 2.86739 11 3 11C3.13261 11 3.25979 11.0527 3.35355 11.1464C3.44732 11.2402 3.5 11.3674 3.5 11.5V13.5H4.5C4.63261 13.5 4.75979 13.5527 4.85355 13.6464C4.94732 13.7402 5 13.8674 5 14ZM13.5 5.5V8.5C13.5 8.63261 13.4473 8.75979 13.3536 8.85355C13.2598 8.94732 13.1326 9 13 9C12.8674 9 12.7402 8.94732 12.6464 8.85355C12.5527 8.75979 12.5 8.63261 12.5 8.5V6H9.5C9.36739 6 9.24021 5.94732 9.14645 5.85355C9.05268 5.75978 9 5.63261 9 5.5V2.5H7.5C7.36739 2.5 7.24021 2.44732 7.14645 2.35355C7.05268 2.25979 7 2.13261 7 2C7 1.86739 7.05268 1.74021 7.14645 1.64645C7.24021 1.55268 7.36739 1.5 7.5 1.5H9.5C9.56568 1.49995 9.63073 1.51284 9.69143 1.53793C9.75212 1.56303 9.80728 1.59983 9.85375 1.64625L13.3538 5.14625C13.4002 5.19272 13.437 5.24788 13.4621 5.30858C13.4872 5.36927 13.5001 5.43432 13.5 5.5ZM10 5H11.7931L10 3.20688V5ZM5 1.5H3.5C3.23478 1.5 2.98043 1.60536 2.79289 1.79289C2.60536 1.98043 2.5 2.23478 2.5 2.5V4C2.5 4.13261 2.55268 4.25979 2.64645 4.35355C2.74021 4.44732 2.86739 4.5 3 4.5C3.13261 4.5 3.25979 4.44732 3.35355 4.35355C3.44732 4.25979 3.5 4.13261 3.5 4V2.5H5C5.13261 2.5 5.25979 2.44732 5.35355 2.35355C5.44732 2.25979 5.5 2.13261 5.5 2C5.5 1.86739 5.44732 1.74021 5.35355 1.64645C5.25979 1.55268 5.13261 1.5 5 1.5ZM13 10.5C12.8674 10.5 12.7402 10.5527 12.6464 10.6464C12.5527 10.7402 12.5 10.8674 12.5 11V13.5H12C11.8674 13.5 11.7402 13.5527 11.6464 13.6464C11.5527 13.7402 11.5 13.8674 11.5 14C11.5 14.1326 11.5527 14.2598 11.6464 14.3536C11.7402 14.4473 11.8674 14.5 12 14.5H12.5C12.7652 14.5 13.0196 14.3946 13.2071 14.2071C13.3946 14.0196 13.5 13.7652 13.5 13.5V11C13.5 10.8674 13.4473 10.7402 13.3536 10.6464C13.2598 10.5527 13.1326 10.5 13 10.5ZM3 9.5C3.13261 9.5 3.25979 9.44732 3.35355 9.35355C3.44732 9.25979 3.5 9.13261 3.5 9V6.5C3.5 6.36739 3.44732 6.24021 3.35355 6.14645C3.25979 6.05268 3.13261 6 3 6C2.86739 6 2.74021 6.05268 2.64645 6.14645C2.55268 6.24021 2.5 6.36739 2.5 6.5V9C2.5 9.13261 2.55268 9.25979 2.64645 9.35355C2.74021 9.44732 2.86739 9.5 3 9.5ZM9.5 13.5H7C6.86739 13.5 6.74021 13.5527 6.64645 13.6464C6.55268 13.7402 6.5 13.8674 6.5 14C6.5 14.1326 6.55268 14.2598 6.64645 14.3536C6.74021 14.4473 6.86739 14.5 7 14.5H9.5C9.63261 14.5 9.75979 14.4473 9.85355 14.3536C9.94732 14.2598 10 14.1326 10 14C10 13.8674 9.94732 13.7402 9.85355 13.6464C9.75979 13.5527 9.63261 13.5 9.5 13.5Z" fill="var(--fill-0, #181818)"/>
</g>
</svg>
