<svg width="16" height="16" viewBox="0 0 16 16" fill="none" xmlns="http://www.w3.org/2000/svg">
<path d="M14 9.5C14 9.63261 13.9473 9.75979 13.8536 9.85355C13.7598 9.94732 13.6326 10 13.5 10H12V11H13C13.1326 11 13.2598 11.0527 13.3536 11.1464C13.4473 11.2402 13.5 11.3674 13.5 11.5C13.5 11.6326 13.4473 11.7598 13.3536 11.8536C13.2598 11.9473 13.1326 12 13 12H12V13C12 13.1326 11.9473 13.2598 11.8536 13.3536C11.7598 13.4473 11.6326 13.5 11.5 13.5C11.3674 13.5 11.2402 13.4473 11.1464 13.3536C11.0527 13.2598 11 13.1326 11 13V9.5C11 9.36739 11.0527 9.24021 11.1464 9.14645C11.2402 9.05268 11.3674 9 11.5 9H13.5C13.6326 9 13.7598 9.05268 13.8536 9.14645C13.9473 9.24021 14 9.36739 14 9.5ZM5.75 10.75C5.75 11.2141 5.56563 11.6592 5.23744 11.9874C4.90925 12.3156 4.46413 12.5 4 12.5H3.5V13C3.5 13.1326 3.44732 13.2598 3.35355 13.3536C3.25979 13.4473 3.13261 13.5 3 13.5C2.86739 13.5 2.74021 13.4473 2.64645 13.3536C2.55268 13.2598 2.5 13.1326 2.5 13V9.5C2.5 9.36739 2.55268 9.24021 2.64645 9.14645C2.74021 9.05268 2.86739 9 3 9H4C4.46413 9 4.90925 9.18437 5.23744 9.51256C5.56563 9.84075 5.75 10.2859 5.75 10.75ZM4.75 10.75C4.75 10.5511 4.67098 10.3603 4.53033 10.2197C4.38968 10.079 4.19891 10 4 10H3.5V11.5H4C4.19891 11.5 4.38968 11.421 4.53033 11.2803C4.67098 11.1397 4.75 10.9489 4.75 10.75ZM10.25 11.25C10.25 11.8467 10.0129 12.419 9.59099 12.841C9.16903 13.2629 8.59674 13.5 8 13.5H7C6.86739 13.5 6.74021 13.4473 6.64645 13.3536C6.55268 13.2598 6.5 13.1326 6.5 13V9.5C6.5 9.36739 6.55268 9.24021 6.64645 9.14645C6.74021 9.05268 6.86739 9 7 9H8C8.59674 9 9.16903 9.23705 9.59099 9.65901C10.0129 10.081 10.25 10.6533 10.25 11.25ZM9.25 11.25C9.25 10.9185 9.1183 10.6005 8.88388 10.3661C8.64946 10.1317 8.33152 10 8 10H7.5V12.5H8C8.33152 12.5 8.64946 12.3683 8.88388 12.1339C9.1183 11.8995 9.25 11.5815 9.25 11.25ZM2.5 7V2.5C2.5 2.23478 2.60536 1.98043 2.79289 1.79289C2.98043 1.60536 3.23478 1.5 3.5 1.5H9.5C9.56568 1.49995 9.63073 1.51284 9.69143 1.53793C9.75212 1.56303 9.80728 1.59983 9.85375 1.64625L13.3538 5.14625C13.4002 5.19272 13.437 5.24788 13.4621 5.30858C13.4872 5.36927 13.5001 5.43432 13.5 5.5V7C13.5 7.13261 13.4473 7.25979 13.3536 7.35355C13.2598 7.44732 13.1326 7.5 13 7.5C12.8674 7.5 12.7402 7.44732 12.6464 7.35355C12.5527 7.25979 12.5 7.13261 12.5 7V6H9.5C9.36739 6 9.24021 5.94732 9.14645 5.85355C9.05268 5.75979 9 5.63261 9 5.5V2.5H3.5V7C3.5 7.13261 3.44732 7.25979 3.35355 7.35355C3.25979 7.44732 3.13261 7.5 3 7.5C2.86739 7.5 2.74021 7.44732 2.64645 7.35355C2.55268 7.25979 2.5 7.13261 2.5 7ZM10 5H11.7931L10 3.20688V5Z" fill="#181818"/>
</svg>
