<svg width="16" height="16" viewBox="0 0 16 16" fill="none" xmlns="http://www.w3.org/2000/svg">
<path d="M11.4998 8.00001C11.5032 10.0203 11.1095 12.0216 10.341 13.89C10.3037 13.9822 10.2398 14.0611 10.1574 14.1168C10.075 14.1725 9.97793 14.2023 9.87851 14.2025C9.81421 14.2019 9.7506 14.1892 9.69101 14.165C9.6302 14.1401 9.5749 14.1034 9.52828 14.057C9.48167 14.0107 9.44464 13.9556 9.41933 13.8949C9.39402 13.8343 9.38092 13.7692 9.38078 13.7035C9.38064 13.6378 9.39346 13.5727 9.41851 13.5119C10.1368 11.7632 10.5042 9.89042 10.4998 8.00001C10.4998 7.8674 10.5524 7.74022 10.6462 7.64645C10.74 7.55268 10.8672 7.50001 10.9998 7.50001C11.1324 7.50001 11.2595 7.55268 11.3533 7.64645C11.4471 7.74022 11.4998 7.8674 11.4998 8.00001ZM7.99976 5.50001C8.3514 5.50025 8.69905 5.57457 9.02006 5.71811C9.34108 5.86166 9.62825 6.07121 9.86288 6.33313C9.90633 6.38325 9.95932 6.42422 10.0188 6.45366C10.0782 6.48311 10.1429 6.50043 10.2091 6.50462C10.2753 6.50881 10.3417 6.49979 10.4043 6.47808C10.467 6.45637 10.5247 6.4224 10.5742 6.37816C10.6236 6.33392 10.6637 6.28029 10.6922 6.22039C10.7207 6.1605 10.737 6.09553 10.7401 6.02927C10.7433 5.96302 10.7332 5.8968 10.7105 5.83447C10.6878 5.77215 10.6529 5.71497 10.6079 5.66626C10.1353 5.13812 9.51342 4.76592 8.82465 4.59888C8.13589 4.43184 7.41263 4.47784 6.75058 4.7308C6.08852 4.98375 5.51886 5.43174 5.11695 6.01549C4.71503 6.59925 4.49982 7.29127 4.49976 8.00001C4.49969 9.4397 4.13411 10.8558 3.43726 12.1156C3.40541 12.1731 3.3852 12.2362 3.37776 12.3015C3.37033 12.3668 3.37582 12.4329 3.39393 12.496C3.41203 12.5592 3.4424 12.6181 3.48329 12.6695C3.52419 12.7209 3.57481 12.7638 3.63226 12.7956C3.68971 12.8275 3.75288 12.8477 3.81814 12.8551C3.88341 12.8626 3.9495 12.8571 4.01265 12.839C4.07579 12.8209 4.13475 12.7905 4.18616 12.7496C4.23756 12.7087 4.28041 12.6581 4.31226 12.6006C5.09103 11.1923 5.49962 9.60933 5.49976 8.00001C5.49976 7.33696 5.76315 6.70108 6.23199 6.23224C6.70083 5.7634 7.33672 5.50001 7.99976 5.50001ZM7.99976 1.5C7.26167 1.49912 6.52885 1.62425 5.83288 1.87C5.71009 1.91592 5.61024 2.00822 5.55483 2.12703C5.49943 2.24584 5.4929 2.38166 5.53666 2.50524C5.58043 2.62882 5.67097 2.73027 5.7888 2.78774C5.90663 2.84521 6.04231 2.8541 6.16663 2.8125C6.99636 2.51994 7.88414 2.43057 8.75553 2.5519C9.62692 2.67322 10.4565 3.0017 11.1748 3.5098C11.893 4.01789 12.479 4.69079 12.8835 5.47206C13.288 6.25333 13.4994 7.12021 13.4998 8.00001C13.5004 9.30857 13.3549 10.6131 13.066 11.8894C13.0366 12.0184 13.0596 12.1538 13.1299 12.2659C13.2002 12.378 13.3121 12.4577 13.441 12.4875C13.4775 12.4959 13.5148 12.5001 13.5523 12.5C13.6656 12.5 13.7756 12.4614 13.8642 12.3907C13.9528 12.3199 14.0147 12.2212 14.0398 12.1106C14.3452 10.7617 14.4995 9.38304 14.4998 8.00001C14.4979 6.27666 13.8125 4.62441 12.5939 3.40582C11.3754 2.18723 9.72311 1.50182 7.99976 1.5ZM4.33351 3.90125C4.38247 3.85747 4.42232 3.80447 4.4508 3.74528C4.47927 3.68609 4.49581 3.62187 4.49947 3.55628C4.50312 3.4907 4.49383 3.42504 4.47211 3.36306C4.45039 3.30107 4.41667 3.24396 4.37288 3.195C4.3291 3.14605 4.2761 3.10619 4.21691 3.07772C4.15772 3.04924 4.0935 3.0327 4.02791 3.02905C3.96233 3.02539 3.89667 3.03469 3.83469 3.05641C3.7727 3.07813 3.71559 3.11184 3.66663 3.15563C2.9855 3.76565 2.4405 4.51232 2.06715 5.34699C1.6938 6.18167 1.50048 7.08563 1.49976 8.00001C1.50116 8.79097 1.33055 9.57278 0.99976 10.2913C0.972346 10.3509 0.956954 10.4154 0.954462 10.481C0.95197 10.5466 0.962426 10.6121 0.985235 10.6737C1.0313 10.798 1.12488 10.899 1.24538 10.9544C1.36589 11.0097 1.50346 11.015 1.62782 10.9689C1.75218 10.9228 1.85315 10.8293 1.90851 10.7088C2.29967 9.85939 2.50142 8.93511 2.49976 8.00001C2.50042 7.22634 2.66406 6.4615 2.98001 5.75529C3.29596 5.04908 3.75714 4.41735 4.33351 3.90125ZM7.11976 12.5463C7.06009 12.5188 6.99561 12.5034 6.92999 12.5009C6.86437 12.4985 6.7989 12.5089 6.73732 12.5317C6.67574 12.5545 6.61926 12.5892 6.5711 12.6339C6.52294 12.6785 6.48404 12.7322 6.45663 12.7919C6.33663 13.0544 6.20663 13.3163 6.06351 13.5694C6.03154 13.6269 6.01122 13.6901 6.00372 13.7554C5.99622 13.8208 6.00168 13.8869 6.01979 13.9502C6.03791 14.0134 6.06832 14.0724 6.10928 14.1239C6.15024 14.1753 6.20095 14.2182 6.25851 14.25C6.33242 14.2913 6.41573 14.3128 6.50038 14.3125C6.58966 14.3125 6.67731 14.2887 6.75425 14.2434C6.83118 14.1981 6.89459 14.1331 6.93788 14.055C7.09038 13.7794 7.23413 13.4925 7.36538 13.21C7.3929 13.1503 7.40837 13.0858 7.41092 13.0201C7.41346 12.9544 7.40303 12.8888 7.38021 12.8272C7.3574 12.7655 7.32265 12.709 7.27796 12.6608C7.23327 12.6126 7.17951 12.5737 7.11976 12.5463ZM7.99976 7.50001C7.86715 7.50001 7.73997 7.55268 7.64621 7.64645C7.55244 7.74022 7.49976 7.8674 7.49976 8.00001C7.50012 8.96972 7.37855 9.93563 7.13788 10.875C7.10485 11.0034 7.12415 11.1396 7.19154 11.2538C7.25893 11.3679 7.3689 11.4507 7.49726 11.4838C7.53812 11.4941 7.58011 11.4994 7.62226 11.4994C7.73304 11.4993 7.84066 11.4624 7.92822 11.3946C8.01578 11.3267 8.07831 11.2316 8.10601 11.1244C8.36805 10.1034 8.50034 9.05345 8.49976 7.99938C8.49959 7.86688 8.44684 7.73986 8.35309 7.64623C8.25934 7.5526 8.13226 7.50001 7.99976 7.50001Z" fill="#181818"/>
</svg>
