<svg width="16" height="16" viewBox="0 0 16 16" fill="none" xmlns="http://www.w3.org/2000/svg">
<path d="M13.5 4.50001H8.20687L6.5 2.79313C6.40748 2.69987 6.29734 2.62593 6.17599 2.5756C6.05464 2.52528 5.9245 2.49959 5.79313 2.50001H2.5C2.23478 2.50001 1.98043 2.60536 1.79289 2.7929C1.60536 2.98043 1.5 3.23479 1.5 3.50001V12.5388C1.50033 12.7936 1.60171 13.0379 1.78191 13.2181C1.96211 13.3983 2.20641 13.4997 2.46125 13.5H13.5556C13.806 13.4997 14.046 13.4001 14.223 13.223C14.4001 13.046 14.4997 12.806 14.5 12.5556V5.50001C14.5 5.23479 14.3946 4.98043 14.2071 4.7929C14.0196 4.60536 13.7652 4.50001 13.5 4.50001ZM2.5 3.50001H5.79313L6.79313 4.50001H2.5V3.50001ZM13.5 12.5H2.5V5.50001H13.5V12.5Z" fill="#181818"/>
</svg>
