<svg width="16" height="16" viewBox="0 0 16 16" fill="none" xmlns="http://www.w3.org/2000/svg">
<path d="M14 10H13.5V9.75001C13.5 9.28588 13.3156 8.84076 12.9874 8.51257C12.6592 8.18438 12.2141 8.00001 11.75 8.00001C11.2859 8.00001 10.8408 8.18438 10.5126 8.51257C10.1844 8.84076 10 9.28588 10 9.75001V10H9.5C9.36739 10 9.24021 10.0527 9.14645 10.1465C9.05268 10.2402 9 10.3674 9 10.5V13C9 13.1326 9.05268 13.2598 9.14645 13.3536C9.24021 13.4473 9.36739 13.5 9.5 13.5H14C14.1326 13.5 14.2598 13.4473 14.3536 13.3536C14.4473 13.2598 14.5 13.1326 14.5 13V10.5C14.5 10.3674 14.4473 10.2402 14.3536 10.1465C14.2598 10.0527 14.1326 10 14 10ZM11 9.75001C11 9.55109 11.079 9.36033 11.2197 9.21968C11.3603 9.07902 11.5511 9.00001 11.75 9.00001C11.9489 9.00001 12.1397 9.07902 12.2803 9.21968C12.421 9.36033 12.5 9.55109 12.5 9.75001V10H11V9.75001ZM13.5 12.5H10V11H13.5V12.5ZM13.5 4.50001H8.20687L6.5 2.79313C6.40748 2.69987 6.29734 2.62593 6.17599 2.5756C6.05464 2.52528 5.9245 2.49959 5.79313 2.50001H2.5C2.23478 2.50001 1.98043 2.60536 1.79289 2.7929C1.60536 2.98043 1.5 3.23479 1.5 3.50001V12.5388C1.50033 12.7936 1.60171 13.0379 1.78191 13.2181C1.96211 13.3983 2.20641 13.4997 2.46125 13.5H7.035C7.16761 13.5 7.29479 13.4473 7.38855 13.3536C7.48232 13.2598 7.535 13.1326 7.535 13C7.535 12.8674 7.48232 12.7402 7.38855 12.6465C7.29479 12.5527 7.16761 12.5 7.035 12.5H2.5V5.50001H13.5V6.50001C13.5 6.63261 13.5527 6.75979 13.6464 6.85356C13.7402 6.94733 13.8674 7.00001 14 7.00001C14.1326 7.00001 14.2598 6.94733 14.3536 6.85356C14.4473 6.75979 14.5 6.63261 14.5 6.50001V5.50001C14.5 5.23479 14.3946 4.98043 14.2071 4.7929C14.0196 4.60536 13.7652 4.50001 13.5 4.50001ZM5.79313 3.50001L6.79313 4.50001H2.5V3.50001H5.79313Z" fill="#181818"/>
</svg>
