<svg width="16" height="16" viewBox="0 0 16 16" fill="none" xmlns="http://www.w3.org/2000/svg">
<path d="M9.5 3.5V11C9.5 11.1326 9.44732 11.2598 9.35355 11.3536C9.25979 11.4473 9.13261 11.5 9 11.5C8.86739 11.5 8.74021 11.4473 8.64645 11.3536C8.55268 11.2598 8.5 11.1326 8.5 11V7.75H3V11C3 11.1326 2.94732 11.2598 2.85355 11.3536C2.75979 11.4473 2.63261 11.5 2.5 11.5C2.36739 11.5 2.24021 11.4473 2.14645 11.3536C2.05268 11.2598 2 11.1326 2 11V3.5C2 3.36739 2.05268 3.24021 2.14645 3.14645C2.24021 3.05268 2.36739 3 2.5 3C2.63261 3 2.75979 3.05268 2.85355 3.14645C2.94732 3.24021 3 3.36739 3 3.5V6.75H8.5V3.5C8.5 3.36739 8.55268 3.24021 8.64645 3.14645C8.74021 3.05268 8.86739 3 9 3C9.13261 3 9.25979 3.05268 9.35355 3.14645C9.44732 3.24021 9.5 3.36739 9.5 3.5ZM14.2356 6.5625C14.1559 6.51976 14.0661 6.49946 13.9757 6.50375C13.8853 6.50804 13.7978 6.53677 13.7225 6.58687L12.2225 7.58687C12.1678 7.62332 12.1209 7.67017 12.0843 7.72475C12.0478 7.77934 12.0223 7.84059 12.0094 7.90501C11.9966 7.96943 11.9965 8.03576 12.0092 8.10021C12.022 8.16466 12.0473 8.22596 12.0837 8.28063C12.1202 8.33529 12.167 8.38224 12.2216 8.41879C12.2762 8.45535 12.3375 8.4808 12.4019 8.49368C12.4663 8.50656 12.5326 8.50663 12.5971 8.49388C12.6615 8.48113 12.7228 8.45582 12.7775 8.41938L13.5 7.9375V13C13.5 13.1326 13.5527 13.2598 13.6464 13.3536C13.7402 13.4473 13.8674 13.5 14 13.5C14.1326 13.5 14.2598 13.4473 14.3536 13.3536C14.4473 13.2598 14.5 13.1326 14.5 13V7C14.4994 6.91004 14.4745 6.82191 14.4279 6.74491C14.3814 6.66791 14.315 6.60489 14.2356 6.5625Z" fill="#666666"/>
</svg>
