<svg width="16" height="16" viewBox="0 0 16 16" fill="none" xmlns="http://www.w3.org/2000/svg">
<path d="M12.5 14C12.5 14.1326 12.4473 14.2598 12.3536 14.3536C12.2598 14.4473 12.1326 14.5 12 14.5H4C3.86739 14.5 3.74021 14.4473 3.64645 14.3536C3.55268 14.2598 3.5 14.1326 3.5 14C3.5 13.8674 3.55268 13.7402 3.64645 13.6464C3.74021 13.5527 3.86739 13.5 4 13.5H12C12.1326 13.5 12.2598 13.5527 12.3536 13.6464C12.4473 13.7402 12.5 13.8674 12.5 14ZM8 12.5C9.06051 12.4988 10.0773 12.077 10.8271 11.3271C11.577 10.5773 11.9988 9.56051 12 8.5V3.5C12 3.36739 11.9473 3.24021 11.8536 3.14645C11.7598 3.05268 11.6326 3 11.5 3C11.3674 3 11.2402 3.05268 11.1464 3.14645C11.0527 3.24021 11 3.36739 11 3.5V8.5C11 9.29565 10.6839 10.0587 10.1213 10.6213C9.55871 11.1839 8.79565 11.5 8 11.5C7.20435 11.5 6.44129 11.1839 5.87868 10.6213C5.31607 10.0587 5 9.29565 5 8.5V3.5C5 3.36739 4.94732 3.24021 4.85355 3.14645C4.75979 3.05268 4.63261 3 4.5 3C4.36739 3 4.24021 3.05268 4.14645 3.14645C4.05268 3.24021 4 3.36739 4 3.5V8.5C4.00116 9.56051 4.42296 10.5773 5.17285 11.3271C5.92275 12.077 6.93949 12.4988 8 12.5Z" fill="#666666"/>
</svg>
