<svg width="14" height="14" viewBox="0 0 14 14" fill="none" xmlns="http://www.w3.org/2000/svg">
<path d="M11.6845 2.93453L8.93102 5.6875H10.5C10.616 5.6875 10.7273 5.73359 10.8094 5.81564C10.8914 5.89769 10.9375 6.00897 10.9375 6.125C10.9375 6.24103 10.8914 6.35231 10.8094 6.43436C10.7273 6.51641 10.616 6.5625 10.5 6.5625H7.875C7.75897 6.5625 7.64769 6.51641 7.56564 6.43436C7.48359 6.35231 7.4375 6.24103 7.4375 6.125V3.5C7.4375 3.38397 7.48359 3.27269 7.56564 3.19064C7.64769 3.10859 7.75897 3.0625 7.875 3.0625C7.99103 3.0625 8.10231 3.10859 8.18436 3.19064C8.26641 3.27269 8.3125 3.38397 8.3125 3.5V5.06898L11.0655 2.31547C11.1476 2.23338 11.2589 2.18726 11.375 2.18726C11.4911 2.18726 11.6024 2.23338 11.6845 2.31547C11.7666 2.39756 11.8127 2.5089 11.8127 2.625C11.8127 2.7411 11.7666 2.85244 11.6845 2.93453ZM6.125 7.4375H3.5C3.38397 7.4375 3.27269 7.48359 3.19064 7.56564C3.10859 7.64769 3.0625 7.75897 3.0625 7.875C3.0625 7.99103 3.10859 8.10231 3.19064 8.18436C3.27269 8.26641 3.38397 8.3125 3.5 8.3125H5.06898L2.31547 11.0655C2.23338 11.1476 2.18726 11.2589 2.18726 11.375C2.18726 11.4911 2.23338 11.6024 2.31547 11.6845C2.39756 11.7666 2.5089 11.8127 2.625 11.8127C2.7411 11.8127 2.85244 11.7666 2.93453 11.6845L5.6875 8.93102V10.5C5.6875 10.616 5.73359 10.7273 5.81564 10.8094C5.89769 10.8914 6.00897 10.9375 6.125 10.9375C6.24103 10.9375 6.35231 10.8914 6.43436 10.8094C6.51641 10.7273 6.5625 10.616 6.5625 10.5V7.875C6.5625 7.75897 6.51641 7.64769 6.43436 7.56564C6.35231 7.48359 6.24103 7.4375 6.125 7.4375Z" fill="#666666"/>
</svg>
