<svg width="16" height="16" viewBox="0 0 16 16" fill="none" xmlns="http://www.w3.org/2000/svg">
<path d="M12.5 3.5C12.5 3.63261 12.4473 3.75979 12.3536 3.85355C12.2598 3.94732 12.1326 4 12 4H9.86063L7.19375 12H9C9.13261 12 9.25979 12.0527 9.35355 12.1464C9.44732 12.2402 9.5 12.3674 9.5 12.5C9.5 12.6326 9.44732 12.7598 9.35355 12.8536C9.25979 12.9473 9.13261 13 9 13H4C3.86739 13 3.74021 12.9473 3.64645 12.8536C3.55268 12.7598 3.5 12.6326 3.5 12.5C3.5 12.3674 3.55268 12.2402 3.64645 12.1464C3.74021 12.0527 3.86739 12 4 12H6.13938L8.80625 4H7C6.86739 4 6.74021 3.94732 6.64645 3.85355C6.55268 3.75979 6.5 3.63261 6.5 3.5C6.5 3.36739 6.55268 3.24021 6.64645 3.14645C6.74021 3.05268 6.86739 3 7 3H12C12.1326 3 12.2598 3.05268 12.3536 3.14645C12.4473 3.24021 12.5 3.36739 12.5 3.5Z" fill="#666666"/>
</svg>
