<svg width="16" height="16" viewBox="0 0 16 16" fill="none" xmlns="http://www.w3.org/2000/svg">
<path d="M2 4C2 3.86739 2.05268 3.74021 2.14645 3.64645C2.24021 3.55268 2.36739 3.5 2.5 3.5H13.5C13.6326 3.5 13.7598 3.55268 13.8536 3.64645C13.9473 3.74021 14 3.86739 14 4C14 4.13261 13.9473 4.25979 13.8536 4.35355C13.7598 4.44732 13.6326 4.5 13.5 4.5H2.5C2.36739 4.5 2.24021 4.44732 2.14645 4.35355C2.05268 4.25979 2 4.13261 2 4ZM2.5 7H10.5C10.6326 7 10.7598 6.94732 10.8536 6.85355C10.9473 6.75979 11 6.63261 11 6.5C11 6.36739 10.9473 6.24021 10.8536 6.14645C10.7598 6.05268 10.6326 6 10.5 6H2.5C2.36739 6 2.24021 6.05268 2.14645 6.14645C2.05268 6.24021 2 6.36739 2 6.5C2 6.63261 2.05268 6.75979 2.14645 6.85355C2.24021 6.94732 2.36739 7 2.5 7ZM13.5 8.5H2.5C2.36739 8.5 2.24021 8.55268 2.14645 8.64645C2.05268 8.74021 2 8.86739 2 9C2 9.13261 2.05268 9.25979 2.14645 9.35355C2.24021 9.44732 2.36739 9.5 2.5 9.5H13.5C13.6326 9.5 13.7598 9.44732 13.8536 9.35355C13.9473 9.25979 14 9.13261 14 9C14 8.86739 13.9473 8.74021 13.8536 8.64645C13.7598 8.55268 13.6326 8.5 13.5 8.5ZM10.5 11H2.5C2.36739 11 2.24021 11.0527 2.14645 11.1464C2.05268 11.2402 2 11.3674 2 11.5C2 11.6326 2.05268 11.7598 2.14645 11.8536C2.24021 11.9473 2.36739 12 2.5 12H10.5C10.6326 12 10.7598 11.9473 10.8536 11.8536C10.9473 11.7598 11 11.6326 11 11.5C11 11.3674 10.9473 11.2402 10.8536 11.1464C10.7598 11.0527 10.6326 11 10.5 11Z" fill="#666666"/>
</svg>
