<svg width="16" height="16" viewBox="0 0 16 16" fill="none" xmlns="http://www.w3.org/2000/svg">
<path d="M14 8C14 8.13261 13.9473 8.25979 13.8536 8.35355C13.7598 8.44732 13.6326 8.5 13.5 8.5H10.9956C11.57 8.94438 12 9.575 12 10.5C12 11.3337 11.5625 12.1062 10.7656 12.6744C10.0206 13.2069 9.03813 13.5 8 13.5C6.96187 13.5 5.97937 13.2069 5.23438 12.6744C4.4375 12.1062 4 11.3337 4 10.5C4 10.3674 4.05268 10.2402 4.14645 10.1464C4.24021 10.0527 4.36739 10 4.5 10C4.63261 10 4.75979 10.0527 4.85355 10.1464C4.94732 10.2402 5 10.3674 5 10.5C5 11.5844 6.375 12.5 8 12.5C9.625 12.5 11 11.5844 11 10.5C11 9.57188 10.3412 9.02625 8.57687 8.5H2.5C2.36739 8.5 2.24021 8.44732 2.14645 8.35355C2.05268 8.25979 2 8.13261 2 8C2 7.86739 2.05268 7.74021 2.14645 7.64645C2.24021 7.55268 2.36739 7.5 2.5 7.5H13.5C13.6326 7.5 13.7598 7.55268 13.8536 7.64645C13.9473 7.74021 14 7.86739 14 8ZM4.77063 6.5C4.84967 6.50007 4.9276 6.4814 4.99803 6.44553C5.06847 6.40965 5.12939 6.35758 5.1758 6.2936C5.22222 6.22962 5.2528 6.15555 5.26505 6.07746C5.2773 5.99937 5.27085 5.91949 5.24625 5.84438C5.21046 5.73314 5.19295 5.61684 5.19438 5.5C5.19438 4.36 6.40063 3.5 8 3.5C9.1775 3.5 10.135 3.96375 10.5625 4.74062C10.63 4.84942 10.7367 4.92816 10.8606 4.96061C10.9845 4.99306 11.1161 4.97675 11.2283 4.91504C11.3405 4.85333 11.4247 4.75092 11.4636 4.62893C11.5026 4.50694 11.4932 4.37467 11.4375 4.25938C10.8331 3.1575 9.54813 2.5 8 2.5C5.83063 2.5 4.19438 3.78937 4.19438 5.5C4.19331 5.72252 4.22749 5.9438 4.29563 6.15562C4.32842 6.25575 4.392 6.34296 4.47731 6.40481C4.56261 6.46665 4.66526 6.49997 4.77063 6.5Z" fill="#666666"/>
</svg>
