<svg width="14" height="14" viewBox="0 0 14 14" fill="none" xmlns="http://www.w3.org/2000/svg">
<path d="M11.375 3.0625V4.8125C11.375 4.92853 11.3289 5.03981 11.2469 5.12186C11.1648 5.20391 11.0535 5.25 10.9375 5.25C10.8215 5.25 10.7102 5.20391 10.6281 5.12186C10.5461 5.03981 10.5 4.92853 10.5 4.8125V3.5H7.4375V10.5H8.75C8.86603 10.5 8.97731 10.5461 9.05936 10.6281C9.14141 10.7102 9.1875 10.8215 9.1875 10.9375C9.1875 11.0535 9.14141 11.1648 9.05936 11.2469C8.97731 11.3289 8.86603 11.375 8.75 11.375H5.25C5.13397 11.375 5.02269 11.3289 4.94064 11.2469C4.85859 11.1648 4.8125 11.0535 4.8125 10.9375C4.8125 10.8215 4.85859 10.7102 4.94064 10.6281C5.02269 10.5461 5.13397 10.5 5.25 10.5H6.5625V3.5H3.5V4.8125C3.5 4.92853 3.45391 5.03981 3.37186 5.12186C3.28981 5.20391 3.17853 5.25 3.0625 5.25C2.94647 5.25 2.83519 5.20391 2.75314 5.12186C2.67109 5.03981 2.625 4.92853 2.625 4.8125V3.0625C2.625 2.94647 2.67109 2.83519 2.75314 2.75314C2.83519 2.67109 2.94647 2.625 3.0625 2.625H10.9375C11.0535 2.625 11.1648 2.67109 11.2469 2.75314C11.3289 2.83519 11.375 2.94647 11.375 3.0625Z" fill="#181818"/>
</svg>
