<svg width="16" height="16" viewBox="0 0 16 16" fill="none" xmlns="http://www.w3.org/2000/svg">
<path d="M15.5 9.00021C15.5 9.13282 15.4473 9.26 15.3535 9.35376C15.2598 9.44753 15.1326 9.50021 15 9.50021H12C11.9071 9.50021 11.8161 9.47435 11.7371 9.42554C11.6581 9.37672 11.5943 9.30687 11.5528 9.22382C11.5112 9.14076 11.4937 9.04779 11.502 8.95531C11.5103 8.86283 11.5443 8.77449 11.6 8.70021L14.2981 5.10334C14.3845 4.9882 14.445 4.85578 14.4755 4.7151C14.506 4.57443 14.5058 4.42883 14.4749 4.28825C14.444 4.14767 14.383 4.01543 14.2963 3.90056C14.2096 3.78568 14.099 3.69089 13.9723 3.62265C13.8456 3.55441 13.7056 3.51434 13.5619 3.50517C13.4183 3.496 13.2744 3.51796 13.14 3.56953C13.0056 3.6211 12.8839 3.70107 12.7833 3.80399C12.6826 3.9069 12.6054 4.03033 12.5569 4.16584C12.535 4.22776 12.5011 4.28477 12.4572 4.33362C12.4133 4.38246 12.3602 4.42217 12.301 4.4505C12.2417 4.47882 12.1774 4.49519 12.1119 4.49868C12.0463 4.50217 11.9807 4.49271 11.9187 4.47084C11.8568 4.44896 11.7998 4.41511 11.7509 4.3712C11.7021 4.32729 11.6624 4.2742 11.6341 4.21494C11.6057 4.15569 11.5894 4.09143 11.5859 4.02585C11.5824 3.96027 11.5919 3.89464 11.6137 3.83271C11.71 3.56104 11.8639 3.31339 12.0649 3.10674C12.2658 2.90008 12.509 2.7393 12.7779 2.63541C13.0468 2.53152 13.3349 2.48697 13.6226 2.50481C13.9103 2.52266 14.1907 2.60248 14.4447 2.7388C14.6986 2.87512 14.9201 3.06473 15.094 3.29463C15.2679 3.52453 15.39 3.7893 15.452 4.07079C15.514 4.35228 15.5144 4.64385 15.4532 4.92552C15.392 5.20719 15.2707 5.47231 15.0975 5.70271L13 8.50021H15C15.1326 8.50021 15.2598 8.55289 15.3535 8.64666C15.4473 8.74042 15.5 8.8676 15.5 9.00021ZM9.32748 4.62521C9.27788 4.58214 9.22027 4.54926 9.15795 4.52846C9.09564 4.50766 9.02984 4.49934 8.9643 4.50399C8.89877 4.50863 8.8348 4.52614 8.77604 4.55552C8.71728 4.5849 8.66489 4.62557 8.62185 4.67521L5.74998 7.98709L2.8781 4.67459C2.78846 4.58636 2.66885 4.53517 2.54314 4.53121C2.41742 4.52725 2.29484 4.57082 2.19981 4.65322C2.10479 4.73563 2.04432 4.85082 2.03045 4.97583C2.01658 5.10084 2.05033 5.22648 2.12498 5.32771L5.0881 8.75021L2.12498 12.1727C2.08197 12.2224 2.04916 12.28 2.02843 12.3423C2.0077 12.4047 1.99945 12.4705 2.00415 12.536C2.00885 12.6015 2.02641 12.6655 2.05583 12.7242C2.08525 12.783 2.12595 12.8353 2.1756 12.8783C2.27589 12.9652 2.40657 13.0087 2.5389 12.9992C2.60442 12.9945 2.66838 12.9769 2.72712 12.9475C2.78585 12.9181 2.83822 12.8774 2.88123 12.8277L5.75623 9.51521L8.6281 12.8277C8.71496 12.928 8.8381 12.9897 8.97043 12.9992C9.10276 13.0087 9.23344 12.9652 9.33373 12.8783C9.43401 12.7915 9.49569 12.6683 9.50518 12.536C9.51467 12.4037 9.47121 12.273 9.38435 12.1727L6.41185 8.75021L9.3781 5.32771C9.46405 5.22762 9.50696 5.09762 9.49748 4.96603C9.48799 4.83445 9.42689 4.71194 9.32748 4.62521Z" fill="#666666"/>
</svg>
