<svg width="16" height="16" viewBox="0 0 16 16" fill="none" xmlns="http://www.w3.org/2000/svg">
<path d="M5.5 4C5.5 3.86739 5.55268 3.74021 5.64645 3.64645C5.74021 3.55268 5.86739 3.5 6 3.5H13.5C13.6326 3.5 13.7598 3.55268 13.8536 3.64645C13.9473 3.74021 14 3.86739 14 4C14 4.13261 13.9473 4.25979 13.8536 4.35355C13.7598 4.44732 13.6326 4.5 13.5 4.5H6C5.86739 4.5 5.74021 4.44732 5.64645 4.35355C5.55268 4.25979 5.5 4.13261 5.5 4ZM13.5 7.5H6C5.86739 7.5 5.74021 7.55268 5.64645 7.64645C5.55268 7.74021 5.5 7.86739 5.5 8C5.5 8.13261 5.55268 8.25979 5.64645 8.35355C5.74021 8.44732 5.86739 8.5 6 8.5H13.5C13.6326 8.5 13.7598 8.44732 13.8536 8.35355C13.9473 8.25979 14 8.13261 14 8C14 7.86739 13.9473 7.74021 13.8536 7.64645C13.7598 7.55268 13.6326 7.5 13.5 7.5ZM13.5 11.5H6C5.86739 11.5 5.74021 11.5527 5.64645 11.6464C5.55268 11.7402 5.5 11.8674 5.5 12C5.5 12.1326 5.55268 12.2598 5.64645 12.3536C5.74021 12.4473 5.86739 12.5 6 12.5H13.5C13.6326 12.5 13.7598 12.4473 13.8536 12.3536C13.9473 12.2598 14 12.1326 14 12C14 11.8674 13.9473 11.7402 13.8536 11.6464C13.7598 11.5527 13.6326 11.5 13.5 11.5ZM3.5 3.5H2.5C2.36739 3.5 2.24021 3.55268 2.14645 3.64645C2.05268 3.74021 2 3.86739 2 4C2 4.13261 2.05268 4.25979 2.14645 4.35355C2.24021 4.44732 2.36739 4.5 2.5 4.5H3.5C3.63261 4.5 3.75979 4.44732 3.85355 4.35355C3.94732 4.25979 4 4.13261 4 4C4 3.86739 3.94732 3.74021 3.85355 3.64645C3.75979 3.55268 3.63261 3.5 3.5 3.5ZM3.5 7.5H2.5C2.36739 7.5 2.24021 7.55268 2.14645 7.64645C2.05268 7.74021 2 7.86739 2 8C2 8.13261 2.05268 8.25979 2.14645 8.35355C2.24021 8.44732 2.36739 8.5 2.5 8.5H3.5C3.63261 8.5 3.75979 8.44732 3.85355 8.35355C3.94732 8.25979 4 8.13261 4 8C4 7.86739 3.94732 7.74021 3.85355 7.64645C3.75979 7.55268 3.63261 7.5 3.5 7.5ZM3.5 11.5H2.5C2.36739 11.5 2.24021 11.5527 2.14645 11.6464C2.05268 11.7402 2 11.8674 2 12C2 12.1326 2.05268 12.2598 2.14645 12.3536C2.24021 12.4473 2.36739 12.5 2.5 12.5H3.5C3.63261 12.5 3.75979 12.4473 3.85355 12.3536C3.94732 12.2598 4 12.1326 4 12C4 11.8674 3.94732 11.7402 3.85355 11.6464C3.75979 11.5527 3.63261 11.5 3.5 11.5Z" fill="#666666"/>
</svg>
