<svg width="16" height="16" viewBox="0 0 16 16" fill="none" xmlns="http://www.w3.org/2000/svg">
<path d="M7 4.50028C7 4.63289 6.94732 4.76006 6.85355 4.85383C6.75979 4.9476 6.63261 5.00028 6.5 5.00028H2.5C2.36739 5.00028 2.24021 4.9476 2.14645 4.85383C2.05268 4.76006 2 4.63289 2 4.50028C2 4.36767 2.05268 4.24049 2.14645 4.14672C2.24021 4.05296 2.36739 4.00028 2.5 4.00028H6.5C6.63261 4.00028 6.75979 4.05296 6.85355 4.14672C6.94732 4.24049 7 4.36767 7 4.50028ZM6.5 11.0003H5V9.50028C5 9.36767 4.94732 9.24049 4.85355 9.14672C4.75979 9.05296 4.63261 9.00028 4.5 9.00028C4.36739 9.00028 4.24021 9.05296 4.14645 9.14672C4.05268 9.24049 4 9.36767 4 9.50028V11.0003H2.5C2.36739 11.0003 2.24021 11.053 2.14645 11.1467C2.05268 11.2405 2 11.3677 2 11.5003C2 11.6329 2.05268 11.7601 2.14645 11.8538C2.24021 11.9476 2.36739 12.0003 2.5 12.0003H4V13.5003C4 13.6329 4.05268 13.7601 4.14645 13.8538C4.24021 13.9476 4.36739 14.0003 4.5 14.0003C4.63261 14.0003 4.75979 13.9476 4.85355 13.8538C4.94732 13.7601 5 13.6329 5 13.5003V12.0003H6.5C6.63261 12.0003 6.75979 11.9476 6.85355 11.8538C6.94732 11.7601 7 11.6329 7 11.5003C7 11.3677 6.94732 11.2405 6.85355 11.1467C6.75979 11.053 6.63261 11.0003 6.5 11.0003ZM9.5 11.0003H13.5C13.6326 11.0003 13.7598 10.9476 13.8536 10.8538C13.9473 10.7601 14 10.6329 14 10.5003C14 10.3677 13.9473 10.2405 13.8536 10.1467C13.7598 10.053 13.6326 10.0003 13.5 10.0003H9.5C9.36739 10.0003 9.24021 10.053 9.14645 10.1467C9.05268 10.2405 9 10.3677 9 10.5003C9 10.6329 9.05268 10.7601 9.14645 10.8538C9.24021 10.9476 9.36739 11.0003 9.5 11.0003ZM13.5 12.0003H9.5C9.36739 12.0003 9.24021 12.053 9.14645 12.1467C9.05268 12.2405 9 12.3677 9 12.5003C9 12.6329 9.05268 12.7601 9.14645 12.8538C9.24021 12.9476 9.36739 13.0003 9.5 13.0003H13.5C13.6326 13.0003 13.7598 12.9476 13.8536 12.8538C13.9473 12.7601 14 12.6329 14 12.5003C14 12.3677 13.9473 12.2405 13.8536 12.1467C13.7598 12.053 13.6326 12.0003 13.5 12.0003ZM9.64625 6.35403C9.69269 6.40052 9.74783 6.4374 9.80853 6.46256C9.86923 6.48772 9.93429 6.50067 10 6.50067C10.0657 6.50067 10.1308 6.48772 10.1915 6.46256C10.2522 6.4374 10.3073 6.40052 10.3538 6.35403L11.5 5.20715L12.6462 6.35403C12.6927 6.40048 12.7479 6.43733 12.8086 6.46247C12.8692 6.48762 12.9343 6.50056 13 6.50056C13.0657 6.50056 13.1308 6.48762 13.1914 6.46247C13.2521 6.43733 13.3073 6.40048 13.3538 6.35403C13.4002 6.30757 13.4371 6.25242 13.4622 6.19173C13.4873 6.13103 13.5003 6.06598 13.5003 6.00028C13.5003 5.93458 13.4873 5.86953 13.4622 5.80883C13.4371 5.74813 13.4002 5.69298 13.3538 5.64653L12.2069 4.50028L13.3538 3.35403C13.4476 3.26021 13.5003 3.13296 13.5003 3.00028C13.5003 2.8676 13.4476 2.74035 13.3538 2.64653C13.2599 2.55271 13.1327 2.5 13 2.5C12.8673 2.5 12.7401 2.55271 12.6462 2.64653L11.5 3.7934L10.3538 2.64653C10.2599 2.55271 10.1327 2.5 10 2.5C9.86732 2.5 9.74007 2.55271 9.64625 2.64653C9.55243 2.74035 9.49972 2.8676 9.49972 3.00028C9.49972 3.13296 9.55243 3.26021 9.64625 3.35403L10.7931 4.50028L9.64625 5.64653C9.59976 5.69296 9.56288 5.74811 9.53772 5.80881C9.51256 5.86951 9.49961 5.93457 9.49961 6.00028C9.49961 6.06599 9.51256 6.13105 9.53772 6.19175C9.56288 6.25245 9.59976 6.30759 9.64625 6.35403Z" fill="#666666"/>
</svg>
