<svg width="16" height="16" viewBox="0 0 16 16" fill="none" xmlns="http://www.w3.org/2000/svg">
<path d="M5.83187 4.37464L1.74999 7.99964L5.82937 11.6246C5.87861 11.6682 5.91879 11.7211 5.94761 11.7802C5.97643 11.8393 5.99333 11.9035 5.99733 11.9691C6.00133 12.0348 5.99237 12.1006 5.97095 12.1627C5.94953 12.2249 5.91608 12.2823 5.87249 12.3315C5.82891 12.3808 5.77606 12.4209 5.71695 12.4498C5.65784 12.4786 5.59363 12.4955 5.52799 12.4995C5.46235 12.5035 5.39656 12.4945 5.33439 12.4731C5.27221 12.4517 5.21486 12.4182 5.16562 12.3746L0.665619 8.37464C0.612416 8.32772 0.569805 8.27002 0.540619 8.20536C0.511432 8.14071 0.496338 8.07058 0.496338 7.99964C0.496338 7.9287 0.511432 7.85858 0.540619 7.79392C0.569805 7.72927 0.612416 7.67156 0.665619 7.62464L5.16562 3.62464C5.21486 3.5809 5.27224 3.54728 5.33448 3.52571C5.39672 3.50413 5.4626 3.49503 5.52835 3.49892C5.59411 3.50281 5.65845 3.51961 5.71772 3.54837C5.77698 3.57712 5.83 3.61727 5.87374 3.66652C5.91749 3.71576 5.95111 3.77314 5.97268 3.83538C5.99425 3.89762 6.00335 3.9635 5.99946 4.02925C5.99557 4.09501 5.97877 4.15935 5.95002 4.21862C5.92126 4.27788 5.88111 4.3309 5.83187 4.37464ZM15.3319 7.62464L10.8319 3.62464C10.7324 3.53662 10.6021 3.49172 10.4695 3.49981C10.3369 3.50789 10.213 3.56831 10.125 3.66777C10.037 3.76722 9.99207 3.89757 10.0002 4.03014C10.0082 4.1627 10.0687 4.28662 10.1681 4.37464L14.25 7.99964L10.1706 11.6246C10.1214 11.6682 10.0812 11.7211 10.0524 11.7802C10.0236 11.8393 10.0067 11.9035 10.0027 11.9691C9.99865 12.0348 10.0076 12.1006 10.029 12.1627C10.0505 12.2249 10.0839 12.2823 10.1275 12.3315C10.1711 12.3808 10.2239 12.4209 10.283 12.4498C10.3422 12.4786 10.4064 12.4955 10.472 12.4995C10.5376 12.5035 10.6034 12.4945 10.6656 12.4731C10.7278 12.4517 10.7851 12.4182 10.8344 12.3746L15.3344 8.37464C15.3876 8.32772 15.4302 8.27002 15.4594 8.20536C15.4886 8.14071 15.5037 8.07058 15.5037 7.99964C15.5037 7.9287 15.4886 7.85858 15.4594 7.79392C15.4302 7.72927 15.3876 7.67156 15.3344 7.62464H15.3319Z" fill="#666666"/>
</svg>
