<svg width="16" height="16" viewBox="0 0 16 16" fill="none" xmlns="http://www.w3.org/2000/svg">
<g clip-path="url(#clip0_3556_21985)">
<path d="M15.8537 6.64653C15.8073 6.60004 15.7521 6.56316 15.6914 6.538C15.6307 6.51284 15.5657 6.49988 15.5 6.49988C15.4342 6.49988 15.3692 6.51284 15.3085 6.538C15.2478 6.56316 15.1926 6.60004 15.1462 6.64653L12 9.7934L6.70683 4.50028L9.85371 1.35403C9.90016 1.30757 9.93701 1.25242 9.96215 1.19173C9.9873 1.13103 10.0002 1.06598 10.0002 1.00028C10.0002 0.934581 9.9873 0.869526 9.96215 0.80883C9.93701 0.748133 9.90016 0.692983 9.85371 0.646528C9.80725 0.600073 9.7521 0.563223 9.69141 0.538081C9.63071 0.51294 9.56565 0.5 9.49996 0.5C9.43426 0.5 9.36921 0.51294 9.30851 0.538081C9.24781 0.563223 9.19266 0.600073 9.14621 0.646528L5.99996 3.7934C5.84867 3.94472 5.7499 4.14057 5.71818 4.35218C5.68645 4.56379 5.72344 4.78 5.82371 4.96903L4.49996 6.2934C4.31256 6.48092 4.20729 6.73518 4.20729 7.00028C4.20729 7.26538 4.31256 7.51964 4.49996 7.70715L4.79308 8.00028L1.14621 11.6465C1.08589 11.7068 1.04199 11.7815 1.01868 11.8635C0.995369 11.9455 0.993423 12.0322 1.01303 12.1152C1.03263 12.1981 1.07313 12.2747 1.13068 12.3377C1.18823 12.4006 1.26092 12.4477 1.34183 12.4747L5.84183 13.9747C5.89279 13.9918 5.9462 14.0004 5.99996 14.0003C6.06564 14.0003 6.13068 13.9874 6.19138 13.9623C6.25208 13.9373 6.30724 13.9004 6.35371 13.854L8.49996 11.7072L8.79308 12.0003C8.9806 12.1877 9.23485 12.2929 9.49996 12.2929C9.76506 12.2929 10.0193 12.1877 10.2068 12.0003L11.5312 10.6765C11.7202 10.7768 11.9364 10.8138 12.1481 10.7821C12.3597 10.7503 12.5555 10.6516 12.7068 10.5003L15.8537 7.35403C15.9002 7.30759 15.9371 7.25245 15.9622 7.19175C15.9874 7.13105 16.0003 7.06599 16.0003 7.00028C16.0003 6.93457 15.9874 6.86951 15.9622 6.80881C15.9371 6.74811 15.9002 6.69296 15.8537 6.64653ZM5.86496 12.9284L2.42746 11.7815L5.49996 8.70715L7.79308 11.0003L5.86496 12.9284ZM9.49996 11.2934L5.20683 7.00028L6.49996 5.70715L10.7931 10.0003L9.49996 11.2934Z" fill="#666666"/>
</g>
<defs>
<clipPath id="clip0_3556_21985">
<rect width="16" height="16" fill="white"/>
</clipPath>
</defs>
</svg>
