<svg width="16" height="16" viewBox="0 0 16 16" fill="none" xmlns="http://www.w3.org/2000/svg">
<path d="M11.155 7.23125C11.5499 6.85108 11.8223 6.36156 11.937 5.82552C12.0517 5.28947 12.0036 4.73138 11.7989 4.22287C11.5941 3.71436 11.2421 3.27864 10.7879 2.97166C10.3337 2.66467 9.79818 2.50042 9.25 2.5H5C4.86739 2.5 4.74021 2.55268 4.64645 2.64645C4.55268 2.74021 4.5 2.86739 4.5 3V12.5C4.5 12.6326 4.55268 12.7598 4.64645 12.8536C4.74021 12.9473 4.86739 13 5 13H10C10.6934 13 11.3654 12.7598 11.9017 12.3202C12.438 11.8807 12.8055 11.2689 12.9416 10.589C13.0778 9.90904 12.9741 9.20295 12.6484 8.59079C12.3227 7.97863 11.795 7.49822 11.155 7.23125ZM5.5 3.5H9.25C9.71413 3.5 10.1592 3.68437 10.4874 4.01256C10.8156 4.34075 11 4.78587 11 5.25C11 5.71413 10.8156 6.15925 10.4874 6.48744C10.1592 6.81563 9.71413 7 9.25 7H5.5V3.5ZM10 12H5.5V8H10C10.5304 8 11.0391 8.21071 11.4142 8.58579C11.7893 8.96086 12 9.46957 12 10C12 10.5304 11.7893 11.0391 11.4142 11.4142C11.0391 11.7893 10.5304 12 10 12Z" fill="#666666"/>
</svg>
