<svg width="16" height="16" viewBox="0 0 16 16" fill="none" xmlns="http://www.w3.org/2000/svg">
<path d="M5 7.5H11C11.1326 7.5 11.2598 7.55268 11.3536 7.64645C11.4473 7.74021 11.5 7.86739 11.5 8C11.5 8.13261 11.4473 8.25979 11.3536 8.35355C11.2598 8.44732 11.1326 8.5 11 8.5H5C4.86739 8.5 4.74021 8.44732 4.64645 8.35355C4.55268 8.25979 4.5 8.13261 4.5 8C4.5 7.86739 4.55268 7.74021 4.64645 7.64645C4.74021 7.55268 4.86739 7.5 5 7.5ZM6.5 10.5H4C3.33696 10.5 2.70107 10.2366 2.23223 9.76777C1.76339 9.29893 1.5 8.66304 1.5 8C1.5 7.33696 1.76339 6.70107 2.23223 6.23223C2.70107 5.76339 3.33696 5.5 4 5.5H6.5C6.63261 5.5 6.75979 5.44732 6.85355 5.35355C6.94732 5.25979 7 5.13261 7 5C7 4.86739 6.94732 4.74021 6.85355 4.64645C6.75979 4.55268 6.63261 4.5 6.5 4.5H4C3.07174 4.5 2.1815 4.86875 1.52513 5.52513C0.868749 6.1815 0.5 7.07174 0.5 8C0.5 8.92826 0.868749 9.8185 1.52513 10.4749C2.1815 11.1313 3.07174 11.5 4 11.5H6.5C6.63261 11.5 6.75979 11.4473 6.85355 11.3536C6.94732 11.2598 7 11.1326 7 11C7 10.8674 6.94732 10.7402 6.85355 10.6464C6.75979 10.5527 6.63261 10.5 6.5 10.5ZM12 4.5H9.5C9.36739 4.5 9.24021 4.55268 9.14645 4.64645C9.05268 4.74021 9 4.86739 9 5C9 5.13261 9.05268 5.25979 9.14645 5.35355C9.24021 5.44732 9.36739 5.5 9.5 5.5H12C12.663 5.5 13.2989 5.76339 13.7678 6.23223C14.2366 6.70107 14.5 7.33696 14.5 8C14.5 8.66304 14.2366 9.29893 13.7678 9.76777C13.2989 10.2366 12.663 10.5 12 10.5H9.5C9.36739 10.5 9.24021 10.5527 9.14645 10.6464C9.05268 10.7402 9 10.8674 9 11C9 11.1326 9.05268 11.2598 9.14645 11.3536C9.24021 11.4473 9.36739 11.5 9.5 11.5H12C12.9283 11.5 13.8185 11.1313 14.4749 10.4749C15.1313 9.8185 15.5 8.92826 15.5 8C15.5 7.07174 15.1313 6.1815 14.4749 5.52513C13.8185 4.86875 12.9283 4.5 12 4.5Z" fill="#666666"/>
</svg>
