<svg width="16" height="16" viewBox="0 0 16 16" fill="none" xmlns="http://www.w3.org/2000/svg">
<path d="M5.45255 3.28729C5.41217 3.2014 5.34817 3.12876 5.26804 3.07789C5.18792 3.02702 5.09496 3 5.00005 3C4.90513 3 4.81218 3.02702 4.73205 3.07789C4.65192 3.12876 4.58792 3.2014 4.54755 3.28729L0.547545 11.7873C0.519599 11.8467 0.503629 11.9111 0.50055 11.9767C0.497471 12.0423 0.507341 12.1078 0.529598 12.1696C0.574549 12.2944 0.667222 12.3962 0.787233 12.4526C0.907243 12.509 1.04476 12.5155 1.16953 12.4706C1.2943 12.4256 1.3961 12.3329 1.45255 12.2129L2.4938 10.0004H7.5063L8.54755 12.2129C8.57549 12.2723 8.61487 12.3257 8.66343 12.3699C8.71199 12.4141 8.76878 12.4483 8.83056 12.4706C8.89234 12.4928 8.9579 12.5027 9.02349 12.4996C9.08909 12.4965 9.15343 12.4806 9.21286 12.4526C9.27228 12.4247 9.32562 12.3853 9.36982 12.3367C9.41403 12.2882 9.44824 12.2314 9.47049 12.1696C9.49275 12.1078 9.50262 12.0423 9.49954 11.9767C9.49646 11.9111 9.48049 11.8467 9.45255 11.7873L5.45255 3.28729ZM2.96442 9.00042L5.00005 4.67479L7.03567 9.00042H2.96442ZM12.5 6.00042C11.7025 6.00042 11.0794 6.21729 10.6482 6.64542C10.5579 6.73954 10.5079 6.86522 10.509 6.99564C10.5101 7.12606 10.5621 7.2509 10.6539 7.34353C10.7457 7.43616 10.8701 7.48925 11.0005 7.49147C11.1309 7.49369 11.257 7.44487 11.3519 7.35542C11.5894 7.11979 11.9769 7.00042 12.5 7.00042C13.3269 7.00042 14 7.56292 14 8.25042V8.45167C13.5563 8.15481 13.0339 7.99764 12.5 8.00042C11.1213 8.00042 10 9.00979 10 10.2504C10 11.491 11.1213 12.5004 12.5 12.5004C13.0341 12.5028 13.5566 12.3449 14 12.0473C14.0063 12.1799 14.0649 12.3046 14.1631 12.394C14.2612 12.4834 14.3909 12.5301 14.5235 12.5239C14.6561 12.5176 14.7808 12.459 14.8702 12.3608C14.9595 12.2627 15.0063 12.133 15 12.0004V8.25042C15 7.00979 13.8788 6.00042 12.5 6.00042ZM12.5 11.5004C11.6732 11.5004 11 10.9379 11 10.2504C11 9.56292 11.6732 9.00042 12.5 9.00042C13.3269 9.00042 14 9.56292 14 10.2504C14 10.9379 13.3269 11.5004 12.5 11.5004Z" fill="#666666"/>
</svg>
