<svg width="16" height="16" viewBox="0 0 16 16" fill="none" xmlns="http://www.w3.org/2000/svg">
<path d="M13.3363 13.8696C13.2381 13.9587 13.1086 14.0053 12.9761 13.9989C12.8437 13.9926 12.7192 13.9339 12.63 13.8358L8.5 9.29268V11.9996H10C10.1326 11.9996 10.2598 12.0522 10.3536 12.146C10.4473 12.2398 10.5 12.3669 10.5 12.4996C10.5 12.6322 10.4473 12.7593 10.3536 12.8531C10.2598 12.9469 10.1326 12.9996 10 12.9996H6C5.8674 12.9996 5.74022 12.9469 5.64645 12.8531C5.55268 12.7593 5.5 12.6322 5.5 12.4996C5.5 12.3669 5.55268 12.2398 5.64645 12.146C5.74022 12.0522 5.8674 11.9996 6 11.9996H7.5V8.19268L4 4.34268V5.49955C4 5.63216 3.94733 5.75934 3.85356 5.85311C3.75979 5.94688 3.63261 5.99955 3.5 5.99955C3.3674 5.99955 3.24022 5.94688 3.14645 5.85311C3.05268 5.75934 3 5.63216 3 5.49955V3.49955C3.00006 3.42817 3.01541 3.35763 3.045 3.29268L2.63 2.8358C2.58492 2.78737 2.5499 2.73048 2.52696 2.66842C2.50403 2.60635 2.49365 2.54035 2.49641 2.47425C2.49917 2.40814 2.51503 2.34324 2.54306 2.2833C2.57108 2.22337 2.61073 2.16959 2.6597 2.12509C2.70866 2.08059 2.76597 2.04625 2.82831 2.02407C2.89064 2.00188 2.95676 1.99228 3.02283 1.99584C3.0889 1.99939 3.15361 2.01603 3.2132 2.04477C3.2728 2.07352 3.32609 2.11381 3.37 2.1633L13.37 13.1633C13.4592 13.2614 13.5057 13.391 13.4994 13.5234C13.4931 13.6559 13.4344 13.7804 13.3363 13.8696ZM6.61188 3.99955H7.5V5.02643C7.5 5.15904 7.55268 5.28621 7.64645 5.37998C7.74022 5.47375 7.8674 5.52643 8 5.52643C8.13261 5.52643 8.25979 5.47375 8.35356 5.37998C8.44733 5.28621 8.5 5.15904 8.5 5.02643V3.99955H12V5.49955C12 5.63216 12.0527 5.75934 12.1465 5.85311C12.2402 5.94688 12.3674 5.99955 12.5 5.99955C12.6326 5.99955 12.7598 5.94688 12.8536 5.85311C12.9473 5.75934 13 5.63216 13 5.49955V3.49955C13 3.36695 12.9473 3.23977 12.8536 3.146C12.7598 3.05223 12.6326 2.99955 12.5 2.99955H6.61188C6.47927 2.99955 6.35209 3.05223 6.25833 3.146C6.16456 3.23977 6.11188 3.36695 6.11188 3.49955C6.11188 3.63216 6.16456 3.75934 6.25833 3.85311C6.35209 3.94688 6.47927 3.99955 6.61188 3.99955Z" fill="#666666"/>
</svg>
