<svg width="16" height="16" viewBox="0 0 16 16" fill="none" xmlns="http://www.w3.org/2000/svg">
<path d="M14 8.00036C14 8.13297 13.9473 8.26014 13.8536 8.35391C13.7598 8.44768 13.6326 8.50036 13.5 8.50036H6.50003C6.36742 8.50036 6.24024 8.44768 6.14647 8.35391C6.05271 8.26014 6.00003 8.13297 6.00003 8.00036C6.00003 7.86775 6.05271 7.74057 6.14647 7.6468C6.24024 7.55304 6.36742 7.50036 6.50003 7.50036H13.5C13.6326 7.50036 13.7598 7.55304 13.8536 7.6468C13.9473 7.74057 14 7.86775 14 8.00036ZM6.50003 4.50036H13.5C13.6326 4.50036 13.7598 4.44768 13.8536 4.35391C13.9473 4.26014 14 4.13297 14 4.00036C14 3.86775 13.9473 3.74057 13.8536 3.6468C13.7598 3.55304 13.6326 3.50036 13.5 3.50036H6.50003C6.36742 3.50036 6.24024 3.55304 6.14647 3.6468C6.05271 3.74057 6.00003 3.86775 6.00003 4.00036C6.00003 4.13297 6.05271 4.26014 6.14647 4.35391C6.24024 4.44768 6.36742 4.50036 6.50003 4.50036ZM13.5 11.5004H6.50003C6.36742 11.5004 6.24024 11.553 6.14647 11.6468C6.05271 11.7406 6.00003 11.8678 6.00003 12.0004C6.00003 12.133 6.05271 12.2601 6.14647 12.3539C6.24024 12.4477 6.36742 12.5004 6.50003 12.5004H13.5C13.6326 12.5004 13.7598 12.4477 13.8536 12.3539C13.9473 12.2601 14 12.133 14 12.0004C14 11.8678 13.9473 11.7406 13.8536 11.6468C13.7598 11.553 13.6326 11.5004 13.5 11.5004ZM2.72378 3.44786L3.00003 3.30911V6.50036C3.00003 6.63297 3.05271 6.76014 3.14647 6.85391C3.24024 6.94768 3.36742 7.00036 3.50003 7.00036C3.63264 7.00036 3.75981 6.94768 3.85358 6.85391C3.94735 6.76014 4.00003 6.63297 4.00003 6.50036V2.50036C4.00009 2.41509 3.97834 2.33122 3.93685 2.25672C3.89536 2.18222 3.83551 2.11957 3.76298 2.07473C3.69045 2.02988 3.60766 2.00433 3.52247 2.0005C3.43729 1.99668 3.35254 2.0147 3.27628 2.05286L2.27628 2.55286C2.15759 2.6122 2.06734 2.71626 2.02538 2.84214C2.00461 2.90447 1.99631 2.97029 2.00097 3.03583C2.00562 3.10136 2.02314 3.16534 2.05253 3.22411C2.08191 3.28287 2.12258 3.33528 2.17222 3.37833C2.22185 3.42138 2.27948 3.45423 2.34181 3.475C2.4677 3.51696 2.60509 3.5072 2.72378 3.44786ZM4.98565 9.79536C4.958 9.59733 4.8906 9.40694 4.78749 9.23563C4.68438 9.06431 4.5477 8.91562 4.38565 8.79848C4.06109 8.56281 3.65797 8.46178 3.26063 8.51653C2.86328 8.57128 2.5025 8.77757 2.25378 9.09223C2.15871 9.2143 2.08342 9.35054 2.03065 9.49598C2.0031 9.55858 1.98868 9.62617 1.98829 9.69456C1.9879 9.76296 2.00154 9.83071 2.02838 9.89362C2.05522 9.95653 2.09468 10.0133 2.14432 10.0603C2.19396 10.1074 2.25273 10.1437 2.31698 10.1672C2.38124 10.1906 2.44962 10.2006 2.51789 10.1965C2.58617 10.1925 2.65289 10.1745 2.71392 10.1436C2.77496 10.1127 2.82901 10.0697 2.87274 10.0171C2.91647 9.9645 2.94894 9.9035 2.96815 9.83786C2.98565 9.78991 3.01054 9.745 3.0419 9.70473C3.1301 9.59483 3.25728 9.52318 3.39698 9.50467C3.53667 9.48616 3.67812 9.52222 3.7919 9.60536C3.84663 9.64407 3.89292 9.69351 3.92795 9.75067C3.96297 9.80783 3.98601 9.87152 3.99565 9.93786C4.00447 10.0016 4.00033 10.0664 3.98347 10.1285C3.9666 10.1906 3.93737 10.2486 3.89753 10.2991C3.89571 10.3013 3.89404 10.3036 3.89253 10.306L2.0994 12.701C2.04384 12.7753 2.01005 12.8636 2.00184 12.9561C1.99362 13.0485 2.01129 13.1414 2.05287 13.2244C2.09445 13.3074 2.1583 13.3771 2.23727 13.4258C2.31624 13.4746 2.40722 13.5004 2.50003 13.5004H4.50003C4.63264 13.5004 4.75981 13.4477 4.85358 13.3539C4.94735 13.2601 5.00003 13.133 5.00003 13.0004C5.00003 12.8678 4.94735 12.7406 4.85358 12.6468C4.75981 12.553 4.63264 12.5004 4.50003 12.5004H3.50003L4.69253 10.9047C4.81343 10.749 4.9017 10.5705 4.95206 10.3799C5.00243 10.1893 5.01385 9.99048 4.98565 9.79536Z" fill="#666666"/>
</svg>
