<svg width="16" height="16" viewBox="0 0 16 16" fill="none" xmlns="http://www.w3.org/2000/svg">
<path d="M10.3538 12.1466C10.4003 12.1931 10.4372 12.2482 10.4623 12.3089C10.4875 12.3696 10.5004 12.4347 10.5004 12.5004C10.5004 12.5661 10.4875 12.6312 10.4623 12.6919C10.4372 12.7526 10.4003 12.8077 10.3538 12.8541L8.35378 14.8541C8.30735 14.9006 8.2522 14.9375 8.1915 14.9627C8.13081 14.9878 8.06574 15.0008 8.00003 15.0008C7.93433 15.0008 7.86926 14.9878 7.80856 14.9627C7.74786 14.9375 7.69272 14.9006 7.64628 14.8541L5.64628 12.8541C5.55246 12.7603 5.49976 12.6331 5.49976 12.5004C5.49976 12.3677 5.55246 12.2405 5.64628 12.1466C5.7401 12.0528 5.86735 12.0001 6.00003 12.0001C6.13272 12.0001 6.25996 12.0528 6.35378 12.1466L7.50003 13.2935V2.70727L6.35378 3.85414C6.25996 3.94796 6.13272 4.00067 6.00003 4.00067C5.86735 4.00067 5.7401 3.94796 5.64628 3.85414C5.55246 3.76032 5.49976 3.63308 5.49976 3.50039C5.49976 3.36771 5.55246 3.24046 5.64628 3.14664L7.64628 1.14664C7.69272 1.10016 7.74786 1.06328 7.80856 1.03811C7.86926 1.01295 7.93433 1 8.00003 1C8.06574 1 8.13081 1.01295 8.1915 1.03811C8.2522 1.06328 8.30735 1.10016 8.35378 1.14664L10.3538 3.14664C10.4476 3.24046 10.5003 3.36771 10.5003 3.50039C10.5003 3.63308 10.4476 3.76032 10.3538 3.85414C10.26 3.94796 10.1327 4.00067 10 4.00067C9.86735 4.00067 9.7401 3.94796 9.64628 3.85414L8.50003 2.70727V13.2935L9.64628 12.1466C9.69272 12.1002 9.74786 12.0633 9.80856 12.0381C9.86926 12.013 9.93433 12 10 12C10.0657 12 10.1308 12.013 10.1915 12.0381C10.2522 12.0633 10.3073 12.1002 10.3538 12.1466Z" fill="#666666"/>
</svg>
