<svg width="16" height="16" viewBox="0 0 16 16" fill="none" xmlns="http://www.w3.org/2000/svg">
<path d="M15.5 13.0001C15.5 13.1327 15.4473 13.2599 15.3535 13.3537C15.2598 13.4475 15.1326 13.5001 15 13.5001H12C11.9071 13.5001 11.8161 13.4743 11.7371 13.4255C11.6581 13.3766 11.5943 13.3068 11.5528 13.2237C11.5112 13.1407 11.4937 13.0477 11.502 12.9552C11.5103 12.8628 11.5443 12.7744 11.6 12.7001L14.2981 9.10264C14.3845 8.9875 14.445 8.85508 14.4755 8.71441C14.506 8.57373 14.5058 8.42813 14.4749 8.28755C14.444 8.14698 14.383 8.01473 14.2963 7.89986C14.2096 7.78498 14.0991 7.69019 13.9723 7.62195C13.8456 7.55371 13.7056 7.51364 13.5619 7.50447C13.4183 7.49531 13.2744 7.51726 13.14 7.56883C13.0056 7.6204 12.8839 7.70037 12.7833 7.80329C12.6826 7.9062 12.6054 8.02963 12.5569 8.16514C12.5349 8.22706 12.501 8.28407 12.4571 8.33289C12.4132 8.38172 12.36 8.42141 12.3007 8.4497C12.2415 8.478 12.1772 8.49434 12.1116 8.49779C12.046 8.50124 11.9803 8.49174 11.9184 8.46982C11.8565 8.44791 11.7995 8.41401 11.7507 8.37007C11.7018 8.32612 11.6621 8.27299 11.6338 8.21371C11.6056 8.15442 11.5892 8.09015 11.5858 8.02455C11.5823 7.95895 11.5918 7.89331 11.6137 7.83139C11.6823 7.63876 11.7799 7.45772 11.9031 7.29451C12.2224 6.87091 12.6968 6.59148 13.2221 6.5177C13.7474 6.44391 14.2804 6.58182 14.704 6.90107C15.1276 7.22033 15.4071 7.69478 15.4809 8.22006C15.5546 8.74534 15.4167 9.27841 15.0975 9.70201L13 12.5001H15C15.1326 12.5001 15.2598 12.5528 15.3535 12.6466C15.4473 12.7403 15.5 12.8675 15.5 13.0001ZM9.32748 3.12514C9.27784 3.0821 9.2202 3.04927 9.15786 3.02852C9.09552 3.00777 9.02971 2.99951 8.96418 3.00421C8.89864 3.00891 8.83468 3.02648 8.77594 3.05592C8.7172 3.08535 8.66484 3.12608 8.62185 3.17576L5.74998 6.48639L2.8781 3.17389C2.78856 3.0849 2.66867 3.03308 2.5425 3.02883C2.41633 3.02457 2.29323 3.0682 2.19789 3.15096C2.10256 3.23371 2.04206 3.34946 2.02854 3.47498C2.01501 3.60049 2.04946 3.72647 2.12498 3.82764L5.0881 7.25014L2.12498 10.6726C2.03812 10.7729 1.99466 10.9036 2.00415 11.0359C2.01365 11.1683 2.07532 11.2914 2.1756 11.3783C2.27589 11.4651 2.40657 11.5086 2.5389 11.4991C2.67123 11.4896 2.79437 11.4279 2.88123 11.3276L5.75623 8.01514L8.6281 11.3276C8.67111 11.3773 8.72348 11.418 8.78222 11.4474C8.84095 11.4768 8.90491 11.4944 8.97043 11.4991C9.03595 11.5038 9.10176 11.4955 9.1641 11.4748C9.22643 11.4541 9.28407 11.4213 9.33373 11.3783C9.38339 11.3353 9.42408 11.2829 9.4535 11.2241C9.48292 11.1654 9.50048 11.1015 9.50518 11.0359C9.50988 10.9704 9.50163 10.9046 9.4809 10.8423C9.46017 10.7799 9.42736 10.7223 9.38435 10.6726L6.41185 7.25014L9.3781 3.82764C9.46405 3.72755 9.50696 3.59755 9.49748 3.46596C9.48799 3.33437 9.42689 3.21187 9.32748 3.12514Z" fill="#666666"/>
</svg>
