<svg width="14" height="14" viewBox="0 0 14 14" fill="none" xmlns="http://www.w3.org/2000/svg">
<path d="M11.8125 2.625V5.25C11.8125 5.36603 11.7664 5.47731 11.6844 5.55936C11.6023 5.64141 11.491 5.6875 11.375 5.6875C11.259 5.6875 11.1477 5.64141 11.0656 5.55936C10.9836 5.47731 10.9375 5.36603 10.9375 5.25V3.68102L8.18453 6.43453C8.10244 6.51662 7.9911 6.56274 7.875 6.56274C7.7589 6.56274 7.64756 6.51662 7.56547 6.43453C7.48338 6.35244 7.43726 6.2411 7.43726 6.125C7.43726 6.0089 7.48338 5.89756 7.56547 5.81547L10.319 3.0625H8.75C8.63397 3.0625 8.52269 3.01641 8.44064 2.93436C8.35859 2.85231 8.3125 2.74103 8.3125 2.625C8.3125 2.50897 8.35859 2.39769 8.44064 2.31564C8.52269 2.23359 8.63397 2.1875 8.75 2.1875H11.375C11.491 2.1875 11.6023 2.23359 11.6844 2.31564C11.7664 2.39769 11.8125 2.50897 11.8125 2.625ZM5.81547 7.56547L3.0625 10.319V8.75C3.0625 8.63397 3.01641 8.52269 2.93436 8.44064C2.85231 8.35859 2.74103 8.3125 2.625 8.3125C2.50897 8.3125 2.39769 8.35859 2.31564 8.44064C2.23359 8.52269 2.1875 8.63397 2.1875 8.75V11.375C2.1875 11.491 2.23359 11.6023 2.31564 11.6844C2.39769 11.7664 2.50897 11.8125 2.625 11.8125H5.25C5.36603 11.8125 5.47731 11.7664 5.55936 11.6844C5.64141 11.6023 5.6875 11.491 5.6875 11.375C5.6875 11.259 5.64141 11.1477 5.55936 11.0656C5.47731 10.9836 5.36603 10.9375 5.25 10.9375H3.68102L6.43453 8.18453C6.51662 8.10244 6.56274 7.9911 6.56274 7.875C6.56274 7.7589 6.51662 7.64756 6.43453 7.56547C6.35244 7.48338 6.2411 7.43726 6.125 7.43726C6.0089 7.43726 5.89756 7.48338 5.81547 7.56547Z" fill="#666666"/>
</svg>
