<svg width="16" height="16" viewBox="0 0 16 16" fill="none" xmlns="http://www.w3.org/2000/svg">
<path d="M15 5.51423C14.9749 6.38463 14.617 7.21229 14 7.82673L11.8281 9.99985C11.5118 10.3179 11.1355 10.5701 10.7211 10.7417C10.3067 10.9134 9.86231 11.0011 9.41374 10.9999H9.41061C8.95439 10.9995 8.50285 10.9078 8.08268 10.73C7.66251 10.5523 7.28222 10.2921 6.96428 9.96489C6.64635 9.63769 6.39721 9.25009 6.23158 8.82499C6.06596 8.39988 5.98721 7.9459 5.99999 7.48985C6.00372 7.35724 6.05998 7.23155 6.15638 7.14042C6.25279 7.04929 6.38144 7.00018 6.51405 7.00391C6.64666 7.00764 6.77236 7.0639 6.86349 7.1603C6.95462 7.25671 7.00372 7.38537 6.99999 7.51798C6.99089 7.84043 7.04651 8.16144 7.16357 8.46203C7.28063 8.76262 7.45676 9.0367 7.68154 9.26807C7.90633 9.49944 8.17521 9.6834 8.4723 9.80909C8.76939 9.93478 9.08866 9.99965 9.41124 9.99985C9.72834 10.0007 10.0425 9.93861 10.3354 9.81728C10.6284 9.69595 10.8944 9.51775 11.1181 9.29298L13.29 7.1211C13.7381 6.66736 13.9885 6.05475 13.9865 5.41704C13.9845 4.77933 13.7303 4.16831 13.2793 3.71738C12.8284 3.26644 12.2174 3.01223 11.5797 3.01023C10.942 3.00824 10.3294 3.25862 9.87561 3.70673L9.18811 4.39423C9.09358 4.48404 8.96771 4.53336 8.83733 4.5317C8.70695 4.53003 8.58238 4.47749 8.49018 4.38529C8.39797 4.29309 8.34544 4.16852 8.34377 4.03814C8.3421 3.90776 8.39143 3.78188 8.48124 3.68735L9.16874 2.99985C9.48592 2.68256 9.86251 2.43086 10.277 2.25913C10.6915 2.08741 11.1357 1.99902 11.5844 1.99902C12.033 1.99902 12.4773 2.08741 12.8917 2.25913C13.3062 2.43086 13.6828 2.68256 14 2.99985C14.3285 3.3292 14.5866 3.72196 14.7585 4.15422C14.9304 4.58648 15.0126 5.0492 15 5.51423ZM6.81249 11.6036L6.12499 12.2911C5.90076 12.5168 5.63389 12.6957 5.3399 12.8174C5.04591 12.9391 4.73066 13.0011 4.41249 12.9999C3.93518 12.9995 3.46869 12.8576 3.07197 12.5922C2.67524 12.3268 2.36609 11.9498 2.18356 11.5087C2.00104 11.0677 1.95333 10.5825 2.04647 10.1143C2.13961 9.6462 2.36942 9.21618 2.70687 8.8786L4.87499 6.70673C5.21648 6.36343 5.65331 6.13075 6.12873 6.03891C6.60416 5.94706 7.09622 6.00029 7.54101 6.19168C7.9858 6.38307 8.36276 6.70379 8.62294 7.11217C8.88311 7.52055 9.01449 7.99773 8.99999 8.48173C8.99626 8.61433 9.04536 8.74299 9.13649 8.8394C9.22762 8.9358 9.35332 8.99206 9.48593 8.99579C9.61854 8.99952 9.74719 8.95042 9.8436 8.85929C9.94001 8.76815 9.99626 8.64246 9.99999 8.50985C10.012 8.04556 9.92955 7.58366 9.75765 7.1522C9.58575 6.72073 9.32798 6.32869 8.99999 5.99985C8.35948 5.35962 7.49093 4.99996 6.5853 4.99996C5.67968 4.99996 4.81113 5.35962 4.17062 5.99985L1.99999 8.17173C1.52263 8.64889 1.19744 9.25685 1.0655 9.91877C0.933556 10.5807 1.00079 11.2669 1.25871 11.8906C1.51663 12.5143 1.95365 13.0476 2.51455 13.423C3.07544 13.7984 3.73504 13.9992 4.40999 13.9999C4.85866 14.0011 5.30313 13.9134 5.71767 13.7418C6.1322 13.5701 6.50857 13.318 6.82499 12.9999L7.51249 12.3124C7.59341 12.217 7.63568 12.0949 7.63097 11.9699C7.62627 11.845 7.57493 11.7264 7.48707 11.6374C7.39921 11.5484 7.28122 11.4956 7.15635 11.4894C7.03148 11.4831 6.9088 11.5239 6.81249 11.6036Z" fill="#666666"/>
</svg>
