<svg width="14" height="14" viewBox="0 0 14 14" fill="none" xmlns="http://www.w3.org/2000/svg">
<path d="M12.6112 2.70869C12.5438 2.55311 12.4322 2.42075 12.2903 2.32809C12.1483 2.23543 11.9823 2.18654 11.8127 2.18751H2.18773C2.01838 2.18785 1.85277 2.23732 1.71098 2.32992C1.56919 2.42253 1.45732 2.55429 1.38895 2.70922C1.32057 2.86416 1.29862 3.0356 1.32577 3.20276C1.35291 3.36992 1.42798 3.52562 1.54187 3.65095L1.54625 3.65587L5.25023 7.61087V11.8125C5.25019 11.9709 5.29313 12.1263 5.37448 12.2622C5.45582 12.398 5.57251 12.5093 5.71211 12.5841C5.85171 12.6588 6.00899 12.6943 6.16717 12.6867C6.32535 12.6791 6.47851 12.6287 6.61031 12.541L8.36031 11.3739C8.48027 11.294 8.57864 11.1857 8.64666 11.0586C8.71469 10.9315 8.75026 10.7896 8.75023 10.6455V7.61087L12.4548 3.65587L12.4591 3.65095C12.5742 3.52619 12.65 3.37029 12.6771 3.20272C12.7041 3.03514 12.6812 2.86332 12.6112 2.70869ZM7.99445 7.14111C7.91876 7.22135 7.87618 7.32722 7.87523 7.43751V10.6455L6.12523 11.8125V7.43751C6.12526 7.32642 6.08303 7.21947 6.0071 7.13837L2.18773 3.06251H11.8127L7.99445 7.14111Z" fill="#666666"/>
</svg>
