<svg width="16" height="16" viewBox="0 0 16 16" fill="none" xmlns="http://www.w3.org/2000/svg">
<path d="M13.5 4.4999H11.3075C11.3319 4.47927 11.3569 4.45927 11.3806 4.4374C11.5704 4.26876 11.7234 4.06276 11.83 3.8323C11.9366 3.60184 11.9944 3.35187 12 3.09802C12.0082 2.82032 11.9596 2.54387 11.8571 2.28564C11.7546 2.02741 11.6004 1.79286 11.404 1.59637C11.2075 1.39989 10.973 1.24563 10.7148 1.14306C10.4566 1.04049 10.1802 0.991769 9.9025 0.999896C9.64855 1.00537 9.39845 1.0632 9.16788 1.16978C8.9373 1.27635 8.73121 1.42938 8.5625 1.61927C8.32905 1.88983 8.13927 2.19517 8 2.52427C7.86073 2.19517 7.67095 1.88983 7.4375 1.61927C7.26879 1.42938 7.0627 1.27635 6.83212 1.16978C6.60155 1.0632 6.35146 1.00537 6.0975 0.999896C5.81979 0.991769 5.54336 1.04049 5.28516 1.14306C5.02696 1.24563 4.79245 1.39989 4.59603 1.59637C4.39961 1.79286 4.24542 2.02741 4.14292 2.28564C4.04043 2.54387 3.99179 2.82032 4 3.09802C4.00556 3.35187 4.06343 3.60184 4.17 3.8323C4.27658 4.06276 4.42956 4.26876 4.61938 4.4374C4.64313 4.45802 4.66813 4.47802 4.6925 4.4999H2.5C2.23478 4.4999 1.98043 4.60525 1.79289 4.79279C1.60536 4.98033 1.5 5.23468 1.5 5.4999V7.4999C1.5 7.76511 1.60536 8.01947 1.79289 8.207C1.98043 8.39454 2.23478 8.4999 2.5 8.4999V12.4999C2.5 12.7651 2.60536 13.0195 2.79289 13.207C2.98043 13.3945 3.23478 13.4999 3.5 13.4999H12.5C12.7652 13.4999 13.0196 13.3945 13.2071 13.207C13.3946 13.0195 13.5 12.7651 13.5 12.4999V8.4999C13.7652 8.4999 14.0196 8.39454 14.2071 8.207C14.3946 8.01947 14.5 7.76511 14.5 7.4999V5.4999C14.5 5.23468 14.3946 4.98033 14.2071 4.79279C14.0196 4.60525 13.7652 4.4999 13.5 4.4999ZM9.3125 2.28177C9.39167 2.19435 9.48805 2.12423 9.59561 2.07583C9.70316 2.02743 9.81956 2.00179 9.9375 2.00052H9.96813C10.1064 2.00138 10.243 2.02983 10.3701 2.08419C10.4972 2.13855 10.6122 2.21773 10.7083 2.31709C10.8044 2.41645 10.8797 2.534 10.9298 2.66284C10.9799 2.79167 11.0037 2.92921 11 3.0674C10.9987 3.18533 10.9731 3.30173 10.9247 3.40929C10.8763 3.51684 10.8062 3.61323 10.7188 3.6924C10.1256 4.2174 9.14125 4.4024 8.53125 4.4674C8.60625 3.80552 8.8125 2.84365 9.3125 2.28177ZM5.30688 2.30427C5.50059 2.11058 5.76294 2.00119 6.03687 1.9999H6.0675C6.18544 2.00117 6.30184 2.02681 6.40939 2.07521C6.51695 2.12361 6.61333 2.19372 6.6925 2.28115C7.21688 2.87365 7.40188 3.85615 7.46688 4.46365C6.85938 4.40115 5.87687 4.21365 5.28438 3.68927C5.19695 3.6101 5.12684 3.51372 5.07844 3.40616C5.03004 3.29861 5.0044 3.18221 5.00313 3.06427C4.99925 2.92379 5.02395 2.78399 5.07574 2.65335C5.12752 2.52271 5.20531 2.40394 5.30438 2.30427H5.30688ZM2.5 5.4999H7.5V7.4999H2.5V5.4999ZM3.5 8.4999H7.5V12.4999H3.5V8.4999ZM12.5 12.4999H8.5V8.4999H12.5V12.4999ZM13.5 7.4999H8.5V5.4999H13.5V7.4999Z" fill="#181818"/>
</svg>
