<svg preserveAspectRatio="none" width="100%" height="100%" overflow="visible" style="display: block;" viewBox="0 0 16 16" fill="none" xmlns="http://www.w3.org/2000/svg">
<g id="GitPullRequest">
<path id="Vector" d="M6.5 4C6.49981 3.62598 6.39475 3.2595 6.19673 2.94219C5.99872 2.62488 5.7157 2.36945 5.37981 2.20492C5.04392 2.04038 4.66862 1.97333 4.29653 2.01138C3.92445 2.04944 3.57049 2.19106 3.27486 2.42018C2.97922 2.64929 2.75376 2.95672 2.62407 3.30754C2.49439 3.65836 2.46567 4.03852 2.54119 4.40484C2.61672 4.77116 2.79345 5.10897 3.05131 5.37989C3.30918 5.65081 3.63785 5.84399 4 5.9375V10.0625C3.52867 10.1842 3.11791 10.4736 2.8447 10.8765C2.57149 11.2794 2.4546 11.7681 2.51594 12.251C2.57728 12.7339 2.81263 13.1779 3.17788 13.4997C3.54314 13.8215 4.01321 13.999 4.5 13.999C4.98679 13.999 5.45686 13.8215 5.82212 13.4997C6.18737 13.1779 6.42272 12.7339 6.48406 12.251C6.5454 11.7681 6.42851 11.2794 6.1553 10.8765C5.8821 10.4736 5.47133 10.1842 5 10.0625V5.9375C5.42916 5.82603 5.80923 5.57536 6.08066 5.22475C6.3521 4.87414 6.49958 4.4434 6.5 4ZM3.5 4C3.5 3.80222 3.55865 3.60888 3.66853 3.44443C3.77841 3.27998 3.93459 3.15181 4.11732 3.07612C4.30004 3.00043 4.50111 2.98063 4.69509 3.01921C4.88907 3.0578 5.06725 3.15304 5.20711 3.29289C5.34696 3.43275 5.4422 3.61093 5.48079 3.80491C5.51937 3.99889 5.49957 4.19996 5.42388 4.38268C5.34819 4.56541 5.22002 4.72159 5.05557 4.83147C4.89112 4.94135 4.69778 5 4.5 5C4.23478 5 3.98043 4.89464 3.79289 4.70711C3.60536 4.51957 3.5 4.26522 3.5 4ZM5.5 12C5.5 12.1978 5.44135 12.3911 5.33147 12.5556C5.22159 12.72 5.06541 12.8482 4.88268 12.9239C4.69996 12.9996 4.49889 13.0194 4.30491 12.9808C4.11093 12.9422 3.93275 12.847 3.79289 12.7071C3.65304 12.5673 3.5578 12.3891 3.51921 12.1951C3.48063 12.0011 3.50043 11.8 3.57612 11.6173C3.65181 11.4346 3.77998 11.2784 3.94443 11.1685C4.10888 11.0586 4.30222 11 4.5 11C4.76522 11 5.01957 11.1054 5.20711 11.2929C5.39464 11.4804 5.5 11.7348 5.5 12ZM13 10.0625V6.91437C13.001 6.71714 12.9628 6.52166 12.8877 6.33928C12.8126 6.15689 12.7021 5.99122 12.5625 5.85187L10.2069 3.5H12C12.1326 3.5 12.2598 3.44732 12.3536 3.35355C12.4473 3.25979 12.5 3.13261 12.5 3C12.5 2.86739 12.4473 2.74021 12.3536 2.64645C12.2598 2.55268 12.1326 2.5 12 2.5H9C8.86739 2.5 8.74022 2.55268 8.64645 2.64645C8.55268 2.74021 8.5 2.86739 8.5 3V6C8.5 6.13261 8.55268 6.25978 8.64645 6.35355C8.74022 6.44732 8.86739 6.5 9 6.5C9.13261 6.5 9.25979 6.44732 9.35355 6.35355C9.44732 6.25978 9.5 6.13261 9.5 6V4.20687L11.8538 6.5625C11.9002 6.60897 11.937 6.66413 11.9621 6.72483C11.9872 6.78552 12.0001 6.85057 12 6.91625V10.0625C11.5287 10.1842 11.1179 10.4736 10.8447 10.8765C10.5715 11.2794 10.4546 11.7681 10.5159 12.251C10.5773 12.7339 10.8126 13.1779 11.1779 13.4997C11.5431 13.8215 12.0132 13.999 12.5 13.999C12.9868 13.999 13.4569 13.8215 13.8221 13.4997C14.1874 13.1779 14.4227 12.7339 14.4841 12.251C14.5454 11.7681 14.4285 11.2794 14.1553 10.8765C13.8821 10.4736 13.4713 10.1842 13 10.0625ZM12.5 13C12.3022 13 12.1089 12.9414 11.9444 12.8315C11.78 12.7216 11.6518 12.5654 11.5761 12.3827C11.5004 12.2 11.4806 11.9989 11.5192 11.8049C11.5578 11.6109 11.653 11.4327 11.7929 11.2929C11.9327 11.153 12.1109 11.0578 12.3049 11.0192C12.4989 10.9806 12.7 11.0004 12.8827 11.0761C13.0654 11.1518 13.2216 11.28 13.3315 11.4444C13.4414 11.6089 13.5 11.8022 13.5 12C13.5 12.2652 13.3946 12.5196 13.2071 12.7071C13.0196 12.8946 12.7652 13 12.5 13Z" fill="var(--fill-0, #181818)"/>
</g>
</svg>
