<svg preserveAspectRatio="none" width="100%" height="100%" overflow="visible" style="display: block;" viewBox="0 0 16 16" fill="none" xmlns="http://www.w3.org/2000/svg">
<g id="HardDrives">
<path id="Vector" d="M13 8.5H3C2.73478 8.5 2.48043 8.60536 2.29289 8.79289C2.10536 8.98043 2 9.23478 2 9.5V12.5C2 12.7652 2.10536 13.0196 2.29289 13.2071C2.48043 13.3946 2.73478 13.5 3 13.5H13C13.2652 13.5 13.5196 13.3946 13.7071 13.2071C13.8946 13.0196 14 12.7652 14 12.5V9.5C14 9.23478 13.8946 8.98043 13.7071 8.79289C13.5196 8.60536 13.2652 8.5 13 8.5ZM13 12.5H3V9.5H13V12.5ZM13 2.5H3C2.73478 2.5 2.48043 2.60536 2.29289 2.79289C2.10536 2.98043 2 3.23478 2 3.5V6.5C2 6.76522 2.10536 7.01957 2.29289 7.20711C2.48043 7.39464 2.73478 7.5 3 7.5H13C13.2652 7.5 13.5196 7.39464 13.7071 7.20711C13.8946 7.01957 14 6.76522 14 6.5V3.5C14 3.23478 13.8946 2.98043 13.7071 2.79289C13.5196 2.60536 13.2652 2.5 13 2.5ZM13 6.5H3V3.5H13V6.5ZM12 5C12 5.14834 11.956 5.29334 11.8736 5.41668C11.7912 5.54001 11.6741 5.63614 11.537 5.69291C11.4 5.74968 11.2492 5.76453 11.1037 5.73559C10.9582 5.70665 10.8246 5.63522 10.7197 5.53033C10.6148 5.42544 10.5433 5.2918 10.5144 5.14632C10.4855 5.00083 10.5003 4.85003 10.5571 4.71299C10.6139 4.57594 10.71 4.45881 10.8333 4.3764C10.9567 4.29399 11.1017 4.25 11.25 4.25C11.4489 4.25 11.6397 4.32902 11.7803 4.46967C11.921 4.61032 12 4.80109 12 5ZM12 11C12 11.1483 11.956 11.2933 11.8736 11.4167C11.7912 11.54 11.6741 11.6361 11.537 11.6929C11.4 11.7497 11.2492 11.7645 11.1037 11.7356C10.9582 11.7067 10.8246 11.6352 10.7197 11.5303C10.6148 11.4254 10.5433 11.2918 10.5144 11.1463C10.4855 11.0008 10.5003 10.85 10.5571 10.713C10.6139 10.5759 10.71 10.4588 10.8333 10.3764C10.9567 10.294 11.1017 10.25 11.25 10.25C11.4489 10.25 11.6397 10.329 11.7803 10.4697C11.921 10.6103 12 10.8011 12 11Z" fill="var(--fill-0, #181818)"/>
</g>
</svg>
