<svg width="12" height="12" viewBox="0 0 12 12" fill="none" xmlns="http://www.w3.org/2000/svg">
<path d="M10.2802 5.09437L6.53016 1.34437C6.38952 1.20383 6.19883 1.12488 6 1.12488C5.80118 1.12488 5.61049 1.20383 5.46985 1.34437L1.71985 5.09437C1.64987 5.16384 1.59439 5.24652 1.55665 5.33761C1.51891 5.42871 1.49965 5.5264 1.5 5.625V10.125C1.5 10.2245 1.53951 10.3198 1.60984 10.3902C1.68017 10.4605 1.77555 10.5 1.875 10.5H4.875C4.97446 10.5 5.06984 10.4605 5.14017 10.3902C5.2105 10.3198 5.25 10.2245 5.25 10.125V7.5H6.75V10.125C6.75 10.2245 6.78951 10.3198 6.85984 10.3902C6.93017 10.4605 7.02555 10.5 7.125 10.5H10.125C10.2245 10.5 10.3198 10.4605 10.3902 10.3902C10.4605 10.3198 10.5 10.2245 10.5 10.125V5.625C10.5004 5.5264 10.4811 5.42871 10.4434 5.33761C10.4056 5.24652 10.3501 5.16384 10.2802 5.09437ZM9.75 9.75H7.5V7.125C7.5 7.02554 7.4605 6.93016 7.39017 6.85983C7.31984 6.78951 7.22446 6.75 7.125 6.75H4.875C4.77555 6.75 4.68017 6.78951 4.60984 6.85983C4.53951 6.93016 4.5 7.02554 4.5 7.125V9.75H2.25V5.625L6 1.875L9.75 5.625V9.75Z" fill="#6F6F6F"/>
</svg>
