<svg width="16" height="16" viewBox="0 0 16 16" fill="none" xmlns="http://www.w3.org/2000/svg">
<path d="M3.33282 2H11.9995C13.1062 2 13.9995 2.89333 13.9995 4V12.6667C13.9995 13.7733 13.1062 14.6667 11.9995 14.6667H3.33282C2.22616 14.6667 1.33282 13.7733 1.33282 12.6667V4C1.33282 2.89333 2.22616 2 3.33282 2ZM3.33282 2.66667C2.59949 2.66667 1.99949 3.26667 1.99949 4V11.7267L4.85949 8.86L6.52616 10.5267L9.85949 7.19333L13.3328 10.6667V4C13.3328 3.26667 12.7328 2.66667 11.9995 2.66667H3.33282ZM6.52616 11.4733L4.85949 9.80667L1.99949 12.6667C1.99949 13.4 2.59949 14 3.33282 14H11.9995C12.7328 14 13.3328 13.4 13.3328 12.6667V11.6067L9.85949 8.14L6.52616 11.4733ZM4.99949 4C5.91949 4 6.66616 4.74667 6.66616 5.66667C6.66616 6.58667 5.91949 7.33333 4.99949 7.33333C4.07949 7.33333 3.33282 6.58667 3.33282 5.66667C3.33282 4.74667 4.07949 4 4.99949 4ZM4.99949 4.66667C4.44616 4.66667 3.99949 5.11333 3.99949 5.66667C3.99949 6.22 4.44616 6.66667 4.99949 6.66667C5.55282 6.66667 5.99949 6.22 5.99949 5.66667C5.99949 5.11333 5.55282 4.66667 4.99949 4.66667Z" fill="currentColor"/>
</svg>
