<svg width="16" height="16" viewBox="0 0 16 16" fill="none" xmlns="http://www.w3.org/2000/svg">
<path d="M6.58569 4.90063C7.51769 4.90071 8.41185 5.2701 9.07104 5.92896V5.92993C9.40845 6.26828 9.67348 6.67158 9.85034 7.11548C10.0273 7.55953 10.1127 8.0351 10.1003 8.51294C10.0959 8.67187 10.0283 8.82257 9.91284 8.93188C9.79716 9.04123 9.64227 9.10042 9.48315 9.09595C9.32415 9.09145 9.17353 9.02399 9.06421 8.90845C8.95486 8.79277 8.89567 8.63788 8.90015 8.47876C8.91399 8.01493 8.78813 7.55764 8.53882 7.16626C8.28942 6.77479 7.92807 6.46691 7.50171 6.28345C7.07549 6.10005 6.60379 6.04904 6.14819 6.13696C5.74937 6.21401 5.3787 6.39502 5.073 6.65942L4.94604 6.77759L2.77808 8.94946C2.45461 9.27306 2.23357 9.68529 2.14429 10.134C2.05501 10.5828 2.10116 11.0482 2.27612 11.4709C2.45108 11.8936 2.74752 12.2547 3.12769 12.509C3.50798 12.7634 3.9553 12.8993 4.41284 12.8997C4.71773 12.9008 5.01979 12.8414 5.30151 12.7249C5.58326 12.6082 5.83955 12.4373 6.05444 12.2209L6.74878 11.5266L6.84058 11.4641C6.93785 11.4102 7.04934 11.3843 7.16187 11.3899C7.31156 11.3975 7.45301 11.461 7.55835 11.5676C7.66362 11.6743 7.72548 11.8163 7.7312 11.9661C7.73685 12.116 7.68572 12.2628 7.58862 12.3772L7.58374 12.3831L6.89624 13.0706C6.5705 13.398 6.18237 13.6575 5.75562 13.8342C5.38229 13.9888 4.9855 14.0771 4.58276 14.0959L4.40991 14.0999C3.71523 14.0991 3.03604 13.8925 2.45874 13.5061C1.88158 13.1197 1.43217 12.5708 1.16675 11.929C0.9013 11.287 0.831774 10.5809 0.967529 9.89966C1.10334 9.21834 1.4381 8.59197 1.92944 8.10083L4.10034 5.92896L4.22632 5.80884C4.87114 5.22528 5.71189 4.90063 6.58569 4.90063ZM11.5847 1.89966C12.0464 1.89969 12.5039 1.99051 12.9304 2.16724C13.3569 2.34396 13.7447 2.60251 14.071 2.92896V2.92993C14.409 3.26879 14.6744 3.67275 14.8513 4.11743C15.0282 4.5623 15.1133 5.03924 15.1003 5.51782C15.076 6.3577 14.7502 7.15866 14.1863 7.77661L14.071 7.89771L11.8992 10.0706C11.5735 10.398 11.1861 10.6575 10.7595 10.8342C10.3863 10.9888 9.98937 11.0771 9.58667 11.0959L9.41382 11.0999H9.41089C8.9413 11.0995 8.47618 11.0055 8.0437 10.8225C7.61125 10.6395 7.21957 10.3712 6.89233 10.0344C6.56526 9.69772 6.30884 9.29896 6.13843 8.86157C5.96798 8.4241 5.88703 7.95687 5.90015 7.48755C5.90462 7.32843 5.97197 7.17698 6.08765 7.06763C6.20331 6.95834 6.35826 6.90007 6.51733 6.90454C6.67632 6.90911 6.82701 6.97645 6.93628 7.09204C7.0455 7.20764 7.10474 7.36178 7.10034 7.52075C7.09161 7.82982 7.1444 8.1379 7.25659 8.42603C7.3688 8.71416 7.53819 8.9767 7.75366 9.19849C7.96912 9.42024 8.22672 9.59657 8.51147 9.71704C8.79625 9.83752 9.10265 9.89946 9.41187 9.89966C9.71567 9.9004 10.0169 9.8411 10.2976 9.72485C10.5782 9.60858 10.8333 9.43821 11.0476 9.2229L13.2185 7.05103C13.648 6.61607 13.8884 6.02853 13.8865 5.41724C13.8845 4.80607 13.6409 4.2205 13.2087 3.78833C12.7766 3.35616 12.191 3.1126 11.5798 3.1106C10.9685 3.10868 10.381 3.34902 9.94604 3.77856L9.94507 3.77759L9.25854 4.46509L9.25757 4.46704C9.14413 4.57481 8.99215 4.63408 8.83569 4.63208C8.67944 4.62996 8.5302 4.56678 8.41968 4.4563C8.30904 4.34566 8.2459 4.19576 8.2439 4.03931C8.24199 3.88298 8.30125 3.73176 8.40894 3.61841L9.09839 2.92896C9.42479 2.60253 9.81255 2.34393 10.239 2.16724C10.6656 1.9905 11.123 1.89966 11.5847 1.89966Z" fill="#666666" stroke="#666666" stroke-width="0.2"/>
</svg>
