<svg width="20" height="20" viewBox="0 0 20 20" fill="none" xmlns="http://www.w3.org/2000/svg">
<path d="M5.94629 8.02515C6.13858 8.02515 6.32297 8.10114 6.45898 8.23706C6.59494 8.37301 6.67179 8.5575 6.67188 8.74976C6.67188 8.94213 6.59501 9.1274 6.45898 9.26343L4.11133 11.6111H4.11035C3.82429 11.8908 3.59666 12.2252 3.44043 12.5935C3.2843 12.9617 3.20247 13.3576 3.2002 13.7576C3.19797 14.1575 3.27579 14.5537 3.42773 14.9236C3.57971 15.2935 3.80323 15.63 4.08594 15.9128C4.36875 16.1957 4.70526 16.4199 5.0752 16.572C5.44525 16.7241 5.8421 16.8018 6.24219 16.7996C6.64227 16.7974 7.0379 16.7155 7.40625 16.5593C7.77454 16.4032 8.10797 16.1754 8.3877 15.8894L8.38867 15.8884L10.7373 13.5408L10.8477 13.45C10.9659 13.371 11.1057 13.3279 11.25 13.3279C11.4422 13.3278 11.6267 13.4039 11.7627 13.5398C11.8987 13.6757 11.9755 13.8602 11.9756 14.0525C11.9757 14.2448 11.8986 14.4291 11.7627 14.5652L9.41504 16.9148C8.57577 17.7541 7.4369 18.2253 6.25 18.2253C5.06328 18.2253 3.92513 17.7539 3.08594 16.9148C2.24667 16.0755 1.77539 14.9367 1.77539 13.7498C1.77547 12.563 2.24675 11.4249 3.08594 10.5857L5.43359 8.23706C5.5696 8.10113 5.75399 8.02515 5.94629 8.02515ZM12.5 6.77417C12.5953 6.77417 12.6903 6.79335 12.7783 6.82983C12.866 6.86626 12.9455 6.9199 13.0127 6.98706C13.0801 7.05439 13.1344 7.1344 13.1709 7.22241C13.2073 7.31029 13.2255 7.40464 13.2256 7.49976C13.2256 7.59503 13.2074 7.69006 13.1709 7.77808C13.1344 7.86603 13.0801 7.94614 13.0127 8.01343L8.0127 13.0134C7.94543 13.0806 7.86515 13.1343 7.77734 13.1707C7.6895 13.207 7.59506 13.2253 7.5 13.2253C7.40488 13.2253 7.31054 13.207 7.22266 13.1707C7.13475 13.1342 7.05461 13.0807 6.9873 13.0134C6.92004 12.9462 6.86653 12.8659 6.83008 12.7781C6.79363 12.6901 6.77441 12.595 6.77441 12.4998C6.77446 12.4046 6.79367 12.3103 6.83008 12.2224C6.86653 12.1344 6.91997 12.0544 6.9873 11.9871L11.9873 6.98706L12.0977 6.89722C12.137 6.87092 12.1787 6.84805 12.2227 6.82983C12.3106 6.79339 12.4048 6.7742 12.5 6.77417ZM13.75 1.77515C14.3377 1.77515 14.92 1.8901 15.4629 2.11499C16.0059 2.33991 16.4995 2.6701 16.915 3.08569C17.3305 3.5012 17.6599 3.99498 17.8848 4.53784C18.1096 5.08062 18.2255 5.66227 18.2256 6.24976C18.2256 6.83746 18.1097 7.41969 17.8848 7.96265C17.6599 8.50559 17.3306 8.99926 16.915 9.41479L14.5654 11.7664V11.7673C14.4294 11.9031 14.2449 11.9793 14.0527 11.9792C13.8604 11.9792 13.676 11.9024 13.54 11.7664C13.4042 11.6303 13.328 11.4459 13.3281 11.2537C13.3282 11.0614 13.4041 10.8769 13.54 10.741L15.8896 8.39233C16.4458 7.82297 16.7555 7.05743 16.751 6.26147C16.7464 5.46509 16.4274 4.7025 15.8643 4.1394C15.3011 3.57648 14.5385 3.25805 13.7422 3.25366C12.9459 3.24937 12.1796 3.55919 11.6104 4.11597L9.2627 6.45874C9.12667 6.59474 8.94235 6.67163 8.75 6.67163C8.55771 6.67157 8.37328 6.59472 8.2373 6.45874C8.10138 6.32273 8.02441 6.13834 8.02441 5.94604C8.02445 5.75374 8.10134 5.56935 8.2373 5.43335L10.5859 3.08569C11.0015 2.67013 11.4951 2.3399 12.0381 2.11499C12.5808 1.89025 13.1626 1.77518 13.75 1.77515Z" fill="white" stroke="white" stroke-width="0.2"/>
</svg>
