<svg width="15" height="15" viewBox="0 0 15 15" fill="none" xmlns="http://www.w3.org/2000/svg">
<path d="M11.6385 3.36152C11.2875 3.01059 10.8116 2.81315 10.3153 2.81249C9.81893 2.81183 9.34257 3.008 8.99063 3.35801L8.30801 4.07344C8.2207 4.15504 8.10553 4.20021 7.98603 4.19973C7.86654 4.19924 7.75174 4.15314 7.66509 4.07084C7.57845 3.98854 7.52652 3.87625 7.5199 3.75694C7.51328 3.63762 7.55248 3.52028 7.62949 3.42891L8.31621 2.70879C8.3186 2.70611 8.32114 2.70356 8.32383 2.70117C8.85272 2.18082 9.56581 1.89054 10.3078 1.89356C11.0497 1.89658 11.7604 2.19266 12.285 2.7173C12.8097 3.24194 13.1058 3.95264 13.1088 4.69459C13.1118 5.43653 12.8215 6.14962 12.3012 6.67852C12.2988 6.6812 12.2962 6.68374 12.2936 6.68613L11.5734 7.37285C11.4821 7.44986 11.3647 7.48906 11.2454 7.48244C11.1261 7.47583 11.0138 7.42389 10.9315 7.33725C10.8492 7.25061 10.8031 7.13581 10.8026 7.01631C10.8021 6.89681 10.8473 6.78164 10.9289 6.69434L11.6443 6.01172C11.9947 5.65937 12.191 5.18233 12.1899 4.68541C12.1888 4.18848 11.9904 3.71232 11.6385 3.36152ZM6.69199 10.9266L6.00937 11.642C5.65605 11.9851 5.18189 12.1755 4.68937 12.1719C4.19685 12.1683 3.72552 11.971 3.37724 11.6228C3.02897 11.2745 2.83172 10.8032 2.82812 10.3106C2.82452 9.81811 3.01486 9.34395 3.35801 8.99063L4.07344 8.30801C4.15504 8.2207 4.20021 8.10553 4.19973 7.98603C4.19924 7.86654 4.15314 7.75174 4.07084 7.66509C3.98854 7.57845 3.87625 7.52652 3.75694 7.5199C3.63762 7.51328 3.52028 7.55248 3.42891 7.62949L2.70645 8.31621C2.70376 8.3186 2.70122 8.32114 2.69883 8.32383C2.17848 8.85272 1.8882 9.56581 1.89122 10.3078C1.89424 11.0497 2.19032 11.7604 2.71496 12.285C3.2396 12.8097 3.9503 13.1058 4.69224 13.1088C5.43419 13.1118 6.14728 12.8215 6.67617 12.3012C6.67886 12.2988 6.6814 12.2962 6.68379 12.2936L7.37051 11.5734C7.41719 11.5298 7.45446 11.4771 7.48003 11.4185C7.5056 11.36 7.51892 11.2968 7.51918 11.2329C7.51943 11.169 7.50662 11.1057 7.48153 11.0469C7.45644 10.9882 7.4196 10.9351 7.37327 10.8911C7.32693 10.8471 7.27209 10.813 7.21211 10.791C7.15213 10.769 7.08828 10.7594 7.02447 10.7629C6.96067 10.7665 6.89826 10.783 6.84108 10.8116C6.78391 10.8401 6.73317 10.88 6.69199 10.9289V10.9266ZM12.6562 8.90625H11.25C11.1257 8.90625 11.0065 8.95564 10.9185 9.04354C10.8306 9.13145 10.7812 9.25068 10.7812 9.375C10.7812 9.49932 10.8306 9.61855 10.9185 9.70646C11.0065 9.79436 11.1257 9.84375 11.25 9.84375H12.6562C12.7806 9.84375 12.8998 9.79436 12.9877 9.70646C13.0756 9.61855 13.125 9.49932 13.125 9.375C13.125 9.25068 13.0756 9.13145 12.9877 9.04354C12.8998 8.95564 12.7806 8.90625 12.6562 8.90625ZM2.34375 6.09375H3.75C3.87432 6.09375 3.99355 6.04436 4.08146 5.95646C4.16936 5.86855 4.21875 5.74932 4.21875 5.625C4.21875 5.50068 4.16936 5.38145 4.08146 5.29354C3.99355 5.20564 3.87432 5.15625 3.75 5.15625H2.34375C2.21943 5.15625 2.1002 5.20564 2.01229 5.29354C1.92439 5.38145 1.875 5.50068 1.875 5.625C1.875 5.74932 1.92439 5.86855 2.01229 5.95646C2.1002 6.04436 2.21943 6.09375 2.34375 6.09375ZM9.375 10.7812C9.25068 10.7812 9.13145 10.8306 9.04354 10.9185C8.95564 11.0065 8.90625 11.1257 8.90625 11.25V12.6562C8.90625 12.7806 8.95564 12.8998 9.04354 12.9877C9.13145 13.0756 9.25068 13.125 9.375 13.125C9.49932 13.125 9.61855 13.0756 9.70646 12.9877C9.79436 12.8998 9.84375 12.7806 9.84375 12.6562V11.25C9.84375 11.1257 9.79436 11.0065 9.70646 10.9185C9.61855 10.8306 9.49932 10.7812 9.375 10.7812ZM5.625 4.21875C5.74932 4.21875 5.86855 4.16936 5.95646 4.08146C6.04436 3.99355 6.09375 3.87432 6.09375 3.75V2.34375C6.09375 2.21943 6.04436 2.1002 5.95646 2.01229C5.86855 1.92439 5.74932 1.875 5.625 1.875C5.50068 1.875 5.38145 1.92439 5.29354 2.01229C5.20564 2.1002 5.15625 2.21943 5.15625 2.34375V3.75C5.15625 3.87432 5.20564 3.99355 5.29354 4.08146C5.38145 4.16936 5.50068 4.21875 5.625 4.21875Z" fill="currentColor"/>
</svg>
