<svg width="6" height="11" viewBox="0 0 6 11" fill="none" xmlns="http://www.w3.org/2000/svg">
<g clip-path="url(#clip0_1253_14423)">
<path d="M0.8125 3.9375L0.8125 2.625C0.8125 2.33773 0.869081 2.05328 0.979014 1.78788C1.08895 1.52248 1.25008 1.28133 1.4532 1.0782C1.65633 0.875077 1.89748 0.713946 2.16288 0.604014C2.42828 0.494082 2.71273 0.437501 3 0.437501C3.28727 0.437501 3.57172 0.494082 3.83712 0.604014C4.10252 0.713946 4.34367 0.875077 4.5468 1.0782C4.74992 1.28133 4.91105 1.52248 5.02099 1.78788C5.13092 2.05328 5.1875 2.33773 5.1875 2.625L5.1875 3.9375M5.1875 6.5625L5.1875 7.875C5.1875 8.16227 5.13092 8.44672 5.02099 8.71212C4.91105 8.97752 4.74992 9.21867 4.5468 9.4218C4.13656 9.83203 3.58016 10.0625 3 10.0625C2.41984 10.0625 1.86344 9.83203 1.4532 9.4218C1.04297 9.01156 0.8125 8.45516 0.8125 7.875L0.8125 6.5625" stroke="#666666" stroke-width="0.8" stroke-linecap="round" stroke-linejoin="round"/>
<path d="M3 7L3 3.5" stroke="#666666" stroke-width="0.8" stroke-linecap="round" stroke-linejoin="round"/>
</g>
<defs>
<clipPath id="clip0_1253_14423">
<rect width="10.5" height="6" fill="white" transform="translate(4.5897e-07 10.5) rotate(-90)"/>
</clipPath>
</defs>
</svg>
