<svg width="15" height="7" viewBox="0 0 15 7" fill="none" xmlns="http://www.w3.org/2000/svg">
<g clip-path="url(#clip0_1403_14599)">
<path d="M15 5.5C15 5.66208 14.9342 5.81752 14.8169 5.93212C14.6997 6.04673 14.5408 6.11111 14.375 6.11111H0.625C0.45924 6.11111 0.300269 6.04673 0.183058 5.93212C0.0658481 5.81752 0 5.66208 0 5.5C0 5.33792 0.0658481 5.18249 0.183058 5.06788C0.300269 4.95327 0.45924 4.88889 0.625 4.88889H14.375C14.5408 4.88889 14.6997 4.95327 14.8169 5.06788C14.9342 5.18249 15 5.33792 15 5.5ZM0.625 1.22222H14.375C14.5408 1.22222 14.6997 1.15784 14.8169 1.04323C14.9342 0.928626 15 0.773188 15 0.611111C15 0.449034 14.9342 0.293596 14.8169 0.17899C14.6997 0.0643848 14.5408 0 14.375 0H0.625C0.45924 0 0.300269 0.0643848 0.183058 0.17899C0.0658481 0.293596 0 0.449034 0 0.611111C0 0.773188 0.0658481 0.928626 0.183058 1.04323C0.300269 1.15784 0.45924 1.22222 0.625 1.22222ZM14.375 9.77778H0.625C0.45924 9.77778 0.300269 9.84216 0.183058 9.95677C0.0658481 10.0714 0 10.2268 0 10.3889C0 10.551 0.0658481 10.7064 0.183058 10.821C0.300269 10.9356 0.45924 11 0.625 11H14.375C14.5408 11 14.6997 10.9356 14.8169 10.821C14.9342 10.7064 15 10.551 15 10.3889C15 10.2268 14.9342 10.0714 14.8169 9.95677C14.6997 9.84216 14.5408 9.77778 14.375 9.77778Z" fill="#181818"/>
</g>
<defs>
<clipPath id="clip0_1403_14599">
<rect width="15" height="7" fill="white"/>
</clipPath>
</defs>
</svg>
