<svg width="16" height="16" viewBox="0 0 16 16" fill="none" xmlns="http://www.w3.org/2000/svg">
<path d="M14.5 3H1.5C1.23478 3 0.98043 3.10536 0.792893 3.29289C0.605357 3.48043 0.5 3.73478 0.5 4V12C0.5 12.2652 0.605357 12.5196 0.792893 12.7071C0.98043 12.8946 1.23478 13 1.5 13H14.5C14.7652 13 15.0196 12.8946 15.2071 12.7071C15.3946 12.5196 15.5 12.2652 15.5 12V4C15.5 3.73478 15.3946 3.48043 15.2071 3.29289C15.0196 3.10536 14.7652 3 14.5 3ZM14.5 12H1.5V4H14.5V12ZM8 6.5V9.5C8 9.63261 7.94732 9.75979 7.85355 9.85355C7.75979 9.94732 7.63261 10 7.5 10C7.36739 10 7.24021 9.94732 7.14645 9.85355C7.05268 9.75979 7 9.63261 7 9.5V7.70687L5.85375 8.85375C5.80731 8.90024 5.75217 8.93712 5.69147 8.96228C5.63077 8.98744 5.56571 9.00039 5.5 9.00039C5.43429 9.00039 5.36923 8.98744 5.30853 8.96228C5.24783 8.93712 5.19269 8.90024 5.14625 8.85375L4 7.70687V9.5C4 9.63261 3.94732 9.75979 3.85355 9.85355C3.75979 9.94732 3.63261 10 3.5 10C3.36739 10 3.24021 9.94732 3.14645 9.85355C3.05268 9.75979 3 9.63261 3 9.5V6.5C2.99992 6.40105 3.0292 6.30431 3.08414 6.22201C3.13908 6.13971 3.21719 6.07556 3.3086 6.03769C3.40002 5.99981 3.50061 5.98991 3.59765 6.00924C3.6947 6.02856 3.78382 6.07624 3.85375 6.14625L5.5 7.79313L7.14625 6.14625C7.21618 6.07624 7.3053 6.02856 7.40235 6.00924C7.49939 5.98991 7.59998 5.99981 7.6914 6.03769C7.78281 6.07556 7.86092 6.13971 7.91586 6.22201C7.9708 6.30431 8.00008 6.40105 8 6.5ZM12.8538 7.64625C12.9002 7.69269 12.9371 7.74783 12.9623 7.80853C12.9874 7.86923 13.0004 7.93429 13.0004 8C13.0004 8.06571 12.9874 8.13077 12.9623 8.19147C12.9371 8.25217 12.9002 8.30731 12.8538 8.35375L11.3538 9.85375C11.3073 9.90024 11.2522 9.93712 11.1915 9.96228C11.1308 9.98744 11.0657 10.0004 11 10.0004C10.9343 10.0004 10.8692 9.98744 10.8085 9.96228C10.7478 9.93712 10.6927 9.90024 10.6462 9.85375L9.14625 8.35375C9.05243 8.25993 8.99972 8.13268 8.99972 8C8.99972 7.86732 9.05243 7.74007 9.14625 7.64625C9.24007 7.55243 9.36732 7.49972 9.5 7.49972C9.63268 7.49972 9.75993 7.55243 9.85375 7.64625L10.5 8.29313V6.5C10.5 6.36739 10.5527 6.24021 10.6464 6.14645C10.7402 6.05268 10.8674 6 11 6C11.1326 6 11.2598 6.05268 11.3536 6.14645C11.4473 6.24021 11.5 6.36739 11.5 6.5V8.29313L12.1462 7.64625C12.1927 7.59976 12.2478 7.56288 12.3085 7.53772C12.3692 7.51256 12.4343 7.49961 12.5 7.49961C12.5657 7.49961 12.6308 7.51256 12.6915 7.53772C12.7522 7.56288 12.8073 7.59976 12.8538 7.64625Z" fill="#181818"/>
</svg>
