<svg preserveAspectRatio="none" width="100%" height="100%" overflow="visible" style="display: block;" viewBox="0 0 16 16" fill="none" xmlns="http://www.w3.org/2000/svg">
<g id="MastodonLogo">
<path id="Vector" d="M11.5 2H4.5C3.83696 2 3.20107 2.26339 2.73223 2.73223C2.26339 3.20107 2 3.83696 2 4.5V12C2 12.663 2.26339 13.2989 2.73223 13.7678C3.20107 14.2366 3.83696 14.5 4.5 14.5H10C10.1326 14.5 10.2598 14.4473 10.3536 14.3536C10.4473 14.2598 10.5 14.1326 10.5 14C10.5 13.8674 10.4473 13.7402 10.3536 13.6464C10.2598 13.5527 10.1326 13.5 10 13.5H4.5C4.10218 13.5 3.72064 13.342 3.43934 13.0607C3.15804 12.7794 3 12.3978 3 12V11.5H11.5C11.8283 11.5 12.1534 11.4353 12.4567 11.3097C12.76 11.1841 13.0356 10.9999 13.2678 10.7678C13.4999 10.5356 13.6841 10.26 13.8097 9.95671C13.9353 9.65339 14 9.3283 14 9V4.5C14 3.83696 13.7366 3.20107 13.2678 2.73223C12.7989 2.26339 12.163 2 11.5 2ZM13 9C13 9.39782 12.842 9.77936 12.5607 10.0607C12.2794 10.342 11.8978 10.5 11.5 10.5H3V4.5C3 4.10218 3.15804 3.72064 3.43934 3.43934C3.72064 3.15804 4.10218 3 4.5 3H11.5C11.8978 3 12.2794 3.15804 12.5607 3.43934C12.842 3.72064 13 4.10218 13 4.5V9ZM11.5 6.5V8.5C11.5 8.63261 11.4473 8.75979 11.3536 8.85355C11.2598 8.94732 11.1326 9 11 9C10.8674 9 10.7402 8.94732 10.6464 8.85355C10.5527 8.75979 10.5 8.63261 10.5 8.5V6.5C10.5 6.23478 10.3946 5.98043 10.2071 5.79289C10.0196 5.60536 9.76522 5.5 9.5 5.5C9.23478 5.5 8.98043 5.60536 8.79289 5.79289C8.60536 5.98043 8.5 6.23478 8.5 6.5V8.5C8.5 8.63261 8.44732 8.75979 8.35355 8.85355C8.25979 8.94732 8.13261 9 8 9C7.86739 9 7.74021 8.94732 7.64645 8.85355C7.55268 8.75979 7.5 8.63261 7.5 8.5V6.5C7.5 6.23478 7.39464 5.98043 7.20711 5.79289C7.01957 5.60536 6.76522 5.5 6.5 5.5C6.23478 5.5 5.98043 5.60536 5.79289 5.79289C5.60536 5.98043 5.5 6.23478 5.5 6.5V8.5C5.5 8.63261 5.44732 8.75979 5.35355 8.85355C5.25979 8.94732 5.13261 9 5 9C4.86739 9 4.74021 8.94732 4.64645 8.85355C4.55268 8.75979 4.5 8.63261 4.5 8.5V6.5C4.50046 6.09395 4.6245 5.69766 4.85563 5.36381C5.08676 5.02996 5.41404 4.77437 5.79394 4.63102C6.17385 4.48768 6.58839 4.46336 6.98245 4.56131C7.37651 4.65926 7.73142 4.87484 8 5.17938C8.26858 4.87484 8.62349 4.65926 9.01755 4.56131C9.41161 4.46336 9.82615 4.48768 10.2061 4.63102C10.586 4.77437 10.9132 5.02996 11.1444 5.36381C11.3755 5.69766 11.4995 6.09395 11.5 6.5Z" fill="var(--fill-0, #181818)"/>
</g>
</svg>
