<svg preserveAspectRatio="none" width="100%" height="100%" overflow="visible" style="display: block;" viewBox="0 0 16 16" fill="none" xmlns="http://www.w3.org/2000/svg">
<g id="Moon">
<path id="Vector" d="M14.5962 8.88938C14.5321 8.8251 14.4517 8.77951 14.3636 8.75749C14.2755 8.73547 14.1831 8.73785 14.0962 8.76438C13.1429 9.0526 12.1291 9.07677 11.1631 8.8343C10.197 8.59183 9.31488 8.09182 8.61059 7.38753C7.90631 6.68325 7.40629 5.80108 7.16383 4.83504C6.92136 3.869 6.94553 2.85527 7.23375 1.90187C7.2605 1.815 7.26306 1.72248 7.24116 1.63426C7.21926 1.54604 7.17372 1.46546 7.10944 1.40118C7.04517 1.33691 6.96459 1.29137 6.87637 1.26947C6.78815 1.24756 6.69562 1.25013 6.60875 1.27687C5.29064 1.68065 4.13346 2.48987 3.30187 3.58938C2.57463 4.55491 2.13103 5.70411 2.02092 6.90786C1.9108 8.11161 2.13852 9.32222 2.67851 10.4037C3.21849 11.4851 4.04934 12.3946 5.07771 13.0299C6.10608 13.6652 7.29122 14.0011 8.5 14C9.91022 14.0043 11.2829 13.5459 12.4075 12.695C13.507 11.8634 14.3162 10.7062 14.72 9.38813C14.7464 9.30158 14.7489 9.20947 14.7271 9.12164C14.7053 9.0338 14.6601 8.95353 14.5962 8.88938ZM11.8062 11.8963C10.7472 12.6939 9.43568 13.0822 8.11309 12.9896C6.7905 12.897 5.54588 12.3297 4.60834 11.3922C3.6708 10.4548 3.10345 9.2102 3.01073 7.88762C2.91802 6.56504 3.30617 5.25348 4.10375 4.19438C4.62338 3.50816 5.29517 2.9519 6.06625 2.56938C6.02232 2.87764 6.00019 3.18862 6 3.5C6.00182 5.22335 6.68722 6.87559 7.90582 8.09418C9.12441 9.31278 10.7767 9.99818 12.5 10C12.812 9.9999 13.1236 9.97777 13.4325 9.93375C13.0496 10.705 12.4929 11.3768 11.8062 11.8963Z" fill="var(--fill-0, #181818)"/>
</g>
</svg>
