<svg width="20" height="20" viewBox="0 0 20 20" fill="none" xmlns="http://www.w3.org/2000/svg">
<path d="M16.6344 1.38199C16.5595 1.32366 16.4723 1.28314 16.3795 1.26351C16.2866 1.24388 16.1905 1.24566 16.0984 1.26871L6.09844 3.76871C5.96323 3.80251 5.84319 3.88053 5.75741 3.99038C5.67163 4.10022 5.62502 4.23559 5.625 4.37496V12.975C5.10362 12.6266 4.48078 12.4625 3.85543 12.5086C3.23008 12.5548 2.63809 12.8086 2.17352 13.2298C1.70895 13.6509 1.39845 14.2152 1.29134 14.8331C1.18423 15.4509 1.28666 16.0868 1.58236 16.6398C1.87805 17.1927 2.35006 17.631 2.92337 17.885C3.49669 18.139 4.13844 18.194 4.74665 18.0415C5.35487 17.889 5.89467 17.5376 6.28029 17.0431C6.66591 16.5487 6.87523 15.9395 6.875 15.3125V8.61324L15.625 6.42574V10.475C15.1036 10.1266 14.4808 9.96246 13.8554 10.0086C13.2301 10.0548 12.6381 10.3086 12.1735 10.7298C11.709 11.1509 11.3984 11.7152 11.2913 12.3331C11.1842 12.9509 11.2867 13.5868 11.5824 14.1398C11.8781 14.6927 12.3501 15.131 12.9234 15.385C13.4967 15.639 14.1384 15.6941 14.7467 15.5415C15.3549 15.389 15.8947 15.0376 16.2803 14.5431C16.6659 14.0487 16.8752 13.4395 16.875 12.8125V1.87496C16.875 1.7799 16.8534 1.68609 16.8117 1.60067C16.77 1.51524 16.7093 1.44045 16.6344 1.38199ZM4.0625 16.875C3.75347 16.875 3.45138 16.7833 3.19443 16.6116C2.93747 16.4399 2.7372 16.1959 2.61894 15.9104C2.50068 15.6249 2.46974 15.3107 2.53003 15.0076C2.59032 14.7045 2.73913 14.4261 2.95765 14.2076C3.17617 13.9891 3.45458 13.8403 3.75768 13.78C4.06077 13.7197 4.37494 13.7506 4.66045 13.8689C4.94596 13.9872 5.18999 14.1874 5.36168 14.4444C5.53337 14.7013 5.625 15.0034 5.625 15.3125C5.625 15.7269 5.46038 16.1243 5.16736 16.4173C4.87433 16.7103 4.4769 16.875 4.0625 16.875ZM6.875 7.32418V4.86324L15.625 2.67574V5.13668L6.875 7.32418ZM14.0625 14.375C13.7535 14.375 13.4514 14.2833 13.1944 14.1116C12.9375 13.9399 12.7372 13.6959 12.6189 13.4104C12.5007 13.1249 12.4697 12.8107 12.53 12.5076C12.5903 12.2045 12.7391 11.9261 12.9576 11.7076C13.1762 11.4891 13.4546 11.3403 13.7577 11.28C14.0608 11.2197 14.3749 11.2506 14.6604 11.3689C14.946 11.4872 15.19 11.6874 15.3617 11.9444C15.5334 12.2013 15.625 12.5034 15.625 12.8125C15.625 13.2269 15.4604 13.6243 15.1674 13.9173C14.8743 14.2103 14.4769 14.375 14.0625 14.375Z" fill="#181818"/>
</svg>
