<svg preserveAspectRatio="none" width="100%" height="100%" overflow="visible" style="display: block;" viewBox="0 0 16 16" fill="none" xmlns="http://www.w3.org/2000/svg">
<g id="Notification">
<path id="Vector" d="M13.5 8V13C13.5 13.2652 13.3946 13.5196 13.2071 13.7071C13.0196 13.8946 12.7652 14 12.5 14H3C2.73478 14 2.48043 13.8946 2.29289 13.7071C2.10536 13.5196 2 13.2652 2 13V3.5C2 3.23478 2.10536 2.98043 2.29289 2.79289C2.48043 2.60536 2.73478 2.5 3 2.5H8C8.13261 2.5 8.25979 2.55268 8.35355 2.64645C8.44732 2.74021 8.5 2.86739 8.5 3C8.5 3.13261 8.44732 3.25979 8.35355 3.35355C8.25979 3.44732 8.13261 3.5 8 3.5H3V13H12.5V8C12.5 7.86739 12.5527 7.74021 12.6464 7.64645C12.7402 7.55268 12.8674 7.5 13 7.5C13.1326 7.5 13.2598 7.55268 13.3536 7.64645C13.4473 7.74021 13.5 7.86739 13.5 8ZM14.5 3.75C14.5 4.19501 14.368 4.63002 14.1208 5.00003C13.8736 5.37004 13.5222 5.65843 13.111 5.82873C12.6999 5.99903 12.2475 6.04358 11.811 5.95677C11.3746 5.86995 10.9737 5.65566 10.659 5.34099C10.3443 5.02632 10.13 4.62541 10.0432 4.18895C9.95642 3.7525 10.001 3.3001 10.1713 2.88896C10.3416 2.47783 10.63 2.12643 11 1.87919C11.37 1.63196 11.805 1.5 12.25 1.5C12.8467 1.5 13.419 1.73705 13.841 2.15901C14.2629 2.58097 14.5 3.15326 14.5 3.75ZM13.5 3.75C13.5 3.50277 13.4267 3.2611 13.2893 3.05554C13.152 2.84998 12.9568 2.68976 12.7284 2.59515C12.4999 2.50054 12.2486 2.47579 12.0061 2.52402C11.7637 2.57225 11.5409 2.6913 11.3661 2.86612C11.1913 3.04093 11.0722 3.26366 11.024 3.50614C10.9758 3.74861 11.0005 3.99995 11.0952 4.22835C11.1898 4.45676 11.35 4.65199 11.5555 4.78934C11.7611 4.92669 12.0028 5 12.25 5C12.5815 5 12.8995 4.8683 13.1339 4.63388C13.3683 4.39946 13.5 4.08152 13.5 3.75Z" fill="var(--fill-0, #181818)"/>
</g>
</svg>
