<svg width="16" height="16" viewBox="0 0 16 16" fill="none" xmlns="http://www.w3.org/2000/svg">
<path d="M5 3C5 3.19778 4.94135 3.39112 4.83147 3.55557C4.72159 3.72002 4.56541 3.84819 4.38268 3.92388C4.19996 3.99957 3.99889 4.01937 3.80491 3.98079C3.61093 3.9422 3.43275 3.84696 3.29289 3.70711C3.15304 3.56725 3.0578 3.38907 3.01922 3.19509C2.98063 3.00111 3.00043 2.80004 3.07612 2.61732C3.15181 2.43459 3.27998 2.27841 3.44443 2.16853C3.60888 2.05865 3.80222 2 4 2C4.26522 2 4.51957 2.10536 4.70711 2.29289C4.89464 2.48043 5 2.73478 5 3ZM8 2C7.80222 2 7.60888 2.05865 7.44443 2.16853C7.27998 2.27841 7.15181 2.43459 7.07612 2.61732C7.00043 2.80004 6.98063 3.00111 7.01922 3.19509C7.0578 3.38907 7.15304 3.56725 7.29289 3.70711C7.43275 3.84696 7.61093 3.9422 7.80491 3.98079C7.99889 4.01937 8.19996 3.99957 8.38268 3.92388C8.56541 3.84819 8.72159 3.72002 8.83147 3.55557C8.94135 3.39112 9 3.19778 9 3C9 2.73478 8.89464 2.48043 8.70711 2.29289C8.51957 2.10536 8.26522 2 8 2ZM12 4C12.1978 4 12.3911 3.94135 12.5556 3.83147C12.72 3.72159 12.8482 3.56541 12.9239 3.38268C12.9996 3.19996 13.0194 2.99889 12.9808 2.80491C12.9422 2.61093 12.847 2.43275 12.7071 2.29289C12.5673 2.15304 12.3891 2.0578 12.1951 2.01922C12.0011 1.98063 11.8 2.00043 11.6173 2.07612C11.4346 2.15181 11.2784 2.27998 11.1685 2.44443C11.0587 2.60888 11 2.80222 11 3C11 3.26522 11.1054 3.51957 11.2929 3.70711C11.4804 3.89464 11.7348 4 12 4ZM4 5.5C3.80222 5.5 3.60888 5.55865 3.44443 5.66853C3.27998 5.77841 3.15181 5.93459 3.07612 6.11732C3.00043 6.30004 2.98063 6.50111 3.01922 6.69509C3.0578 6.88907 3.15304 7.06725 3.29289 7.20711C3.43275 7.34696 3.61093 7.4422 3.80491 7.48079C3.99889 7.51937 4.19996 7.49957 4.38268 7.42388C4.56541 7.34819 4.72159 7.22002 4.83147 7.05557C4.94135 6.89112 5 6.69778 5 6.5C5 6.23478 4.89464 5.98043 4.70711 5.79289C4.51957 5.60536 4.26522 5.5 4 5.5ZM8 5.5C7.80222 5.5 7.60888 5.55865 7.44443 5.66853C7.27998 5.77841 7.15181 5.93459 7.07612 6.11732C7.00043 6.30004 6.98063 6.50111 7.01922 6.69509C7.0578 6.88907 7.15304 7.06725 7.29289 7.20711C7.43275 7.34696 7.61093 7.4422 7.80491 7.48079C7.99889 7.51937 8.19996 7.49957 8.38268 7.42388C8.56541 7.34819 8.72159 7.22002 8.83147 7.05557C8.94135 6.89112 9 6.69778 9 6.5C9 6.23478 8.89464 5.98043 8.70711 5.79289C8.51957 5.60536 8.26522 5.5 8 5.5ZM12 5.5C11.8022 5.5 11.6089 5.55865 11.4444 5.66853C11.28 5.77841 11.1518 5.93459 11.0761 6.11732C11.0004 6.30004 10.9806 6.50111 11.0192 6.69509C11.0578 6.88907 11.153 7.06725 11.2929 7.20711C11.4327 7.34696 11.6109 7.4422 11.8049 7.48079C11.9989 7.51937 12.2 7.49957 12.3827 7.42388C12.5654 7.34819 12.7216 7.22002 12.8315 7.05557C12.9414 6.89112 13 6.69778 13 6.5C13 6.23478 12.8946 5.98043 12.7071 5.79289C12.5196 5.60536 12.2652 5.5 12 5.5ZM4 9C3.80222 9 3.60888 9.05865 3.44443 9.16853C3.27998 9.27841 3.15181 9.43459 3.07612 9.61732C3.00043 9.80004 2.98063 10.0011 3.01922 10.1951C3.0578 10.3891 3.15304 10.5673 3.29289 10.7071C3.43275 10.847 3.61093 10.9422 3.80491 10.9808C3.99889 11.0194 4.19996 10.9996 4.38268 10.9239C4.56541 10.8482 4.72159 10.72 4.83147 10.5556C4.94135 10.3911 5 10.1978 5 10C5 9.73478 4.89464 9.48043 4.70711 9.29289C4.51957 9.10536 4.26522 9 4 9ZM8 9C7.80222 9 7.60888 9.05865 7.44443 9.16853C7.27998 9.27841 7.15181 9.43459 7.07612 9.61732C7.00043 9.80004 6.98063 10.0011 7.01922 10.1951C7.0578 10.3891 7.15304 10.5673 7.29289 10.7071C7.43275 10.847 7.61093 10.9422 7.80491 10.9808C7.99889 11.0194 8.19996 10.9996 8.38268 10.9239C8.56541 10.8482 8.72159 10.72 8.83147 10.5556C8.94135 10.3911 9 10.1978 9 10C9 9.73478 8.89464 9.48043 8.70711 9.29289C8.51957 9.10536 8.26522 9 8 9ZM8 12.5C7.80222 12.5 7.60888 12.5587 7.44443 12.6685C7.27998 12.7784 7.15181 12.9346 7.07612 13.1173C7.00043 13.3 6.98063 13.5011 7.01922 13.6951C7.0578 13.8891 7.15304 14.0673 7.29289 14.2071C7.43275 14.347 7.61093 14.4422 7.80491 14.4808C7.99889 14.5194 8.19996 14.4996 8.38268 14.4239C8.56541 14.3482 8.72159 14.22 8.83147 14.0556C8.94135 13.8911 9 13.6978 9 13.5C9 13.2348 8.89464 12.9804 8.70711 12.7929C8.51957 12.6054 8.26522 12.5 8 12.5ZM12 9C11.8022 9 11.6089 9.05865 11.4444 9.16853C11.28 9.27841 11.1518 9.43459 11.0761 9.61732C11.0004 9.80004 10.9806 10.0011 11.0192 10.1951C11.0578 10.3891 11.153 10.5673 11.2929 10.7071C11.4327 10.847 11.6109 10.9422 11.8049 10.9808C11.9989 11.0194 12.2 10.9996 12.3827 10.9239C12.5654 10.8482 12.7216 10.72 12.8315 10.5556C12.9414 10.3911 13 10.1978 13 10C13 9.73478 12.8946 9.48043 12.7071 9.29289C12.5196 9.10536 12.2652 9 12 9Z" fill="#181818"/>
</svg>
