<svg width="16" height="16" viewBox="0 0 16 16" fill="none" xmlns="http://www.w3.org/2000/svg">
<path d="M8 4.99977C7.40666 4.99977 6.82664 5.17571 6.33329 5.50536C5.83994 5.835 5.45542 6.30354 5.22836 6.85172C5.0013 7.3999 4.94189 8.0031 5.05764 8.58504C5.1734 9.16698 5.45912 9.70153 5.87868 10.1211C6.29824 10.5406 6.83279 10.8264 7.41473 10.9421C7.99667 11.0579 8.59987 10.9985 9.14805 10.7714C9.69623 10.5443 10.1648 10.1598 10.4944 9.66648C10.8241 9.17313 11 8.59311 11 7.99977C10.999 7.20442 10.6826 6.44194 10.1202 5.87954C9.55783 5.31715 8.79534 5.00076 8 4.99977ZM8 9.99977C7.60444 9.99977 7.21776 9.88247 6.88886 9.66271C6.55996 9.44294 6.30362 9.13059 6.15224 8.76513C6.00087 8.39968 5.96126 7.99755 6.03843 7.60959C6.1156 7.22162 6.30608 6.86526 6.58579 6.58555C6.86549 6.30585 7.22186 6.11537 7.60982 6.0382C7.99778 5.96103 8.39991 6.00063 8.76537 6.15201C9.13082 6.30338 9.44318 6.55973 9.66294 6.88863C9.8827 7.21753 10 7.6042 10 7.99977C10 8.5302 9.78929 9.03891 9.41421 9.41398C9.03914 9.78905 8.53043 9.99977 8 9.99977ZM13.98 4.13414L8.48 1.12477C8.33305 1.04357 8.16789 1.00098 8 1.00098C7.83211 1.00098 7.66695 1.04357 7.52 1.12477L2.02 4.13539C1.86293 4.22133 1.73181 4.34787 1.64034 4.50178C1.54888 4.6557 1.50041 4.83135 1.5 5.01039V10.9879C1.50041 11.1669 1.54888 11.3426 1.64034 11.4965C1.73181 11.6504 1.86293 11.777 2.02 11.8629L7.52 14.8735C7.66695 14.9547 7.83211 14.9973 8 14.9973C8.16789 14.9973 8.33305 14.9547 8.48 14.8735L13.98 11.8629C14.1371 11.777 14.2682 11.6504 14.3597 11.4965C14.4511 11.3426 14.4996 11.1669 14.5 10.9879V5.01102C14.4999 4.83166 14.4516 4.65561 14.3601 4.50134C14.2686 4.34706 14.1373 4.22024 13.98 4.13414ZM8 13.9998L2.5 10.9885V5.01102L8 1.99977L13.5 5.01039V10.9879L8 13.9998Z" fill="#181818"/>
</svg>
