<svg width="16" height="16" viewBox="0 0 16 16" fill="none" xmlns="http://www.w3.org/2000/svg">
<path d="M14.4148 1.58497C14.2291 1.39921 14.0086 1.25185 13.7659 1.15131C13.5232 1.05077 13.2631 0.999023 13.0004 0.999023C12.7377 0.999023 12.4776 1.05077 12.235 1.15131C11.9923 1.25185 11.7718 1.39921 11.5861 1.58497C11.5773 1.59372 11.5686 1.6031 11.5598 1.6131L8.22168 5.51372L7.56231 4.85247C7.42301 4.7131 7.25762 4.60254 7.07558 4.52711C6.89354 4.45168 6.69842 4.41285 6.50137 4.41285C6.30432 4.41285 6.1092 4.45168 5.92716 4.52711C5.74512 4.60254 5.57973 4.7131 5.44043 4.85247L0.647307 9.64622C0.55361 9.73998 0.500977 9.86711 0.500977 9.99966C0.500977 10.1322 0.55361 10.2593 0.647307 10.3531L5.64731 15.3531C5.74107 15.4468 5.86819 15.4994 6.00074 15.4994C6.1333 15.4994 6.26042 15.4468 6.35418 15.3531L11.1473 10.5625C11.2867 10.4232 11.3972 10.2578 11.4727 10.0757C11.5481 9.8937 11.5869 9.69858 11.5869 9.50153C11.5869 9.30448 11.5481 9.10937 11.4727 8.92733C11.3972 8.74529 11.2867 8.57989 11.1473 8.4406L10.4861 7.77997L14.3867 4.43747C14.3961 4.42872 14.4061 4.41997 14.4148 4.4106C14.789 4.03564 14.9992 3.52753 14.9992 2.99778C14.9992 2.46804 14.789 1.95993 14.4148 1.58497ZM5.99981 14.2931L4.95731 13.25L6.35356 11.8531C6.44337 11.7586 6.4927 11.6327 6.49103 11.5023C6.48936 11.3719 6.43682 11.2474 6.34462 11.1552C6.25242 11.063 6.12785 11.0104 5.99747 11.0088C5.86709 11.0071 5.74121 11.0564 5.64668 11.1462L4.24981 12.5425L3.45731 11.75L4.85356 10.3531C4.94337 10.2586 4.9927 10.1327 4.99103 10.0023C4.98936 9.87193 4.93682 9.74736 4.84462 9.65516C4.75242 9.56296 4.62785 9.51042 4.49747 9.50875C4.36709 9.50708 4.24121 9.55641 4.14668 9.64622L2.74981 11.0425L1.70668 9.99997L4.49981 7.20685L8.79293 11.5L5.99981 14.2931ZM13.7198 3.69372L9.42543 7.36935C9.373 7.41414 9.33039 7.4693 9.3003 7.53136C9.27021 7.59341 9.25329 7.66102 9.25058 7.72993C9.24788 7.79885 9.25947 7.86757 9.28461 7.93179C9.30976 7.99601 9.34791 8.05433 9.39668 8.1031L10.4373 9.14622C10.531 9.23998 10.5836 9.36711 10.5836 9.49966C10.5836 9.63221 10.531 9.75934 10.4373 9.8531L9.49981 10.7906L5.20731 6.49997L6.14481 5.56247C6.23857 5.46877 6.36569 5.41614 6.49824 5.41614C6.6308 5.41614 6.75792 5.46877 6.85168 5.56247L7.89481 6.6056C7.94357 6.65437 8.00189 6.69252 8.06611 6.71766C8.13033 6.74281 8.19906 6.75439 8.26797 6.75169C8.33688 6.74899 8.40449 6.73207 8.46655 6.70197C8.5286 6.67189 8.58376 6.62928 8.62856 6.57685L12.3061 2.27997C12.4951 2.10035 12.7469 2.00169 13.0076 2.00503C13.2684 2.00837 13.5175 2.11344 13.7019 2.29784C13.8863 2.48224 13.9914 2.73139 13.9947 2.99215C13.9981 3.25291 13.8994 3.50466 13.7198 3.69372Z" fill="#181818"/>
</svg>
