<svg preserveAspectRatio="none" width="100%" height="100%" overflow="visible" style="display: block;" viewBox="0 0 16 16" fill="none" xmlns="http://www.w3.org/2000/svg">
<g id="PaintRoller">
<path id="Vector" d="M14.5 5.5H13.5V4C13.5 3.73478 13.3946 3.48043 13.2071 3.29289C13.0196 3.10536 12.7652 3 12.5 3H3C2.73478 3 2.48043 3.10536 2.29289 3.29289C2.10536 3.48043 2 3.73478 2 4V5.5H1C0.867392 5.5 0.740215 5.55268 0.646447 5.64645C0.552678 5.74021 0.5 5.86739 0.5 6C0.5 6.13261 0.552678 6.25979 0.646447 6.35355C0.740215 6.44732 0.867392 6.5 1 6.5H2V8C2 8.26522 2.10536 8.51957 2.29289 8.70711C2.48043 8.89464 2.73478 9 3 9H12.5C12.7652 9 13.0196 8.89464 13.2071 8.70711C13.3946 8.51957 13.5 8.26522 13.5 8V6.5H14.5V9.625L8.225 11.4156C8.01682 11.4759 7.83373 11.6019 7.70306 11.7748C7.57239 11.9477 7.50116 12.1583 7.5 12.375V14.5C7.5 14.6326 7.55268 14.7598 7.64645 14.8536C7.74021 14.9473 7.86739 15 8 15C8.13261 15 8.25979 14.9473 8.35355 14.8536C8.44732 14.7598 8.5 14.6326 8.5 14.5V12.375L14.775 10.5825C14.9829 10.5223 15.1657 10.3966 15.2964 10.2241C15.427 10.0515 15.4984 9.84141 15.5 9.625V6.5C15.5 6.23478 15.3946 5.98043 15.2071 5.79289C15.0196 5.60536 14.7652 5.5 14.5 5.5ZM12.5 8H3V4H12.5V8Z" fill="var(--fill-0, #181818)"/>
</g>
</svg>
