<svg width="16" height="16" viewBox="0 0 16 16" fill="none" xmlns="http://www.w3.org/2000/svg">
<path d="M12.5481 3.36813C11.3379 2.16974 9.70314 1.49826 8 1.5H7.93313C6.22083 1.51762 4.58466 2.21021 3.3801 3.42729C2.17554 4.64437 1.49991 6.28762 1.5 8C1.5 10.6875 3.16125 12.9413 5.835 13.8856C6.13657 13.992 6.45924 14.0244 6.77594 13.9803C7.09264 13.9362 7.39415 13.8168 7.65518 13.6321C7.91621 13.4474 8.12916 13.2028 8.27615 12.9188C8.42314 12.6348 8.49991 12.3198 8.5 12C8.5 11.7348 8.60536 11.4804 8.79289 11.2929C8.98043 11.1054 9.23478 11 9.5 11H12.3881C12.8418 11.0022 13.2826 10.8492 13.6373 10.5663C13.992 10.2835 14.2393 9.88779 14.3381 9.445C14.4499 8.95294 14.5042 8.44958 14.5 7.945C14.4936 7.09092 14.3178 6.24659 13.9828 5.46094C13.6477 4.67529 13.1601 3.96395 12.5481 3.36813ZM13.3606 9.225C13.311 9.44559 13.1875 9.64264 13.0107 9.78355C12.8339 9.92447 12.6142 10.0008 12.3881 10H9.5C8.96957 10 8.46086 10.2107 8.08579 10.5858C7.71071 10.9609 7.5 11.4696 7.5 12C7.49977 12.1597 7.46128 12.3171 7.38775 12.4589C7.31423 12.6007 7.2078 12.7228 7.07739 12.815C6.94698 12.9072 6.79637 12.9669 6.63818 12.989C6.47998 13.011 6.3188 12.9949 6.16813 12.9419C3.90563 12.1438 2.5 10.25 2.5 8C2.49992 6.55111 3.07157 5.16072 4.09075 4.13089C5.10993 3.10106 6.49431 2.51499 7.94312 2.5H7.99937C9.44824 2.50563 10.8369 3.08049 11.8657 4.10061C12.8946 5.12072 13.4813 6.50436 13.4994 7.95313C13.5031 8.38092 13.4574 8.80771 13.3631 9.225H13.3606ZM8.75 4.75C8.75 4.89834 8.70601 5.04334 8.6236 5.16668C8.54119 5.29002 8.42406 5.38615 8.28701 5.44291C8.14997 5.49968 7.99917 5.51453 7.85368 5.48559C7.7082 5.45665 7.57456 5.38522 7.46967 5.28033C7.36478 5.17544 7.29335 5.04181 7.26441 4.89632C7.23547 4.75084 7.25032 4.60004 7.30709 4.46299C7.36386 4.32595 7.45999 4.20881 7.58332 4.1264C7.70666 4.04399 7.85166 4 8 4C8.19891 4 8.38968 4.07902 8.53033 4.21967C8.67098 4.36033 8.75 4.55109 8.75 4.75ZM6 6.25C6 6.39834 5.95601 6.54334 5.8736 6.66668C5.79119 6.79002 5.67406 6.88615 5.53701 6.94291C5.39997 6.99968 5.24917 7.01453 5.10368 6.98559C4.9582 6.95665 4.82456 6.88522 4.71967 6.78033C4.61478 6.67544 4.54335 6.54181 4.51441 6.39632C4.48547 6.25084 4.50032 6.10004 4.55709 5.96299C4.61386 5.82595 4.70999 5.70881 4.83332 5.6264C4.95666 5.54399 5.10166 5.5 5.25 5.5C5.44891 5.5 5.63968 5.57902 5.78033 5.71967C5.92098 5.86033 6 6.05109 6 6.25ZM6 9.75C6 9.89834 5.95601 10.0433 5.8736 10.1667C5.79119 10.29 5.67406 10.3861 5.53701 10.4429C5.39997 10.4997 5.24917 10.5145 5.10368 10.4856C4.9582 10.4567 4.82456 10.3852 4.71967 10.2803C4.61478 10.1754 4.54335 10.0418 4.51441 9.89632C4.48547 9.75084 4.50032 9.60004 4.55709 9.46299C4.61386 9.32595 4.70999 9.20881 4.83332 9.1264C4.95666 9.04399 5.10166 9 5.25 9C5.44891 9 5.63968 9.07902 5.78033 9.21967C5.92098 9.36033 6 9.55109 6 9.75ZM11.5 6.25C11.5 6.39834 11.456 6.54334 11.3736 6.66668C11.2912 6.79002 11.1741 6.88615 11.037 6.94291C10.9 6.99968 10.7492 7.01453 10.6037 6.98559C10.4582 6.95665 10.3246 6.88522 10.2197 6.78033C10.1148 6.67544 10.0434 6.54181 10.0144 6.39632C9.98547 6.25084 10.0003 6.10004 10.0571 5.96299C10.1139 5.82595 10.21 5.70881 10.3333 5.6264C10.4567 5.54399 10.6017 5.5 10.75 5.5C10.9489 5.5 11.1397 5.57902 11.2803 5.71967C11.421 5.86033 11.5 6.05109 11.5 6.25Z" fill="#666666"/>
</svg>
