<svg preserveAspectRatio="none" width="100%" height="100%" overflow="visible" style="display: block;" viewBox="0 0 16 16" fill="none" xmlns="http://www.w3.org/2000/svg">
<g id="Paperclip">
<path id="Vector" d="M13.1038 7.64625C13.1502 7.69269 13.1871 7.74783 13.2123 7.80853C13.2374 7.86923 13.2504 7.93429 13.2504 8C13.2504 8.06571 13.2374 8.13077 13.2123 8.19147C13.1871 8.25217 13.1502 8.30731 13.1038 8.35375L7.97563 13.4788C7.31913 14.1352 6.42877 14.5039 5.5004 14.5038C4.57204 14.5038 3.68172 14.1349 3.02531 13.4784C2.3689 12.8219 2.00017 11.9316 2.00023 11.0032C2.00028 10.0749 2.36913 9.18454 3.02562 8.52812L9.22937 2.23312C9.69806 1.76394 10.3339 1.50016 10.9971 1.49981C11.6603 1.49945 12.2964 1.76256 12.7656 2.23125C13.2348 2.69994 13.4986 3.33581 13.4989 3.99899C13.4993 4.66216 13.2362 5.29832 12.7675 5.7675L6.5625 12.0625C6.28071 12.3443 5.89851 12.5026 5.5 12.5026C5.10149 12.5026 4.71929 12.3443 4.4375 12.0625C4.15571 11.7807 3.9974 11.3985 3.9974 11C3.9974 10.6015 4.15571 10.2193 4.4375 9.9375L9.64375 4.64875C9.68936 4.6001 9.74423 4.56106 9.80515 4.53394C9.86607 4.50681 9.9318 4.49215 9.99847 4.4908C10.0651 4.48946 10.1314 4.50147 10.1934 4.52612C10.2553 4.55077 10.3117 4.58757 10.3593 4.63435C10.4068 4.68112 10.4445 4.73694 10.4701 4.7985C10.4958 4.86006 10.5088 4.92612 10.5085 4.99281C10.5083 5.05949 10.4946 5.12545 10.4685 5.18679C10.4423 5.24813 10.4042 5.30363 10.3563 5.35L5.14937 10.6444C5.10276 10.6906 5.0657 10.7456 5.04033 10.8062C5.01496 10.8667 5.00177 10.9317 5.00151 10.9974C5.00124 11.0631 5.01392 11.1281 5.03881 11.1889C5.0637 11.2497 5.10031 11.3049 5.14656 11.3516C5.19281 11.3982 5.24779 11.4352 5.30836 11.4606C5.36893 11.486 5.43391 11.4992 5.49957 11.4994C5.56524 11.4997 5.63032 11.487 5.69109 11.4621C5.75186 11.4372 5.80713 11.4006 5.85375 11.3544L12.0581 5.0625C12.3399 4.78129 12.4985 4.39965 12.4989 4.00155C12.4993 3.60344 12.3415 3.22148 12.0603 2.93969C11.7791 2.65789 11.3975 2.49936 10.9994 2.49894C10.6013 2.49853 10.2193 2.65629 9.9375 2.9375L3.735 9.23C3.50264 9.46199 3.31825 9.73747 3.19236 10.0407C3.06647 10.344 3.00154 10.669 3.00128 10.9974C3.00102 11.3257 3.06543 11.6509 3.19084 11.9544C3.31625 12.2578 3.5002 12.5336 3.73219 12.7659C3.96418 12.9983 4.23966 13.1827 4.54291 13.3086C4.84616 13.4345 5.17123 13.4994 5.49957 13.4997C5.82792 13.4999 6.15309 13.4355 6.45654 13.3101C6.75999 13.1847 7.03577 13.0007 7.26813 12.7688L12.3969 7.64375C12.491 7.55038 12.6183 7.4982 12.7508 7.49867C12.8834 7.49914 13.0103 7.55222 13.1038 7.64625Z" fill="var(--fill-0, #181818)"/>
</g>
</svg>