<svg preserveAspectRatio="none" width="100%" height="100%" overflow="visible" style="display: block;" viewBox="0 0 16 16" fill="none" xmlns="http://www.w3.org/2000/svg">
<g id="Pause">
<path id="Vector" d="M12.5 2H10C9.73478 2 9.48043 2.10536 9.29289 2.29289C9.10536 2.48043 9 2.73478 9 3V13C9 13.2652 9.10536 13.5196 9.29289 13.7071C9.48043 13.8946 9.73478 14 10 14H12.5C12.7652 14 13.0196 13.8946 13.2071 13.7071C13.3946 13.5196 13.5 13.2652 13.5 13V3C13.5 2.73478 13.3946 2.48043 13.2071 2.29289C13.0196 2.10536 12.7652 2 12.5 2ZM12.5 13H10V3H12.5V13ZM6 2H3.5C3.23478 2 2.98043 2.10536 2.79289 2.29289C2.60536 2.48043 2.5 2.73478 2.5 3V13C2.5 13.2652 2.60536 13.5196 2.79289 13.7071C2.98043 13.8946 3.23478 14 3.5 14H6C6.26522 14 6.51957 13.8946 6.70711 13.7071C6.89464 13.5196 7 13.2652 7 13V3C7 2.73478 6.89464 2.48043 6.70711 2.29289C6.51957 2.10536 6.26522 2 6 2ZM6 13H3.5V3H6V13Z" fill="var(--fill-0, #181818)"/>
</g>
</svg>
