<svg width="16" height="16" viewBox="0 0 16 16" fill="none" xmlns="http://www.w3.org/2000/svg">
<g clip-path="url(#clip0_1422_6372)">
<path d="M2.15137 1.45605C2.2384 1.4608 2.32383 1.48265 2.40234 1.52051C2.48057 1.55827 2.55064 1.61092 2.6084 1.67578L13.8076 13.9902C13.8671 14.0541 13.9131 14.13 13.9434 14.2119C13.9736 14.2938 13.988 14.3806 13.9844 14.4678C13.9807 14.555 13.9598 14.6407 13.9229 14.7197C13.8859 14.7988 13.8332 14.87 13.7686 14.9287C13.7039 14.9874 13.6281 15.0323 13.5459 15.0615C13.4636 15.0908 13.3763 15.1033 13.2891 15.0986C13.2019 15.0939 13.1167 15.0721 13.0381 15.0342C12.9595 14.9963 12.889 14.9432 12.8311 14.8779V14.877L9.56445 11.2852L6.11035 14.7373C5.99744 14.851 5.86289 14.9416 5.71484 15.0029C5.60399 15.0488 5.48716 15.0783 5.36816 15.0898L5.24805 15.0947H2.12012C1.79679 15.0947 1.48656 14.9667 1.25781 14.7383C1.02902 14.5096 0.900391 14.1985 0.900391 13.875V10.748C0.899964 10.588 0.930956 10.4292 0.992188 10.2812C1.05347 10.1333 1.1433 9.99873 1.25684 9.88574L4.94141 6.2002L1.63184 2.56348V2.5625C1.57283 2.49884 1.52619 2.4242 1.49609 2.34277C1.46594 2.261 1.45242 2.174 1.45605 2.08691C1.4597 1.99969 1.48059 1.91404 1.51758 1.83496C1.55458 1.75587 1.60724 1.6847 1.67188 1.62598C1.73645 1.56737 1.81236 1.5224 1.89453 1.49316C1.97674 1.46395 2.06425 1.45137 2.15137 1.45605ZM2.21973 10.79V13.7754H5.20703L8.6748 10.3105L5.83008 7.18359L2.21973 10.79ZM10.752 0.900391C10.9121 0.900426 11.0708 0.931892 11.2188 0.993164C11.3665 1.05441 11.5011 1.14376 11.6143 1.25684L14.7422 4.38379C14.8554 4.49697 14.9455 4.63142 15.0068 4.7793C15.0681 4.92722 15.0996 5.08598 15.0996 5.24609C15.0996 5.40625 15.0681 5.56493 15.0068 5.71289C14.9455 5.86087 14.8555 5.99515 14.7422 6.1084L11.6406 9.21191C11.5166 9.33559 11.348 9.40453 11.1729 9.4043C10.9977 9.40405 10.8298 9.33396 10.7061 9.20996C10.5825 9.08598 10.5134 8.9182 10.5137 8.74316C10.5139 8.56807 10.583 8.40003 10.707 8.27637L11.2656 7.7168L8.2793 4.73145L7.90625 5.10645C7.78255 5.23018 7.61443 5.2997 7.43945 5.2998C7.26443 5.29988 7.09649 5.23011 6.97266 5.10645C6.84882 4.98275 6.77937 4.81467 6.7793 4.63965C6.77929 4.55319 6.79608 4.4676 6.8291 4.3877C6.86223 4.30764 6.91043 4.23414 6.97168 4.17285H6.97266L9.88867 1.25684C10.0019 1.1436 10.1372 1.05445 10.2852 0.993164C10.4331 0.931918 10.5918 0.900391 10.752 0.900391ZM9.21289 3.79883L12.1992 6.78418L13.7373 5.24609L10.751 2.25977L9.21289 3.79883Z" fill="#858585" stroke="#858585" stroke-width="0.2"/>
</g>
<defs>
<clipPath id="clip0_1422_6372">
<rect width="16" height="16" fill="white"/>
</clipPath>
</defs>
</svg>
