<svg width="16" height="16" viewBox="0 0 16 16" fill="none" xmlns="http://www.w3.org/2000/svg">
<path d="M13 1.9999H10C9.73478 1.9999 9.48043 2.10526 9.29289 2.2928C9.10536 2.48033 9 2.73469 9 2.9999V12.9999C9 13.2651 9.10536 13.5195 9.29289 13.707C9.48043 13.8945 9.73478 13.9999 10 13.9999H13C13.2652 13.9999 13.5196 13.8945 13.7071 13.707C13.8946 13.5195 14 13.2651 14 12.9999V2.9999C14 2.73469 13.8946 2.48033 13.7071 2.2928C13.5196 2.10526 13.2652 1.9999 13 1.9999ZM13 12.9999H10V10.9999H11.5C11.6326 10.9999 11.7598 10.9472 11.8536 10.8535C11.9473 10.7597 12 10.6325 12 10.4999C12 10.3673 11.9473 10.2401 11.8536 10.1464C11.7598 10.0526 11.6326 9.9999 11.5 9.9999H10V8.49991H11.5C11.6326 8.49991 11.7598 8.44723 11.8536 8.35346C11.9473 8.25969 12 8.13251 12 7.99991C12 7.8673 11.9473 7.74012 11.8536 7.64635C11.7598 7.55258 11.6326 7.49991 11.5 7.49991H10V5.99991H11.5C11.6326 5.99991 11.7598 5.94723 11.8536 5.85346C11.9473 5.75969 12 5.63251 12 5.49991C12 5.3673 11.9473 5.24012 11.8536 5.14635C11.7598 5.05258 11.6326 4.99991 11.5 4.99991H10V2.9999H13V12.9999ZM4.85375 1.64615C4.80731 1.59967 4.75217 1.56279 4.69147 1.53763C4.63077 1.51246 4.56571 1.49951 4.5 1.49951C4.43429 1.49951 4.36923 1.51246 4.30853 1.53763C4.24783 1.56279 4.19269 1.59967 4.14625 1.64615L2.14625 3.64615C2.09983 3.69262 2.06303 3.74778 2.03793 3.80848C2.01284 3.86918 1.99995 3.93422 2 3.99991V12.9999C2 13.2651 2.10536 13.5195 2.29289 13.707C2.48043 13.8945 2.73478 13.9999 3 13.9999H6C6.26522 13.9999 6.51957 13.8945 6.70711 13.707C6.89464 13.5195 7 13.2651 7 12.9999V3.99991C7.00005 3.93422 6.98716 3.86918 6.96207 3.80848C6.93697 3.74778 6.90017 3.69262 6.85375 3.64615L4.85375 1.64615ZM3 10.9999V4.99991H4V10.9999H3ZM5 4.99991H6V10.9999H5V4.99991ZM4.5 2.70678L5.79313 3.99991H3.20688L4.5 2.70678ZM3 12.9999V11.9999H6V12.9999H3Z" fill="#181818"/>
</svg>
