<svg width="11" height="12" viewBox="0 0 11 12" fill="none" xmlns="http://www.w3.org/2000/svg">
<g clip-path="url(#clip0_1253_14268)">
<path d="M10.7527 3.50183L7.54313 0.251121C7.46455 0.171507 7.37127 0.108353 7.26859 0.0652648C7.16592 0.0221771 7.05587 0 6.94474 0C6.8336 0 6.72356 0.0221771 6.62089 0.0652648C6.51821 0.108353 6.42492 0.171507 6.34635 0.251121L3.51015 3.13326C2.9464 2.95433 1.65919 2.73844 0.315917 3.83719C0.223329 3.91261 0.147457 4.00693 0.0932409 4.11402C0.0390243 4.22111 0.00767788 4.33856 0.00124234 4.45874C-0.00519321 4.57891 0.0134263 4.69911 0.0558887 4.81151C0.0983512 4.92392 0.163705 5.026 0.247696 5.11112L2.80308 7.69862L0.547022 9.98237C0.467636 10.0628 0.423037 10.1719 0.423037 10.2856C0.423037 10.3993 0.467636 10.5084 0.547022 10.5888C0.626409 10.6692 0.73408 10.7144 0.846349 10.7144C0.958619 10.7144 1.06629 10.6692 1.14568 10.5888L3.40015 8.30344L5.95395 10.8904C6.03245 10.9703 6.12574 11.0337 6.22847 11.077C6.33119 11.1203 6.44134 11.1426 6.5526 11.1427C6.5727 11.1427 6.59226 11.1427 6.61236 11.1427C6.73298 11.1343 6.85039 11.0996 6.9566 11.0411C7.06282 10.9826 7.15536 10.9016 7.22794 10.8036C8.26659 9.40541 8.16664 8.26862 7.92548 7.58933L10.7532 4.71416C10.8318 4.63453 10.8941 4.54 10.9366 4.43597C10.9791 4.33195 11.0009 4.22046 11.0009 4.10788C11.0008 3.99531 10.9789 3.88384 10.9363 3.77985C10.8937 3.67587 10.8313 3.5814 10.7527 3.50183ZM10.154 4.10826L7.12534 7.18648C7.06279 7.25007 7.02154 7.33196 7.0074 7.42058C6.99326 7.50921 7.00695 7.60009 7.04654 7.68041C7.54683 8.69451 6.95135 9.74773 6.5526 10.285L0.846349 4.50416C1.4852 3.98237 2.09654 3.84469 2.56404 3.84469C2.86069 3.84059 3.15488 3.89954 3.42765 4.01773C3.50722 4.05807 3.59733 4.07197 3.68516 4.05745C3.77298 4.04292 3.85405 4.00072 3.91683 3.93683L6.945 0.857013L10.154 4.10773V4.10826Z" fill="#666666"/>
</g>
<defs>
<clipPath id="clip0_1253_14268">
<rect width="11" height="12" fill="white"/>
</clipPath>
</defs>
</svg>
