<svg width="16" height="16" viewBox="0 0 16 16" fill="none" xmlns="http://www.w3.org/2000/svg">
<path d="M8 1.5C6.71442 1.5 5.45772 1.88122 4.3888 2.59545C3.31988 3.30968 2.48676 4.32484 1.99479 5.51256C1.50282 6.70028 1.37409 8.00721 1.6249 9.26809C1.8757 10.529 2.49477 11.6872 3.40381 12.5962C4.31285 13.5052 5.47104 14.1243 6.73192 14.3751C7.99279 14.6259 9.29972 14.4972 10.4874 14.0052C11.6752 13.5132 12.6903 12.6801 13.4046 11.6112C14.1188 10.5423 14.5 9.28558 14.5 8C14.4982 6.27665 13.8128 4.62441 12.5942 3.40582C11.3756 2.18722 9.72335 1.50182 8 1.5ZM8 13.5C6.91221 13.5 5.84884 13.1774 4.94437 12.5731C4.0399 11.9687 3.33495 11.1098 2.91867 10.1048C2.50238 9.09977 2.39347 7.9939 2.60568 6.927C2.8179 5.86011 3.34173 4.8801 4.11092 4.11091C4.8801 3.34172 5.86011 2.8179 6.92701 2.60568C7.9939 2.39346 9.09977 2.50238 10.1048 2.91866C11.1098 3.33494 11.9687 4.03989 12.5731 4.94436C13.1774 5.84883 13.5 6.9122 13.5 8C13.4983 9.45818 12.9184 10.8562 11.8873 11.8873C10.8562 12.9184 9.45819 13.4983 8 13.5ZM11.5 8C11.5 8.69223 11.2947 9.36892 10.9101 9.9445C10.5256 10.5201 9.97894 10.9687 9.33939 11.2336C8.69985 11.4985 7.99612 11.5678 7.31719 11.4327C6.63825 11.2977 6.01461 10.9644 5.52513 10.4749C5.03565 9.98539 4.7023 9.36175 4.56725 8.68282C4.43221 8.00388 4.50152 7.30015 4.76642 6.66061C5.03133 6.02107 5.47993 5.47444 6.05551 5.08986C6.63108 4.70527 7.30777 4.5 8 4.5C8.92796 4.50099 9.81762 4.87006 10.4738 5.52622C11.1299 6.18238 11.499 7.07205 11.5 8Z" fill="#008836"/>
</svg>
