<svg preserveAspectRatio="none" width="100%" height="100%" overflow="visible" style="display: block;" viewBox="0 0 16 16" fill="none" xmlns="http://www.w3.org/2000/svg">
<g id="Key">
<path id="Vector" d="M13.5356 2.46438C12.7414 1.66907 11.7024 1.16455 10.5863 1.03222C9.47015 0.899898 8.34198 1.14749 7.38384 1.73505C6.42569 2.32261 5.69345 3.21585 5.30528 4.27065C4.91711 5.32545 4.89566 6.48026 5.24438 7.54875L1.79313 11C1.69986 11.0925 1.62592 11.2027 1.5756 11.324C1.52528 11.4454 1.49958 11.5755 1.5 11.7069V13.5C1.5 13.7652 1.60536 14.0196 1.79289 14.2071C1.98043 14.3946 2.23478 14.5 2.5 14.5H4.5C4.63261 14.5 4.75979 14.4473 4.85355 14.3536C4.94732 14.2598 5 14.1326 5 14V13H6C6.13261 13 6.25979 12.9473 6.35355 12.8536C6.44732 12.7598 6.5 12.6326 6.5 12.5V11.5H7.5C7.56568 11.5001 7.63073 11.4872 7.69143 11.4621C7.75212 11.437 7.80728 11.4002 7.85375 11.3538L8.45125 10.7556C8.95137 10.9183 9.47409 11.0008 10 11H10.0063C10.9947 10.9988 11.9605 10.7047 12.7818 10.1548C13.6032 9.60493 14.2431 8.82396 14.6208 7.91056C14.9984 6.99716 15.0969 5.99231 14.9038 5.02297C14.7107 4.05362 14.2346 3.16326 13.5356 2.46438ZM14 6.13125C13.9319 8.26188 12.1406 9.9975 10.0069 10H10C9.49385 10.0009 8.99219 9.90519 8.52188 9.71813C8.42988 9.6782 8.32799 9.66686 8.22946 9.68558C8.13094 9.70431 8.04032 9.75223 7.96938 9.82313L7.29313 10.5H6C5.86739 10.5 5.74022 10.5527 5.64645 10.6464C5.55268 10.7402 5.5 10.8674 5.5 11V12H4.5C4.36739 12 4.24022 12.0527 4.14645 12.1464C4.05268 12.2402 4 12.3674 4 12.5V13.5H2.5V11.7069L6.17688 8.03063C6.24777 7.95969 6.29569 7.86907 6.31442 7.77054C6.33314 7.67201 6.3218 7.57013 6.28188 7.47813C6.09422 7.00624 5.99854 6.50283 6 5.995C6 3.86125 7.73812 2.07 9.86875 2.00188C10.416 1.98361 10.9613 2.07792 11.4706 2.27895C11.98 2.47998 12.4427 2.78346 12.83 3.17058C13.2173 3.5577 13.5209 4.02023 13.7222 4.5295C13.9235 5.03877 14.018 5.58395 14 6.13125ZM12 4.75C12 4.89834 11.956 5.04334 11.8736 5.16668C11.7912 5.29001 11.6741 5.38614 11.537 5.44291C11.4 5.49968 11.2492 5.51453 11.1037 5.48559C10.9582 5.45665 10.8246 5.38522 10.7197 5.28033C10.6148 5.17544 10.5434 5.0418 10.5144 4.89632C10.4855 4.75083 10.5003 4.60003 10.5571 4.46299C10.6139 4.32594 10.71 4.20881 10.8333 4.1264C10.9567 4.04399 11.1017 4 11.25 4C11.4489 4 11.6397 4.07902 11.7803 4.21967C11.921 4.36032 12 4.55109 12 4.75Z" fill="var(--fill-0, #181818)"/>
</g>
</svg>
