<svg preserveAspectRatio="none" width="100%" height="100%" overflow="visible" style="display: block;" viewBox="0 0 16 16" fill="none" xmlns="http://www.w3.org/2000/svg">
<g id="copy" clip-path="url(#clip0_0_12)">
<path id="Vector" d="M13.3333 6H7.33333C6.59695 6 6 6.59695 6 7.33333V13.3333C6 14.0697 6.59695 14.6667 7.33333 14.6667H13.3333C14.0697 14.6667 14.6667 14.0697 14.6667 13.3333V7.33333C14.6667 6.59695 14.0697 6 13.3333 6Z" stroke="var(--stroke-0, #008836)" stroke-width="1.25" stroke-linecap="round" stroke-linejoin="round"/>
<path id="Vector_2" d="M3.33333 10H2.66667C2.31304 10 1.97391 9.85952 1.72386 9.60948C1.47381 9.35943 1.33333 9.02029 1.33333 8.66667V2.66667C1.33333 2.31304 1.47381 1.97391 1.72386 1.72386C1.97391 1.47381 2.31304 1.33333 2.66667 1.33333H8.66667C9.02029 1.33333 9.35943 1.47381 9.60948 1.72386C9.85952 1.97391 10 2.31304 10 2.66667V3.33333" stroke="var(--stroke-0, #008836)" stroke-width="1.25" stroke-linecap="round" stroke-linejoin="round"/>
</g>
<defs>
<clipPath id="clip0_0_12">
<rect width="16" height="16" fill="white"/>
</clipPath>
</defs>
</svg>
