<svg preserveAspectRatio="none" width="100%" height="100%" overflow="visible" style="display: block;" viewBox="0 0 16 16" fill="none" xmlns="http://www.w3.org/2000/svg">
<g id="ShieldCheck">
<path id="Vector" d="M13 2.5H3C2.73478 2.5 2.48043 2.60536 2.29289 2.79289C2.10536 2.98043 2 3.23478 2 3.5V7C2 10.295 3.595 12.2919 4.93313 13.3869C6.37437 14.5656 7.80813 14.9656 7.87063 14.9825C7.95656 15.0059 8.04719 15.0059 8.13313 14.9825C8.19563 14.9656 9.6275 14.5656 11.0706 13.3869C12.405 12.2919 14 10.295 14 7V3.5C14 3.23478 13.8946 2.98043 13.7071 2.79289C13.5196 2.60536 13.2652 2.5 13 2.5ZM13 7C13 9.31687 12.1462 11.1975 10.4625 12.5887C9.72955 13.1923 8.89597 13.662 8 13.9762C7.11576 13.6675 6.29247 13.2061 5.5675 12.6131C3.86375 11.2194 3 9.33125 3 7V3.5H13V7ZM5.14625 8.85375C5.05243 8.75993 4.99972 8.63268 4.99972 8.5C4.99972 8.36732 5.05243 8.24007 5.14625 8.14625C5.24007 8.05243 5.36732 7.99972 5.5 7.99972C5.63268 7.99972 5.75993 8.05243 5.85375 8.14625L7 9.29313L10.1462 6.14625C10.1927 6.09979 10.2479 6.06294 10.3086 6.0378C10.3692 6.01266 10.4343 5.99972 10.5 5.99972C10.5657 5.99972 10.6308 6.01266 10.6914 6.0378C10.7521 6.06294 10.8073 6.09979 10.8538 6.14625C10.9002 6.1927 10.9371 6.24786 10.9622 6.30855C10.9873 6.36925 11.0003 6.4343 11.0003 6.5C11.0003 6.5657 10.9873 6.63075 10.9622 6.69145C10.9371 6.75214 10.9002 6.8073 10.8538 6.85375L7.35375 10.3538C7.30731 10.4002 7.25217 10.4371 7.19147 10.4623C7.13077 10.4874 7.06571 10.5004 7 10.5004C6.93429 10.5004 6.86923 10.4874 6.80853 10.4623C6.74783 10.4371 6.69269 10.4002 6.64625 10.3538L5.14625 8.85375Z" fill="var(--fill-0, #008836)"/>
</g>
</svg>
