<svg preserveAspectRatio="none" width="100%" height="100%" overflow="visible" style="display: block;" viewBox="0 0 16 16" fill="none" xmlns="http://www.w3.org/2000/svg">
<g id="CloudArrowDown">
<path id="Vector" d="M15.5 8C15.5031 9.19073 15.1168 10.3498 14.4 11.3006C14.3605 11.3532 14.3111 11.3974 14.2545 11.4308C14.1979 11.4642 14.1353 11.4862 14.0703 11.4954C14.0052 11.5046 13.939 11.501 13.8753 11.4846C13.8117 11.4682 13.7519 11.4395 13.6994 11.4C13.6468 11.3605 13.6026 11.3111 13.5692 11.2545C13.5358 11.1979 13.5138 11.1353 13.5046 11.0703C13.4954 11.0052 13.499 10.939 13.5154 10.8753C13.5318 10.8117 13.5605 10.7519 13.6 10.6994C14.1868 9.92203 14.5029 8.97394 14.5 8C14.5 6.80653 14.0259 5.66193 13.182 4.81802C12.3381 3.97411 11.1935 3.5 10 3.5C8.80653 3.5 7.66193 3.97411 6.81802 4.81802C5.97411 5.66193 5.5 6.80653 5.5 8C5.5 8.13261 5.44732 8.25979 5.35355 8.35355C5.25979 8.44732 5.13261 8.5 5 8.5C4.86739 8.5 4.74021 8.44732 4.64645 8.35355C4.55268 8.25979 4.5 8.13261 4.5 8C4.49976 7.49542 4.56895 6.99321 4.70563 6.5075C4.6375 6.5 4.56875 6.5 4.5 6.5C3.70435 6.5 2.94129 6.81607 2.37868 7.37868C1.81607 7.94129 1.5 8.70435 1.5 9.5C1.5 10.2956 1.81607 11.0587 2.37868 11.6213C2.94129 12.1839 3.70435 12.5 4.5 12.5H6C6.13261 12.5 6.25979 12.5527 6.35355 12.6464C6.44732 12.7402 6.5 12.8674 6.5 13C6.5 13.1326 6.44732 13.2598 6.35355 13.3536C6.25979 13.4473 6.13261 13.5 6 13.5H4.5C3.95011 13.5001 3.4061 13.3869 2.90194 13.1673C2.39779 12.9477 1.94432 12.6266 1.56986 12.2239C1.1954 11.8212 0.907985 11.3456 0.725574 10.8269C0.543162 10.3081 0.46967 9.75734 0.509687 9.20891C0.549704 8.66048 0.70237 8.12619 0.958151 7.63941C1.21393 7.15262 1.56733 6.72381 1.99628 6.37974C2.42523 6.03568 2.92052 5.78375 3.4512 5.6397C3.98189 5.49564 4.53658 5.46255 5.08063 5.5425C5.63462 4.43447 6.54646 3.54592 7.66845 3.02077C8.79044 2.49562 10.0569 2.36462 11.2626 2.649C12.4683 2.93338 13.5427 3.61648 14.3118 4.58766C15.0808 5.55883 15.4995 6.76119 15.5 8ZM11.1463 10.6463L10 11.7931V8C10 7.86739 9.94732 7.74021 9.85355 7.64645C9.75979 7.55268 9.63261 7.5 9.5 7.5C9.36739 7.5 9.24021 7.55268 9.14645 7.64645C9.05268 7.74021 9 7.86739 9 8V11.7931L7.85375 10.6463C7.75993 10.5524 7.63268 10.4997 7.5 10.4997C7.36732 10.4997 7.24007 10.5524 7.14625 10.6463C7.05243 10.7401 6.99972 10.8673 6.99972 11C6.99972 11.1327 7.05243 11.2599 7.14625 11.3538L9.14625 13.3538C9.19269 13.4002 9.24783 13.4371 9.30853 13.4623C9.36923 13.4874 9.43429 13.5004 9.5 13.5004C9.56571 13.5004 9.63077 13.4874 9.69147 13.4623C9.75217 13.4371 9.80731 13.4002 9.85375 13.3538L11.8538 11.3538C11.9476 11.2599 12.0003 11.1327 12.0003 11C12.0003 10.8673 11.9476 10.7401 11.8538 10.6463C11.7599 10.5524 11.6327 10.4997 11.5 10.4997C11.3673 10.4997 11.2401 10.5524 11.1463 10.6463Z" fill="var(--fill-0, #181818)"/>
</g>
</svg>
