<svg width="24" height="24" viewBox="0 0 24 24" fill="none" xmlns="http://www.w3.org/2000/svg">
<path d="M19.5 3.75H4.5C4.10218 3.75 3.72064 3.90804 3.43934 4.18934C3.15804 4.47064 3 4.85218 3 5.25V10.5C3 15.4425 5.3925 18.4378 7.39969 20.0803C9.56156 21.8484 11.7122 22.4484 11.8059 22.4738C11.9348 22.5088 12.0708 22.5088 12.1997 22.4738C12.2934 22.4484 14.4413 21.8484 16.6059 20.0803C18.6075 18.4378 21 15.4425 21 10.5V5.25C21 4.85218 20.842 4.47064 20.5607 4.18934C20.2794 3.90804 19.8978 3.75 19.5 3.75ZM16.2825 10.2806L11.0325 15.5306C10.9628 15.6004 10.8801 15.6557 10.7891 15.6934C10.698 15.7312 10.6004 15.7506 10.5019 15.7506C10.4033 15.7506 10.3057 15.7312 10.2147 15.6934C10.1236 15.6557 10.0409 15.6004 9.97125 15.5306L7.72125 13.2806C7.58052 13.1399 7.50146 12.949 7.50146 12.75C7.50146 12.551 7.58052 12.3601 7.72125 12.2194C7.86198 12.0786 8.05285 11.9996 8.25187 11.9996C8.4509 11.9996 8.64177 12.0786 8.7825 12.2194L10.5 13.9397L15.2194 9.21937C15.2891 9.14969 15.3718 9.09442 15.4628 9.0567C15.5539 9.01899 15.6515 8.99958 15.75 8.99958C15.8485 8.99958 15.9461 9.01899 16.0372 9.0567C16.1282 9.09442 16.2109 9.14969 16.2806 9.21937C16.3503 9.28906 16.4056 9.37178 16.4433 9.46283C16.481 9.55387 16.5004 9.65145 16.5004 9.75C16.5004 9.84855 16.481 9.94613 16.4433 10.0372C16.4056 10.1282 16.3503 10.2109 16.2806 10.2806H16.2825Z" fill="#008836"/>
</svg>
