<svg preserveAspectRatio="none" width="100%" height="100%" overflow="visible" style="display: block;" viewBox="0 0 16 16" fill="none" xmlns="http://www.w3.org/2000/svg">
<g id="Shield">
<path id="Vector" d="M13 2.5H3C2.73478 2.5 2.48043 2.60536 2.29289 2.79289C2.10536 2.98043 2 3.23478 2 3.5V7C2 10.295 3.595 12.2919 4.93313 13.3869C6.37437 14.5656 7.80813 14.9663 7.87063 14.9825C7.95656 15.0059 8.04719 15.0059 8.13313 14.9825C8.19563 14.9663 9.6275 14.5656 11.0706 13.3869C12.405 12.2919 14 10.295 14 7V3.5C14 3.23478 13.8946 2.98043 13.7071 2.79289C13.5196 2.60536 13.2652 2.5 13 2.5ZM13 7C13 9.31687 12.1462 11.1975 10.4625 12.5887C9.72955 13.1923 8.89597 13.662 8 13.9762C7.11576 13.6675 6.29247 13.2061 5.5675 12.6131C3.86375 11.2194 3 9.33125 3 7V3.5H13V7Z" fill="var(--fill-0, #181818)"/>
</g>
</svg>
