<svg width="16" height="16" viewBox="0 0 16 16" fill="none" xmlns="http://www.w3.org/2000/svg">
<path d="M5.5 8C5.5 7.86739 5.55268 7.74021 5.64645 7.64645C5.74021 7.55268 5.86739 7.5 6 7.5H7.5V6C7.5 5.86739 7.55268 5.74021 7.64645 5.64645C7.74021 5.55268 7.86739 5.5 8 5.5C8.13261 5.5 8.25979 5.55268 8.35355 5.64645C8.44732 5.74021 8.5 5.86739 8.5 6V7.5H10C10.1326 7.5 10.2598 7.55268 10.3536 7.64645C10.4473 7.74021 10.5 7.86739 10.5 8C10.5 8.13261 10.4473 8.25979 10.3536 8.35355C10.2598 8.44732 10.1326 8.5 10 8.5H8.5V10C8.5 10.1326 8.44732 10.2598 8.35355 10.3536C8.25979 10.4473 8.13261 10.5 8 10.5C7.86739 10.5 7.74021 10.4473 7.64645 10.3536C7.55268 10.2598 7.5 10.1326 7.5 10V8.5H6C5.86739 8.5 5.74021 8.44732 5.64645 8.35355C5.55268 8.25979 5.5 8.13261 5.5 8ZM14 3.5V7C14 10.295 12.405 12.2919 11.0669 13.3869C9.62563 14.5656 8.19188 14.9663 8.12938 14.9825C8.04344 15.0059 7.95281 15.0059 7.86688 14.9825C7.80438 14.9663 6.3725 14.5656 4.92938 13.3869C3.595 12.2919 2 10.295 2 7V3.5C2 3.23478 2.10536 2.98043 2.29289 2.79289C2.48043 2.60536 2.73478 2.5 3 2.5H13C13.2652 2.5 13.5196 2.60536 13.7071 2.79289C13.8946 2.98043 14 3.23478 14 3.5ZM13 3.5H3V7C3 9.33125 3.86375 11.2194 5.56687 12.6131C6.29203 13.2062 7.11553 13.6675 8 13.9762C8.89619 13.6621 9.72999 13.1924 10.4631 12.5887C12.1462 11.1975 13 9.31687 13 7V3.5Z" fill="#181818"/>
</svg>
