<svg width="16" height="16" viewBox="0 0 16 16" fill="none" xmlns="http://www.w3.org/2000/svg">
<path d="M8.38325 14.2667C8.11658 14.5333 7.79992 14.6667 7.43325 14.6667C7.06659 14.6667 6.74992 14.5333 6.48325 14.2667L1.71659 9.50001C1.46103 9.24445 1.33325 8.93057 1.33325 8.55834C1.33325 8.18612 1.46103 7.87223 1.71659 7.61668L7.58325 1.73334C7.70547 1.61112 7.84992 1.5139 8.01658 1.44168C8.18325 1.36945 8.36103 1.33334 8.54992 1.33334H13.3166C13.6833 1.33334 13.9971 1.4639 14.2583 1.72501C14.5194 1.98612 14.6499 2.30001 14.6499 2.66668V7.43334C14.6499 7.62223 14.6138 7.80001 14.5416 7.96668C14.4694 8.13334 14.3721 8.27779 14.2499 8.40001L8.38325 14.2667ZM11.6499 5.33334C11.9277 5.33334 12.1638 5.23612 12.3583 5.04168C12.5527 4.84723 12.6499 4.61112 12.6499 4.33334C12.6499 4.05557 12.5527 3.81945 12.3583 3.62501C12.1638 3.43057 11.9277 3.33334 11.6499 3.33334C11.3721 3.33334 11.136 3.43057 10.9416 3.62501C10.7471 3.81945 10.6499 4.05557 10.6499 4.33334C10.6499 4.61112 10.7471 4.84723 10.9416 5.04168C11.136 5.23612 11.3721 5.33334 11.6499 5.33334ZM7.43325 13.3333L13.3166 7.43334V2.66668H8.54992L2.66659 8.56668L7.43325 13.3333Z" fill="#666666"/>
</svg>
