<svg preserveAspectRatio="none" width="100%" height="100%" overflow="visible" style="display: block;" viewBox="0 0 16 16" fill="none" xmlns="http://www.w3.org/2000/svg">
<g id="SlidersHorizontal">
<path id="Vector" d="M2.5 5.5H4.5625C4.67265 5.93021 4.92285 6.31152 5.27365 6.58382C5.62446 6.85612 6.05591 7.00392 6.5 7.00392C6.94409 7.00392 7.37554 6.85612 7.72635 6.58382C8.07715 6.31152 8.32735 5.93021 8.4375 5.5H13.5C13.6326 5.5 13.7598 5.44732 13.8536 5.35355C13.9473 5.25979 14 5.13261 14 5C14 4.86739 13.9473 4.74021 13.8536 4.64645C13.7598 4.55268 13.6326 4.5 13.5 4.5H8.4375C8.32735 4.06979 8.07715 3.68848 7.72635 3.41618C7.37554 3.14388 6.94409 2.99608 6.5 2.99608C6.05591 2.99608 5.62446 3.14388 5.27365 3.41618C4.92285 3.68848 4.67265 4.06979 4.5625 4.5H2.5C2.36739 4.5 2.24021 4.55268 2.14645 4.64645C2.05268 4.74021 2 4.86739 2 5C2 5.13261 2.05268 5.25979 2.14645 5.35355C2.24021 5.44732 2.36739 5.5 2.5 5.5ZM6.5 4C6.69778 4 6.89112 4.05865 7.05557 4.16853C7.22002 4.27841 7.34819 4.43459 7.42388 4.61732C7.49957 4.80004 7.51937 5.00111 7.48079 5.19509C7.4422 5.38907 7.34696 5.56725 7.20711 5.70711C7.06725 5.84696 6.88907 5.9422 6.69509 5.98079C6.50111 6.01937 6.30004 5.99957 6.11732 5.92388C5.93459 5.84819 5.77841 5.72002 5.66853 5.55557C5.55865 5.39112 5.5 5.19778 5.5 5C5.5 4.73478 5.60536 4.48043 5.79289 4.29289C5.98043 4.10536 6.23478 4 6.5 4ZM13.5 10.5H12.4375C12.3273 10.0698 12.0771 9.68848 11.7263 9.41618C11.3755 9.14388 10.9441 8.99608 10.5 8.99608C10.0559 8.99608 9.62446 9.14388 9.27365 9.41618C8.92285 9.68848 8.67265 10.0698 8.5625 10.5H2.5C2.36739 10.5 2.24021 10.5527 2.14645 10.6464C2.05268 10.7402 2 10.8674 2 11C2 11.1326 2.05268 11.2598 2.14645 11.3536C2.24021 11.4473 2.36739 11.5 2.5 11.5H8.5625C8.67265 11.9302 8.92285 12.3115 9.27365 12.5838C9.62446 12.8561 10.0559 13.0039 10.5 13.0039C10.9441 13.0039 11.3755 12.8561 11.7263 12.5838C12.0771 12.3115 12.3273 11.9302 12.4375 11.5H13.5C13.6326 11.5 13.7598 11.4473 13.8536 11.3536C13.9473 11.2598 14 11.1326 14 11C14 10.8674 13.9473 10.7402 13.8536 10.6464C13.7598 10.5527 13.6326 10.5 13.5 10.5ZM10.5 12C10.3022 12 10.1089 11.9414 9.94443 11.8315C9.77998 11.7216 9.65181 11.5654 9.57612 11.3827C9.50043 11.2 9.48063 10.9989 9.51921 10.8049C9.5578 10.6109 9.65304 10.4327 9.79289 10.2929C9.93275 10.153 10.1109 10.0578 10.3049 10.0192C10.4989 9.98063 10.7 10.0004 10.8827 10.0761C11.0654 10.1518 11.2216 10.28 11.3315 10.4444C11.4414 10.6089 11.5 10.8022 11.5 11C11.5 11.2652 11.3946 11.5196 11.2071 11.7071C11.0196 11.8946 10.7652 12 10.5 12Z" fill="var(--fill-0, #181818)"/>
</g>
</svg>
