<svg width="16" height="16" viewBox="0 0 16 16" fill="none" xmlns="http://www.w3.org/2000/svg">
<path d="M8 8C8 8.13261 7.94732 8.25979 7.85355 8.35355C7.75979 8.44732 7.63261 8.5 7.5 8.5H3C2.86739 8.5 2.74021 8.44732 2.64645 8.35355C2.55268 8.25979 2.5 8.13261 2.5 8C2.5 7.86739 2.55268 7.74021 2.64645 7.64645C2.74021 7.55268 2.86739 7.5 3 7.5H7.5C7.63261 7.5 7.75979 7.55268 7.85355 7.64645C7.94732 7.74021 8 7.86739 8 8ZM3 4.5H11.5C11.6326 4.5 11.7598 4.44732 11.8536 4.35355C11.9473 4.25979 12 4.13261 12 4C12 3.86739 11.9473 3.74021 11.8536 3.64645C11.7598 3.55268 11.6326 3.5 11.5 3.5H3C2.86739 3.5 2.74021 3.55268 2.64645 3.64645C2.55268 3.74021 2.5 3.86739 2.5 4C2.5 4.13261 2.55268 4.25979 2.64645 4.35355C2.74021 4.44732 2.86739 4.5 3 4.5ZM6.5 11.5H3C2.86739 11.5 2.74021 11.5527 2.64645 11.6464C2.55268 11.7402 2.5 11.8674 2.5 12C2.5 12.1326 2.55268 12.2598 2.64645 12.3536C2.74021 12.4473 2.86739 12.5 3 12.5H6.5C6.63261 12.5 6.75979 12.4473 6.85355 12.3536C6.94732 12.2598 7 12.1326 7 12C7 11.8674 6.94732 11.7402 6.85355 11.6464C6.75979 11.5527 6.63261 11.5 6.5 11.5ZM14.3538 10.1462C14.3073 10.0998 14.2522 10.0629 14.1915 10.0377C14.1308 10.0126 14.0657 9.99961 14 9.99961C13.9343 9.99961 13.8692 10.0126 13.8085 10.0377C13.7478 10.0629 13.6927 10.0998 13.6462 10.1462L12 11.7931V7C12 6.86739 11.9473 6.74021 11.8536 6.64645C11.7598 6.55268 11.6326 6.5 11.5 6.5C11.3674 6.5 11.2402 6.55268 11.1464 6.64645C11.0527 6.74021 11 6.86739 11 7V11.7931L9.35375 10.1462C9.25993 10.0524 9.13268 9.99972 9 9.99972C8.86732 9.99972 8.74007 10.0524 8.64625 10.1462C8.55243 10.2401 8.49972 10.3673 8.49972 10.5C8.49972 10.6327 8.55243 10.7599 8.64625 10.8538L11.1462 13.3538C11.1927 13.4002 11.2478 13.4371 11.3085 13.4623C11.3692 13.4874 11.4343 13.5004 11.5 13.5004C11.5657 13.5004 11.6308 13.4874 11.6915 13.4623C11.7522 13.4371 11.8073 13.4002 11.8538 13.3538L14.3538 10.8538C14.4002 10.8073 14.4371 10.7522 14.4623 10.6915C14.4874 10.6308 14.5004 10.5657 14.5004 10.5C14.5004 10.4343 14.4874 10.3692 14.4623 10.3085C14.4371 10.2478 14.4002 10.1927 14.3538 10.1462Z" fill="#666666"/>
</svg>
