<svg xmlns="http://www.w3.org/2000/svg" width="32" height="32" viewBox="0 0 256 256"><!-- Icon from Phosphor by Phosphor Icons - https://github.com/phosphor-icons/core/blob/main/LICENSE --><path fill="currentColor" d="M40 128a8 8 0 0 1 8-8h72a8 8 0 0 1 0 16H48a8 8 0 0 1-8-8m8-56h56a8 8 0 0 0 0-16H48a8 8 0 0 0 0 16m136 112H48a8 8 0 0 0 0 16h136a8 8 0 0 0 0-16m45.66-101.66l-40-40a8 8 0 0 0-11.32 0l-40 40a8 8 0 0 0 11.32 11.32L176 67.31V144a8 8 0 0 0 16 0V67.31l26.34 26.35a8 8 0 0 0 11.32-11.32"/></svg>