<svg width="16" height="16" viewBox="0 0 16 16" fill="none" xmlns="http://www.w3.org/2000/svg">
<path d="M9.71937 1.55052C9.63529 1.50955 9.5414 1.49299 9.44838 1.50271C9.35535 1.51243 9.26692 1.54805 9.19312 1.60552L4.82812 4.9999H2C1.73478 4.9999 1.48043 5.10526 1.29289 5.29279C1.10536 5.48033 1 5.73468 1 5.9999V9.9999C1 10.2651 1.10536 10.5195 1.29289 10.707C1.48043 10.8945 1.73478 10.9999 2 10.9999H4.82812L9.19312 14.3943C9.26699 14.4517 9.35548 14.4872 9.44855 14.4969C9.54161 14.5065 9.63551 14.4898 9.71956 14.4487C9.80362 14.4077 9.87446 14.3438 9.92404 14.2645C9.97361 14.1851 9.99993 14.0935 10 13.9999V1.9999C10 1.90623 9.97371 1.81444 9.9241 1.73499C9.87448 1.65554 9.80355 1.59162 9.71937 1.55052ZM2 5.9999H4.5V9.9999H2V5.9999ZM9 12.9774L5.5 10.2555V5.74427L9 3.0224V12.9774ZM12.375 6.3474C12.7772 6.80395 12.999 7.39148 12.999 7.9999C12.999 8.60832 12.7772 9.19585 12.375 9.6524C12.2867 9.74946 12.1637 9.8079 12.0327 9.81511C11.9016 9.82231 11.773 9.77771 11.6745 9.69091C11.5761 9.60411 11.5157 9.48209 11.5065 9.35118C11.4972 9.22026 11.5398 9.09095 11.625 8.99115C11.8662 8.71725 11.9992 8.36484 11.9992 7.9999C11.9992 7.63496 11.8662 7.28255 11.625 7.00865C11.5398 6.90885 11.4972 6.77954 11.5065 6.64862C11.5157 6.51771 11.5761 6.39568 11.6745 6.30889C11.773 6.22209 11.9016 6.17749 12.0327 6.18469C12.1637 6.1919 12.2867 6.25033 12.375 6.3474ZM15.5 7.9999C15.5007 9.23003 15.0474 10.4171 14.2269 11.3336C14.1378 11.43 14.0144 11.4875 13.8833 11.4937C13.7522 11.4999 13.624 11.4544 13.5262 11.3668C13.4284 11.2793 13.369 11.1569 13.3607 11.0259C13.3524 10.8949 13.3959 10.7659 13.4819 10.6668C14.1378 9.93342 14.5004 8.98407 14.5004 8.00021C14.5004 7.01635 14.1378 6.067 13.4819 5.33365C13.4369 5.28494 13.402 5.22775 13.3793 5.16543C13.3566 5.10311 13.3465 5.03689 13.3496 4.97063C13.3528 4.90438 13.3691 4.83941 13.3976 4.77951C13.426 4.71961 13.4662 4.66598 13.5156 4.62174C13.565 4.5775 13.6227 4.54354 13.6854 4.52183C13.7481 4.50012 13.8145 4.4911 13.8807 4.49529C13.9469 4.49948 14.0116 4.5168 14.071 4.54624C14.1304 4.57568 14.1834 4.61666 14.2269 4.66677C15.0476 5.58291 15.501 6.76991 15.5 7.9999Z" fill="#181818"/>
</svg>
