<svg preserveAspectRatio="none" width="100%" height="100%" overflow="visible" style="display: block;" viewBox="0 0 16 16" fill="none" xmlns="http://www.w3.org/2000/svg">
<g id="SquaresFour">
<path id="Vector" d="M6.5 2.5H3.5C3.23478 2.5 2.98043 2.60536 2.79289 2.79289C2.60536 2.98043 2.5 3.23478 2.5 3.5V6.5C2.5 6.76522 2.60536 7.01957 2.79289 7.20711C2.98043 7.39464 3.23478 7.5 3.5 7.5H6.5C6.76522 7.5 7.01957 7.39464 7.20711 7.20711C7.39464 7.01957 7.5 6.76522 7.5 6.5V3.5C7.5 3.23478 7.39464 2.98043 7.20711 2.79289C7.01957 2.60536 6.76522 2.5 6.5 2.5ZM6.5 6.5H3.5V3.5H6.5V6.5ZM12.5 2.5H9.5C9.23478 2.5 8.98043 2.60536 8.79289 2.79289C8.60536 2.98043 8.5 3.23478 8.5 3.5V6.5C8.5 6.76522 8.60536 7.01957 8.79289 7.20711C8.98043 7.39464 9.23478 7.5 9.5 7.5H12.5C12.7652 7.5 13.0196 7.39464 13.2071 7.20711C13.3946 7.01957 13.5 6.76522 13.5 6.5V3.5C13.5 3.23478 13.3946 2.98043 13.2071 2.79289C13.0196 2.60536 12.7652 2.5 12.5 2.5ZM12.5 6.5H9.5V3.5H12.5V6.5ZM6.5 8.5H3.5C3.23478 8.5 2.98043 8.60536 2.79289 8.79289C2.60536 8.98043 2.5 9.23478 2.5 9.5V12.5C2.5 12.7652 2.60536 13.0196 2.79289 13.2071C2.98043 13.3946 3.23478 13.5 3.5 13.5H6.5C6.76522 13.5 7.01957 13.3946 7.20711 13.2071C7.39464 13.0196 7.5 12.7652 7.5 12.5V9.5C7.5 9.23478 7.39464 8.98043 7.20711 8.79289C7.01957 8.60536 6.76522 8.5 6.5 8.5ZM6.5 12.5H3.5V9.5H6.5V12.5ZM12.5 8.5H9.5C9.23478 8.5 8.98043 8.60536 8.79289 8.79289C8.60536 8.98043 8.5 9.23478 8.5 9.5V12.5C8.5 12.7652 8.60536 13.0196 8.79289 13.2071C8.98043 13.3946 9.23478 13.5 9.5 13.5H12.5C12.7652 13.5 13.0196 13.3946 13.2071 13.2071C13.3946 13.0196 13.5 12.7652 13.5 12.5V9.5C13.5 9.23478 13.3946 8.98043 13.2071 8.79289C13.0196 8.60536 12.7652 8.5 12.5 8.5ZM12.5 12.5H9.5V9.5H12.5V12.5Z" fill="var(--fill-0, #181818)"/>
</g>
</svg>
