<svg preserveAspectRatio="none" width="100%" height="100%" overflow="visible" style="display: block;" viewBox="0 0 16 16" fill="none" xmlns="http://www.w3.org/2000/svg">
<g id="Swatches">
<path id="Vector" d="M5.5 11.25C5.5 11.3983 5.45601 11.5433 5.3736 11.6667C5.29119 11.79 5.17406 11.8861 5.03701 11.9429C4.89997 11.9997 4.74917 12.0145 4.60368 11.9856C4.4582 11.9566 4.32456 11.8852 4.21967 11.7803C4.11478 11.6754 4.04335 11.5418 4.01441 11.3963C3.98547 11.2508 4.00032 11.1 4.05709 10.963C4.11386 10.8259 4.20999 10.7088 4.33332 10.6264C4.45666 10.544 4.60166 10.5 4.75 10.5C4.94891 10.5 5.13968 10.579 5.28033 10.7197C5.42098 10.8603 5.5 11.0511 5.5 11.25ZM15 9.76187V13C15 13.2652 14.8946 13.5196 14.7071 13.7071C14.5196 13.8946 14.2652 14 14 14H4.75C4.58367 14.0001 4.41764 13.9859 4.25375 13.9575C3.53877 13.8271 2.9045 13.4189 2.48956 12.8222C2.07463 12.2255 1.91277 11.4888 2.03938 10.7731L3.60188 1.8275C3.62408 1.69824 3.6716 1.57464 3.74169 1.46378C3.81178 1.35293 3.90307 1.257 4.01033 1.18151C4.11758 1.10603 4.23868 1.05246 4.36669 1.02388C4.49469 0.995307 4.62708 0.992289 4.75625 1.015L8.1775 1.625C8.43782 1.67191 8.66895 1.82005 8.82029 2.03699C8.97163 2.25393 9.03085 2.52199 8.985 2.7825L8.23 7.095L12.4681 5.5625C12.7166 5.47277 12.9904 5.48497 13.2299 5.59645C13.4693 5.70793 13.655 5.90962 13.7463 6.1575L14.9375 9.41812C14.9758 9.52884 14.9968 9.64477 15 9.76187ZM6.4375 11.5544L8 2.60875L4.59125 2L3.02875 10.9438C2.94717 11.3987 3.04886 11.8674 3.31162 12.2476C3.57438 12.6278 3.97688 12.8886 4.43125 12.9731C4.65368 13.013 4.88182 13.0083 5.10242 12.9593C5.32301 12.9102 5.53166 12.8179 5.71625 12.6875C5.90556 12.5558 6.0668 12.3879 6.19062 12.1933C6.31444 11.9988 6.39836 11.7816 6.4375 11.5544ZM7.29875 12.1875L14 9.75687L12.8075 6.5L8.03125 8.23125L7.42 11.7262C7.39283 11.8832 7.35226 12.0375 7.29875 12.1875ZM14 10.82L7.98375 13H14V10.82Z" fill="var(--fill-0, #181818)"/>
</g>
</svg>
