<svg width="16" height="18" viewBox="0 0 16 18" fill="none" xmlns="http://www.w3.org/2000/svg">
<path d="M13.9937 16L11.3632 13.3695C11.1396 13.4989 10.9072 13.6166 10.6662 13.7226C10.4247 13.8285 10.1686 13.9168 9.89786 13.9874V12.5044C9.96847 12.4809 10.0391 12.4545 10.1097 12.4253C10.1803 12.3957 10.2509 12.3632 10.3216 12.3279L4.67213 6.67844C4.54266 6.97268 4.43956 7.27586 4.36282 7.58799C4.28656 7.89965 4.24842 8.22026 4.24842 8.54981C4.24842 9.07944 4.34847 9.59425 4.54855 10.0942C4.74863 10.5947 5.06053 11.0567 5.48424 11.4805L5.66078 11.657V9.92686H7.07314V14.1639H2.83607V12.7516H4.77806L4.49559 12.5044C3.91887 11.9277 3.49799 11.3011 3.23294 10.6246C2.96836 9.94757 2.83607 9.25599 2.83607 8.54981C2.83607 8.02018 2.90362 7.51102 3.03874 7.02235C3.17433 6.53414 3.37158 6.0723 3.63052 5.63682L1 3.0063L2.00631 2L15 14.9937L13.9937 16ZM13.3758 11.3569L12.3165 10.2976C12.446 10.0151 12.546 9.72089 12.6166 9.41488C12.6873 9.10887 12.7226 8.79697 12.7226 8.47919C12.7226 7.94956 12.6225 7.43452 12.4224 6.93407C12.2224 6.4341 11.9105 5.97226 11.4868 5.54855L11.3102 5.372V7.10214H9.89786V2.86507H14.1349V4.27743H12.1929L12.4754 4.52459C13.0521 5.1013 13.473 5.72792 13.7381 6.40444C14.0026 7.08143 14.1349 7.77301 14.1349 8.47919C14.1349 9.00883 14.0671 9.51186 13.9316 9.9883C13.7964 10.4652 13.6112 10.9214 13.3758 11.3569ZM6.7024 4.68348L5.64313 3.62421C5.86675 3.49475 6.09626 3.38293 6.33165 3.28878C6.56704 3.19462 6.81421 3.11223 7.07314 3.04161V4.52459C7.01429 4.54813 6.95262 4.57167 6.88812 4.59521C6.82315 4.61875 6.76124 4.64817 6.7024 4.68348Z" fill="#858585"/>
</svg>
