<svg preserveAspectRatio="none" width="100%" height="100%" overflow="visible" style="display: block;" viewBox="0 0 16 16" fill="none" xmlns="http://www.w3.org/2000/svg">
<g id="TelegramLogo">
<path id="Vector" d="M14.305 1.63688C14.2275 1.56998 14.1333 1.52549 14.0324 1.5082C13.9315 1.49091 13.8278 1.50147 13.7325 1.53875L1.06625 6.49562C0.88674 6.56543 0.734765 6.69166 0.633203 6.85531C0.531641 7.01896 0.48599 7.21117 0.503122 7.40301C0.520254 7.59485 0.599243 7.77593 0.728196 7.919C0.857149 8.06206 1.02909 8.15936 1.21812 8.19625L4.5 8.84062V12.5C4.49935 12.6993 4.55859 12.8942 4.67003 13.0595C4.78146 13.2248 4.93997 13.3528 5.125 13.4269C5.30974 13.5023 5.51291 13.5204 5.70809 13.4788C5.90326 13.4373 6.08141 13.3379 6.21938 13.1938L7.80188 11.5525L10.3125 13.75C10.4936 13.9107 10.7273 13.9996 10.9694 14C11.0755 13.9999 11.1809 13.9833 11.2819 13.9506C11.4468 13.8983 11.5952 13.8036 11.7122 13.6761C11.8292 13.5486 11.9108 13.3926 11.9487 13.2238L14.4856 2.1875C14.5083 2.08797 14.5035 1.98414 14.4717 1.88714C14.4399 1.79014 14.3822 1.70363 14.305 1.63688ZM10.4838 3.88688L4.88438 7.89687L1.78437 7.28875L10.4838 3.88688ZM5.5 12.5V9.5325L7.04937 10.8913L5.5 12.5ZM10.9706 13L5.80312 8.46875L13.2406 3.13812L10.9706 13Z" fill="var(--fill-0, #181818)"/>
</g>
</svg>
