<svg width="16" height="16" viewBox="0 0 16 16" fill="none" xmlns="http://www.w3.org/2000/svg">
<path d="M5.45255 3.28681C5.41217 3.20091 5.34817 3.12828 5.26804 3.0774C5.18792 3.02653 5.09496 2.99951 5.00005 2.99951C4.90513 2.99951 4.81218 3.02653 4.73205 3.0774C4.65192 3.12828 4.58792 3.20091 4.54755 3.28681L0.547545 11.7868C0.519599 11.8462 0.503629 11.9106 0.50055 11.9762C0.497471 12.0418 0.507341 12.1073 0.529598 12.1691C0.574549 12.2939 0.667222 12.3957 0.787233 12.4521C0.907243 12.5086 1.04476 12.515 1.16953 12.4701C1.2943 12.4251 1.3961 12.3324 1.45255 12.2124L2.4938 9.99993H7.5063L8.54755 12.2124C8.57549 12.2719 8.61487 12.3252 8.66343 12.3694C8.71199 12.4136 8.76878 12.4478 8.83056 12.4701C8.89234 12.4923 8.9579 12.5022 9.02349 12.4991C9.08909 12.496 9.15343 12.4801 9.21286 12.4521C9.27228 12.4242 9.32562 12.3848 9.36982 12.3362C9.41403 12.2877 9.44824 12.2309 9.47049 12.1691C9.49275 12.1073 9.50262 12.0418 9.49954 11.9762C9.49646 11.9106 9.48049 11.8462 9.45255 11.7868L5.45255 3.28681ZM2.96442 8.99993L5.00005 4.67431L7.03567 8.99993H2.96442ZM12.5 5.99993C11.7025 5.99993 11.0794 6.21681 10.6482 6.64493C10.5579 6.73905 10.5079 6.86473 10.509 6.99515C10.5101 7.12557 10.5621 7.25041 10.6539 7.34304C10.7457 7.43567 10.8701 7.48876 11.0005 7.49098C11.1309 7.4932 11.257 7.44438 11.3519 7.35493C11.5894 7.11931 11.9769 6.99993 12.5 6.99993C13.3269 6.99993 14 7.56243 14 8.24993V8.45118C13.5563 8.15432 13.0339 7.99715 12.5 7.99993C11.1213 7.99993 10 9.00931 10 10.2499C10 11.4906 11.1213 12.4999 12.5 12.4999C13.0341 12.5023 13.5566 12.3444 14 12.0468C14.0063 12.1794 14.0649 12.3041 14.1631 12.3935C14.2612 12.4829 14.3909 12.5296 14.5235 12.5234C14.6561 12.5172 14.7808 12.4585 14.8702 12.3603C14.9595 12.2622 15.0063 12.1325 15 11.9999V8.24993C15 7.00931 13.8788 5.99993 12.5 5.99993ZM12.5 11.4999C11.6732 11.4999 11 10.9374 11 10.2499C11 9.56243 11.6732 8.99993 12.5 8.99993C13.3269 8.99993 14 9.56243 14 10.2499C14 10.9374 13.3269 11.4999 12.5 11.4999Z" fill="#181818"/>
</svg>
