<svg width="27" height="16" viewBox="0 0 27 16" fill="none" xmlns="http://www.w3.org/2000/svg">
<path d="M7.875 14.8574C6 14.8574 4.40625 14.1907 3.09375 12.8574C1.78125 11.524 1.125 9.90497 1.125 8.00021C1.125 6.09545 1.78125 4.4764 3.09375 3.14307C4.40625 1.80973 6 1.14307 7.875 1.14307H19.125C21 1.14307 22.5938 1.80973 23.9062 3.14307C25.2188 4.4764 25.875 6.09545 25.875 8.00021C25.875 9.90497 25.2188 11.524 23.9062 12.8574C22.5938 14.1907 21 14.8574 19.125 14.8574H7.875ZM7.875 11.4288C8.8125 11.4288 9.60938 11.0954 10.2656 10.4288C10.9219 9.76211 11.25 8.95259 11.25 8.00021C11.25 7.04783 10.9219 6.2383 10.2656 5.57164C9.60938 4.90497 8.8125 4.57164 7.875 4.57164C6.9375 4.57164 6.14062 4.90497 5.48438 5.57164C4.82812 6.2383 4.5 7.04783 4.5 8.00021C4.5 8.95259 4.82812 9.76211 5.48438 10.4288C6.14062 11.0954 6.9375 11.4288 7.875 11.4288Z" fill="#DADADA"/>
</svg>
