<svg width="27" height="16" viewBox="0 0 27 16" fill="none" xmlns="http://www.w3.org/2000/svg">
<path d="M19.125 14.8574C21 14.8574 22.5938 14.1907 23.9062 12.8574C25.2187 11.524 25.875 9.90497 25.875 8.00021C25.875 6.09545 25.2187 4.4764 23.9062 3.14307C22.5938 1.80973 21 1.14307 19.125 1.14307H7.875C6 1.14307 4.40625 1.80973 3.09375 3.14307C1.78125 4.4764 1.125 6.09545 1.125 8.00021C1.125 9.90497 1.78125 11.524 3.09375 12.8574C4.40625 14.1907 6 14.8574 7.875 14.8574H19.125ZM19.125 11.4288C18.1875 11.4288 17.3906 11.0954 16.7344 10.4288C16.0781 9.76211 15.75 8.95259 15.75 8.00021C15.75 7.04783 16.0781 6.2383 16.7344 5.57164C17.3906 4.90497 18.1875 4.57164 19.125 4.57164C20.0625 4.57164 20.8594 4.90497 21.5156 5.57164C22.1719 6.2383 22.5 7.04783 22.5 8.00021C22.5 8.95259 22.1719 9.76211 21.5156 10.4288C20.8594 11.0954 20.0625 11.4288 19.125 11.4288Z" fill="#008836"/>
</svg>
