<svg width="16" height="16" viewBox="0 0 16 16" fill="none" xmlns="http://www.w3.org/2000/svg">
<path d="M2 4H3.33333H14" stroke="#666666" stroke-width="1.25" stroke-linecap="round" stroke-linejoin="round"/>
<path d="M12.6668 4.00001V13.3333C12.6668 13.687 12.5264 14.0261 12.2763 14.2762C12.0263 14.5262 11.6871 14.6667 11.3335 14.6667H4.66683C4.31321 14.6667 3.97407 14.5262 3.72402 14.2762C3.47397 14.0261 3.3335 13.687 3.3335 13.3333V4.00001M5.3335 4.00001V2.66668C5.3335 2.31305 5.47397 1.97392 5.72402 1.72387C5.97407 1.47382 6.31321 1.33334 6.66683 1.33334H9.3335C9.68712 1.33334 10.0263 1.47382 10.2763 1.72387C10.5264 1.97392 10.6668 2.31305 10.6668 2.66668V4.00001" stroke="#666666" stroke-width="1.25" stroke-linecap="round" stroke-linejoin="round"/>
</svg>
