<svg width="16" height="16" viewBox="0 0 16 16" fill="none" xmlns="http://www.w3.org/2000/svg">
<path d="M6.6665 1.33337L5.99984 2.00004H2.6665V3.33337H3.33317V13.3334C3.33317 13.6815 3.46072 14.0364 3.71208 14.2878C3.96343 14.5392 4.31836 14.6667 4.6665 14.6667H11.3332C11.6813 14.6667 12.0362 14.5392 12.2876 14.2878C12.539 14.0364 12.6665 13.6815 12.6665 13.3334V3.33337H13.3332V2.00004H9.99984L9.33317 1.33337H6.6665ZM4.6665 3.33337H11.3332V13.3334H4.6665V3.33337ZM5.99984 4.66671V12H7.33317V4.66671H5.99984ZM8.6665 4.66671V12H9.99984V4.66671H8.6665Z" fill="#FB2C36"/>
</svg>
