<svg width="16" height="16" viewBox="0 0 16 16" fill="none" xmlns="http://www.w3.org/2000/svg">
<path d="M13 2H3C2.73478 2 2.48043 2.10536 2.29289 2.29289C2.10536 2.48043 2 2.73478 2 3V13C2 13.2652 2.10536 13.5196 2.29289 13.7071C2.48043 13.8946 2.73478 14 3 14H13C13.2652 14 13.5196 13.8946 13.7071 13.7071C13.8946 13.5196 14 13.2652 14 13V3C14 2.73478 13.8946 2.48043 13.7071 2.29289C13.5196 2.10536 13.2652 2 13 2ZM13 3V9.5H11.2063C11.075 9.49966 10.945 9.5254 10.8237 9.57572C10.7025 9.62604 10.5924 9.69994 10.5 9.79313L9.29313 11H6.70687L5.5 9.79313C5.40748 9.69986 5.29734 9.62592 5.17599 9.5756C5.05464 9.52528 4.9245 9.49958 4.79313 9.5H3V3H13ZM13 13H3V10.5H4.79313L6 11.7069C6.09252 11.8001 6.20266 11.8741 6.32401 11.9244C6.44536 11.9747 6.5755 12.0004 6.70687 12H9.29313C9.4245 12.0004 9.55464 11.9747 9.67599 11.9244C9.79734 11.8741 9.90748 11.8001 10 11.7069L11.2069 10.5H13V13ZM5.64625 7.85375C5.55243 7.75993 5.49972 7.63268 5.49972 7.5C5.49972 7.36732 5.55243 7.24007 5.64625 7.14625C5.74007 7.05243 5.86732 6.99972 6 6.99972C6.13268 6.99972 6.25993 7.05243 6.35375 7.14625L7.5 8.29313V4.5C7.5 4.36739 7.55268 4.24021 7.64645 4.14645C7.74021 4.05268 7.86739 4 8 4C8.13261 4 8.25979 4.05268 8.35355 4.14645C8.44732 4.24021 8.5 4.36739 8.5 4.5V8.29313L9.64625 7.14625C9.6927 7.09979 9.74786 7.06294 9.80855 7.0378C9.86925 7.01266 9.9343 6.99972 10 6.99972C10.0657 6.99972 10.1308 7.01266 10.1914 7.0378C10.2521 7.06294 10.3073 7.09979 10.3538 7.14625C10.4002 7.1927 10.4371 7.24786 10.4622 7.30855C10.4873 7.36925 10.5003 7.4343 10.5003 7.5C10.5003 7.5657 10.4873 7.63075 10.4622 7.69145C10.4371 7.75214 10.4002 7.8073 10.3538 7.85375L8.35375 9.85375C8.30731 9.90024 8.25217 9.93712 8.19147 9.96228C8.13077 9.98744 8.06571 10.0004 8 10.0004C7.93429 10.0004 7.86923 9.98744 7.80853 9.96228C7.74783 9.93712 7.69269 9.90024 7.64625 9.85375L5.64625 7.85375Z" fill="#181818"/>
</svg>
