<svg width="16" height="16" viewBox="0 0 16 16" fill="none" xmlns="http://www.w3.org/2000/svg">
<path d="M14 8.99991V12.9999C14 13.1325 13.9473 13.2597 13.8536 13.3535C13.7598 13.4472 13.6326 13.4999 13.5 13.4999H2.5C2.36739 13.4999 2.24021 13.4472 2.14645 13.3535C2.05268 13.2597 2 13.1325 2 12.9999V8.99991C2 8.8673 2.05268 8.74012 2.14645 8.64635C2.24021 8.55258 2.36739 8.49991 2.5 8.49991C2.63261 8.49991 2.75979 8.55258 2.85355 8.64635C2.94732 8.74012 3 8.8673 3 8.99991V12.4999H13V8.99991C13 8.8673 13.0527 8.74012 13.1464 8.64635C13.2402 8.55258 13.3674 8.49991 13.5 8.49991C13.6326 8.49991 13.7598 8.55258 13.8536 8.64635C13.9473 8.74012 14 8.8673 14 8.99991ZM5.85375 4.85366L7.5 3.20678V8.99991C7.5 9.13251 7.55268 9.25969 7.64645 9.35346C7.74021 9.44723 7.86739 9.4999 8 9.4999C8.13261 9.4999 8.25979 9.44723 8.35355 9.35346C8.44732 9.25969 8.5 9.13251 8.5 8.99991V3.20678L10.1462 4.85366C10.2401 4.94748 10.3673 5.00018 10.5 5.00018C10.6327 5.00018 10.7599 4.94748 10.8538 4.85366C10.9476 4.75984 11.0003 4.63259 11.0003 4.49991C11.0003 4.36722 10.9476 4.23998 10.8538 4.14615L8.35375 1.64615C8.30731 1.59967 8.25217 1.56279 8.19147 1.53763C8.13077 1.51246 8.06571 1.49951 8 1.49951C7.93429 1.49951 7.86923 1.51246 7.80853 1.53763C7.74783 1.56279 7.69269 1.59967 7.64625 1.64615L5.14625 4.14615C5.05243 4.23998 4.99972 4.36722 4.99972 4.49991C4.99972 4.63259 5.05243 4.75984 5.14625 4.85366C5.24007 4.94748 5.36732 5.00018 5.5 5.00018C5.63268 5.00018 5.75993 4.94748 5.85375 4.85366Z" fill="#181818"/>
</svg>
