<svg preserveAspectRatio="none" width="100%" height="100%" overflow="visible" style="display: block;" viewBox="0 0 16 16" fill="none" xmlns="http://www.w3.org/2000/svg">
<g id="GearSix">
<path id="Vector" d="M8 5C7.40666 5 6.82664 5.17595 6.33329 5.50559C5.83994 5.83524 5.45542 6.30377 5.22836 6.85195C5.0013 7.40013 4.94189 8.00333 5.05764 8.58527C5.1734 9.16721 5.45912 9.70176 5.87868 10.1213C6.29824 10.5409 6.83279 10.8266 7.41473 10.9424C7.99667 11.0581 8.59987 10.9987 9.14805 10.7716C9.69623 10.5446 10.1648 10.1601 10.4944 9.66671C10.8241 9.17336 11 8.59334 11 8C10.9992 7.2046 10.6828 6.44202 10.1204 5.87959C9.55798 5.31716 8.7954 5.00083 8 5ZM8 10C7.60444 10 7.21776 9.8827 6.88886 9.66294C6.55996 9.44318 6.30362 9.13082 6.15224 8.76537C6.00087 8.39991 5.96126 7.99778 6.03843 7.60982C6.1156 7.22186 6.30608 6.86549 6.58579 6.58579C6.86549 6.30608 7.22186 6.1156 7.60982 6.03843C7.99778 5.96126 8.39991 6.00087 8.76537 6.15224C9.13082 6.30362 9.44318 6.55996 9.66294 6.88886C9.8827 7.21776 10 7.60444 10 8C10 8.53043 9.78929 9.03914 9.41421 9.41421C9.03914 9.78929 8.53043 10 8 10ZM14.8713 6.70063C14.8573 6.63022 14.8284 6.56363 14.7864 6.50539C14.7445 6.44716 14.6905 6.39863 14.6281 6.36313L12.7638 5.30062L12.7563 3.19938C12.756 3.12701 12.7401 3.05555 12.7096 2.98995C12.679 2.92434 12.6346 2.86614 12.5794 2.81938C11.9031 2.24731 11.1243 1.80892 10.2844 1.5275C10.2182 1.50511 10.1481 1.49683 10.0786 1.50318C10.0091 1.50953 9.94162 1.53038 9.88063 1.56438L8 2.61563L6.1175 1.5625C6.05647 1.52831 5.98895 1.50731 5.91929 1.50085C5.84964 1.49439 5.7794 1.50262 5.71312 1.525C4.87384 1.80847 4.09593 2.24854 3.42062 2.82188C3.36548 2.86857 3.32111 2.92667 3.29058 2.99216C3.26004 3.05766 3.24407 3.12899 3.24375 3.20125L3.23438 5.30438L1.37 6.36688C1.30763 6.40239 1.25363 6.45091 1.21168 6.50914C1.16972 6.56738 1.1408 6.63397 1.12688 6.70438C0.956248 7.5618 0.956248 8.44445 1.12688 9.30188C1.1408 9.37228 1.16972 9.43887 1.21168 9.49711C1.25363 9.55534 1.30763 9.60387 1.37 9.63938L3.23438 10.7019L3.24187 12.8031C3.2421 12.8755 3.25803 12.9469 3.28857 13.0126C3.31911 13.0782 3.36352 13.1364 3.41875 13.1831C4.09504 13.7552 4.87385 14.1936 5.71375 14.475C5.77989 14.4974 5.84999 14.5057 5.91953 14.4993C5.98907 14.493 6.05651 14.4721 6.1175 14.4381L8 13.3844L9.8825 14.4375C9.957 14.479 10.041 14.5005 10.1263 14.5C10.1809 14.5 10.2351 14.4911 10.2869 14.4738C11.1261 14.1907 11.904 13.751 12.5794 13.1781C12.6345 13.1314 12.6789 13.0733 12.7094 13.0078C12.74 12.9423 12.7559 12.871 12.7563 12.7988L12.7656 10.6956L14.63 9.63313C14.6924 9.59762 14.7464 9.54909 14.7883 9.49086C14.8303 9.43262 14.8592 9.36603 14.8731 9.29563C15.0428 8.43888 15.0422 7.55712 14.8713 6.70063ZM13.9338 8.8825L12.1481 9.89813C12.0699 9.94261 12.0051 10.0074 11.9606 10.0856C11.9244 10.1481 11.8863 10.2144 11.8475 10.2769C11.7979 10.3557 11.7715 10.4469 11.7713 10.54L11.7619 12.5556C11.2819 12.9325 10.7472 13.2339 10.1763 13.4494L8.375 12.4456C8.30022 12.4042 8.21609 12.3827 8.13062 12.3831H8.11875C8.04312 12.3831 7.96687 12.3831 7.89125 12.3831C7.8018 12.3809 7.71337 12.4025 7.635 12.4456L5.8325 13.4519C5.26032 13.2381 4.72414 12.9382 4.2425 12.5625L4.23562 10.55C4.23532 10.4567 4.2089 10.3653 4.15938 10.2863C4.12063 10.2238 4.0825 10.1613 4.04688 10.095C4.0027 10.0156 3.93793 9.94949 3.85938 9.90375L2.07188 8.88563C1.97937 8.30051 1.97937 7.70449 2.07188 7.11938L3.85437 6.10188C3.93261 6.05739 3.99739 5.99261 4.04187 5.91438C4.07812 5.85188 4.11625 5.78563 4.155 5.72313C4.2046 5.64431 4.23103 5.55313 4.23125 5.46L4.24062 3.44438C4.72058 3.06747 5.25529 2.76607 5.82625 2.55063L7.625 3.55438C7.70328 3.59777 7.79178 3.61935 7.88125 3.61688C7.95687 3.61688 8.03313 3.61688 8.10875 3.61688C8.1982 3.61911 8.28663 3.59754 8.365 3.55438L10.1675 2.54813C10.7397 2.76192 11.2759 3.06184 11.7575 3.4375L11.7644 5.45C11.7647 5.54331 11.7911 5.63467 11.8406 5.71375C11.8794 5.77625 11.9175 5.83875 11.9531 5.905C11.9973 5.98445 12.0621 6.05051 12.1406 6.09625L13.9281 7.11438C14.0219 7.69994 14.0229 8.29661 13.9312 8.8825H13.9338Z" fill="var(--fill-0, #181818)"/>
</g>
</svg>
