<svg preserveAspectRatio="none" width="100%" height="100%" overflow="visible" style="display: block;" viewBox="0 0 16 16" fill="none" xmlns="http://www.w3.org/2000/svg">
<g id="UserCircleMinus">
<path id="Vector" d="M10.5 3.5C10.5 3.36739 10.5527 3.24021 10.6464 3.14645C10.7402 3.05268 10.8674 3 11 3H14C14.1326 3 14.2598 3.05268 14.3536 3.14645C14.4473 3.24021 14.5 3.36739 14.5 3.5C14.5 3.63261 14.4473 3.75979 14.3536 3.85355C14.2598 3.94732 14.1326 4 14 4H11C10.8674 4 10.7402 3.94732 10.6464 3.85355C10.5527 3.75979 10.5 3.63261 10.5 3.5ZM14.13 5.83312C14.6044 7.17687 14.6238 8.63934 14.1851 9.99517C13.7464 11.351 12.8741 12.525 11.7025 13.3361C10.5308 14.1473 9.12497 14.5507 7.70149 14.4842C6.27801 14.4176 4.91592 13.8848 3.82511 12.9678C2.7343 12.0508 1.9753 10.8006 1.66507 9.40971C1.35484 8.01885 1.5106 6.56457 2.10835 5.27096C2.70609 3.97736 3.71265 2.91621 4.97291 2.25104C6.23318 1.58587 7.67721 1.35359 9.0825 1.59C9.21229 1.61295 9.32777 1.68623 9.40382 1.79388C9.47986 1.90154 9.51032 2.03487 9.48857 2.16486C9.46683 2.29486 9.39463 2.41102 9.28768 2.48806C9.18073 2.5651 9.04769 2.59679 8.9175 2.57625C8.12883 2.44358 7.32073 2.48436 6.54942 2.69575C5.77812 2.90715 5.06214 3.28408 4.45132 3.80031C3.84051 4.31655 3.34952 4.95968 3.01252 5.68497C2.67553 6.41025 2.50063 7.20025 2.5 8C2.49881 9.34637 2.99366 10.646 3.89 11.6506C4.44764 10.8425 5.23176 10.2174 6.14375 9.85375C5.65387 9.4679 5.29639 8.93899 5.12104 8.34056C4.9457 7.74213 4.96119 7.10393 5.16537 6.51472C5.36954 5.9255 5.75226 5.41455 6.26029 5.05293C6.76832 4.69131 7.37641 4.49699 8 4.49699C8.62359 4.49699 9.23168 4.69131 9.73971 5.05293C10.2477 5.41455 10.6305 5.9255 10.8346 6.51472C11.0388 7.10393 11.0543 7.74213 10.8798 8.34056C10.7036 8.93899 10.3461 9.4679 9.85625 9.85375C10.7682 10.2174 11.5524 10.8425 12.11 11.6506C12.7632 10.9162 13.2077 10.0202 13.3972 9.0558C13.5867 8.09139 13.5143 7.09382 13.1875 6.16687C13.1656 6.10495 13.1561 6.03931 13.1595 5.97371C13.163 5.90811 13.1793 5.84384 13.2076 5.78455C13.2359 5.72527 13.2756 5.67214 13.3244 5.62819C13.3733 5.58425 13.4303 5.55035 13.4922 5.52844C13.5541 5.50652 13.6198 5.49702 13.6853 5.50047C13.7509 5.50392 13.8152 5.52026 13.8745 5.54856C13.9338 5.57685 13.9869 5.61654 14.0309 5.66537C14.0748 5.71419 14.1087 5.7712 14.1306 5.83312H14.13ZM8 9.5C8.39556 9.5 8.78224 9.3827 9.11114 9.16294C9.44004 8.94318 9.69638 8.63082 9.84776 8.26537C9.99913 7.89991 10.0387 7.49778 9.96157 7.10982C9.8844 6.72186 9.69392 6.36549 9.41421 6.08579C9.13451 5.80608 8.77814 5.6156 8.39018 5.53843C8.00222 5.46126 7.60008 5.50087 7.23463 5.65224C6.86918 5.80362 6.55682 6.05996 6.33706 6.38886C6.1173 6.71776 6 7.10444 6 7.5C6 8.03043 6.21071 8.53914 6.58579 8.91421C6.96086 9.28929 7.46957 9.5 8 9.5ZM8 13.5C9.22085 13.5012 10.4071 13.0942 11.37 12.3438C11.0083 11.7781 10.51 11.3125 9.92105 10.99C9.3321 10.6676 8.67145 10.4985 8 10.4985C7.32855 10.4985 6.6679 10.6676 6.07895 10.99C5.49 11.3125 4.99171 11.7781 4.63 12.3438C5.59293 13.0942 6.77915 13.5012 8 13.5Z" fill="var(--fill-0, #FF242E)"/>
</g>
</svg>