<svg preserveAspectRatio="none" width="100%" height="100%" overflow="visible" style="display: block;" viewBox="0 0 16 16" fill="none" xmlns="http://www.w3.org/2000/svg">
<g id="UsersThree">
<path id="Vector" d="M15.3 9.4C15.2475 9.4394 15.1877 9.46806 15.1241 9.48436C15.0605 9.50065 14.9943 9.50426 14.9293 9.49497C14.8643 9.48569 14.8018 9.46369 14.7453 9.43024C14.6888 9.39678 14.6394 9.35253 14.6 9.3C14.2986 8.89491 13.9064 8.56624 13.4548 8.34045C13.0032 8.11465 12.5049 7.99804 12 8C11.9017 7.99999 11.8055 7.97099 11.7236 7.91663C11.6417 7.86227 11.5776 7.78496 11.5394 7.69437C11.5134 7.63286 11.5 7.56677 11.5 7.5C11.5 7.43323 11.5134 7.36714 11.5394 7.30562C11.5776 7.21504 11.6417 7.13773 11.7236 7.08337C11.8055 7.02901 11.9017 7.00001 12 7C12.2805 6.99998 12.5555 6.92127 12.7935 6.77284C13.0316 6.6244 13.2232 6.41218 13.3467 6.16028C13.4702 5.90837 13.5206 5.62689 13.4921 5.34779C13.4637 5.06869 13.3575 4.80317 13.1857 4.58139C13.0139 4.35961 12.7833 4.19045 12.5202 4.09314C12.2571 3.99582 11.9719 3.97425 11.6971 4.03086C11.4224 4.08748 11.169 4.22002 10.9658 4.41343C10.7625 4.60684 10.6176 4.85336 10.5475 5.125C10.5311 5.18861 10.5023 5.24836 10.4628 5.30085C10.4233 5.35333 10.3738 5.39752 10.3172 5.43089C10.2607 5.46426 10.1981 5.48616 10.133 5.49534C10.068 5.50452 10.0017 5.50079 9.93812 5.48437C9.87452 5.46796 9.81476 5.43918 9.76228 5.39967C9.70979 5.36016 9.6656 5.3107 9.63223 5.25412C9.59886 5.19753 9.57696 5.13493 9.56778 5.06988C9.55861 5.00483 9.56233 4.93861 9.57875 4.875C9.6761 4.49832 9.86001 4.14956 10.1159 3.85647C10.3717 3.56338 10.6924 3.33405 11.0525 3.18672C11.4126 3.03939 11.8021 2.97814 12.19 3.00783C12.5779 3.03752 12.9536 3.15734 13.287 3.35776C13.6205 3.55817 13.9026 3.83364 14.1109 4.16226C14.3191 4.49088 14.4478 4.86357 14.4867 5.25067C14.5256 5.63778 14.4736 6.02862 14.3348 6.39209C14.1961 6.75557 13.9744 7.08164 13.6875 7.34438C14.3674 7.63875 14.9584 8.10588 15.4019 8.69938C15.4413 8.75204 15.4699 8.81195 15.4861 8.87569C15.5023 8.93943 15.5058 9.00574 15.4963 9.07082C15.4868 9.13591 15.4646 9.19848 15.4309 9.25497C15.3973 9.31145 15.3528 9.36074 15.3 9.4ZM11.9325 13.25C11.9687 13.3069 11.993 13.3705 12.0039 13.4371C12.0149 13.5036 12.0122 13.5717 11.9962 13.6372C11.9801 13.7027 11.951 13.7643 11.9106 13.8182C11.8701 13.8722 11.8191 13.9174 11.7608 13.9511C11.7024 13.9849 11.6378 14.0065 11.5708 14.0146C11.5039 14.0227 11.436 14.0172 11.3712 13.9984C11.3065 13.9796 11.2462 13.948 11.194 13.9053C11.1418 13.8626 11.0988 13.8098 11.0675 13.75C10.7525 13.2167 10.3039 12.7747 9.76602 12.4676C9.22808 12.1606 8.61939 11.9991 8 11.9991C7.38061 11.9991 6.77191 12.1606 6.23398 12.4676C5.69605 12.7747 5.24747 13.2167 4.9325 13.75C4.90124 13.8098 4.85822 13.8626 4.80602 13.9053C4.75383 13.948 4.69353 13.9796 4.62877 13.9984C4.564 14.0172 4.49611 14.0227 4.42917 14.0146C4.36222 14.0065 4.29762 13.9849 4.23924 13.9511C4.18085 13.9174 4.1299 13.8722 4.08944 13.8182C4.04898 13.7643 4.01986 13.7027 4.00381 13.6372C3.98777 13.5717 3.98514 13.5036 3.99609 13.4371C4.00703 13.3705 4.03132 13.3069 4.0675 13.25C4.55225 12.4171 5.29137 11.7617 6.17625 11.38C5.67833 10.9988 5.31239 10.4711 5.12988 9.87114C4.94736 9.27119 4.95744 8.62912 5.1587 8.03519C5.35996 7.44126 5.74228 6.92533 6.25192 6.55992C6.76156 6.19451 7.3729 5.998 8 5.998C8.6271 5.998 9.23844 6.19451 9.74808 6.55992C10.2577 6.92533 10.64 7.44126 10.8413 8.03519C11.0426 8.62912 11.0526 9.27119 10.8701 9.87114C10.6876 10.4711 10.3217 10.9988 9.82375 11.38C10.7086 11.7617 11.4478 12.4171 11.9325 13.25ZM8 11C8.39556 11 8.78224 10.8827 9.11114 10.6629C9.44004 10.4432 9.69638 10.1308 9.84776 9.76537C9.99913 9.39991 10.0387 8.99778 9.96157 8.60982C9.8844 8.22186 9.69392 7.86549 9.41421 7.58579C9.13451 7.30608 8.77814 7.1156 8.39018 7.03843C8.00222 6.96126 7.60008 7.00087 7.23463 7.15224C6.86918 7.30362 6.55682 7.55996 6.33706 7.88886C6.1173 8.21776 6 8.60444 6 9C6 9.53043 6.21071 10.0391 6.58579 10.4142C6.96086 10.7893 7.46957 11 8 11ZM4.5 7.5C4.5 7.36739 4.44732 7.24021 4.35355 7.14645C4.25978 7.05268 4.13261 7 4 7C3.71945 6.99998 3.44454 6.92127 3.20648 6.77284C2.96842 6.6244 2.77676 6.41218 2.65327 6.16028C2.52978 5.90837 2.47941 5.62689 2.50787 5.34779C2.53634 5.06869 2.64251 4.80317 2.81432 4.58139C2.98612 4.35961 3.21669 4.19045 3.47981 4.09314C3.74294 3.99582 4.02808 3.97425 4.30285 4.03086C4.57763 4.08748 4.83101 4.22002 5.03423 4.41343C5.23746 4.60684 5.38236 4.85336 5.4525 5.125C5.48565 5.25346 5.56848 5.3635 5.68276 5.43089C5.79704 5.49829 5.93341 5.51753 6.06187 5.48437C6.19034 5.45122 6.30037 5.3684 6.36777 5.25412C6.43516 5.13984 6.4544 5.00346 6.42125 4.875C6.3239 4.49832 6.13998 4.14956 5.88413 3.85647C5.62828 3.56338 5.30755 3.33405 4.94747 3.18672C4.58739 3.03939 4.19789 2.97814 3.80997 3.00783C3.42205 3.03752 3.04642 3.15734 2.71295 3.35776C2.37949 3.55817 2.0974 3.83364 1.88914 4.16226C1.68087 4.49088 1.55218 4.86357 1.51329 5.25067C1.47441 5.63778 1.52641 6.02862 1.66515 6.39209C1.8039 6.75557 2.02556 7.08164 2.3125 7.34438C1.6333 7.63903 1.04295 8.10614 0.6 8.69938C0.520352 8.80546 0.486109 8.93884 0.504804 9.07018C0.523499 9.20151 0.593601 9.32004 0.699687 9.39969C0.805774 9.47934 0.939156 9.51358 1.07049 9.49488C1.20182 9.47619 1.32035 9.40609 1.4 9.3C1.70137 8.89491 2.09363 8.56624 2.54522 8.34045C2.99681 8.11465 3.49511 7.99804 4 8C4.13261 8 4.25978 7.94732 4.35355 7.85355C4.44732 7.75979 4.5 7.63261 4.5 7.5Z" fill="var(--fill-0, #181818)"/>
</g>
</svg>
