<svg preserveAspectRatio="none" width="100%" height="100%" overflow="visible" style="display: block;" viewBox="0 0 16 16" fill="none" xmlns="http://www.w3.org/2000/svg">
<g id="User">
<path id="Vector" d="M14.4325 13.25C13.4806 11.6044 12.0137 10.4244 10.3019 9.865C11.1486 9.36091 11.8065 8.5928 12.1745 7.67862C12.5425 6.76444 12.6002 5.75475 12.3388 4.8046C12.0774 3.85445 11.5113 3.01637 10.7275 2.41908C9.94367 1.82178 8.98546 1.4983 8 1.4983C7.01454 1.4983 6.05633 1.82178 5.27252 2.41908C4.4887 3.01637 3.92262 3.85445 3.66121 4.8046C3.3998 5.75475 3.45752 6.76444 3.82549 7.67862C4.19347 8.5928 4.85135 9.36091 5.69812 9.865C3.98625 10.4237 2.51937 11.6038 1.5675 13.25C1.53259 13.3069 1.50944 13.3703 1.49941 13.4363C1.48937 13.5023 1.49266 13.5696 1.50908 13.6343C1.5255 13.6991 1.55471 13.7598 1.59499 13.8131C1.63528 13.8663 1.68582 13.911 1.74364 13.9444C1.80146 13.9778 1.86538 13.9992 1.93163 14.0075C1.99788 14.0158 2.06512 14.0108 2.12939 13.9926C2.19365 13.9745 2.25364 13.9437 2.3058 13.9021C2.35797 13.8604 2.40126 13.8087 2.43312 13.75C3.61062 11.715 5.69187 10.5 8 10.5C10.3081 10.5 12.3894 11.715 13.5669 13.75C13.5987 13.8087 13.642 13.8604 13.6942 13.9021C13.7464 13.9437 13.8063 13.9745 13.8706 13.9926C13.9349 14.0108 14.0021 14.0158 14.0684 14.0075C14.1346 13.9992 14.1985 13.9778 14.2564 13.9444C14.3142 13.911 14.3647 13.8663 14.405 13.8131C14.4453 13.7598 14.4745 13.6991 14.4909 13.6343C14.5073 13.5696 14.5106 13.5023 14.5006 13.4363C14.4906 13.3703 14.4674 13.3069 14.4325 13.25ZM4.5 6C4.5 5.30777 4.70527 4.63108 5.08986 4.0555C5.47444 3.47993 6.02107 3.03133 6.66061 2.76642C7.30015 2.50151 8.00388 2.4322 8.68282 2.56725C9.36175 2.7023 9.98539 3.03564 10.4749 3.52513C10.9644 4.01461 11.2977 4.63825 11.4327 5.31718C11.5678 5.99612 11.4985 6.69985 11.2336 7.33939C10.9687 7.97893 10.5201 8.52556 9.9445 8.91014C9.36892 9.29473 8.69223 9.5 8 9.5C7.07205 9.49901 6.18238 9.12994 5.52622 8.47378C4.87006 7.81762 4.50099 6.92795 4.5 6Z" fill="var(--fill-0, #181818)"/>
</g>
</svg>
