<svg width="16" height="16" viewBox="0 0 16 16" fill="none" xmlns="http://www.w3.org/2000/svg">
<path d="M14.8001 11.7557L9.33444 2.26379C9.19785 2.03124 9.00287 1.83843 8.76881 1.70445C8.53476 1.57048 8.26975 1.5 8.00006 1.5C7.73037 1.5 7.46536 1.57048 7.23131 1.70445C6.99725 1.83843 6.80227 2.03124 6.66569 2.26379L1.20006 11.7557C1.06865 11.9806 0.99939 12.2364 0.99939 12.4969C0.99939 12.7574 1.06865 13.0132 1.20006 13.2382C1.33489 13.4721 1.52954 13.666 1.76404 13.7999C1.99853 13.9338 2.26442 14.0028 2.53444 14H13.4657C13.7355 14.0026 14.0011 13.9334 14.2354 13.7996C14.4696 13.6657 14.6641 13.4719 14.7988 13.2382C14.9304 13.0134 14.9999 12.7576 15.0001 12.4971C15.0003 12.2366 14.9313 11.9807 14.8001 11.7557ZM13.9332 12.7375C13.8855 12.8188 13.8171 12.886 13.735 12.9321C13.6528 12.9782 13.5599 13.0017 13.4657 13H2.53444C2.44023 13.0017 2.34729 12.9782 2.26514 12.9321C2.18299 12.886 2.11458 12.8188 2.06694 12.7375C2.02378 12.6645 2.00101 12.5812 2.00101 12.4963C2.00101 12.4114 2.02378 12.3281 2.06694 12.255L7.53256 2.76317C7.58117 2.68227 7.64989 2.61534 7.73203 2.56887C7.81417 2.5224 7.90694 2.49797 8.00131 2.49797C8.09568 2.49797 8.18845 2.5224 8.27059 2.56887C8.35273 2.61534 8.42145 2.68227 8.47006 2.76317L13.9357 12.255C13.9785 12.3283 14.0008 12.4118 14.0004 12.4966C13.9999 12.5815 13.9767 12.6647 13.9332 12.7375ZM7.50006 9.00004V6.50004C7.50006 6.36743 7.55274 6.24026 7.64651 6.14649C7.74027 6.05272 7.86745 6.00004 8.00006 6.00004C8.13267 6.00004 8.25985 6.05272 8.35361 6.14649C8.44738 6.24026 8.50006 6.36743 8.50006 6.50004V9.00004C8.50006 9.13265 8.44738 9.25983 8.35361 9.35359C8.25985 9.44736 8.13267 9.50004 8.00006 9.50004C7.86745 9.50004 7.74027 9.44736 7.64651 9.35359C7.55274 9.25983 7.50006 9.13265 7.50006 9.00004ZM8.75006 11.25C8.75006 11.3984 8.70607 11.5434 8.62366 11.6667C8.54125 11.7901 8.42412 11.8862 8.28707 11.943C8.15003 11.9997 7.99923 12.0146 7.85374 11.9856C7.70826 11.9567 7.57462 11.8853 7.46973 11.7804C7.36484 11.6755 7.29341 11.5418 7.26447 11.3964C7.23553 11.2509 7.25038 11.1001 7.30715 10.963C7.36392 10.826 7.46005 10.7088 7.58338 10.6264C7.70672 10.544 7.85172 10.5 8.00006 10.5C8.19897 10.5 8.38974 10.5791 8.53039 10.7197C8.67104 10.8604 8.75006 11.0511 8.75006 11.25Z" fill="#FF242E"/>
</svg>
