<svg width="16" height="16" viewBox="0 0 16 16" fill="none" xmlns="http://www.w3.org/2000/svg">
<path d="M8 1.4502C9.73659 1.45203 11.4019 2.14216 12.6299 3.37012C13.8578 4.59807 14.548 6.26341 14.5498 8L14.5459 8.24219C14.5011 9.4527 14.121 10.6288 13.4463 11.6387C12.7266 12.7158 11.7037 13.556 10.5068 14.0518C9.30998 14.5475 7.99226 14.6766 6.72168 14.4238C5.45131 14.171 4.28407 13.5477 3.36816 12.6318C2.45226 11.7159 1.82897 10.5487 1.57617 9.27832C1.32344 8.00774 1.45249 6.69002 1.94824 5.49316C2.444 4.29635 3.28422 3.27341 4.36133 2.55371C5.43841 1.83411 6.70465 1.4502 8 1.4502ZM10.0859 2.96484C9.09008 2.55235 7.99372 2.44401 6.93652 2.6543C5.87938 2.86461 4.90865 3.38432 4.14648 4.14648C3.38432 4.90865 2.8646 5.87938 2.6543 6.93652C2.44401 7.99372 2.55235 9.09008 2.96484 10.0859C3.37729 11.0815 4.07572 11.9325 4.97168 12.5312C5.86793 13.1301 6.92209 13.4502 8 13.4502L8.27051 13.4434C9.61689 13.375 10.8938 12.8093 11.8516 11.8516C12.8733 10.8298 13.4485 9.44492 13.4502 8L13.4355 7.59766C13.3663 6.66142 13.0553 5.75604 12.5312 4.97168C11.9325 4.07572 11.0815 3.37729 10.0859 2.96484ZM8 9.9502C8.21217 9.9502 8.4154 10.0345 8.56543 10.1846C8.71546 10.3346 8.7998 10.5378 8.7998 10.75C8.7998 10.9082 8.75294 11.0628 8.66504 11.1943C8.57713 11.3259 8.45184 11.4287 8.30566 11.4893C8.15961 11.5496 7.99877 11.565 7.84375 11.5342C7.68867 11.5033 7.54639 11.4272 7.43457 11.3154C7.32275 11.2036 7.24672 11.0613 7.21582 10.9062C7.18499 10.7512 7.20035 10.5904 7.26074 10.4443C7.32129 10.2982 7.4241 10.1729 7.55566 10.085C7.68722 9.99706 7.84178 9.9502 8 9.9502ZM8 4.4502C8.14587 4.4502 8.28553 4.50818 8.38867 4.61133C8.49182 4.71447 8.5498 4.85413 8.5498 5V8.5C8.5498 8.64587 8.49182 8.78553 8.38867 8.88867C8.28553 8.99182 8.14587 9.0498 8 9.0498C7.85413 9.0498 7.71447 8.99182 7.61133 8.88867C7.50818 8.78553 7.4502 8.64587 7.4502 8.5V5C7.4502 4.85413 7.50818 4.71447 7.61133 4.61133C7.71447 4.50818 7.85413 4.4502 8 4.4502Z" fill="currentColor" stroke="currentColor" stroke-width="0.1"/>
</svg>
