<svg preserveAspectRatio="none" width="100%" height="100%" overflow="visible" style="display: block;" viewBox="0 0 16 16" fill="none" xmlns="http://www.w3.org/2000/svg">
<g id="WifiSlash">
<path id="Vector" d="M13.37 13.1637C13.4151 13.2122 13.4501 13.2691 13.473 13.3311C13.496 13.3932 13.5064 13.4592 13.5036 13.5253C13.5008 13.5914 13.485 13.6563 13.4569 13.7163C13.4289 13.7762 13.3893 13.83 13.3403 13.8745C13.2913 13.919 13.234 13.9533 13.1717 13.9755C13.1094 13.9977 13.0432 14.0073 12.9772 14.0037C12.9111 14.0002 12.8464 13.9835 12.7868 13.9548C12.7272 13.926 12.6739 13.8857 12.63 13.8363L9.38 10.2644C8.79227 10.0312 8.15512 9.95038 7.52779 10.0295C6.90045 10.1086 6.30331 10.3451 5.79188 10.7169C5.7389 10.7569 5.67849 10.786 5.61415 10.8024C5.54982 10.8189 5.48286 10.8223 5.41718 10.8126C5.35149 10.8029 5.28841 10.7801 5.2316 10.7458C5.17478 10.7114 5.12539 10.6661 5.08629 10.6124C5.04719 10.5587 5.01917 10.4978 5.00387 10.4332C4.98857 10.3686 4.98629 10.3016 4.99717 10.2361C5.00804 10.1706 5.03186 10.1079 5.06722 10.0517C5.10258 9.99549 5.14878 9.9469 5.20313 9.90875C6.01467 9.31536 6.99466 8.99695 8 9C8.08 9 8.15938 9 8.23875 9.00625L6.55625 7.15562C5.5547 7.37535 4.61638 7.82036 3.8125 8.45687C3.76095 8.49793 3.70179 8.52839 3.63843 8.5465C3.57507 8.56461 3.50875 8.57002 3.44329 8.56241C3.37783 8.5548 3.31452 8.53432 3.257 8.50216C3.19948 8.47 3.14888 8.42678 3.10813 8.375C3.02571 8.27135 2.98779 8.13923 3.00267 8.00765C3.01755 7.87606 3.08402 7.75576 3.1875 7.67312C3.96244 7.06017 4.84722 6.6007 5.79438 6.31938L4.33563 4.7125C3.42522 5.08226 2.57618 5.58802 1.8175 6.2125C1.76661 6.25419 1.70801 6.28546 1.64504 6.30451C1.58207 6.32355 1.51597 6.33001 1.4505 6.32351C1.38504 6.31701 1.32149 6.29768 1.2635 6.26662C1.2055 6.23556 1.15419 6.19339 1.1125 6.1425C1.07081 6.09161 1.03954 6.03301 1.02049 5.97004C1.00145 5.90707 0.99499 5.84097 1.00149 5.7755C1.01462 5.64329 1.07973 5.52171 1.1825 5.4375C1.92549 4.82756 2.74699 4.32011 3.625 3.92875L2.63 2.83625C2.58492 2.78782 2.54989 2.73093 2.52696 2.66886C2.50403 2.6068 2.49364 2.5408 2.4964 2.47469C2.49917 2.40858 2.51502 2.34368 2.54305 2.28375C2.57108 2.22381 2.61073 2.17004 2.65969 2.12554C2.70866 2.08104 2.76597 2.0467 2.82831 2.02451C2.89064 2.00233 2.95676 1.99273 3.02283 1.99629C3.0889 1.99984 3.15361 2.01647 3.2132 2.04522C3.27279 2.07397 3.32609 2.11425 3.37 2.16375L13.37 13.1637ZM8 12C7.85167 12 7.70666 12.044 7.58332 12.1264C7.45999 12.2088 7.36386 12.3259 7.30709 12.463C7.25033 12.6 7.23547 12.7508 7.26441 12.8963C7.29335 13.0418 7.36478 13.1754 7.46967 13.2803C7.57456 13.3852 7.7082 13.4567 7.85368 13.4856C7.99917 13.5145 8.14997 13.4997 8.28701 13.4429C8.42406 13.3861 8.54119 13.29 8.6236 13.1667C8.70601 13.0433 8.75 12.8983 8.75 12.75C8.75 12.5511 8.67098 12.3603 8.53033 12.2197C8.38968 12.079 8.19891 12 8 12ZM14.8175 5.4375C13.6837 4.50896 12.3723 3.8216 10.9636 3.41752C9.55494 3.01344 8.0786 2.90114 6.625 3.0875C6.55869 3.09427 6.4944 3.11423 6.43592 3.1462C6.37743 3.17818 6.32593 3.22153 6.28444 3.27369C6.24295 3.32586 6.21231 3.3858 6.19432 3.44999C6.17633 3.51417 6.17136 3.5813 6.1797 3.64743C6.18803 3.71357 6.2095 3.77736 6.24285 3.83508C6.2762 3.89279 6.32076 3.94325 6.37389 3.9835C6.42703 4.02374 6.48767 4.05296 6.55226 4.06942C6.61685 4.08589 6.68408 4.08927 6.75 4.07937C7.16457 4.02655 7.58208 4.00004 8 4C10.2542 4.00123 12.4386 4.78228 14.1825 6.21063C14.285 6.29483 14.4168 6.33486 14.5488 6.32191C14.6809 6.30896 14.8024 6.24409 14.8866 6.14156C14.9708 6.03904 15.0108 5.90727 14.9978 5.77523C14.9849 5.64319 14.92 5.52171 14.8175 5.4375ZM12.1875 8.45687C12.239 8.49767 12.298 8.52794 12.3611 8.54593C12.4243 8.56393 12.4903 8.56931 12.5556 8.56176C12.6208 8.55422 12.6839 8.5339 12.7413 8.50196C12.7987 8.47002 12.8492 8.42709 12.89 8.37562C12.9308 8.32417 12.9611 8.26517 12.9791 8.20202C12.9971 8.13886 13.0024 8.07278 12.9949 8.00755C12.9873 7.94231 12.967 7.8792 12.9351 7.82182C12.9031 7.76444 12.8602 7.71391 12.8088 7.67312C11.8631 6.92476 10.7562 6.40691 9.57563 6.16062C9.51065 6.14568 9.44335 6.14389 9.37767 6.15534C9.31199 6.1668 9.24927 6.19127 9.19319 6.22732C9.13711 6.26338 9.0888 6.31028 9.05112 6.36528C9.01343 6.42028 8.98713 6.48225 8.97375 6.54757C8.96037 6.61288 8.96019 6.68021 8.97321 6.74559C8.98624 6.81098 9.01221 6.8731 9.04959 6.9283C9.08698 6.9835 9.13503 7.03066 9.19091 7.06702C9.2468 7.10338 9.30939 7.12819 9.375 7.14C10.402 7.35466 11.3649 7.80553 12.1875 8.45687Z" fill="var(--fill-0, #181818)"/>
</g>
</svg>
