<svg width="16" height="16" viewBox="0 0 16 16" fill="none" xmlns="http://www.w3.org/2000/svg">
<path d="M14.1724 4.31241C14.142 4.23745 14.094 4.17096 14.0323 4.11865C13.9707 4.06634 13.8972 4.02976 13.8183 4.01207C13.7394 3.99437 13.6574 3.99607 13.5793 4.01703C13.5012 4.03799 13.4293 4.07759 13.3699 4.13241L10.8511 6.45679L9.77425 6.22554L9.543 5.14866L11.8674 2.62991C11.9222 2.57047 11.9618 2.49862 11.9828 2.42051C12.0037 2.34241 12.0054 2.26039 11.9877 2.18148C11.97 2.10258 11.9335 2.02914 11.8811 1.96747C11.8288 1.9058 11.7623 1.85774 11.6874 1.82741C11.0042 1.55106 10.2636 1.44672 9.5307 1.52355C8.79777 1.60038 8.09493 1.85605 7.48393 2.26807C6.87293 2.68009 6.37247 3.23587 6.02652 3.88657C5.68058 4.53727 5.49973 5.26297 5.49988 5.99991C5.49907 6.62221 5.62673 7.23798 5.87488 7.80866L2.11175 11.0624C2.10238 11.0699 2.09363 11.0787 2.08488 11.0868C1.70976 11.4619 1.49902 11.9707 1.49902 12.5012C1.49902 12.7638 1.55076 13.0239 1.65128 13.2666C1.7518 13.5093 1.89914 13.7298 2.08488 13.9155C2.27062 14.1013 2.49112 14.2486 2.7338 14.3491C2.97648 14.4497 3.23658 14.5014 3.49925 14.5014C4.02975 14.5014 4.53851 14.2907 4.91363 13.9155C4.92175 13.9074 4.9305 13.898 4.938 13.8893L8.19113 10.1249C8.8764 10.4257 9.62587 10.5509 10.3717 10.489C11.1175 10.4272 11.8361 10.1803 12.4625 9.77077C13.0889 9.36122 13.6032 8.80191 13.959 8.14348C14.3147 7.48505 14.5006 6.7483 14.4999 5.99991C14.5009 5.42153 14.3896 4.84844 14.1724 4.31241ZM9.99988 9.49991C9.40805 9.4991 8.82604 9.3486 8.308 9.06241C8.20764 9.00697 8.09127 8.9877 7.9784 9.00784C7.86552 9.02798 7.763 9.08631 7.688 9.17304L4.19425 13.2193C4.00519 13.3989 3.75344 13.4976 3.49268 13.4942C3.23192 13.4909 2.98277 13.3858 2.79837 13.2014C2.61397 13.017 2.5089 12.7679 2.50556 12.5071C2.50222 12.2463 2.60088 11.9946 2.7805 11.8055L6.82363 8.31241C6.91051 8.23738 6.96893 8.13474 6.98907 8.02173C7.00922 7.90872 6.98986 7.79221 6.93425 7.69179C6.61552 7.11531 6.46594 6.46059 6.50271 5.8029C6.53948 5.14521 6.7611 4.51124 7.1421 3.97388C7.5231 3.43653 8.04801 3.0176 8.65648 2.76526C9.26495 2.51291 9.93228 2.43741 10.5818 2.54741L8.63175 4.66054C8.5775 4.7194 8.53816 4.79042 8.51706 4.86764C8.49596 4.94486 8.49371 5.02602 8.5105 5.10429L8.86425 6.74991C8.88448 6.84403 8.93146 6.93031 8.99953 6.99838C9.06761 7.06646 9.15388 7.11343 9.248 7.13366L10.8949 7.48741C10.9731 7.5042 11.0543 7.50195 11.1315 7.48085C11.2087 7.45975 11.2798 7.42042 11.3386 7.36616L13.4518 5.41616C13.536 5.91804 13.5099 6.43225 13.3753 6.92302C13.2407 7.41379 13.0007 7.86935 12.6722 8.25801C12.3437 8.64666 11.9345 8.95909 11.473 9.17356C11.0115 9.38803 10.5088 9.4994 9.99988 9.49991Z" fill="#181818"/>
</svg>
