<svg preserveAspectRatio="none" width="100%" height="100%" overflow="visible" style="display: block;" viewBox="0 0 16 16" fill="none" xmlns="http://www.w3.org/2000/svg">
<g id="XLogo">
<path id="Vector" d="M13.4219 13.2319L9.50938 7.08313L13.37 2.83625C13.4573 2.73783 13.5023 2.60896 13.4952 2.47758C13.4882 2.3462 13.4296 2.2229 13.3322 2.13441C13.2349 2.04592 13.1066 1.99938 12.9751 2.00487C12.8436 2.01036 12.7196 2.06745 12.63 2.16375L8.9525 6.20875L6.42188 2.23188C6.37675 2.16085 6.31443 2.10236 6.24068 2.06182C6.16693 2.02129 6.08415 2.00003 6 2H3C2.91035 1.99996 2.82234 2.02402 2.74518 2.06966C2.66802 2.11531 2.60455 2.18086 2.56142 2.25945C2.51829 2.33804 2.49709 2.42679 2.50003 2.51639C2.50296 2.60599 2.52994 2.69315 2.57813 2.76875L6.49063 8.91687L2.63 13.1669C2.58492 13.2153 2.54989 13.2722 2.52696 13.3343C2.50403 13.3963 2.49364 13.4623 2.4964 13.5284C2.49917 13.5945 2.51502 13.6594 2.54305 13.7194C2.57108 13.7793 2.61073 13.8331 2.65969 13.8776C2.70866 13.9221 2.76597 13.9564 2.82831 13.9786C2.89064 14.0008 2.95676 14.0104 3.02283 14.0068C3.0889 14.0033 3.15361 13.9867 3.2132 13.9579C3.27279 13.9292 3.32609 13.8889 3.37 13.8394L7.0475 9.79438L9.57813 13.7712C9.62362 13.8417 9.6861 13.8996 9.75983 13.9395C9.83355 13.9795 9.91614 14.0003 10 14H13C13.0896 14 13.1775 13.9759 13.2545 13.9303C13.3316 13.8847 13.395 13.8192 13.4381 13.7407C13.4812 13.6622 13.5024 13.5736 13.4996 13.4841C13.4967 13.3946 13.4699 13.3075 13.4219 13.2319ZM10.2744 13L3.91063 3H5.72313L12.0894 13H10.2744Z" fill="var(--fill-0, #181818)"/>
</g>
</svg>
