<svg preserveAspectRatio="none" width="100%" height="100%" overflow="visible" style="display: block;" viewBox="0 0 1037.43 399.406" fill="none" xmlns="http://www.w3.org/2000/svg">
<g id="Capa 1">
<path id="Vector" d="M89.0592 387.435C265.408 309.423 325.587 223.39 347.396 158.124C371.734 85.2836 359.183 5.67247 385.456 0.728544C402.279 -2.43832 422.979 27.2894 461.571 92.456C578.604 290.066 581.254 342.543 631.115 356.164C700.964 375.257 744.023 285.431 851.39 287.367C930.248 288.792 994.059 338.806 1037.07 383.264" stroke="var(--stroke-0, #008836)" stroke-opacity="0.16" stroke-miterlimit="10"/>
<path id="Vector_2" d="M84.8244 379.593C256.208 303.26 319.843 219.634 343.382 158.466C369.687 90.1088 357.264 14.61 383.263 11.0393C399.978 8.74193 420.289 37.9612 457.568 100.895C570.86 292.121 574.374 345.252 623.852 358.2C694.106 376.326 735.288 280.002 843.794 278.691C846.159 278.662 848.488 278.662 850.82 278.719C927.806 280.655 992.527 330.693 1036.46 374.877" stroke="var(--stroke-0, #008836)" stroke-opacity="0.16" stroke-miterlimit="10"/>
<path id="Vector_3" d="M80.6032 371.75C247.008 297.104 314.05 216.027 339.379 158.812C367.61 95.0379 355.364 23.5566 381.082 21.3542C397.694 19.9288 417.619 48.642 453.573 109.34C563.101 294.173 567.459 348.128 616.608 360.235C687.204 377.625 726.593 274.525 836.216 270.011C838.621 269.912 841.018 269.812 843.415 269.824C921.673 270.213 989.759 321.285 1035.86 366.488" stroke="var(--stroke-0, #008836)" stroke-opacity="0.16" stroke-miterlimit="10"/>
<path id="Vector_4" d="M76.3728 363.908C237.823 290.928 308.167 212.595 335.37 159.159C365.449 100.072 353.467 32.511 378.891 31.6723C395.409 31.1259 414.924 59.3212 449.571 117.784C555.348 296.245 560.568 350.911 609.357 362.271C680.329 378.797 717.905 269.009 828.631 261.333C831.089 261.162 833.544 260.998 835.991 260.927C915.516 258.632 986.972 311.875 1035.24 358.095" stroke="var(--stroke-0, #008836)" stroke-opacity="0.16" stroke-miterlimit="10"/>
<path id="Vector_5" d="M72.1436 356.066C228.628 284.773 302.166 209.345 331.359 159.507C363.165 105.209 351.583 41.4751 376.704 41.9906C393.13 42.3256 412.24 70.003 445.573 126.23C547.596 298.307 553.682 353.686 602.108 364.305C673.477 379.957 709.228 263.453 821.048 252.645C823.558 252.408 826.071 252.17 828.592 252.023C909.379 247.647 984.204 302.46 1034.65 349.706" stroke="var(--stroke-0, #008836)" stroke-opacity="0.16" stroke-miterlimit="10"/>
<path id="Vector_6" d="M67.914 348.223C219.436 278.614 296.012 206.292 327.355 159.855C360.707 110.44 349.698 50.4453 374.522 52.3055C390.862 53.5314 409.559 80.6814 441.578 134.675C539.852 300.369 546.805 356.451 594.863 366.341C666.624 381.106 700.559 257.857 813.469 243.973C816.035 243.657 818.6 243.337 821.187 243.132C903.233 236.694 981.444 293.056 1034.05 341.324" stroke="var(--stroke-0, #008836)" stroke-opacity="0.16" stroke-miterlimit="10"/>
<path id="Vector_7" d="M63.6879 340.381C210.242 272.449 289.659 203.434 323.342 160.202C357.995 115.723 347.83 59.4279 372.331 62.6232C388.589 64.7424 406.87 91.3698 437.572 143.118C532.096 302.428 539.924 359.209 587.609 368.374C659.777 382.246 691.882 252.229 805.881 235.295C808.51 234.905 811.123 234.506 813.767 234.237C897.067 225.751 978.661 283.653 1033.43 332.935" stroke="var(--stroke-0, #008836)" stroke-opacity="0.16" stroke-miterlimit="10"/>
<path id="Vector_8" d="M59.4588 332.539C201.047 266.286 275.265 193.795 319.334 160.549C346.024 115.631 345.959 68.4227 370.144 72.939C386.32 75.9609 404.187 102.042 433.575 151.576C524.345 304.503 533.048 361.97 580.36 370.422C652.932 383.387 683.208 246.58 798.296 226.628C800.972 226.165 803.65 225.69 806.36 225.352C890.919 214.84 975.904 274.25 1032.84 324.559" stroke="var(--stroke-0, #008836)" stroke-opacity="0.16" stroke-miterlimit="10"/>
<path id="Vector_9" d="M55.2298 324.697C191.856 260.124 268.079 189.565 315.325 160.896C342.353 119.967 344.087 77.4294 367.958 83.2571C384.055 87.1866 401.501 112.716 429.574 160.01C516.58 306.553 526.177 364.7 573.113 372.447C646.093 384.492 674.532 240.876 790.713 217.938C793.441 217.399 796.175 216.848 798.951 216.444C884.768 203.921 973.12 264.83 1032.23 316.158" stroke="var(--stroke-0, #008836)" stroke-opacity="0.16" stroke-miterlimit="10"/>
<path id="Vector_10" d="M50.9997 316.854C182.66 253.961 260.889 185.338 311.313 161.243C338.677 124.3 342.215 86.4452 365.77 93.5724C381.786 98.4166 398.816 123.398 425.573 168.453C508.841 308.622 519.308 367.429 565.863 374.478C639.258 385.594 665.846 235.155 783.128 209.255C785.909 208.642 788.701 208.017 791.54 207.544C878.617 193.023 970.347 255.418 1031.63 307.767" stroke="var(--stroke-0, #008836)" stroke-opacity="0.16" stroke-miterlimit="10"/>
<path id="Vector_11" d="M46.7726 309.012C173.47 247.798 253.703 181.109 307.305 161.592C335.005 128.638 340.341 95.4751 363.58 103.89C379.514 109.658 396.132 134.081 421.574 176.892C501.089 310.67 512.442 370.147 558.613 376.509C632.423 386.68 657.156 229.405 775.544 200.571C778.381 199.88 781.227 199.186 784.127 198.642C872.471 182.137 967.573 246.005 1031.02 299.373" stroke="var(--stroke-0, #008836)" stroke-opacity="0.16" stroke-miterlimit="10"/>
<path id="Vector_12" d="M42.5431 301.168C164.27 241.639 246.521 176.88 303.298 161.949C331.335 132.984 338.464 104.52 361.39 114.218C377.238 120.917 393.446 144.77 417.571 185.355C493.334 312.749 505.573 372.877 551.366 378.56C625.597 387.775 648.458 223.661 767.961 191.909C770.852 191.142 773.744 190.375 776.717 189.771C866.328 171.293 964.8 236.619 1030.42 291.009" stroke="var(--stroke-0, #008836)" stroke-opacity="0.16" stroke-miterlimit="10"/>
<path id="Vector_13" d="M38.3144 293.325C155.079 235.475 239.325 172.651 299.288 162.286C327.661 137.31 336.575 113.557 359.207 124.523C374.962 132.159 390.763 155.441 413.574 193.791C485.597 314.801 498.713 375.573 544.114 380.586C618.766 388.827 639.745 217.859 760.378 183.221C763.32 182.375 766.279 181.539 769.315 180.857C860.199 160.426 962.035 227.184 1029.82 282.605" stroke="var(--stroke-0, #008836)" stroke-opacity="0.16" stroke-miterlimit="10"/>
<path id="Vector_14" d="M34.0934 285.483C145.884 229.313 232.136 168.425 295.28 162.638C323.987 141.651 334.68 122.609 357.02 134.842C372.681 143.418 388.079 166.121 409.576 202.234C477.838 316.864 491.851 378.277 536.865 382.622C611.943 389.878 631.023 212.044 752.793 174.543C755.789 173.619 758.807 172.711 761.898 171.96C854.056 149.571 959.255 217.784 1029.22 274.217" stroke="var(--stroke-0, #008836)" stroke-opacity="0.16" stroke-miterlimit="10"/>
<path id="Vector_15" d="M29.858 277.64C136.689 223.15 224.949 164.196 291.271 162.982C320.314 145.983 332.779 131.662 354.832 145.164C370.391 154.683 385.395 176.804 405.564 210.684C470.075 318.93 484.976 380.963 529.604 384.66C605.105 390.915 622.28 206.242 745.198 165.866C748.247 164.866 751.323 163.889 754.474 163.067C847.918 138.735 956.47 208.38 1028.6 265.832" stroke="var(--stroke-0, #008836)" stroke-opacity="0.16" stroke-miterlimit="10"/>
<path id="Vector_16" d="M25.6291 269.798C127.495 216.988 217.76 159.967 287.26 163.329C316.642 150.319 330.868 140.721 352.646 155.475C368.097 165.942 382.709 187.481 401.577 219.126C462.334 320.986 478.124 383.639 522.368 386.692C598.292 391.93 613.548 200.395 737.625 157.195C740.727 156.116 743.86 155.071 747.088 154.18C841.804 127.9 953.708 198.965 1028 257.43" stroke="var(--stroke-0, #008836)" stroke-opacity="0.16" stroke-miterlimit="10"/>
<path id="Vector_17" d="M21.3996 261.956C118.302 210.827 210.571 155.748 283.251 163.676C312.954 154.648 328.949 149.785 350.459 165.793C365.794 177.208 380.025 198.16 397.576 227.562C454.582 323.038 471.26 386.302 515.118 388.716C591.466 392.921 604.793 194.537 730.042 148.495C733.196 147.336 736.387 146.224 739.665 145.262C835.685 117.076 950.943 189.557 1027.4 249.051" stroke="var(--stroke-0, #008836)" stroke-opacity="0.16" stroke-miterlimit="10"/>
<path id="Vector_18" d="M17.1708 254.104C109.108 204.656 203.382 151.503 279.24 164.016C309.293 158.982 327.023 158.837 348.267 176.099C363.487 188.453 377.339 208.83 393.573 236.006C446.828 325.096 464.395 388.966 507.867 390.752C584.64 393.917 596.027 188.686 722.459 139.831C725.663 138.591 728.915 137.413 732.253 136.379C829.574 106.262 948.162 180.152 1026.79 240.674" stroke="var(--stroke-0, #008836)" stroke-opacity="0.16" stroke-miterlimit="10"/>
<path id="Vector_19" d="M12.9426 246.264C99.9119 198.511 195.195 177.113 275.233 164.372C305.183 159.604 325.092 167.909 346.081 186.426C361.177 199.73 374.657 219.52 389.576 244.46C439.078 327.172 457.531 391.631 500.618 392.797C577.809 394.885 587.248 182.812 714.874 131.145C718.128 129.828 721.446 128.581 724.842 127.476C823.463 95.4443 945.38 170.739 1026.19 232.273" stroke="var(--stroke-0, #008836)" stroke-opacity="0.16" stroke-miterlimit="10"/>
<path id="Vector_20" d="M8.71306 238.424C90.7248 192.335 187.194 149.742 271.224 164.714C301.537 170.117 323.152 176.966 343.894 196.739C358.861 210.994 371.97 230.194 385.576 252.902C431.329 329.23 450.662 394.273 493.369 394.826C570.975 395.834 578.458 176.928 707.288 122.462C710.597 121.065 713.972 119.758 717.432 118.577C817.433 84.8155 942.614 161.329 1025.59 223.884" stroke="var(--stroke-0, #008836)" stroke-opacity="0.16" stroke-miterlimit="10"/>
<path id="Vector_21" d="M4.4838 230.584C81.5249 186.174 180.654 142.149 267.216 165.063C297.92 173.193 321.207 186.029 341.707 207.057C356.54 222.262 369.286 240.878 381.575 261.347C423.577 331.294 443.794 397.081 486.119 396.864C564.138 396.465 569.566 170.874 699.704 113.785C703.06 112.303 706.498 110.935 710.019 109.682C811.304 73.9249 939.841 151.918 1024.98 215.493" stroke="var(--stroke-0, #008836)" stroke-opacity="0.16" stroke-miterlimit="10"/>
<path id="Vector_22" d="M0.254973 222.744C72.3307 180.016 174.627 134.604 263.205 165.415C396.737 211.87 408.29 399.994 478.873 398.901C559.333 397.656 560.979 152.919 702.61 100.788C805.172 63.0371 937.079 142.511 1024.38 207.109" stroke="var(--stroke-0, #008836)" stroke-opacity="0.16" stroke-miterlimit="10"/>
</g>
</svg>
